<?xml version="1.0" encoding="UTF-8" standalone="no"?>
<!-- Created with Inkscape (http://www.inkscape.org/) -->

<svg
   xmlns:dc="http://purl.org/dc/elements/1.1/"
   xmlns:cc="http://creativecommons.org/ns#"
   xmlns:rdf="http://www.w3.org/1999/02/22-rdf-syntax-ns#"
   xmlns:svg="http://www.w3.org/2000/svg"
   xmlns="http://www.w3.org/2000/svg"
   xmlns:sodipodi="http://sodipodi.sourceforge.net/DTD/sodipodi-0.dtd"
   xmlns:inkscape="http://www.inkscape.org/namespaces/inkscape"
   version="1.1"
   width="290.21643"
   height="214.04608"
   id="svg3020"
   xml:space="preserve"
   inkscape:version="0.91 r13725"
   sodipodi:docname="academy-logo.svg"><sodipodi:namedview
     pagecolor="#ffffff"
     bordercolor="#666666"
     borderopacity="1"
     objecttolerance="10"
     gridtolerance="10"
     guidetolerance="10"
     inkscape:pageopacity="0"
     inkscape:pageshadow="2"
     inkscape:window-width="1280"
     inkscape:window-height="1000"
     id="namedview3719"
     showgrid="false"
     fit-margin-top="5"
     fit-margin-left="5"
     fit-margin-right="5"
     fit-margin-bottom="5"
     inkscape:zoom="0.63351553"
     inkscape:cx="-6.8386955"
     inkscape:cy="175.7"
     inkscape:window-x="0"
     inkscape:window-y="24"
     inkscape:window-maximized="1"
     inkscape:current-layer="svg3020" /><metadata
     id="metadata3026"><rdf:RDF><cc:Work
         rdf:about=""><dc:format>image/svg+xml</dc:format><dc:type
           rdf:resource="http://purl.org/dc/dcmitype/StillImage" /><dc:title></dc:title></cc:Work></rdf:RDF></metadata><defs
     id="defs3024"><clipPath
       id="clipPath3046"><path
         d="m 1785.01,2108.11 -611.42,175.72 c 0,-155.17 0,-345.38 0,-346.58 0.28,-58.17 270.32,-140.18 602.97,-138.56 323.05,1.56 586.27,81.41 600.94,139.28 l 0.02,346.64 -592.51,-176.5 z"
         id="path3048"
         inkscape:connector-curvature="0" /></clipPath><linearGradient
       x1="0"
       y1="0"
       x2="1"
       y2="0"
       id="linearGradient3050"
       gradientUnits="userSpaceOnUse"
       gradientTransform="matrix(120.393,0,0,-120.393,117.359,204.164)"
       spreadMethod="pad"><stop
         id="stop3052"
         style="stop-color:#2e2a2b;stop-opacity:1"
         offset="0" /><stop
         id="stop3054"
         style="stop-color:#5d5a5b;stop-opacity:1"
         offset="0.73742998" /><stop
         id="stop3056"
         style="stop-color:#5d5a5b;stop-opacity:1"
         offset="0.73742998" /><stop
         id="stop3058"
         style="stop-color:#231f20;stop-opacity:1"
         offset="0.944134" /><stop
         id="stop3060"
         style="stop-color:#231f20;stop-opacity:1"
         offset="1" /></linearGradient><clipPath
       id="clipPath3068"><path
         d="m 0,0 0,2731 3750,0 L 3750,0 0,0 Z"
         id="path3070"
         inkscape:connector-curvature="0" /></clipPath><clipPath
       id="clipPath3074"><path
         d="m 1781.98,2731.24 -973.906,-290.13 365.516,-105.04 611.17,-175.63 592.76,176.57 381.21,113.56 -976.75,280.67 z"
         id="path3076"
         inkscape:connector-curvature="0" /></clipPath><radialGradient
       cx="0"
       cy="0"
       r="1"
       fx="0"
       fy="0"
       id="radialGradient3078"
       gradientUnits="userSpaceOnUse"
       gradientTransform="matrix(71.8581,0,0,-71.8581,178.34,244.584)"
       spreadMethod="pad"><stop
         id="stop3080"
         style="stop-color:#5d5a5b;stop-opacity:1"
         offset="0" /><stop
         id="stop3082"
         style="stop-color:#2e2a2b;stop-opacity:1"
         offset="0.68715101" /><stop
         id="stop3084"
         style="stop-color:#231f20;stop-opacity:1"
         offset="1" /></radialGradient><clipPath
       id="clipPath3124"><path
         d="m 1785.01,2108.11 -611.42,175.72 c 0,-155.17 0,-345.38 0,-346.58 0.28,-58.17 270.32,-140.18 602.97,-138.56 323.05,1.56 586.27,81.41 600.94,139.28 l 0.02,346.64 -592.51,-176.5 z"
         id="path3126"
         inkscape:connector-curvature="0" /></clipPath><linearGradient
       x1="0"
       y1="0"
       x2="1"
       y2="0"
       id="linearGradient3128"
       gradientUnits="userSpaceOnUse"
       gradientTransform="matrix(120.393,0,0,-120.393,117.359,204.164)"
       spreadMethod="pad"><stop
         id="stop3130"
         style="stop-color:#2e2a2b;stop-opacity:1"
         offset="0" /><stop
         id="stop3132"
         style="stop-color:#5d5a5b;stop-opacity:1"
         offset="0.73742998" /><stop
         id="stop3134"
         style="stop-color:#5d5a5b;stop-opacity:1"
         offset="0.73742998" /><stop
         id="stop3136"
         style="stop-color:#231f20;stop-opacity:1"
         offset="0.944134" /><stop
         id="stop3138"
         style="stop-color:#231f20;stop-opacity:1"
         offset="1" /></linearGradient><clipPath
       id="clipPath3146"><path
         d="m 0,0 0,2731 3750,0 L 3750,0 0,0 Z"
         id="path3148"
         inkscape:connector-curvature="0" /></clipPath><clipPath
       id="clipPath3152"><path
         d="m 1781.98,2731.24 -973.906,-290.13 365.516,-105.04 611.17,-175.63 592.76,176.57 381.21,113.56 -976.75,280.67 z"
         id="path3154"
         inkscape:connector-curvature="0" /></clipPath><radialGradient
       cx="0"
       cy="0"
       r="1"
       fx="0"
       fy="0"
       id="radialGradient3156"
       gradientUnits="userSpaceOnUse"
       gradientTransform="matrix(71.8581,0,0,-71.8581,178.34,244.584)"
       spreadMethod="pad"><stop
         id="stop3158"
         style="stop-color:#5d5a5b;stop-opacity:1"
         offset="0" /><stop
         id="stop3160"
         style="stop-color:#2e2a2b;stop-opacity:1"
         offset="0.68715101" /><stop
         id="stop3162"
         style="stop-color:#231f20;stop-opacity:1"
         offset="1" /></radialGradient></defs><g
     transform="matrix(0.74714788,0,0,-0.74714788,5,209.04609)"
     id="g3028"
     style="opacity:0.4"><g
       transform="scale(0.1,0.1)"
       id="g3030"><path
         d="m 2028.79,270.699 c 12.54,47.852 55.72,86.09 107.11,86.09 51.4,0 91.89,-38.238 104.41,-86.09 l -211.52,0 z m 239.75,-10.738 c -8.23,68.43 -63.48,124.449 -133.62,124.449 -75.66,0 -137.26,-62.07 -137.26,-138.359 0,-76.25 61.6,-138.321 137.26,-138.321 42.85,0 83.69,20.508 109.51,54.961 l 0.67,1.02 c 3.79,5.93 2.56,13.859 -3.05,18.277 -5.82,4.571 -14.04,3.594 -18.75,-1.957 l 0,0.008 c -21,-28.43 -53.24,-44.687 -88.38,-44.687 -60.54,0 -109.82,46.91 -109.86,107.929 l 229.12,0 c 12.09,0 15.02,11.25 14.36,16.68"
         id="path3032"
         style="fill:#231f20;fill-opacity:1;fill-rule:nonzero;stroke:none"
         inkscape:connector-curvature="0" /><path
         d="m 1424.61,137.531 c -60,0 -108.83,49.18 -108.83,109.61 0,60.468 48.83,109.648 108.83,109.648 59.98,0 108.81,-49.18 108.81,-109.648 0,-60.43 -48.83,-109.61 -108.81,-109.61 m 138.3,-14.332 0,123.903 c 0.1,0 0.1,0 0.1,0.039 l 0,3.211 -0.1,0 c -1.72,75.386 -63.07,136.25 -138.3,136.25 -76.33,0 -138.38,-62.582 -138.38,-139.461 0,-76.871 62.05,-139.411 138.38,-139.411 44.24,0 83.65,23.79 109.04,56.411 l 0,-41.02 0.02,0 c 0.04,-8.09 6.56,-14.652 14.61,-14.652 8.05,0 14.59,6.562 14.63,14.652 l 0,0.078"
         id="path3034"
         style="fill:#231f20;fill-opacity:1;fill-rule:nonzero;stroke:none"
         inkscape:connector-curvature="0" /><path
         d="m 771.035,137.531 c -60,0 -108.828,49.18 -108.828,109.61 0,60.468 48.828,109.648 108.828,109.648 60,0 108.789,-49.18 108.789,-109.648 0,-60.43 -48.789,-109.61 -108.789,-109.61 m 138.281,-14.332 0,123.903 c 0.079,0.039 0.079,0.039 0.079,0.039 l 0,3.211 -0.079,0 c -1.738,75.386 -63.046,136.25 -138.281,136.25 -76.308,0 -138.418,-62.582 -138.418,-139.461 0,-76.871 62.11,-139.411 138.418,-139.411 44.219,0 83.613,23.79 109.043,56.411 l 0,-41.02 0.02,0 c 0.039,-8.09 6.562,-14.652 14.609,-14.652 8.047,0 14.59,6.562 14.609,14.652 l 0,0.078"
         id="path3036"
         style="fill:#231f20;fill-opacity:1;fill-rule:nonzero;stroke:none"
         inkscape:connector-curvature="0" /><path
         d="m 1115.31,103.32 c -77.52,0 -140.583,63.059 -140.583,140.578 0,77.524 63.063,140.59 140.583,140.59 38.83,0 76.29,-16.289 102.78,-44.668 5.86,-6.289 5.54,-16.148 -0.75,-22.031 -6.3,-5.84 -16.17,-5.527 -22.03,0.762 -20.93,22.418 -49.33,34.769 -80,34.769 -60.33,0 -109.41,-49.09 -109.41,-109.422 0,-60.328 49.08,-109.41 109.41,-109.41 30.35,0 59.61,12.774 80.3,35.063 5.85,6.301 15.72,6.66 22.03,0.84 6.31,-5.86 6.66,-15.731 0.82,-22.039 -26.55,-28.633 -64.16,-45.032 -103.15,-45.032"
         id="path3038"
         style="fill:#231f20;fill-opacity:1;fill-rule:nonzero;stroke:none"
         inkscape:connector-curvature="0" /><path
         d="m 1775.14,137.531 c -60,0 -108.81,49.18 -108.81,109.61 0,60.468 48.81,109.648 108.81,109.648 60,0 108.81,-49.18 108.81,-109.648 0,-60.43 -48.81,-109.61 -108.81,-109.61 z m 138.38,112.821 -0.07,0 0,262.546 c 0,8.34 -6.5,15.122 -14.51,15.122 -8.04,0 -14.52,-6.782 -14.52,-15.122 l 0,-180.628 c -25.31,32.968 -64.81,54.332 -109.28,54.332 -76.31,0 -138.38,-62.582 -138.38,-139.461 0,-76.871 62.07,-139.411 138.38,-139.411 44.22,0 83.63,23.79 109.06,56.411 l 0,-41.02 c 0.04,-8.09 6.56,-14.652 14.63,-14.652 8.03,0 14.59,6.562 14.61,14.652 l 0,59.918 c 0,0.031 0.01,0.063 0.01,0.102 l 0,63.968 c 0.01,0 0.07,0 0.07,0.032 l 0,3.211"
         id="path3040"
         style="fill:#231f20;fill-opacity:1;fill-rule:nonzero;stroke:none"
         inkscape:connector-curvature="0" /><g
         id="g3042"><g
           clip-path="url(#clipPath3046)"
           id="g3044"><path
             d="m 1785.01,2108.11 -611.42,175.72 c 0,-155.17 0,-345.38 0,-346.58 0.28,-58.17 270.32,-140.18 602.97,-138.56 323.05,1.56 586.27,81.41 600.94,139.28 l 0.02,346.64 -592.51,-176.5"
             id="path3062"
             style="fill:url(#linearGradient3050);fill-opacity:1;fill-rule:nonzero;stroke:none"
             inkscape:connector-curvature="0" /></g></g><g
         id="g3064"><g
           clip-path="url(#clipPath3068)"
           id="g3066"><g
             clip-path="url(#clipPath3074)"
             id="g3072"><path
               d="m 1782,2160 0,1 -3,0 0,1 -4,0 0,1 -3,0 0,1 -4,0 0,1 -3,0 0,1 -4,0 0,1 -3,0 0,1 -4,0 0,1 -3,0 0,1 -3,0 0,1 -4,0 0,1 -3,0 0,1 -4,0 0,1 -3,0 0,1 -4,0 0,1 -3,0 0,1 -4,0 0,1 -3,0 0,1 -4,0 0,1 -3,0 0,1 -4,0 0,1 -3,0 0,1 -4,0 0,1 -3,0 0,1 -4,0 0,1 -3,0 0,1 -4,0 0,1 -3,0 0,1 -4,0 0,1 -3,0 0,1 -4,0 0,1 -3,0 0,1 -4,0 0,1 -3,0 0,1 -3,0 0,1 -4,0 0,1 -3,0 0,1 -4,0 0,1 -3,0 0,1 -4,0 0,1 -3,0 0,1 -4,0 0,1 -3,0 0,1 -4,0 0,1 -3,0 0,1 -4,0 0,1 -3,0 0,1 -4,0 0,1 -3,0 0,1 -4,0 0,1 -3,0 0,1 -4,0 0,1 -3,0 0,1 -4,0 0,1 -3,0 0,1 -4,0 0,1 -3,0 0,1 -4,0 0,1 -3,0 0,1 -3,0 0,1 -4,0 0,1 -3,0 0,1 -4,0 0,1 -3,0 0,1 -4,0 0,1 -3,0 0,1 -4,0 0,1 -3,0 0,1 -4,0 0,1 -3,0 0,1 -4,0 0,1 -3,0 0,1 -4,0 0,1 -3,0 0,1 -4,0 0,1 -3,0 0,1 -4,0 0,1 -3,0 0,1 -4,0 0,1 -3,0 0,1 -4,0 0,1 -3,0 0,1 -3,0 0,1 -4,0 0,1 -3,0 0,1 -4,0 0,1 -3,0 0,1 -4,0 0,1 -3,0 0,1 -4,0 0,1 -3,0 0,1 -4,0 0,1 -3,0 0,1 -4,0 0,1 -3,0 0,1 -4,0 0,1 -3,0 0,1 -4,0 0,1 -3,0 0,1 -4,0 0,1 -3,0 0,1 -4,0 0,1 -3,0 0,1 -4,0 0,1 -3,0 0,1 -4,0 0,1 -3,0 0,1 -3,0 0,1 -4,0 0,1 -3,0 0,1 -4,0 0,1 -3,0 0,1 -4,0 0,1 -3,0 0,1 -4,0 0,1 -3,0 0,1 -4,0 0,1 -3,0 0,1 -4,0 0,1 -3,0 0,1 -4,0 0,1 -3,0 0,1 -4,0 0,1 -3,0 0,1 -4,0 0,1 -3,0 0,1 -4,0 0,1 -3,0 0,1 -4,0 0,1 -3,0 0,1 -4,0 0,1 -3,0 0,1 -3,0 0,1 -4,0 0,1 -3,0 0,1 -4,0 0,1 -3,0 0,1 -4,0 0,1 -3,0 0,1 -4,0 0,1 -3,0 0,1 -4,0 0,1 -3,0 0,1 -4,0 0,1 -3,0 0,1 -4,0 0,1 -3,0 0,1 -4,0 0,1 -3,0 0,1 -4,0 0,1 -3,0 0,1 -4,0 0,1 -3,0 0,1 -4,0 0,1 -3,0 0,1 -4,0 0,1 -3,0 0,1 -3,0 0,1 -4,0 0,1 -3,0 0,1 -4,0 0,1 -3,0 0,1 -4,0 0,1 -3,0 0,1 -4,0 0,1 -3,0 0,1 -4,0 0,1 -3,0 0,1 -4,0 0,1 -3,0 0,1 -4,0 0,1 -3,0 0,1 -4,0 0,1 -3,0 0,1 -4,0 0,1 -3,0 0,1 -4,0 0,1 -3,0 0,1 -4,0 0,1 -3,0 0,1 -4,0 0,1 -3,0 0,1 -3,0 0,1 -4,0 0,1 -3,0 0,1 -4,0 0,1 -3,0 0,1 -4,0 0,1 -3,0 0,1 -4,0 0,1 -3,0 0,1 -4,0 0,1 -3,0 0,1 -4,0 0,1 -3,0 0,1 -4,0 0,1 -3,0 0,1 -4,0 0,1 -3,0 0,1 -4,0 0,1 -3,0 0,1 -4,0 0,1 -3,0 0,1 -4,0 0,1 -3,0 0,1 -4,0 0,1 -3,0 0,1 -3,0 0,1 -4,0 0,1 -3,0 0,1 -4,0 0,1 -3,0 0,1 -4,0 0,1 -3,0 0,1 -4,0 0,1 -3,0 0,1 -4,0 0,1 -3,0 0,1 -4,0 0,1 -3,0 0,1 -4,0 0,1 -3,0 0,1 -4,0 0,1 -3,0 0,1 -4,0 0,1 -3,0 0,1 -4,0 0,1 -3,0 0,1 -4,0 0,1 -3,0 0,1 -4,0 0,1 -3,0 0,1 -3,0 0,1 -4,0 0,1 -3,0 0,1 -4,0 0,1 -3,0 0,1 -4,0 0,1 -3,0 0,1 -4,0 0,1 -3,0 0,1 -4,0 0,1 -3,0 0,1 -4,0 0,1 -3,0 0,1 -4,0 0,1 -3,0 0,1 -4,0 0,1 -3,0 0,1 -4,0 0,1 -3,0 0,1 -4,0 0,1 -3,0 0,1 -4,0 0,1 -3,0 0,1 -3,0 0,1 -4,0 0,1 -3,0 0,1 -4,0 0,1 -3,0 0,1 -4,0 0,1 -3,0 0,1 -4,0 0,1 -3,0 0,1 -4,0 0,1 -3,0 0,1 -4,0 0,1 -3,0 0,1 -4,0 0,1 -3,0 0,1 -4,0 0,1 -3,0 0,1 -4,0 0,1 -3,0 0,1 -4,0 0,1 -3,0 0,1 -4,0 0,1 -3,0 0,1 -4,0 0,1 -3,0 0,2 3,0 0,1 3,0 0,1 3,0 0,1 4,0 0,1 3,0 0,1 3,0 0,1 4,0 0,1 3,0 0,1 3,0 0,1 4,0 0,1 3,0 0,1 3,0 0,1 4,0 0,1 3,0 0,1 4,0 0,1 3,0 0,1 3,0 0,1 4,0 0,1 3,0 0,1 3,0 0,1 4,0 0,1 3,0 0,1 3,0 0,1 4,0 0,1 3,0 0,1 3,0 0,1 4,0 0,1 3,0 0,1 4,0 0,1 3,0 0,1 3,0 0,1 4,0 0,1 3,0 0,1 3,0 0,1 4,0 0,1 3,0 0,1 3,0 0,1 4,0 0,1 3,0 0,1 3,0 0,1 4,0 0,1 3,0 0,1 4,0 0,1 3,0 0,1 3,0 0,1 4,0 0,1 3,0 0,1 3,0 0,1 4,0 0,1 3,0 0,1 3,0 0,1 4,0 0,1 3,0 0,1 3,0 0,1 4,0 0,1 3,0 0,1 4,0 0,1 3,0 0,1 3,0 0,1 4,0 0,1 3,0 0,1 3,0 0,1 4,0 0,1 3,0 0,1 3,0 0,1 4,0 0,1 3,0 0,1 3,0 0,1 4,0 0,1 3,0 0,1 4,0 0,1 3,0 0,1 3,0 0,1 4,0 0,1 3,0 0,1 3,0 0,1 4,0 0,1 3,0 0,1 3,0 0,1 4,0 0,1 3,0 0,1 3,0 0,1 4,0 0,1 3,0 0,1 4,0 0,1 3,0 0,1 3,0 0,1 4,0 0,1 3,0 0,1 3,0 0,1 4,0 0,1 3,0 0,1 3,0 0,1 4,0 0,1 3,0 0,1 3,0 0,1 4,0 0,1 3,0 0,1 4,0 0,1 3,0 0,1 3,0 0,1 4,0 0,1 3,0 0,1 3,0 0,1 4,0 0,1 3,0 0,1 3,0 0,1 4,0 0,1 3,0 0,1 3,0 0,1 4,0 0,1 3,0 0,1 4,0 0,1 3,0 0,1 3,0 0,1 4,0 0,1 3,0 0,1 3,0 0,1 4,0 0,1 3,0 0,1 3,0 0,1 4,0 0,1 3,0 0,1 3,0 0,1 4,0 0,1 3,0 0,1 4,0 0,1 3,0 0,1 3,0 0,1 4,0 0,1 3,0 0,1 3,0 0,1 4,0 0,1 3,0 0,1 3,0 0,1 4,0 0,1 3,0 0,1 3,0 0,1 4,0 0,1 3,0 0,1 4,0 0,1 3,0 0,1 3,0 0,1 4,0 0,1 3,0 0,1 3,0 0,1 4,0 0,1 3,0 0,1 3,0 0,1 4,0 0,1 3,0 0,1 3,0 0,1 4,0 0,1 3,0 0,1 4,0 0,1 3,0 0,1 3,0 0,1 4,0 0,1 3,0 0,1 3,0 0,1 4,0 0,1 3,0 0,1 3,0 0,1 4,0 0,1 3,0 0,1 3,0 0,1 4,0 0,1 3,0 0,1 4,0 0,1 3,0 0,1 3,0 0,1 4,0 0,1 3,0 0,1 3,0 0,1 4,0 0,1 3,0 0,1 3,0 0,1 4,0 0,1 3,0 0,1 3,0 0,1 4,0 0,1 3,0 0,1 4,0 0,1 3,0 0,1 3,0 0,1 4,0 0,1 3,0 0,1 3,0 0,1 4,0 0,1 3,0 0,1 3,0 0,1 4,0 0,1 3,0 0,1 3,0 0,1 4,0 0,1 3,0 0,1 3,0 0,1 4,0 0,1 3,0 0,1 4,0 0,1 3,0 0,1 3,0 0,1 4,0 0,1 3,0 0,1 3,0 0,1 4,0 0,1 3,0 0,1 3,0 0,1 4,0 0,1 3,0 0,1 3,0 0,1 4,0 0,1 3,0 0,1 4,0 0,1 3,0 0,1 3,0 0,1 4,0 0,1 3,0 0,1 3,0 0,1 4,0 0,1 3,0 0,1 3,0 0,1 4,0 0,1 3,0 0,1 3,0 0,1 4,0 0,1 3,0 0,1 4,0 0,1 3,0 0,1 3,0 0,1 4,0 0,1 3,0 0,1 3,0 0,1 4,0 0,1 3,0 0,1 3,0 0,1 4,0 0,1 3,0 0,1 3,0 0,1 4,0 0,1 3,0 0,1 4,0 0,1 3,0 0,1 3,0 0,1 4,0 0,1 3,0 0,1 3,0 0,1 4,0 0,1 3,0 0,1 3,0 0,1 4,0 0,1 3,0 0,1 3,0 0,1 4,0 0,1 3,0 0,1 4,0 0,1 3,0 0,1 3,0 0,1 4,0 0,1 3,0 0,1 3,0 0,1 4,0 0,1 3,0 0,1 3,0 0,1 4,0 0,1 3,0 0,1 3,0 0,1 4,0 0,1 3,0 0,1 4,0 0,1 3,0 0,1 3,0 0,1 4,0 0,1 3,0 0,1 3,0 0,1 4,0 0,1 3,0 0,1 3,0 0,1 4,0 0,1 3,0 0,1 3,0 0,1 4,0 0,1 3,0 0,1 4,0 0,1 3,0 0,1 3,0 0,1 4,0 0,1 3,0 0,1 3,0 0,1 10,0 0,-1 3,0 0,-1 4,0 0,-1 3,0 0,-1 4,0 0,-1 3,0 0,-1 4,0 0,-1 3,0 0,-1 4,0 0,-1 3,0 0,-1 4,0 0,-1 3,0 0,-1 4,0 0,-1 3,0 0,-1 4,0 0,-1 3,0 0,-1 3,0 0,-1 4,0 0,-1 3,0 0,-1 4,0 0,-1 3,0 0,-1 4,0 0,-1 3,0 0,-1 4,0 0,-1 3,0 0,-1 4,0 0,-1 3,0 0,-1 4,0 0,-1 3,0 0,-1 4,0 0,-1 3,0 0,-1 4,0 0,-1 3,0 0,-1 4,0 0,-1 3,0 0,-1 4,0 0,-1 3,0 0,-1 4,0 0,-1 3,0 0,-1 4,0 0,-1 3,0 0,-1 3,0 0,-1 4,0 0,-1 3,0 0,-1 4,0 0,-1 3,0 0,-1 4,0 0,-1 3,0 0,-1 4,0 0,-1 3,0 0,-1 4,0 0,-1 3,0 0,-1 4,0 0,-1 3,0 0,-1 4,0 0,-1 3,0 0,-1 4,0 0,-1 3,0 0,-1 4,0 0,-1 3,0 0,-1 4,0 0,-1 3,0 0,-1 4,0 0,-1 3,0 0,-1 4,0 0,-1 3,0 0,-1 3,0 0,-1 4,0 0,-1 3,0 0,-1 4,0 0,-1 3,0 0,-1 4,0 0,-1 3,0 0,-1 4,0 0,-1 3,0 0,-1 4,0 0,-1 3,0 0,-1 4,0 0,-1 3,0 0,-1 4,0 0,-1 3,0 0,-1 4,0 0,-1 3,0 0,-1 4,0 0,-1 3,0 0,-1 4,0 0,-1 3,0 0,-1 4,0 0,-1 3,0 0,-1 4,0 0,-1 3,0 0,-1 3,0 0,-1 4,0 0,-1 3,0 0,-1 4,0 0,-1 3,0 0,-1 4,0 0,-1 3,0 0,-1 4,0 0,-1 3,0 0,-1 4,0 0,-1 3,0 0,-1 4,0 0,-1 3,0 0,-1 4,0 0,-1 3,0 0,-1 4,0 0,-1 3,0 0,-1 4,0 0,-1 3,0 0,-1 4,0 0,-1 3,0 0,-1 4,0 0,-1 3,0 0,-1 4,0 0,-1 3,0 0,-1 3,0 0,-1 4,0 0,-1 3,0 0,-1 4,0 0,-1 3,0 0,-1 4,0 0,-1 3,0 0,-1 4,0 0,-1 3,0 0,-1 4,0 0,-1 3,0 0,-1 4,0 0,-1 3,0 0,-1 4,0 0,-1 3,0 0,-1 4,0 0,-1 3,0 0,-1 4,0 0,-1 3,0 0,-1 4,0 0,-1 3,0 0,-1 4,0 0,-1 3,0 0,-1 4,0 0,-1 3,0 0,-1 3,0 0,-1 4,0 0,-1 3,0 0,-1 4,0 0,-1 3,0 0,-1 4,0 0,-1 3,0 0,-1 4,0 0,-1 3,0 0,-1 4,0 0,-1 3,0 0,-1 4,0 0,-1 3,0 0,-1 4,0 0,-1 3,0 0,-1 4,0 0,-1 3,0 0,-1 4,0 0,-1 3,0 0,-1 4,0 0,-1 3,0 0,-1 4,0 0,-1 3,0 0,-1 4,0 0,-1 3,0 0,-1 3,0 0,-1 4,0 0,-1 3,0 0,-1 4,0 0,-1 3,0 0,-1 4,0 0,-1 3,0 0,-1 4,0 0,-1 3,0 0,-1 4,0 0,-1 3,0 0,-1 4,0 0,-1 3,0 0,-1 4,0 0,-1 3,0 0,-1 4,0 0,-1 3,0 0,-1 4,0 0,-1 3,0 0,-1 4,0 0,-1 3,0 0,-1 4,0 0,-1 3,0 0,-1 4,0 0,-1 3,0 0,-1 3,0 0,-1 4,0 0,-1 3,0 0,-1 4,0 0,-1 3,0 0,-1 4,0 0,-1 3,0 0,-1 4,0 0,-1 3,0 0,-1 4,0 0,-1 3,0 0,-1 4,0 0,-1 3,0 0,-1 4,0 0,-1 3,0 0,-1 4,0 0,-1 3,0 0,-1 4,0 0,-1 3,0 0,-1 4,0 0,-1 3,0 0,-1 4,0 0,-1 3,0 0,-1 4,0 0,-1 3,0 0,-1 3,0 0,-1 4,0 0,-1 3,0 0,-1 4,0 0,-1 3,0 0,-1 4,0 0,-1 3,0 0,-1 4,0 0,-1 3,0 0,-1 4,0 0,-1 3,0 0,-1 4,0 0,-1 3,0 0,-1 4,0 0,-1 3,0 0,-1 4,0 0,-1 3,0 0,-1 4,0 0,-1 3,0 0,-1 4,0 0,-1 3,0 0,-1 4,0 0,-1 3,0 0,-1 4,0 0,-1 3,0 0,-1 3,0 0,-1 4,0 0,-1 3,0 0,-1 4,0 0,-1 3,0 0,-1 4,0 0,-1 3,0 0,-1 4,0 0,-1 3,0 0,-1 4,0 0,-1 3,0 0,-1 4,0 0,-1 3,0 0,-1 4,0 0,-1 3,0 0,-1 4,0 0,-1 3,0 0,-1 4,0 0,-1 3,0 0,-1 4,0 0,-1 3,0 0,-1 4,0 0,-1 3,0 0,-1 4,0 0,-1 3,0 0,-1 3,0 0,-1 4,0 0,-1 3,0 0,-1 4,0 0,-1 3,0 0,-1 4,0 0,-1 3,0 0,-1 4,0 0,-1 3,0 0,-1 4,0 0,-1 3,0 0,-1 4,0 0,-1 3,0 0,-1 4,0 0,-1 1,0 0,-1 -2,0 0,-1 -3,0 0,-1 -3,0 0,-1 -4,0 0,-1 -3,0 0,-1 -3,0 0,-1 -4,0 0,-1 -3,0 0,-1 -4,0 0,-1 -3,0 0,-1 -3,0 0,-1 -4,0 0,-1 -3,0 0,-1 -3,0 0,-1 -4,0 0,-1 -3,0 0,-1 -3,0 0,-1 -4,0 0,-1 -3,0 0,-1 -3,0 0,-1 -4,0 0,-1 -3,0 0,-1 -4,0 0,-1 -3,0 0,-1 -3,0 0,-1 -4,0 0,-1 -3,0 0,-1 -3,0 0,-1 -4,0 0,-1 -3,0 0,-1 -3,0 0,-1 -4,0 0,-1 -3,0 0,-1 -3,0 0,-1 -4,0 0,-1 -3,0 0,-1 -4,0 0,-1 -3,0 0,-1 -3,0 0,-1 -4,0 0,-1 -3,0 0,-1 -3,0 0,-1 -4,0 0,-1 -3,0 0,-1 -3,0 0,-1 -4,0 0,-1 -3,0 0,-1 -3,0 0,-1 -4,0 0,-1 -3,0 0,-1 -4,0 0,-1 -3,0 0,-1 -3,0 0,-1 -4,0 0,-1 -3,0 0,-1 -3,0 0,-1 -4,0 0,-1 -3,0 0,-1 -3,0 0,-1 -4,0 0,-1 -3,0 0,-1 -3,0 0,-1 -4,0 0,-1 -3,0 0,-1 -4,0 0,-1 -3,0 0,-1 -3,0 0,-1 -4,0 0,-1 -3,0 0,-1 -3,0 0,-1 -4,0 0,-1 -3,0 0,-1 -3,0 0,-1 -4,0 0,-1 -3,0 0,-1 -3,0 0,-1 -4,0 0,-1 -3,0 0,-1 -4,0 0,-1 -3,0 0,-1 -3,0 0,-1 -4,0 0,-1 -3,0 0,-1 -3,0 0,-1 -4,0 0,-1 -3,0 0,-1 -3,0 0,-1 -4,0 0,-1 -3,0 0,-1 -3,0 0,-1 -4,0 0,-1 -3,0 0,-1 -4,0 0,-1 -3,0 0,-1 -3,0 0,-1 -4,0 0,-1 -3,0 0,-1 -3,0 0,-1 -4,0 0,-1 -3,0 0,-1 -3,0 0,-1 -4,0 0,-1 -3,0 0,-1 -3,0 0,-1 -4,0 0,-1 -3,0 0,-1 -4,0 0,-1 -3,0 0,-1 -3,0 0,-1 -4,0 0,-1 -3,0 0,-1 -3,0 0,-1 -4,0 0,-1 -3,0 0,-1 -3,0 0,-1 -4,0 0,-1 -3,0 0,-1 -3,0 0,-1 -4,0 0,-1 -3,0 0,-1 -4,0 0,-1 -3,0 0,-1 -3,0 0,-1 -4,0 0,-1 -3,0 0,-1 -3,0 0,-1 -4,0 0,-1 -3,0 0,-1 -3,0 0,-1 -4,0 0,-1 -3,0 0,-1 -3,0 0,-1 -4,0 0,-1 -3,0 0,-1 -4,0 0,-1 -3,0 0,-1 -3,0 0,-1 -4,0 0,-1 -3,0 0,-1 -3,0 0,-1 -4,0 0,-1 -3,0 0,-1 -3,0 0,-1 -4,0 0,-1 -3,0 0,-1 -3,0 0,-1 -4,0 0,-1 -3,0 0,-1 -4,0 0,-1 -3,0 0,-1 -3,0 0,-1 -4,0 0,-1 -3,0 0,-1 -3,0 0,-1 -4,0 0,-1 -3,0 0,-1 -3,0 0,-1 -4,0 0,-1 -3,0 0,-1 -3,0 0,-1 -4,0 0,-1 -3,0 0,-1 -4,0 0,-1 -3,0 0,-1 -3,0 0,-1 -4,0 0,-1 -3,0 0,-1 -3,0 0,-1 -4,0 0,-1 -3,0 0,-1 -3,0 0,-1 -4,0 0,-1 -3,0 0,-1 -3,0 0,-1 -4,0 0,-1 -3,0 0,-1 -4,0 0,-1 -3,0 0,-1 -3,0 0,-1 -4,0 0,-1 -3,0 0,-1 -3,0 0,-1 -4,0 0,-1 -3,0 0,-1 -3,0 0,-1 -4,0 0,-1 -3,0 0,-1 -3,0 0,-1 -4,0 0,-1 -3,0 0,-1 -4,0 0,-1 -3,0 0,-1 -3,0 0,-1 -4,0 0,-1 -3,0 0,-1 -3,0 0,-1 -4,0 0,-1 -3,0 0,-1 -3,0 0,-1 -4,0 0,-1 -3,0 0,-1 -3,0 0,-1 -4,0 0,-1 -3,0 0,-1 -4,0 0,-1 -3,0 0,-1 -3,0 0,-1 -4,0 0,-1 -3,0 0,-1 -3,0 0,-1 -4,0 0,-1 -3,0 0,-1 -3,0 0,-1 -4,0 0,-1 -3,0 0,-1 -3,0 0,-1 -4,0 0,-1 -3,0 0,-1 -4,0 0,-1 -3,0 0,-1 -3,0 0,-1 -4,0 0,-1 -3,0 0,-1 -3,0 0,-1 -4,0 0,-1 -3,0 0,-1 -3,0 0,-1 -4,0 0,-1 -3,0 0,-1 -3,0 0,-1 -4,0 0,-1 -3,0 0,-1 -4,0 0,-1 -3,0 0,-1 -3,0 0,-1 -4,0 0,-1 -3,0 0,-1 -3,0 0,-1 -4,0 0,-1 -3,0 0,-1 -3,0 0,-1 -4,0 0,-1 -3,0 0,-1 -3,0 0,-1 -4,0 0,-1 -3,0 0,-1 -4,0 0,-1 -3,0 0,-1 -3,0 0,-1 -4,0 0,-1 -3,0 0,-1 -3,0 0,-1 -4,0 0,-1 -3,0 0,-1 -3,0 0,-1 -4,0 0,-1 -3,0 0,-1 -3,0 0,-1 -4,0 0,-1 -3,0 0,-1 -4,0 0,-1 -3,0 0,-1 -3,0 0,-1 -4,0 0,-1 -3,0 0,-1 -3,0 0,-1 -4,0 0,-1 -3,0 0,-1 -3,0 0,-1 -4,0 0,-1 -3,0 0,-1 -3,0 0,-1 -4,0 0,-1 -3,0 0,-1 -4,0 0,-1 -3,0 0,-1 -3,0 0,-1 -4,0 0,-1 -3,0 0,-1 -3,0 0,-1 -4,0 0,-1 -3,0 0,-1 -3,0 0,-1 -4,0 0,-1 -3,0 0,-1 -3,0 0,-1 -4,0 0,-1 -3,0 0,-1 -4,0 0,-1 -3,0 0,-1"
               id="path3086"
               style="fill:url(#radialGradient3078);fill-opacity:1;fill-rule:nonzero;stroke:none"
               inkscape:connector-curvature="0" /></g></g></g><path
         d="m 1791.29,2451.75 725.51,-53.72 c 0,0 -3.02,-94.76 4.59,-182.13 5.34,-61.38 13.08,-98.56 25.56,-144.36"
         id="path3088"
         style="fill:none;stroke:#258cd4;stroke-width:42.5196991;stroke-linecap:butt;stroke-linejoin:round;stroke-miterlimit:10;stroke-dasharray:none;stroke-opacity:1"
         inkscape:connector-curvature="0" /><path
         d="m 2539.05,2102.52 c -28.16,-8.14 -27.15,-60.72 -15.56,-122.98 11.85,-63.73 46.28,-171.41 55.73,-197.88 9.46,-26.48 19.84,-62.2 19.84,-62.2 l 29.37,11.04 3,1.59 -13.08,43.08 25.33,-38.21 c 0,0 20.69,1.11 39.82,13.39 17.41,11.17 37.82,29.87 37.82,29.87 0,0 -41.19,57.12 -55.99,106.27 -14.4,47.85 -25.74,80.71 -54.41,141.21 -16.47,34.77 -47.1,81.98 -71.87,74.82"
         id="path3090"
         style="fill:#258cd4;fill-opacity:1;fill-rule:nonzero;stroke:none"
         inkscape:connector-curvature="0" /><path
         d="m 3224.84,1184.98 c -114.02,0 -206.79,-93.48 -206.79,-208.378 0,-114.93 92.77,-208.383 206.79,-208.383 114.03,0 206.8,93.453 206.8,208.383 0,114.898 -92.77,208.378 -206.8,208.378 m 0,-468.699 c -142.46,0 -258.36,116.778 -258.36,260.321 0,143.528 115.9,260.308 258.36,260.308 142.46,0 258.36,-116.78 258.36,-260.308 0,-143.543 -115.9,-260.321 -258.36,-260.321"
         id="path3092"
         style="fill:#231f20;fill-opacity:1;fill-rule:nonzero;stroke:none"
         inkscape:connector-curvature="0" /><path
         d="m 233.281,1245.42 c -76.64,0 -141.8748,-36.93 -178.2224,-94.62 l 0,340.8 c 0,15.31 -12.3438,27.74 -27.5195,27.74 C 12.3047,1519.34 0,1506.91 0,1491.6 L 0,742.379 c 0,-15.309 12.3047,-27.738 27.5391,-27.738 15.1757,0 27.5195,12.429 27.5195,27.738 l 0,268.791 c 0.1172,107.59 67.7144,182.26 172.3244,182.26 87.988,0 134.512,-53.04 134.512,-153.36 l 0,-295.519 0.019,0 c 0,-15.321 12.324,-27.742 27.52,-27.742 15.214,0 27.539,12.421 27.539,27.742 l 0,303.859 c 0.058,119.69 -72.051,197.01 -183.692,197.01"
         id="path3094"
         style="fill:#231f20;fill-opacity:1;fill-rule:nonzero;stroke:none"
         inkscape:connector-curvature="0" /><path
         d="m 1833.36,803.449 c -10.65,8.321 -25.82,6.539 -34.4,-3.789 l -0.07,-0.058 c -16.37,-17.551 -31.84,-34.161 -73.32,-34.161 -25.82,0 -60.24,9.629 -60.24,92.778 l 0,319.781 139.1,0 0,0.06 c 13.79,0.29 24.87,11.6 24.87,25.55 0,14.16 -11.39,25.64 -25.41,25.64 -0.2,0 -0.41,-0.06 -0.61,-0.06 l -138.08,0.04 0,262 c 0.01,0.14 0.03,0.25 0.03,0.39 0,0.12 -0.02,0.24 -0.03,0.35 l 0,1.23 -0.12,0 c -0.82,14.55 -12.72,26.14 -27.37,26.14 -14.68,0 -26.62,-11.64 -27.38,-26.27 l -0.15,0 0,-263.82 -80.02,0 c -14.09,-0.02 -25.45,-11.48 -25.45,-25.64 0,-14.14 11.36,-25.59 25.45,-25.61 l 80.02,0 0,-320.969 c 0,-90.472 42.07,-142.39 115.39,-142.39 58.2,0 87.03,24.16 109.59,50.281 l 2.79,3.258 c -0.16,-0.239 -0.22,-0.27 0.08,0.082 1.68,2.476 13.36,21.109 -4.67,35.187"
         id="path3096"
         style="fill:#231f20;fill-opacity:1;fill-rule:nonzero;stroke:none"
         inkscape:connector-curvature="0" /><path
         d="m 1946.05,1018.2 c 23.56,90.08 104.89,162.03 201.61,162.03 96.72,0 172.89,-71.95 196.44,-162.03 l -398.05,0 z M 2397.23,998 c -15.43,128.81 -119.46,234.16 -251.41,234.16 -142.42,0 -258.32,-116.77 -258.32,-260.328 0,-143.512 115.9,-260.293 258.32,-260.293 80.59,0 157.42,38.609 206.06,103.359 0.03,0.024 0.03,0.063 0.07,0.082 0.39,0.579 0.9,1.129 1.29,1.692 l -0.15,0.137 c 7.14,11.191 4.88,26.152 -5.75,34.472 -10.89,8.539 -26.44,6.758 -35.27,-3.73 l -0.16,0.097 c -39.49,-53.476 -100,-84.199 -166.09,-84.199 -113.98,0 -206.72,88.281 -206.8,203.153 l 431.18,0 c 22.73,0 28.24,21.148 27.03,31.398"
         id="path3098"
         style="fill:#231f20;fill-opacity:1;fill-rule:nonzero;stroke:none"
         inkscape:connector-curvature="0" /><path
         d="m 2943.55,757.711 -215.74,217.398 215.74,217.381 0,0.02 c 10.43,10.55 10.43,27.62 -0.03,38.19 -10.47,10.54 -27.39,10.56 -37.86,0.02 l -0.03,0.02 -215.79,-217.39 -215.39,217.04 -0.23,0.17 0,0.02 -0.16,0.16 0,-0.02 c -10.47,10.39 -27.3,10.35 -37.73,-0.14 -10.43,-10.51 -10.43,-27.46 -0.12,-38.03 l -0.08,-0.07 215.75,-217.39 -215.4,-217.008 -0.35,-0.371 0.04,-0.039 c -10.43,-10.551 -10.43,-27.621 0.04,-38.121 10.43,-10.551 27.38,-10.551 37.85,-0.063 l 0,-0.019 215.78,217.383 215.43,-217.032 0.36,-0.351 0.07,0.062 c 10.47,-10.371 27.27,-10.359 37.66,0.149 10.43,10.492 10.47,27.441 0.19,37.992 l 0,0.039"
         id="path3100"
         style="fill:#231f20;fill-opacity:1;fill-rule:nonzero;stroke:none"
         inkscape:connector-curvature="0" /><path
         d="m 766.523,770.699 c -112.91,0 -204.785,92.539 -204.785,206.289 0,113.792 91.875,206.342 204.785,206.342 112.911,0 204.747,-92.55 204.747,-206.342 0,-113.75 -91.836,-206.289 -204.747,-206.289 m 260.257,-26.961 0,233.153 c 0.15,0.039 0.15,0.058 0.15,0.097 l 0,6.051 -0.15,0 c -3.24,141.881 -118.675,256.351 -260.257,256.351 -143.574,0 -260.41,-117.73 -260.41,-262.402 0,-144.668 116.836,-262.367 260.41,-262.367 83.223,0 157.403,44.77 205.215,106.199 l 0,-77.191 0.02,0 c 0.058,-15.258 12.363,-27.598 27.519,-27.598 15.153,0 27.463,12.34 27.503,27.598 l 0,0.109"
         id="path3102"
         style="fill:#231f20;fill-opacity:1;fill-rule:nonzero;stroke:none"
         inkscape:connector-curvature="0" /><path
         d="m 1308.13,1007.4 c -92.09,30.93 -118.64,47.91 -117.08,100.7 1.29,42.7 37.41,70.27 92,70.27 l 116.17,0 c 13.91,0.14 25.16,12.23 25.16,26.29 0,14.08 -11.25,25.45 -25.16,25.61 l 0,0.04 c 0,0 -115.08,-0.04 -116.99,-0.04 -39.55,0 -75.94,-12.44 -102.58,-35.02 -26.51,-22.52 -41.68,-53.71 -42.7,-87.85 -2.75,-91.92 68.32,-122.74 147.78,-148.599 86.62,-30.039 128.16,-47.242 126.29,-109.313 -1.61,-52.597 -47.99,-86 -117.54,-83.847 -66.68,2.031 -112.54,30.531 -140.28,87.089 l 0.35,-0.699 c -4.6,8.899 -14.19,15.617 -24.84,15.617 -15.21,0 -27.54,-12.378 -27.54,-27.687 0,-4.012 0.96,-7.699 2.5,-11.102 l -0.1,-0.039 8.27,-14.41 0.02,0.168 c 35.62,-61.906 100.41,-98.609 180.05,-101.027 2.89,-0.121 5.82,-0.16 8.72,-0.16 l 0.03,0 c 48.64,0 90,12.699 119.61,36.621 29.61,24.027 45.94,58.25 47.19,98.949 2.89,96.23 -77.15,131.019 -159.33,158.439"
         id="path3104"
         style="fill:#231f20;fill-opacity:1;fill-rule:nonzero;stroke:none"
         inkscape:connector-curvature="0" /><path
         d="m 2766.05,151.059 0,122.082 c 0,62.531 -50.85,113.41 -113.39,113.41 -40.5,0 -78.28,-21.91 -99.12,-57.321 -20.32,35.411 -57.9,57.321 -98.62,57.321 -32.3,0 -62.65,-13.563 -83.8,-37.313 l 0,23.063 c 0,8.121 -6.36,14.25 -14.79,14.25 -7.73,0 -14.25,-6.531 -14.25,-14.25 l 0,-248.262 c 0,-8.34 6.49,-15.129 14.51,-15.129 8.04,0 14.51,6.789 14.51,15.129 l 0,149.102 c 0,46.519 37.61,84.359 83.82,84.359 46.21,0 83.8,-37.84 83.8,-84.359 l 0,-90.879 -0.01,-58.223 c 0,-8.34 7.08,-15.129 15.09,-15.129 8.05,0 14.39,6.789 14.39,15.129 l 0,149.102 c 0,46.519 38.29,84.359 84.47,84.359 46.17,0 83.24,-37.07 84.38,-84.359 l 0,-122.082 -0.01,-27.02 c 0,-8.34 6.5,-15.129 14.51,-15.129 8.04,0 14.51,6.789 14.51,15.129 l 0,27.02"
         id="path3106"
         style="fill:#231f20;fill-opacity:1;fill-rule:nonzero;stroke:none"
         inkscape:connector-curvature="0" /><path
         d="m 3063.89,368.512 c 0,8.34 -6.5,15.129 -14.51,15.129 -8.04,0 -14.52,-6.789 -14.52,-15.129 l -0.01,-147.813 c -0.53,-46.687 -37.34,-83.25 -83.78,-83.25 -45.59,0 -83.08,37.332 -83.08,83.231 l 0,147.84 c 0,8.339 -6.5,15.128 -14.51,15.128 -8.04,0 -14.52,-6.789 -14.52,-15.128 l 0,-147.84 c 0,-61.848 50.29,-112.641 112.11,-113.211 31.41,0 61.76,13.492 83.78,37.14 l 0,-14.589 c -0.53,-55.4614 -46.39,-100.5786 -102.23,-100.5786 -14.96,0 -30.67,3.7188 -44.48,10.5781 -1.71,0.4219 -3.43,0.6524 -5.11,0.6524 -6.15,0 -11.25,-2.461 -13.79,-7.5235 -3.58,-6.5586 -0.82,-15.6289 6.29,-20.1367 C 2894.59,4.37891 2913.8,0 2932.62,0 c 72.59,0 131.27,58.3203 131.27,130.012 l 0,238.5"
         id="path3108"
         style="fill:#231f20;fill-opacity:1;fill-rule:nonzero;stroke:none"
         inkscape:connector-curvature="0" /><path
         d="m 2028.79,270.699 c 12.54,47.852 55.72,86.09 107.11,86.09 51.4,0 91.89,-38.238 104.41,-86.09 l -211.52,0 z m 239.75,-10.738 c -8.23,68.43 -63.48,124.449 -133.62,124.449 -75.66,0 -137.26,-62.07 -137.26,-138.359 0,-76.25 61.6,-138.321 137.26,-138.321 42.85,0 83.69,20.508 109.51,54.961 l 0.67,1.02 c 3.79,5.93 2.56,13.859 -3.05,18.277 -5.82,4.571 -14.04,3.594 -18.75,-1.957 l 0,0.008 c -21,-28.43 -53.24,-44.687 -88.38,-44.687 -60.54,0 -109.82,46.91 -109.86,107.929 l 229.12,0 c 12.09,0 15.02,11.25 14.36,16.68"
         id="path3110"
         style="fill:#231f20;fill-opacity:1;fill-rule:nonzero;stroke:none"
         inkscape:connector-curvature="0" /><path
         d="m 1424.61,137.531 c -60,0 -108.83,49.18 -108.83,109.61 0,60.468 48.83,109.648 108.83,109.648 59.98,0 108.81,-49.18 108.81,-109.648 0,-60.43 -48.83,-109.61 -108.81,-109.61 m 138.3,-14.332 0,123.903 c 0.1,0 0.1,0 0.1,0.039 l 0,3.211 -0.1,0 c -1.72,75.386 -63.07,136.25 -138.3,136.25 -76.33,0 -138.38,-62.582 -138.38,-139.461 0,-76.871 62.05,-139.411 138.38,-139.411 44.24,0 83.65,23.79 109.04,56.411 l 0,-41.02 0.02,0 c 0.04,-8.09 6.56,-14.652 14.61,-14.652 8.05,0 14.59,6.562 14.63,14.652 l 0,0.078"
         id="path3112"
         style="fill:#231f20;fill-opacity:1;fill-rule:nonzero;stroke:none"
         inkscape:connector-curvature="0" /><path
         d="m 771.035,137.531 c -60,0 -108.828,49.18 -108.828,109.61 0,60.468 48.828,109.648 108.828,109.648 60,0 108.789,-49.18 108.789,-109.648 0,-60.43 -48.789,-109.61 -108.789,-109.61 m 138.281,-14.332 0,123.903 c 0.079,0.039 0.079,0.039 0.079,0.039 l 0,3.211 -0.079,0 c -1.738,75.386 -63.046,136.25 -138.281,136.25 -76.308,0 -138.418,-62.582 -138.418,-139.461 0,-76.871 62.11,-139.411 138.418,-139.411 44.219,0 83.613,23.79 109.043,56.411 l 0,-41.02 0.02,0 c 0.039,-8.09 6.562,-14.652 14.609,-14.652 8.047,0 14.59,6.562 14.609,14.652 l 0,0.078"
         id="path3114"
         style="fill:#231f20;fill-opacity:1;fill-rule:nonzero;stroke:none"
         inkscape:connector-curvature="0" /><path
         d="m 1115.31,103.32 c -77.52,0 -140.583,63.059 -140.583,140.578 0,77.524 63.063,140.59 140.583,140.59 38.83,0 76.29,-16.289 102.78,-44.668 5.86,-6.289 5.54,-16.148 -0.75,-22.031 -6.3,-5.84 -16.17,-5.527 -22.03,0.762 -20.93,22.418 -49.33,34.769 -80,34.769 -60.33,0 -109.41,-49.09 -109.41,-109.422 0,-60.328 49.08,-109.41 109.41,-109.41 30.35,0 59.61,12.774 80.3,35.063 5.85,6.301 15.72,6.66 22.03,0.84 6.31,-5.86 6.66,-15.731 0.82,-22.039 -26.55,-28.633 -64.16,-45.032 -103.15,-45.032"
         id="path3116"
         style="fill:#231f20;fill-opacity:1;fill-rule:nonzero;stroke:none"
         inkscape:connector-curvature="0" /><path
         d="m 1775.14,137.531 c -60,0 -108.81,49.18 -108.81,109.61 0,60.468 48.81,109.648 108.81,109.648 60,0 108.81,-49.18 108.81,-109.648 0,-60.43 -48.81,-109.61 -108.81,-109.61 z m 138.38,112.821 -0.07,0 0,262.546 c 0,8.34 -6.5,15.122 -14.51,15.122 -8.04,0 -14.52,-6.782 -14.52,-15.122 l 0,-180.628 c -25.31,32.968 -64.81,54.332 -109.28,54.332 -76.31,0 -138.38,-62.582 -138.38,-139.461 0,-76.871 62.07,-139.411 138.38,-139.411 44.22,0 83.63,23.79 109.06,56.411 l 0,-41.02 c 0.04,-8.09 6.56,-14.652 14.63,-14.652 8.03,0 14.59,6.562 14.61,14.652 l 0,59.918 c 0,0.031 0.01,0.063 0.01,0.102 l 0,63.968 c 0.01,0 0.07,0 0.07,0.032 l 0,3.211"
         id="path3118"
         style="fill:#231f20;fill-opacity:1;fill-rule:nonzero;stroke:none"
         inkscape:connector-curvature="0" /><g
         id="g3120"><g
           clip-path="url(#clipPath3124)"
           id="g3122"><path
             d="m 1785.01,2108.11 -611.42,175.72 c 0,-155.17 0,-345.38 0,-346.58 0.28,-58.17 270.32,-140.18 602.97,-138.56 323.05,1.56 586.27,81.41 600.94,139.28 l 0.02,346.64 -592.51,-176.5"
             id="path3140"
             style="fill:url(#linearGradient3128);fill-opacity:1;fill-rule:nonzero;stroke:none"
             inkscape:connector-curvature="0" /></g></g><g
         id="g3142"><g
           clip-path="url(#clipPath3146)"
           id="g3144"><g
             clip-path="url(#clipPath3152)"
             id="g3150"><path
               d="m 1782,2160 0,1 -3,0 0,1 -4,0 0,1 -3,0 0,1 -4,0 0,1 -3,0 0,1 -4,0 0,1 -3,0 0,1 -4,0 0,1 -3,0 0,1 -3,0 0,1 -4,0 0,1 -3,0 0,1 -4,0 0,1 -3,0 0,1 -4,0 0,1 -3,0 0,1 -4,0 0,1 -3,0 0,1 -4,0 0,1 -3,0 0,1 -4,0 0,1 -3,0 0,1 -4,0 0,1 -3,0 0,1 -4,0 0,1 -3,0 0,1 -4,0 0,1 -3,0 0,1 -4,0 0,1 -3,0 0,1 -4,0 0,1 -3,0 0,1 -4,0 0,1 -3,0 0,1 -3,0 0,1 -4,0 0,1 -3,0 0,1 -4,0 0,1 -3,0 0,1 -4,0 0,1 -3,0 0,1 -4,0 0,1 -3,0 0,1 -4,0 0,1 -3,0 0,1 -4,0 0,1 -3,0 0,1 -4,0 0,1 -3,0 0,1 -4,0 0,1 -3,0 0,1 -4,0 0,1 -3,0 0,1 -4,0 0,1 -3,0 0,1 -4,0 0,1 -3,0 0,1 -4,0 0,1 -3,0 0,1 -3,0 0,1 -4,0 0,1 -3,0 0,1 -4,0 0,1 -3,0 0,1 -4,0 0,1 -3,0 0,1 -4,0 0,1 -3,0 0,1 -4,0 0,1 -3,0 0,1 -4,0 0,1 -3,0 0,1 -4,0 0,1 -3,0 0,1 -4,0 0,1 -3,0 0,1 -4,0 0,1 -3,0 0,1 -4,0 0,1 -3,0 0,1 -4,0 0,1 -3,0 0,1 -3,0 0,1 -4,0 0,1 -3,0 0,1 -4,0 0,1 -3,0 0,1 -4,0 0,1 -3,0 0,1 -4,0 0,1 -3,0 0,1 -4,0 0,1 -3,0 0,1 -4,0 0,1 -3,0 0,1 -4,0 0,1 -3,0 0,1 -4,0 0,1 -3,0 0,1 -4,0 0,1 -3,0 0,1 -4,0 0,1 -3,0 0,1 -4,0 0,1 -3,0 0,1 -4,0 0,1 -3,0 0,1 -3,0 0,1 -4,0 0,1 -3,0 0,1 -4,0 0,1 -3,0 0,1 -4,0 0,1 -3,0 0,1 -4,0 0,1 -3,0 0,1 -4,0 0,1 -3,0 0,1 -4,0 0,1 -3,0 0,1 -4,0 0,1 -3,0 0,1 -4,0 0,1 -3,0 0,1 -4,0 0,1 -3,0 0,1 -4,0 0,1 -3,0 0,1 -4,0 0,1 -3,0 0,1 -4,0 0,1 -3,0 0,1 -3,0 0,1 -4,0 0,1 -3,0 0,1 -4,0 0,1 -3,0 0,1 -4,0 0,1 -3,0 0,1 -4,0 0,1 -3,0 0,1 -4,0 0,1 -3,0 0,1 -4,0 0,1 -3,0 0,1 -4,0 0,1 -3,0 0,1 -4,0 0,1 -3,0 0,1 -4,0 0,1 -3,0 0,1 -4,0 0,1 -3,0 0,1 -4,0 0,1 -3,0 0,1 -4,0 0,1 -3,0 0,1 -3,0 0,1 -4,0 0,1 -3,0 0,1 -4,0 0,1 -3,0 0,1 -4,0 0,1 -3,0 0,1 -4,0 0,1 -3,0 0,1 -4,0 0,1 -3,0 0,1 -4,0 0,1 -3,0 0,1 -4,0 0,1 -3,0 0,1 -4,0 0,1 -3,0 0,1 -4,0 0,1 -3,0 0,1 -4,0 0,1 -3,0 0,1 -4,0 0,1 -3,0 0,1 -4,0 0,1 -3,0 0,1 -3,0 0,1 -4,0 0,1 -3,0 0,1 -4,0 0,1 -3,0 0,1 -4,0 0,1 -3,0 0,1 -4,0 0,1 -3,0 0,1 -4,0 0,1 -3,0 0,1 -4,0 0,1 -3,0 0,1 -4,0 0,1 -3,0 0,1 -4,0 0,1 -3,0 0,1 -4,0 0,1 -3,0 0,1 -4,0 0,1 -3,0 0,1 -4,0 0,1 -3,0 0,1 -4,0 0,1 -3,0 0,1 -3,0 0,1 -4,0 0,1 -3,0 0,1 -4,0 0,1 -3,0 0,1 -4,0 0,1 -3,0 0,1 -4,0 0,1 -3,0 0,1 -4,0 0,1 -3,0 0,1 -4,0 0,1 -3,0 0,1 -4,0 0,1 -3,0 0,1 -4,0 0,1 -3,0 0,1 -4,0 0,1 -3,0 0,1 -4,0 0,1 -3,0 0,1 -4,0 0,1 -3,0 0,1 -4,0 0,1 -3,0 0,1 -3,0 0,1 -4,0 0,1 -3,0 0,1 -4,0 0,1 -3,0 0,1 -4,0 0,1 -3,0 0,1 -4,0 0,1 -3,0 0,1 -4,0 0,1 -3,0 0,1 -4,0 0,1 -3,0 0,1 -4,0 0,1 -3,0 0,1 -4,0 0,1 -3,0 0,1 -4,0 0,1 -3,0 0,1 -4,0 0,1 -3,0 0,1 -4,0 0,1 -3,0 0,1 -3,0 0,1 -4,0 0,1 -3,0 0,1 -4,0 0,1 -3,0 0,1 -4,0 0,1 -3,0 0,1 -4,0 0,1 -3,0 0,1 -4,0 0,1 -3,0 0,1 -4,0 0,1 -3,0 0,1 -4,0 0,1 -3,0 0,1 -4,0 0,1 -3,0 0,1 -4,0 0,1 -3,0 0,1 -4,0 0,1 -3,0 0,1 -4,0 0,1 -3,0 0,1 -4,0 0,1 -3,0 0,2 3,0 0,1 3,0 0,1 3,0 0,1 4,0 0,1 3,0 0,1 3,0 0,1 4,0 0,1 3,0 0,1 3,0 0,1 4,0 0,1 3,0 0,1 3,0 0,1 4,0 0,1 3,0 0,1 4,0 0,1 3,0 0,1 3,0 0,1 4,0 0,1 3,0 0,1 3,0 0,1 4,0 0,1 3,0 0,1 3,0 0,1 4,0 0,1 3,0 0,1 3,0 0,1 4,0 0,1 3,0 0,1 4,0 0,1 3,0 0,1 3,0 0,1 4,0 0,1 3,0 0,1 3,0 0,1 4,0 0,1 3,0 0,1 3,0 0,1 4,0 0,1 3,0 0,1 3,0 0,1 4,0 0,1 3,0 0,1 4,0 0,1 3,0 0,1 3,0 0,1 4,0 0,1 3,0 0,1 3,0 0,1 4,0 0,1 3,0 0,1 3,0 0,1 4,0 0,1 3,0 0,1 3,0 0,1 4,0 0,1 3,0 0,1 4,0 0,1 3,0 0,1 3,0 0,1 4,0 0,1 3,0 0,1 3,0 0,1 4,0 0,1 3,0 0,1 3,0 0,1 4,0 0,1 3,0 0,1 3,0 0,1 4,0 0,1 3,0 0,1 4,0 0,1 3,0 0,1 3,0 0,1 4,0 0,1 3,0 0,1 3,0 0,1 4,0 0,1 3,0 0,1 3,0 0,1 4,0 0,1 3,0 0,1 3,0 0,1 4,0 0,1 3,0 0,1 4,0 0,1 3,0 0,1 3,0 0,1 4,0 0,1 3,0 0,1 3,0 0,1 4,0 0,1 3,0 0,1 3,0 0,1 4,0 0,1 3,0 0,1 3,0 0,1 4,0 0,1 3,0 0,1 4,0 0,1 3,0 0,1 3,0 0,1 4,0 0,1 3,0 0,1 3,0 0,1 4,0 0,1 3,0 0,1 3,0 0,1 4,0 0,1 3,0 0,1 3,0 0,1 4,0 0,1 3,0 0,1 4,0 0,1 3,0 0,1 3,0 0,1 4,0 0,1 3,0 0,1 3,0 0,1 4,0 0,1 3,0 0,1 3,0 0,1 4,0 0,1 3,0 0,1 3,0 0,1 4,0 0,1 3,0 0,1 4,0 0,1 3,0 0,1 3,0 0,1 4,0 0,1 3,0 0,1 3,0 0,1 4,0 0,1 3,0 0,1 3,0 0,1 4,0 0,1 3,0 0,1 3,0 0,1 4,0 0,1 3,0 0,1 4,0 0,1 3,0 0,1 3,0 0,1 4,0 0,1 3,0 0,1 3,0 0,1 4,0 0,1 3,0 0,1 3,0 0,1 4,0 0,1 3,0 0,1 3,0 0,1 4,0 0,1 3,0 0,1 4,0 0,1 3,0 0,1 3,0 0,1 4,0 0,1 3,0 0,1 3,0 0,1 4,0 0,1 3,0 0,1 3,0 0,1 4,0 0,1 3,0 0,1 3,0 0,1 4,0 0,1 3,0 0,1 4,0 0,1 3,0 0,1 3,0 0,1 4,0 0,1 3,0 0,1 3,0 0,1 4,0 0,1 3,0 0,1 3,0 0,1 4,0 0,1 3,0 0,1 3,0 0,1 4,0 0,1 3,0 0,1 4,0 0,1 3,0 0,1 3,0 0,1 4,0 0,1 3,0 0,1 3,0 0,1 4,0 0,1 3,0 0,1 3,0 0,1 4,0 0,1 3,0 0,1 3,0 0,1 4,0 0,1 3,0 0,1 3,0 0,1 4,0 0,1 3,0 0,1 4,0 0,1 3,0 0,1 3,0 0,1 4,0 0,1 3,0 0,1 3,0 0,1 4,0 0,1 3,0 0,1 3,0 0,1 4,0 0,1 3,0 0,1 3,0 0,1 4,0 0,1 3,0 0,1 4,0 0,1 3,0 0,1 3,0 0,1 4,0 0,1 3,0 0,1 3,0 0,1 4,0 0,1 3,0 0,1 3,0 0,1 4,0 0,1 3,0 0,1 3,0 0,1 4,0 0,1 3,0 0,1 4,0 0,1 3,0 0,1 3,0 0,1 4,0 0,1 3,0 0,1 3,0 0,1 4,0 0,1 3,0 0,1 3,0 0,1 4,0 0,1 3,0 0,1 3,0 0,1 4,0 0,1 3,0 0,1 4,0 0,1 3,0 0,1 3,0 0,1 4,0 0,1 3,0 0,1 3,0 0,1 4,0 0,1 3,0 0,1 3,0 0,1 4,0 0,1 3,0 0,1 3,0 0,1 4,0 0,1 3,0 0,1 4,0 0,1 3,0 0,1 3,0 0,1 4,0 0,1 3,0 0,1 3,0 0,1 4,0 0,1 3,0 0,1 3,0 0,1 4,0 0,1 3,0 0,1 3,0 0,1 4,0 0,1 3,0 0,1 4,0 0,1 3,0 0,1 3,0 0,1 4,0 0,1 3,0 0,1 3,0 0,1 4,0 0,1 3,0 0,1 3,0 0,1 4,0 0,1 3,0 0,1 3,0 0,1 4,0 0,1 3,0 0,1 4,0 0,1 3,0 0,1 3,0 0,1 4,0 0,1 3,0 0,1 3,0 0,1 10,0 0,-1 3,0 0,-1 4,0 0,-1 3,0 0,-1 4,0 0,-1 3,0 0,-1 4,0 0,-1 3,0 0,-1 4,0 0,-1 3,0 0,-1 4,0 0,-1 3,0 0,-1 4,0 0,-1 3,0 0,-1 4,0 0,-1 3,0 0,-1 3,0 0,-1 4,0 0,-1 3,0 0,-1 4,0 0,-1 3,0 0,-1 4,0 0,-1 3,0 0,-1 4,0 0,-1 3,0 0,-1 4,0 0,-1 3,0 0,-1 4,0 0,-1 3,0 0,-1 4,0 0,-1 3,0 0,-1 4,0 0,-1 3,0 0,-1 4,0 0,-1 3,0 0,-1 4,0 0,-1 3,0 0,-1 4,0 0,-1 3,0 0,-1 4,0 0,-1 3,0 0,-1 3,0 0,-1 4,0 0,-1 3,0 0,-1 4,0 0,-1 3,0 0,-1 4,0 0,-1 3,0 0,-1 4,0 0,-1 3,0 0,-1 4,0 0,-1 3,0 0,-1 4,0 0,-1 3,0 0,-1 4,0 0,-1 3,0 0,-1 4,0 0,-1 3,0 0,-1 4,0 0,-1 3,0 0,-1 4,0 0,-1 3,0 0,-1 4,0 0,-1 3,0 0,-1 4,0 0,-1 3,0 0,-1 3,0 0,-1 4,0 0,-1 3,0 0,-1 4,0 0,-1 3,0 0,-1 4,0 0,-1 3,0 0,-1 4,0 0,-1 3,0 0,-1 4,0 0,-1 3,0 0,-1 4,0 0,-1 3,0 0,-1 4,0 0,-1 3,0 0,-1 4,0 0,-1 3,0 0,-1 4,0 0,-1 3,0 0,-1 4,0 0,-1 3,0 0,-1 4,0 0,-1 3,0 0,-1 4,0 0,-1 3,0 0,-1 3,0 0,-1 4,0 0,-1 3,0 0,-1 4,0 0,-1 3,0 0,-1 4,0 0,-1 3,0 0,-1 4,0 0,-1 3,0 0,-1 4,0 0,-1 3,0 0,-1 4,0 0,-1 3,0 0,-1 4,0 0,-1 3,0 0,-1 4,0 0,-1 3,0 0,-1 4,0 0,-1 3,0 0,-1 4,0 0,-1 3,0 0,-1 4,0 0,-1 3,0 0,-1 4,0 0,-1 3,0 0,-1 3,0 0,-1 4,0 0,-1 3,0 0,-1 4,0 0,-1 3,0 0,-1 4,0 0,-1 3,0 0,-1 4,0 0,-1 3,0 0,-1 4,0 0,-1 3,0 0,-1 4,0 0,-1 3,0 0,-1 4,0 0,-1 3,0 0,-1 4,0 0,-1 3,0 0,-1 4,0 0,-1 3,0 0,-1 4,0 0,-1 3,0 0,-1 4,0 0,-1 3,0 0,-1 4,0 0,-1 3,0 0,-1 3,0 0,-1 4,0 0,-1 3,0 0,-1 4,0 0,-1 3,0 0,-1 4,0 0,-1 3,0 0,-1 4,0 0,-1 3,0 0,-1 4,0 0,-1 3,0 0,-1 4,0 0,-1 3,0 0,-1 4,0 0,-1 3,0 0,-1 4,0 0,-1 3,0 0,-1 4,0 0,-1 3,0 0,-1 4,0 0,-1 3,0 0,-1 4,0 0,-1 3,0 0,-1 4,0 0,-1 3,0 0,-1 3,0 0,-1 4,0 0,-1 3,0 0,-1 4,0 0,-1 3,0 0,-1 4,0 0,-1 3,0 0,-1 4,0 0,-1 3,0 0,-1 4,0 0,-1 3,0 0,-1 4,0 0,-1 3,0 0,-1 4,0 0,-1 3,0 0,-1 4,0 0,-1 3,0 0,-1 4,0 0,-1 3,0 0,-1 4,0 0,-1 3,0 0,-1 4,0 0,-1 3,0 0,-1 4,0 0,-1 3,0 0,-1 3,0 0,-1 4,0 0,-1 3,0 0,-1 4,0 0,-1 3,0 0,-1 4,0 0,-1 3,0 0,-1 4,0 0,-1 3,0 0,-1 4,0 0,-1 3,0 0,-1 4,0 0,-1 3,0 0,-1 4,0 0,-1 3,0 0,-1 4,0 0,-1 3,0 0,-1 4,0 0,-1 3,0 0,-1 4,0 0,-1 3,0 0,-1 4,0 0,-1 3,0 0,-1 4,0 0,-1 3,0 0,-1 3,0 0,-1 4,0 0,-1 3,0 0,-1 4,0 0,-1 3,0 0,-1 4,0 0,-1 3,0 0,-1 4,0 0,-1 3,0 0,-1 4,0 0,-1 3,0 0,-1 4,0 0,-1 3,0 0,-1 4,0 0,-1 3,0 0,-1 4,0 0,-1 3,0 0,-1 4,0 0,-1 3,0 0,-1 4,0 0,-1 3,0 0,-1 4,0 0,-1 3,0 0,-1 4,0 0,-1 3,0 0,-1 3,0 0,-1 4,0 0,-1 3,0 0,-1 4,0 0,-1 3,0 0,-1 4,0 0,-1 3,0 0,-1 4,0 0,-1 3,0 0,-1 4,0 0,-1 3,0 0,-1 4,0 0,-1 3,0 0,-1 4,0 0,-1 3,0 0,-1 4,0 0,-1 3,0 0,-1 4,0 0,-1 3,0 0,-1 4,0 0,-1 3,0 0,-1 4,0 0,-1 3,0 0,-1 4,0 0,-1 3,0 0,-1 3,0 0,-1 4,0 0,-1 3,0 0,-1 4,0 0,-1 3,0 0,-1 4,0 0,-1 3,0 0,-1 4,0 0,-1 3,0 0,-1 4,0 0,-1 3,0 0,-1 4,0 0,-1 3,0 0,-1 4,0 0,-1 1,0 0,-1 -2,0 0,-1 -3,0 0,-1 -3,0 0,-1 -4,0 0,-1 -3,0 0,-1 -3,0 0,-1 -4,0 0,-1 -3,0 0,-1 -4,0 0,-1 -3,0 0,-1 -3,0 0,-1 -4,0 0,-1 -3,0 0,-1 -3,0 0,-1 -4,0 0,-1 -3,0 0,-1 -3,0 0,-1 -4,0 0,-1 -3,0 0,-1 -3,0 0,-1 -4,0 0,-1 -3,0 0,-1 -4,0 0,-1 -3,0 0,-1 -3,0 0,-1 -4,0 0,-1 -3,0 0,-1 -3,0 0,-1 -4,0 0,-1 -3,0 0,-1 -3,0 0,-1 -4,0 0,-1 -3,0 0,-1 -3,0 0,-1 -4,0 0,-1 -3,0 0,-1 -4,0 0,-1 -3,0 0,-1 -3,0 0,-1 -4,0 0,-1 -3,0 0,-1 -3,0 0,-1 -4,0 0,-1 -3,0 0,-1 -3,0 0,-1 -4,0 0,-1 -3,0 0,-1 -3,0 0,-1 -4,0 0,-1 -3,0 0,-1 -4,0 0,-1 -3,0 0,-1 -3,0 0,-1 -4,0 0,-1 -3,0 0,-1 -3,0 0,-1 -4,0 0,-1 -3,0 0,-1 -3,0 0,-1 -4,0 0,-1 -3,0 0,-1 -3,0 0,-1 -4,0 0,-1 -3,0 0,-1 -4,0 0,-1 -3,0 0,-1 -3,0 0,-1 -4,0 0,-1 -3,0 0,-1 -3,0 0,-1 -4,0 0,-1 -3,0 0,-1 -3,0 0,-1 -4,0 0,-1 -3,0 0,-1 -3,0 0,-1 -4,0 0,-1 -3,0 0,-1 -4,0 0,-1 -3,0 0,-1 -3,0 0,-1 -4,0 0,-1 -3,0 0,-1 -3,0 0,-1 -4,0 0,-1 -3,0 0,-1 -3,0 0,-1 -4,0 0,-1 -3,0 0,-1 -3,0 0,-1 -4,0 0,-1 -3,0 0,-1 -4,0 0,-1 -3,0 0,-1 -3,0 0,-1 -4,0 0,-1 -3,0 0,-1 -3,0 0,-1 -4,0 0,-1 -3,0 0,-1 -3,0 0,-1 -4,0 0,-1 -3,0 0,-1 -3,0 0,-1 -4,0 0,-1 -3,0 0,-1 -4,0 0,-1 -3,0 0,-1 -3,0 0,-1 -4,0 0,-1 -3,0 0,-1 -3,0 0,-1 -4,0 0,-1 -3,0 0,-1 -3,0 0,-1 -4,0 0,-1 -3,0 0,-1 -3,0 0,-1 -4,0 0,-1 -3,0 0,-1 -4,0 0,-1 -3,0 0,-1 -3,0 0,-1 -4,0 0,-1 -3,0 0,-1 -3,0 0,-1 -4,0 0,-1 -3,0 0,-1 -3,0 0,-1 -4,0 0,-1 -3,0 0,-1 -3,0 0,-1 -4,0 0,-1 -3,0 0,-1 -4,0 0,-1 -3,0 0,-1 -3,0 0,-1 -4,0 0,-1 -3,0 0,-1 -3,0 0,-1 -4,0 0,-1 -3,0 0,-1 -3,0 0,-1 -4,0 0,-1 -3,0 0,-1 -3,0 0,-1 -4,0 0,-1 -3,0 0,-1 -4,0 0,-1 -3,0 0,-1 -3,0 0,-1 -4,0 0,-1 -3,0 0,-1 -3,0 0,-1 -4,0 0,-1 -3,0 0,-1 -3,0 0,-1 -4,0 0,-1 -3,0 0,-1 -3,0 0,-1 -4,0 0,-1 -3,0 0,-1 -4,0 0,-1 -3,0 0,-1 -3,0 0,-1 -4,0 0,-1 -3,0 0,-1 -3,0 0,-1 -4,0 0,-1 -3,0 0,-1 -3,0 0,-1 -4,0 0,-1 -3,0 0,-1 -3,0 0,-1 -4,0 0,-1 -3,0 0,-1 -4,0 0,-1 -3,0 0,-1 -3,0 0,-1 -4,0 0,-1 -3,0 0,-1 -3,0 0,-1 -4,0 0,-1 -3,0 0,-1 -3,0 0,-1 -4,0 0,-1 -3,0 0,-1 -3,0 0,-1 -4,0 0,-1 -3,0 0,-1 -4,0 0,-1 -3,0 0,-1 -3,0 0,-1 -4,0 0,-1 -3,0 0,-1 -3,0 0,-1 -4,0 0,-1 -3,0 0,-1 -3,0 0,-1 -4,0 0,-1 -3,0 0,-1 -3,0 0,-1 -4,0 0,-1 -3,0 0,-1 -4,0 0,-1 -3,0 0,-1 -3,0 0,-1 -4,0 0,-1 -3,0 0,-1 -3,0 0,-1 -4,0 0,-1 -3,0 0,-1 -3,0 0,-1 -4,0 0,-1 -3,0 0,-1 -3,0 0,-1 -4,0 0,-1 -3,0 0,-1 -4,0 0,-1 -3,0 0,-1 -3,0 0,-1 -4,0 0,-1 -3,0 0,-1 -3,0 0,-1 -4,0 0,-1 -3,0 0,-1 -3,0 0,-1 -4,0 0,-1 -3,0 0,-1 -3,0 0,-1 -4,0 0,-1 -3,0 0,-1 -4,0 0,-1 -3,0 0,-1 -3,0 0,-1 -4,0 0,-1 -3,0 0,-1 -3,0 0,-1 -4,0 0,-1 -3,0 0,-1 -3,0 0,-1 -4,0 0,-1 -3,0 0,-1 -3,0 0,-1 -4,0 0,-1 -3,0 0,-1 -4,0 0,-1 -3,0 0,-1 -3,0 0,-1 -4,0 0,-1 -3,0 0,-1 -3,0 0,-1 -4,0 0,-1 -3,0 0,-1 -3,0 0,-1 -4,0 0,-1 -3,0 0,-1 -3,0 0,-1 -4,0 0,-1 -3,0 0,-1 -4,0 0,-1 -3,0 0,-1 -3,0 0,-1 -4,0 0,-1 -3,0 0,-1 -3,0 0,-1 -4,0 0,-1 -3,0 0,-1 -3,0 0,-1 -4,0 0,-1 -3,0 0,-1 -3,0 0,-1 -4,0 0,-1 -3,0 0,-1 -4,0 0,-1 -3,0 0,-1 -3,0 0,-1 -4,0 0,-1 -3,0 0,-1 -3,0 0,-1 -4,0 0,-1 -3,0 0,-1 -3,0 0,-1 -4,0 0,-1 -3,0 0,-1 -3,0 0,-1 -4,0 0,-1 -3,0 0,-1 -4,0 0,-1 -3,0 0,-1"
               id="path3164"
               style="fill:url(#radialGradient3156);fill-opacity:1;fill-rule:nonzero;stroke:none"
               inkscape:connector-curvature="0" /></g></g></g><path
         d="m 2665.33,1886.49 c -14.4,47.85 -25.74,80.71 -54.41,141.21 -11.51,24.29 -29.92,54.59 -48.42,68.25 -9.23,36.28 -15.41,69.8 -19.93,121.79 -7.4,85.04 -4.55,178.68 -4.52,179.61 0.36,11.39 -8.32,21.04 -19.68,21.88 l -725.51,53.72 -3.14,-42.4 705.4,-52.23 c -0.47,-32.83 -0.51,-100.02 5.09,-164.26 4.76,-54.74 11.55,-91.13 21.25,-129.22 -9.02,-22.03 -6.18,-61.19 2.03,-105.3 11.85,-63.73 46.28,-171.41 55.73,-197.88 9.46,-26.48 19.84,-62.2 19.84,-62.2 l 29.37,11.04 3,1.59 -13.08,43.08 25.33,-38.21 c 0,0 20.69,1.11 39.82,13.39 17.41,11.17 37.82,29.87 37.82,29.87 0,0 -41.19,57.12 -55.99,106.27"
         id="path3166"
         style="fill:#258cd4;fill-opacity:1;fill-rule:nonzero;stroke:none"
         inkscape:connector-curvature="0" /><path
         d="m 3224.84,1184.98 c -114.02,0 -206.79,-93.48 -206.79,-208.378 0,-114.93 92.77,-208.383 206.79,-208.383 114.03,0 206.8,93.453 206.8,208.383 0,114.898 -92.77,208.378 -206.8,208.378 m 0,-468.699 c -142.46,0 -258.36,116.778 -258.36,260.321 0,143.528 115.9,260.308 258.36,260.308 142.46,0 258.36,-116.78 258.36,-260.308 0,-143.543 -115.9,-260.321 -258.36,-260.321"
         id="path3168"
         style="fill:#231f20;fill-opacity:1;fill-rule:nonzero;stroke:none"
         inkscape:connector-curvature="0" /><path
         d="m 233.281,1245.42 c -76.64,0 -141.8748,-36.93 -178.2224,-94.62 l 0,340.8 c 0,15.31 -12.3438,27.74 -27.5195,27.74 C 12.3047,1519.34 0,1506.91 0,1491.6 L 0,742.379 c 0,-15.309 12.3047,-27.738 27.5391,-27.738 15.1757,0 27.5195,12.429 27.5195,27.738 l 0,268.791 c 0.1172,107.59 67.7144,182.26 172.3244,182.26 87.988,0 134.512,-53.04 134.512,-153.36 l 0,-295.519 0.019,0 c 0,-15.321 12.324,-27.742 27.52,-27.742 15.214,0 27.539,12.421 27.539,27.742 l 0,303.859 c 0.058,119.69 -72.051,197.01 -183.692,197.01"
         id="path3170"
         style="fill:#231f20;fill-opacity:1;fill-rule:nonzero;stroke:none"
         inkscape:connector-curvature="0" /><path
         d="m 1833.36,803.449 c -10.65,8.321 -25.82,6.539 -34.4,-3.789 l -0.07,-0.058 c -16.37,-17.551 -31.84,-34.161 -73.32,-34.161 -25.82,0 -60.24,9.629 -60.24,92.778 l 0,319.781 139.1,0 0,0.06 c 13.79,0.29 24.87,11.6 24.87,25.55 0,14.16 -11.39,25.64 -25.41,25.64 -0.2,0 -0.41,-0.06 -0.61,-0.06 l -138.08,0.04 0,262 c 0.01,0.14 0.03,0.25 0.03,0.39 0,0.12 -0.02,0.24 -0.03,0.35 l 0,1.23 -0.12,0 c -0.82,14.55 -12.72,26.14 -27.37,26.14 -14.68,0 -26.62,-11.64 -27.38,-26.27 l -0.15,0 0,-263.82 -80.02,0 c -14.09,-0.02 -25.45,-11.48 -25.45,-25.64 0,-14.14 11.36,-25.59 25.45,-25.61 l 80.02,0 0,-320.969 c 0,-90.472 42.07,-142.39 115.39,-142.39 58.2,0 87.03,24.16 109.59,50.281 l 2.79,3.258 c -0.16,-0.239 -0.22,-0.27 0.08,0.082 1.68,2.476 13.36,21.109 -4.67,35.187"
         id="path3172"
         style="fill:#231f20;fill-opacity:1;fill-rule:nonzero;stroke:none"
         inkscape:connector-curvature="0" /><path
         d="m 1946.05,1018.2 c 23.56,90.08 104.89,162.03 201.61,162.03 96.72,0 172.89,-71.95 196.44,-162.03 l -398.05,0 z M 2397.23,998 c -15.43,128.81 -119.46,234.16 -251.41,234.16 -142.42,0 -258.32,-116.77 -258.32,-260.328 0,-143.512 115.9,-260.293 258.32,-260.293 80.59,0 157.42,38.609 206.06,103.359 0.03,0.024 0.03,0.063 0.07,0.082 0.39,0.579 0.9,1.129 1.29,1.692 l -0.15,0.137 c 7.14,11.191 4.88,26.152 -5.75,34.472 -10.89,8.539 -26.44,6.758 -35.27,-3.73 l -0.16,0.097 c -39.49,-53.476 -100,-84.199 -166.09,-84.199 -113.98,0 -206.72,88.281 -206.8,203.153 l 431.18,0 c 22.73,0 28.24,21.148 27.03,31.398"
         id="path3174"
         style="fill:#231f20;fill-opacity:1;fill-rule:nonzero;stroke:none"
         inkscape:connector-curvature="0" /><path
         d="m 2943.55,757.711 -215.74,217.398 215.74,217.381 0,0.02 c 10.43,10.55 10.43,27.62 -0.03,38.19 -10.47,10.54 -27.39,10.56 -37.86,0.02 l -0.03,0.02 -215.79,-217.39 -215.39,217.04 -0.23,0.17 0,0.02 -0.16,0.16 0,-0.02 c -10.47,10.39 -27.3,10.35 -37.73,-0.14 -10.43,-10.51 -10.43,-27.46 -0.12,-38.03 l -0.08,-0.07 215.75,-217.39 -215.4,-217.008 -0.35,-0.371 0.04,-0.039 c -10.43,-10.551 -10.43,-27.621 0.04,-38.121 10.43,-10.551 27.38,-10.551 37.85,-0.063 l 0,-0.019 215.78,217.383 215.43,-217.032 0.36,-0.351 0.07,0.062 c 10.47,-10.371 27.27,-10.359 37.66,0.149 10.43,10.492 10.47,27.441 0.19,37.992 l 0,0.039"
         id="path3176"
         style="fill:#231f20;fill-opacity:1;fill-rule:nonzero;stroke:none"
         inkscape:connector-curvature="0" /><path
         d="m 3619.88,796.84 c -4.17,1.308 -8.51,1.98 -12.92,1.98 -19.67,0 -37.51,-13.179 -43.39,-32.082 -7.07,-22.867 6.64,-49.238 29.36,-56.418 4.22,-1.332 8.61,-2 13.07,-2 19.6,0 37.32,12.961 43.08,31.539 7.44,23.993 -5.65,49.551 -29.2,56.981"
         id="path3178"
         style="fill:#258cd4;fill-opacity:1;fill-rule:nonzero;stroke:none"
         inkscape:connector-curvature="0" /><path
         d="m 3709.18,1532.45 c -25.73,3.16 -49.32,-16.39 -52.4,-41.95 l -60.12,-549.98 c -1.96,-18.758 12.14,-36.282 30.77,-38.258 1.2,-0.133 2.41,-0.192 3.61,-0.192 17.46,0 32.6,13.649 34.43,30.629 l 84.66,546.551 c 3.15,26.18 -15.22,50.04 -40.95,53.2"
         id="path3180"
         style="fill:#258cd4;fill-opacity:1;fill-rule:nonzero;stroke:none"
         inkscape:connector-curvature="0" /><path
         d="m 766.523,770.699 c -112.91,0 -204.785,92.539 -204.785,206.289 0,113.792 91.875,206.342 204.785,206.342 112.911,0 204.747,-92.55 204.747,-206.342 0,-113.75 -91.836,-206.289 -204.747,-206.289 m 260.257,-26.961 0,233.153 c 0.15,0.039 0.15,0.058 0.15,0.097 l 0,6.051 -0.15,0 c -3.24,141.881 -118.675,256.351 -260.257,256.351 -143.574,0 -260.41,-117.73 -260.41,-262.402 0,-144.668 116.836,-262.367 260.41,-262.367 83.223,0 157.403,44.77 205.215,106.199 l 0,-77.191 0.02,0 c 0.058,-15.258 12.363,-27.598 27.519,-27.598 15.153,0 27.463,12.34 27.503,27.598 l 0,0.109"
         id="path3182"
         style="fill:#231f20;fill-opacity:1;fill-rule:nonzero;stroke:none"
         inkscape:connector-curvature="0" /><path
         d="m 1308.13,1007.4 c -92.09,30.93 -118.64,47.91 -117.08,100.7 1.29,42.7 37.41,70.27 92,70.27 l 116.17,0 c 13.91,0.14 25.16,12.23 25.16,26.29 0,14.08 -11.25,25.45 -25.16,25.61 l 0,0.04 c 0,0 -115.08,-0.04 -116.99,-0.04 -39.55,0 -75.94,-12.44 -102.58,-35.02 -26.51,-22.52 -41.68,-53.71 -42.7,-87.85 -2.75,-91.92 68.32,-122.74 147.78,-148.599 86.62,-30.039 128.16,-47.242 126.29,-109.313 -1.61,-52.597 -47.99,-86 -117.54,-83.847 -66.68,2.031 -112.54,30.531 -140.28,87.089 l 0.35,-0.699 c -4.6,8.899 -14.19,15.617 -24.84,15.617 -15.21,0 -27.54,-12.378 -27.54,-27.687 0,-4.012 0.96,-7.699 2.5,-11.102 l -0.1,-0.039 8.27,-14.41 0.02,0.168 c 35.62,-61.906 100.41,-98.609 180.05,-101.027 2.89,-0.121 5.82,-0.16 8.72,-0.16 l 0.03,0 c 48.64,0 90,12.699 119.61,36.621 29.61,24.027 45.94,58.25 47.19,98.949 2.89,96.23 -77.15,131.019 -159.33,158.439"
         id="path3184"
         style="fill:#231f20;fill-opacity:1;fill-rule:nonzero;stroke:none"
         inkscape:connector-curvature="0" /><path
         d="m 2766.05,151.059 0,122.082 c 0,62.531 -50.85,113.41 -113.39,113.41 -40.5,0 -78.28,-21.91 -99.12,-57.321 -20.32,35.411 -57.9,57.321 -98.62,57.321 -32.3,0 -62.65,-13.563 -83.8,-37.313 l 0,23.063 c 0,8.121 -6.36,14.25 -14.79,14.25 -7.73,0 -14.25,-6.531 -14.25,-14.25 l 0,-248.262 c 0,-8.34 6.49,-15.129 14.51,-15.129 8.04,0 14.51,6.789 14.51,15.129 l 0,149.102 c 0,46.519 37.61,84.359 83.82,84.359 46.21,0 83.8,-37.84 83.8,-84.359 l 0,-90.879 -0.01,-58.223 c 0,-8.34 7.08,-15.129 15.09,-15.129 8.05,0 14.39,6.789 14.39,15.129 l 0,149.102 c 0,46.519 38.29,84.359 84.47,84.359 46.17,0 83.24,-37.07 84.38,-84.359 l 0,-122.082 -0.01,-27.02 c 0,-8.34 6.5,-15.129 14.51,-15.129 8.04,0 14.51,6.789 14.51,15.129 l 0,27.02"
         id="path3186"
         style="fill:#231f20;fill-opacity:1;fill-rule:nonzero;stroke:none"
         inkscape:connector-curvature="0" /><path
         d="m 3063.89,368.512 c 0,8.34 -6.5,15.129 -14.51,15.129 -8.04,0 -14.52,-6.789 -14.52,-15.129 l -0.01,-147.813 c -0.53,-46.687 -37.34,-83.25 -83.78,-83.25 -45.59,0 -83.08,37.332 -83.08,83.231 l 0,147.84 c 0,8.339 -6.5,15.128 -14.51,15.128 -8.04,0 -14.52,-6.789 -14.52,-15.128 l 0,-147.84 c 0,-61.848 50.29,-112.641 112.11,-113.211 31.41,0 61.76,13.492 83.78,37.14 l 0,-14.589 c -0.53,-55.4614 -46.39,-100.5786 -102.23,-100.5786 -14.96,0 -30.67,3.7188 -44.48,10.5781 -1.71,0.4219 -3.43,0.6524 -5.11,0.6524 -6.15,0 -11.25,-2.461 -13.79,-7.5235 -3.58,-6.5586 -0.82,-15.6289 6.29,-20.1367 C 2894.59,4.37891 2913.8,0 2932.62,0 c 72.59,0 131.27,58.3203 131.27,130.012 l 0,238.5"
         id="path3188"
         style="fill:#231f20;fill-opacity:1;fill-rule:nonzero;stroke:none"
         inkscape:connector-curvature="0" /></g></g></svg>