<?xml version="1.0" encoding="UTF-8" standalone="no"?>
<!-- Created with Inkscape (http://www.inkscape.org/) -->

<svg
   xmlns:dc="http://purl.org/dc/elements/1.1/"
   xmlns:cc="http://creativecommons.org/ns#"
   xmlns:rdf="http://www.w3.org/1999/02/22-rdf-syntax-ns#"
   xmlns:svg="http://www.w3.org/2000/svg"
   xmlns="http://www.w3.org/2000/svg"
   xmlns:sodipodi="http://sodipodi.sourceforge.net/DTD/sodipodi-0.dtd"
   xmlns:inkscape="http://www.inkscape.org/namespaces/inkscape"
   width="248.91866mm"
   height="182.66481mm"
   viewBox="0 0 881.99524 647.23751"
   id="svg4715"
   version="1.1"
   inkscape:version="0.91 r13725"
   sodipodi:docname="broken model.svg">
  <defs
     id="defs4717" />
  <sodipodi:namedview
     id="base"
     pagecolor="#ffffff"
     bordercolor="#666666"
     borderopacity="1.0"
     inkscape:pageopacity="0.0"
     inkscape:pageshadow="2"
     inkscape:zoom="0.35"
     inkscape:cx="2050.2833"
     inkscape:cy="-542.09553"
     inkscape:document-units="px"
     inkscape:current-layer="layer1"
     showgrid="false"
     fit-margin-top="0"
     fit-margin-left="0"
     fit-margin-right="0"
     fit-margin-bottom="0"
     inkscape:window-width="1920"
     inkscape:window-height="1056"
     inkscape:window-x="0"
     inkscape:window-y="24"
     inkscape:window-maximized="1" />
  <metadata
     id="metadata4720">
    <rdf:RDF>
      <cc:Work
         rdf:about="">
        <dc:format>image/svg+xml</dc:format>
        <dc:type
           rdf:resource="http://purl.org/dc/dcmitype/StillImage" />
        <dc:title></dc:title>
      </cc:Work>
    </rdf:RDF>
  </metadata>
  <g
     inkscape:label="Layer 1"
     inkscape:groupmode="layer"
     id="layer1"
     transform="translate(1675.2833,656.97084)">
    <path
       style="fill:#ffffff"
       inkscape:connector-curvature="0"
       id="path211"
       d="m -957.78335,-469.57084 c 2.5,1.2 5.1,2.4 7.7,3.6 -2.6,-1.1 -5.2,-2.3 -7.7,-3.6 z"
       class="st0" />
    <path
       style="fill:#ffffff"
       inkscape:connector-curvature="0"
       id="path213"
       d="m -1528.9833,-106.17084 c 0,0 0.2,0.1 0.3,0.2 -0.1,0 -0.3,-0.1 -0.3,-0.2 z"
       class="st0" />
    <path
       style="fill:#ffffff"
       inkscape:connector-curvature="0"
       id="path215"
       d="m -1519.5833,-137.57084 c 0.2,0 0.5,0.1 0.7,0.3 -0.2,-0.2 -0.5,-0.3 -0.7,-0.3 z"
       class="st0" />
    <path
       style="fill:#ffffff"
       inkscape:connector-curvature="0"
       id="path217"
       d="m -1195.3833,-222.87084 c 2.4,1.5 4.8,3 7.2,4.5 -2.4,-1.4 -4.8,-2.9 -7.2,-4.5 z"
       class="st0" />
    <path
       inkscape:connector-curvature="0"
       id="path219"
       d="m -1592.3833,-213.87084 c 2,-4.8 -4.2,-11 3.9,-15.7 -0.9,5.9 -1.7,11 -2.5,16.1 -0.5,-0.1 -1,-0.2 -1.4,-0.4 z" />
    <path
       inkscape:connector-curvature="0"
       id="path221"
       d="m -903.48335,-637.77084 c -6.9,1.1 -13.8,2.3 -20.7,3.4 -6.9,1.1 -13.8,2.3 -20.7,3.4 -0.1,-0.6 -0.2,-1.2 -0.3,-1.8 0.8,-0.2 1.7,-0.3 2.5,-0.5 0.9,-0.2 1.8,-0.3 2.7,-0.5 0.6,-0.1 1.3,-0.3 1.9,-0.4 -5.9,-0.8 -10.6,-0.3 -14.5,1.9 -0.6,0.3 -1.2,0.7 -1.7,1.1 -2.8,2 -5.1,4.9 -7.3,8.8 l 0,0 c -0.1,0.1 -0.2,0.3 -0.2,0.4 -3.4,6.2 -6.8,12.5 -10.3,18.7 -0.7,1.3 -1.6,2.5 -2.5,3.8 l 0,0 c -0.3,-0.2 -0.7,-0.5 -1.1,-0.7 7.1,-10.2 10.4,-22.9 19.7,-31.6 1,-0.9 2,-1.8 3.1,-2.6 0.3,-0.2 0.7,-0.5 1,-0.7 0.9,-0.6 1.8,-1.1 2.7,-1.3 0.2,0 0.4,-0.1 0.5,-0.1 1.3,-0.1 2.7,-0.2 4,-0.2 13.1,-0.8 26.1,-1.4 39.2,-2 0.7,-0.1 1.3,0 2,0.9 z" />
    <path
       inkscape:connector-curvature="0"
       id="path223"
       d="m -1615.9833,-363.27084 c -0.5,6.2 -1,12.4 -1.5,18.6 0.4,0 0.8,0.1 1.2,0.1 0.4,-6.2 0.8,-12.4 1.2,-18.6 -0.3,-0.1 -0.6,-0.1 -0.9,-0.1 z m -3.1,8.4 c 0.8,-8 1.7,-15.9 2.1,-23.9 0.3,-5.6 0,-11.3 -0.4,-16.9 0,-0.6 -0.5,-1.2 -1,-1.8 -0.1,-0.2 -0.3,-0.3 -0.4,-0.4 -0.2,-0.1 -0.3,-0.3 -0.5,-0.4 -0.3,-0.3 -0.6,-0.5 -0.9,-0.7 -0.7,-0.5 -1.3,-0.9 -2,-1.4 -0.7,-0.4 -1.4,-0.9 -2.1,-1.3 -1,-0.6 -2.1,-1.2 -3.1,-1.9 -0.4,-0.2 -0.7,-0.4 -1.1,-0.6 0.3,0 0.6,0 0.9,0 0.6,0 1.2,0.1 1.8,0.2 0.9,0.1 1.7,0.3 2.5,0.5 2.7,0.8 5.1,2.2 6.9,4.1 0.2,0.2 0.4,0.4 0.5,0.6 2.7,3 4.2,7 4.4,11.7 1,22 0.4,43.9 -2.3,65.8 -1.3,10.6 -2.2,21.2 -3.8,31.7 -1,6.3 -3.1,12.5 -5.4,18.7 1.2,-17.4 2.5,-34.8 3.8,-52.1 l 0,0 c -0.2,0 -0.4,0 -0.5,0 -0.1,0 -0.1,0 -0.2,0 l 0,0 c -2.1,16.9 -4.1,33.8 -6.2,50.7 -0.1,0.7 -0.2,1.4 -0.3,2.1 -0.1,0.7 -0.2,1.4 -0.2,2 l -1.5,-0.2 c 0.8,-7.2 1.5,-14.4 2.3,-21.6 0.8,-7.2 1.5,-14.4 2.3,-21.6 1.4,-14.5 2.9,-28.9 4.4,-43.3 z" />
    <path
       style="fill:#ffffff"
       inkscape:connector-curvature="0"
       id="path225"
       d="m -1173.8833,-397.87084 c 2.8,-1.4 5.6,-2.9 8.4,-4.3 -2.8,1.4 -5.6,2.9 -8.4,4.3 z"
       class="st0" />
    <path
       style="fill:#ffffff"
       inkscape:connector-curvature="0"
       id="path227"
       d="m -1520.0833,-129.37084 c 0.6,-0.1 1.2,-0.1 1.8,-0.2 -0.7,0 -1.3,0.1 -1.8,0.2 z"
       class="st0" />
    <path
       style="fill:#ffffff"
       inkscape:connector-curvature="0"
       id="path229"
       d="m -1620.1833,-399.07084 c 0.3,0.2 0.6,0.4 0.9,0.7 -0.3,-0.2 -0.6,-0.5 -0.9,-0.7 -0.7,-0.5 -1.3,-0.9 -2,-1.4 0.6,0.5 1.3,0.9 2,1.4 z"
       class="st0" />
    <path
       style="fill:#ffffff"
       inkscape:connector-curvature="0"
       id="path231"
       d="m -1228.8833,-255.87084 c 4.3,3.9 8.6,7.8 12.9,11.6 -4.2,-3.9 -8.5,-7.7 -12.9,-11.6 z"
       class="st0" />
    <path
       style="fill:#ffffff"
       inkscape:connector-curvature="0"
       id="path233"
       d="m -1367.4833,-323.17084 c -0.7,0.2 -1.3,0.5 -2,0.8 0.7,-0.3 1.3,-0.6 2,-0.8 0,0 0,0 0,0 z"
       class="st0" />
    <path
       style="fill:#ffffff"
       inkscape:connector-curvature="0"
       id="path235"
       d="m -1319.0833,-76.670841 c 0.3,0.1 0.7,0.2 1.1,0.3 -0.4,-0.1 -0.7,-0.2 -1.1,-0.3 z"
       class="st0" />
    <path
       inkscape:connector-curvature="0"
       id="path237"
       d="m -1235.3833,-261.77084 c 2.2,2 4.4,3.9 6.5,5.9 4.3,3.9 8.6,7.8 12.9,11.6 4.3,3.8 8.5,7.6 12.7,11.4 6.3,5.6 12.5,11.2 18.7,16.7 -1.2,-0.7 -2.4,-1.4 -3.6,-2.1 -2.4,-1.5 -4.8,-3 -7.2,-4.5 -15.4,-10.1 -29.8,-22 -41.9,-36.8 l 1.9,-2.2 z" />
    <path
       style="fill:#ffffff"
       inkscape:connector-curvature="0"
       id="path239"
       d="m -1012.6833,-574.07084 c 6.3,-6 12.69995,-11.9 19.09995,-17.9 -6.4,6 -12.79995,11.9 -19.09995,17.9 z"
       class="st0" />
    <path
       inkscape:connector-curvature="0"
       id="path241"
       d="m -1213.3833,-259.87084 c 7.7,2.6 15.3,5.4 22.9,8.2 0.1,0 0.1,0 0.2,0.1 0.2,0.1 0.4,0.2 0.5,0.4 0.2,0.2 0.4,0.5 0.7,0.7 -0.2,0.5 -0.4,1 -0.6,1.5 -6.1,-1 -12.5,-1.1 -18.4,-3.5 -0.6,-0.2 -1.1,-0.5 -1.7,-0.8 -0.6,-0.3 -1.1,-0.6 -1.7,-0.9 -1.6,-1 -3.2,-2.2 -4.7,-3.8 -0.2,-0.3 -0.5,-0.5 -0.8,-0.8 0.5,-0.2 1,-0.4 1.4,-0.6 1,-0.3 1.7,-0.7 2.2,-0.5 z" />
    <path
       style="fill:#ffffff"
       inkscape:connector-curvature="0"
       id="path243"
       d="m -1416.9833,-299.07084 c 6.2,-2.8 12.5,-5.5 18.7,-8.3 -6.2,2.8 -12.5,5.6 -18.7,8.3 z"
       class="st0" />
    <path
       style="fill:#ffffff"
       inkscape:connector-curvature="0"
       id="path245"
       d="m -1623.5833,-311.67084 c -0.8,7.2 -1.5,14.4 -2.3,21.6 0.7,-7.1 1.5,-14.3 2.3,-21.6 z"
       class="st0" />
    <path
       style="fill:#ffffff"
       inkscape:connector-curvature="0"
       id="path247"
       d="m -1627.4833,-403.57084 c 1,0.6 2.1,1.2 3.1,1.9 -1,-0.7 -2,-1.3 -3.1,-1.9 z"
       class="st0" />
    <path
       style="fill:#258cd6"
       inkscape:connector-curvature="0"
       id="path249"
       d="m -1165.4833,-193.07084 c 16.2,3.4 32.5,6.7 48.8,10.1 -16.3,-3.4 -32.6,-6.7 -48.8,-10.1 -3.3,-0.7 -6.6,-1.4 -10.2,-2.2 3.6,0.8 6.9,1.5 10.2,2.2 z"
       class="st1" />
    <path
       style="fill:#ffffff"
       inkscape:connector-curvature="0"
       id="path251"
       d="m -1334.7833,-305.27084 c -1.4,0.5 -2.9,1 -4.3,1.6 1.5,-0.6 2.9,-1.1 4.3,-1.6 z"
       class="st0" />
    <path
       inkscape:connector-curvature="0"
       id="path253"
       d="m -1626.6833,-268.17084 c -0.6,4.9 -0.5,9.5 3.1,14.7 8.1,11.7 4.3,24.5 -0.9,36.6 -0.1,0.2 -0.2,0.4 -0.3,0.7 -0.1,0.2 -0.2,0.5 -0.3,0.7 l 0,0 c 2.8,-0.5 4.8,-1.7 6.3,-3.2 2.9,-2.9 4,-7.2 4.4,-11.6 1.1,-11.2 -1.3,-21.5 -7.5,-30.8 -0.5,-0.8 -0.8,-1.7 -1.4,-2.8 4.7,1.7 9.9,7.1 10.7,12.5 1.2,8.2 2,16.5 1.9,24.8 0,3.7 -1.2,7.2 -3.8,9.8 -0.2,0.2 -0.5,0.5 -0.7,0.7 -1,0.9 -2.2,1.7 -3.6,2.3 -0.6,0.3 -1.2,0.8 -1.7,1.3 -0.1,0.1 -0.3,0.3 -0.4,0.4 -0.1,0.1 -0.3,0.3 -0.4,0.4 -0.3,0.3 -0.5,0.5 -0.8,0.8 -0.2,-1 -0.4,-2.1 -0.4,-2.1 -2.1,0.7 -4.2,1.5 -6.3,2.2 -0.6,0.2 -1.3,0.4 -2,0.7 l -0.9,-2.6 c 0.4,-0.1 0.7,-0.3 1.1,-0.4 1,-0.5 2,-1.3 2.1,-2 2.6,-11.1 5.9,-22.3 3,-33.9 -0.6,-2.4 -2.5,-4.4 -3.2,-6.8 -0.6,-2.1 -0.4,-4.5 -0.2,-6.8 0.2,-1.9 0.4,-3.9 0.6,-5.8 l 1.6,0.2 0,0 z" />
    <path
       style="fill:#ffffff"
       inkscape:connector-curvature="0"
       id="path255"
       d="m -1024.2833,-636.47084 c 3.1,2.9 6.2,5.8 9.3,8.7 -3.1,-2.9 -6.2,-5.7 -9.3,-8.7 z"
       class="st0" />
    <path
       style="fill:#ffffff"
       inkscape:connector-curvature="0"
       id="path257"
       d="m -1599.8833,-275.27084 c 1.8,-1.1 3.6,-2.2 5.4,-3.4 -1.7,1.2 -3.6,2.3 -5.4,3.4 z"
       class="st0" />
    <path
       style="fill:#ffffff"
       inkscape:connector-curvature="0"
       id="path259"
       d="m -1589.0833,-282.07084 c 1.8,-1.2 3.6,-2.4 5.3,-3.5 -1.7,1.1 -3.5,2.3 -5.3,3.5 z"
       class="st0" />
    <path
       style="fill:#ffffff"
       inkscape:connector-curvature="0"
       id="path261"
       d="m -1080.0833,-354.67084 c 1.5,0.4 3,0.7 4.5,1.1 l -0.5,1.9 0,0 c -0.2,1.5 -0.7,2.7 -0.5,3.7 1.6,6.2 -2.1,7.9 -7,8.7 -1.3,0.2 -2.6,0.5 -3.9,0.6 -21,2.1 -41.9,5.6 -62,12.3 -7.6,2.6 -17.2,2 -22.1,10.6 -0.3,0.5 -1.2,0.6 -1.8,0.9 -7.7,3.8 -15.8,7.2 -23.1,11.6 -10,6.1 -19.8,12.8 -29.2,19.8 -6.1,4.5 -11.5,10.1 -17.3,15.3 -0.4,-0.1 -0.8,-0.1 -1.2,-0.1 0.3,-2.6 -0.2,-6.1 1.2,-7.6 4.1,-4.3 8.8,-8.1 13.6,-11.7 11.8,-8.6 23.8,-16.9 35.7,-25.3 4.1,-2.9 8.3,-5.9 12.4,-8.9 -9.6,2.2 -17.1,7.7 -24.7,13.3 -1.7,1.2 -3.4,2.4 -5.1,3.6 l -2.1,-1.8 c 2.1,-1.3 4.2,-2.7 6.3,-4 10.7,-6.8 20.1,-15.6 32,-20.6 l 1.1,2.7 c -1.6,0.6 -3.1,1.7 -4.7,2.6 0.3,0.3 0.5,0.5 0.8,0.8 32,-9.2 64,-18.3 97,-27.8 l 0.6,-1.7 z"
       class="st0" />
    <path
       style="fill:#ffffff"
       inkscape:connector-curvature="0"
       id="path263"
       d="m -1618.7833,-397.97084 c 0.2,0.1 0.3,0.3 0.4,0.4 -0.1,-0.1 -0.3,-0.2 -0.4,-0.4 z"
       class="st0" />
    <path
       style="fill:#ffffff"
       inkscape:connector-curvature="0"
       id="path265"
       d="m -1553.0833,-303.27084 c 1.8,-1.1 3.7,-2.1 5.6,-3.2 -1.9,1 -3.7,2.1 -5.6,3.2 z"
       class="st0" />
    <path
       style="fill:#ffffff"
       inkscape:connector-curvature="0"
       id="path267"
       d="m -984.28335,-571.57084 c -5.8,9 -11.9,17.9 -17.69995,26.9 -0.4,-0.3 -0.8,-0.5 -1.2,-0.8 4.99995,-8.6 7.59995,-18.6 15.69995,-25.4 0.6,-0.5 1.1,-1.1 1.5,-1.9 l 0.9,0.6 0.8,0.6 z"
       class="st0" />
    <path
       inkscape:connector-curvature="0"
       id="path269"
       d="m -1259.4833,-257.37084 c 0.2,1 0.3,1.9 0.5,2.8 -8.7,2 -17.5,4.1 -26.3,5.9 -1.2,0.2 -2.6,-0.8 -4,-1.6 -0.2,-0.1 -0.4,-0.2 -0.6,-0.3 -0.1,-0.1 -0.2,-0.1 -0.3,-0.1 0.2,-0.1 0.4,-0.2 0.5,-0.3 0.5,-0.3 1.1,-0.6 1.6,-0.9 0.2,-0.1 0.4,-0.2 0.5,-0.3 0.5,-0.3 1.1,-0.5 1.7,-0.6 8.9,-1.6 17.6,-3.1 26.4,-4.6 z" />
    <path
       style="fill:#ffffff"
       inkscape:connector-curvature="0"
       id="path271"
       d="m -1452.0833,-262.87084 c 7.3,-2.7 14.6,-5.4 21.9,-8.1 -7.4,2.7 -14.7,5.4 -21.9,8.1 z"
       class="st0" />
    <path
       style="fill:#ffffff"
       inkscape:connector-curvature="0"
       id="path273"
       d="m -1236.1833,-445.07084 c -0.4,0.1 -0.8,0.1 -1.1,0.2 0.3,-0.1 0.7,-0.1 1.1,-0.2 z"
       class="st0" />
    <path
       style="fill:#ffffff"
       inkscape:connector-curvature="0"
       id="path275"
       d="m -1536.0833,-252.47084 c 5.4,-2.5 10.7,-4.9 16.1,-7.3 -5.4,2.4 -10.7,4.9 -16.1,7.3 z"
       class="st0" />
    <path
       inkscape:connector-curvature="0"
       id="path277"
       d="m -1503.4833,-264.27084 c -26.2,11.4 -52,23.7 -78,35.6 -0.4,0.2 -0.7,0.3 -1.1,0.5 -0.4,0.1 -0.7,0.3 -1.1,0.4 -0.2,-0.4 -0.4,-0.7 -0.6,-1.1 1,-0.6 2,-1.2 3,-1.8 1.7,-1 3.4,-2 5.2,-2.8 13.2,-6.5 26.6,-12.9 40,-19 5.4,-2.5 10.7,-4.9 16.1,-7.3 1.9,-0.8 3.8,-1.7 5.7,-2.5 19.7,-8.7 39.6,-16.9 59.8,-24.5 2.8,-1.1 5.5,-2.1 8.3,-3.1 18,-6.7 35.2,-15.6 52.9,-23.3 1.3,-0.6 2.7,-1.1 4.1,-1.7 1.4,-0.6 2.7,-1.1 4.1,-1.6 2.8,-1.1 5.6,-2.1 8.4,-3.2 l 0.8,2.1 c -1.3,0.5 -2.5,1 -3.8,1.6 -6.2,2.9 -12.3,5.8 -18.6,8.6 -6.2,2.8 -12.4,5.6 -18.7,8.3 -0.5,0.2 -1,0.4 -1.4,0.6 -12,5.3 -24.1,10.4 -36.1,15.5 -5,2.1 -10.1,4 -15.2,5.9 -2,0.8 -4.1,1.5 -6.1,2.2 -1,0.4 -2,0.7 -3.1,1.1 -3.1,1.1 -6.2,2.2 -9.2,3.4 -1,0.4 -2,0.8 -3.1,1.1 -2,0.8 -4.1,1.6 -6.1,2.4 -2.2,0.9 -4.2,1.8 -6.2,2.6 z" />
    <path
       style="fill:#ffffff"
       inkscape:connector-curvature="0"
       id="path279"
       d="m -1231.5833,-446.07084 c -0.2,0.2 -0.4,0.3 -0.6,0.5 0.2,-0.2 0.4,-0.3 0.6,-0.5 z"
       class="st0" />
    <path
       style="fill:#ffffff"
       inkscape:connector-curvature="0"
       id="path281"
       d="m -1426.6833,-342.67084 0,0 c -0.1,0.1 -0.3,0.1 -0.4,0.2 0.1,-0.1 0.2,-0.1 0.4,-0.2 z"
       class="st0" />
    <path
       inkscape:connector-curvature="0"
       id="path283"
       d="m -902.08335,-530.97084 c 4.9,2.4 9.1,5.8 13.1,9.3 1,0.9 2,1.8 3,2.6 2,1.8 4.1,3.5 6.2,5.1 4.5,3.4 9.1,6.7 13.8,10 3.1,2.2 6.2,4.3 9.3,6.5 1.6,1.1 3.1,2.1 4.7,3.2 3.1,2.1 6.2,4.3 9.4,6.4 14,9.6 28,19.1 42,28.6 0.7,0.5 1.2,1.1 1.8,1.7 -9.7,-5.1 -19.7,-9.6 -28.9,-15.4 -16.5,-10.5 -32.7,-21.7 -48.8,-32.9 -6,-4.2 -11.2,-9.4 -17,-13.8 -3.8,-2.9 -7.9,-5.4 -12,-8 -2.9,-1.8 -6.9,-2.9 -4.4,-7.7 l 2.1,0.4 c -0.1,0.8 0,1.3 0.4,1.7 0.3,0.3 0.8,0.6 1.4,0.8 1.4,0.4 2.7,1 3.9,1.5 z" />
    <path
       style="fill:#ffffff"
       inkscape:connector-curvature="0"
       id="path285"
       d="m -1324.5833,-301.97084 c 0.3,0.1 0.6,0.2 0.9,0.4 -0.4,-0.2 -0.6,-0.3 -0.9,-0.4 z"
       class="st0" />
    <path
       inkscape:connector-curvature="0"
       id="path287"
       d="m -1043.4833,-647.57084 c 0.2,0.5 0.4,1.1 0.5,1.6 -16.8,5.6 -33.5,11.3 -50.3,16.9 -0.2,-0.5 -0.3,-1 -0.5,-1.5 8.4,-2.8 16.8,-5.7 25.1,-8.5 8.5,-2.9 16.9,-5.7 25.2,-8.5 z" />
    <path
       style="fill:#ffffff"
       inkscape:connector-curvature="0"
       id="path289"
       d="m -1292.7833,-270.07084 c 0.5,0.3 1,0.6 1.5,0.9 -0.5,-0.3 -1,-0.6 -1.5,-0.9 z"
       class="st0" />
    <path
       style="fill:#ffffff"
       inkscape:connector-curvature="0"
       id="path291"
       d="m -1522.9833,-114.57084 0,0 c -0.3,0.2 -0.7,0.3 -1.1,0.5 0.4,-0.2 0.8,-0.3 1.1,-0.5 z"
       class="st0" />
    <path
       style="fill:#ffffff"
       inkscape:connector-curvature="0"
       id="path293"
       d="m -1352.1833,-52.770841 c 0.7,-1.6 1.6,-3.2 2.5,-4.7 -1,1.5 -1.8,3 -2.5,4.7 z"
       class="st0" />
    <path
       style="fill:#ffffff"
       inkscape:connector-curvature="0"
       id="path295"
       d="m -1454.5833,-282.87084 c -5,2.1 -10.1,4 -15.2,5.9 5.1,-1.9 10.2,-3.8 15.2,-5.9 12.1,-5.1 24.1,-10.2 36.1,-15.5 -12,5.2 -24,10.4 -36.1,15.5 z"
       class="st0" />
    <path
       inkscape:connector-curvature="0"
       id="path297"
       d="m -865.98335,-434.77084 c 1.4,0.9 3.8,0.9 5.6,0.5 21.7,-4.1 43.2,-8.9 63.8,-17.6 -2.3,2.2 -4.6,4.3 -6.9,6.5 0.2,0.2 0.3,0.3 0.5,0.5 2.9,-1.9 5.8,-3.8 8.8,-5.7 -2.6,2.3 -5,5.1 -7.7,7.3 -0.5,0.4 -1,0.8 -1.5,1.1 -0.8,0.5 -1.5,1 -2.4,1.3 -8.8,3.8 -18.1,6.2 -27.2,9.2 -6.2,2.1 -12.3,4.5 -18.6,6.4 -0.8,0.2 -1.7,0.1 -2.6,-0.2 -0.5,-0.1 -1,-0.3 -1.5,-0.5 -0.1,0 -0.2,-0.1 -0.3,-0.1 -3.1,-1 -6.2,-2.1 -9.3,-3.3 -1,-0.4 -2,-0.8 -3,-1.2 l 0.3,-0.7 c 0.3,-0.6 0.6,-1.2 0.9,-1.8 l 1.1,-1.7 z" />
    <path
       style="fill:#ffffff"
       inkscape:connector-curvature="0"
       id="path299"
       d="m -987.58335,-481.57084 c -8,2.9 -15.89995,5.8 -23.79995,8.8 7.9,-2.9 15.89995,-5.9 23.79995,-8.8 1.9,-0.7 4.8,0 6.8,0.9 1.3,0.6 2.6,1.2 3.8,1.8 -1.3,-0.6 -2.6,-1.2 -3.8,-1.8 -2,-0.9 -4.8,-1.6 -6.8,-0.9 z"
       class="st0" />
    <path
       inkscape:connector-curvature="0"
       id="path301"
       d="m -1095.4833,-178.57084 0,0 c -0.2,0 -0.3,-0.1 -0.5,-0.1 -1.4,-0.3 -2.8,-0.6 -4.1,-0.9 -5.5,-1.1 -10.9,-2.3 -16.4,-3.4 -0.1,0 -0.2,0 -0.3,-0.1 -16.2,-3.4 -32.5,-6.7 -48.8,-10.1 -3.3,-0.7 -6.6,-1.4 -10.2,-2.2 -1.6,-0.4 -3.4,-0.8 -5.2,-1.1 -3.3,36.9 -6.5,72.8 -9.7,108.699999 -0.1,0 -0.2,0 -0.2,0 -0.1,0 -0.3,0 -0.4,0 -0.1,0 -0.1,0 -0.2,0 0.4,-4.4 0.9,-8.8 1.2,-13.199999 1.7,-24 3.3,-48.1 5,-72.1 0.4,-6 1.3,-11.9 2.2,-17.8 0.6,-4.2 0.1,-7.3 -5,-7.5 0,-0.3 -0.1,-0.6 -0.1,-0.9 -0.1,-0.6 -0.2,-1.1 -0.2,-1.7 -0.1,-0.6 -0.2,-1.2 -0.2,-1.8 -0.1,-0.8 -0.2,-1.6 -0.3,-2.6 0,-0.2 0,-0.4 -0.1,-0.6 0,0.1 0.1,0.3 0.1,0.4 0.2,0.6 0.5,1.2 0.7,1.7 0.4,0.8 1,1.4 1.5,1.9 0.1,0.1 0.2,0.2 0.3,0.2 0.2,0.2 0.4,0.3 0.6,0.4 0.1,0.1 0.2,0.1 0.2,0.2 0.2,0.1 0.3,0.1 0.5,0.2 0.2,0.1 0.4,0.2 0.6,0.3 0.2,0.1 0.5,0.2 0.7,0.2 0.2,0.1 0.5,0.1 0.7,0.2 0.7,0.2 1.5,0.3 2.2,0.5 0.7,0.1 1.5,0.3 2.2,0.5 13.8,3.3 27.6,6.7 41.4,10 13.8,3.4 27.6,6.7 41.4,10.1 0.3,0 0.3,0.3 0.4,0.6 z" />
    <path
       inkscape:connector-curvature="0"
       id="path303"
       d="m -1347.3833,-192.67084 c 4.7,23.7 8,47.6 12.3,71.3 2.6,14.5 6,28.999999 9,43.499999 l 0,0 c 1.3,0.2 2.5,0.4 3.7,0.5 1.2,0.2 2.3,0.4 3.4,0.7 0.3,0.1 0.7,0.2 1.1,0.3 0.8,0.2 1.6,0.6 2.1,1 0.1,0 0.1,0.1 0.2,0.1 0.2,0.2 0.3,0.3 0.3,0.5 0.7,3.1 2.6,5.5 4.4,7.9 0.4,0.5 0.8,1 1.3,1.6 0,0 0,0 0,0 0.4,0.5 0.8,1 1.2,1.6 0.6,0.8 1.1,1.6 1.6,2.5 4.1,7.7 5.3,15.3 1.8,23.5 -3.5,8 -7.1,15.8 -14,21.5 -2.3,1.9 -4.7,3.5 -7.2,4.6 -0.6,0.3 -1.3,0.5 -1.9,0.8 -2.8,1.0000001 -5.8,1.3000001 -9.1,0.8000001 -0.5,-0.1000001 -1,-0.2000001 -1.4,-0.3000001 -0.2,-0.1 -0.5,-0.2 -0.7,-0.2 -0.7,-0.3 -1.5,-0.6 -2.2,-1 -0.5,-0.3 -1,-0.6 -1.5,-0.9 -5.9,-3.8 -11.4,-11.1 -12.1,-16.9 -0.1,-0.6 -0.1,-1.1 -0.2,-1.7 l 1.8,-0.1 c 1.9,-7.8 3.6,-14.5 5.2,-21.1 -0.5,-0.1 -0.9,-0.2 -1.4,-0.3 l -2.2,-0.5 c 0.7,-1.6 1.6,-3.2 2.5,-4.7 4,-6.6 9.9,-12.3 17.1,-17.2 1,-0.7 2,-1.3 2.9,-1.9 0.1,-0.1 0.2,-0.3 0.3,-0.5 -3.6,-18.1 -7.5,-36.099999 -10.8,-54.199999 -3.6,-20.2 -6.2,-40.7 -10,-60.8 l 2.5,-0.4 z m -1.2,159.299999 c 0.8,3.5 1.2,7.2 2.4,10.5 2.9,8.6 8.4,10.9 17.2,8.2 11.8,-3.6 22.2,-26.2 20.9,-34.5 -0.1,-0.5 -0.1,-1 -0.3,-1.5 -2.8,-6.5 -5.5,-13.2 -8.6,-19.6 -0.5,-1.1 -2.9,-2.3 -3.7,-1.9 -4.5,2 -9.9,3.5 -13,6.9 -7.9,9 -14,19.1 -14.9,31.9 z" />
    <path
       style="fill:#ffffff"
       inkscape:connector-curvature="0"
       id="path305"
       d="m -978.78335,-592.77084 c -0.2,-0.2 -0.3,-0.4 -0.4,-0.7 0.1,0.2 0.2,0.4 0.4,0.7 z"
       class="st0" />
    <path
       style="fill:#ffffff"
       inkscape:connector-curvature="0"
       id="path307"
       d="m -1210.0833,-283.97084 c 0.5,-0.3 1,-0.6 1.5,-0.9 -0.5,0.3 -1,0.6 -1.5,0.9 z"
       class="st0" />
    <path
       inkscape:connector-curvature="0"
       id="path309"
       d="m -918.28335,-505.77084 0.1,0.1 c -0.1,0 -0.1,0 -0.2,0 0,0 0,0 0.1,-0.1 z" />
    <path
       style="fill:#ffffff"
       inkscape:connector-curvature="0"
       id="path311"
       d="m -974.58335,-599.57084 0,0 c 0,0.1 0,0.1 0,0 l 0,0 z"
       class="st0" />
    <path
       style="fill:#ffffff"
       inkscape:connector-curvature="0"
       id="path313"
       d="m -1068.5833,-639.17084 c -8.4,2.8 -16.8,5.7 -25.1,8.5 l 0,0 c 8.4,-2.8 16.7,-5.6 25.1,-8.5 z"
       class="st0" />
    <path
       style="fill:#ffffff"
       inkscape:connector-curvature="0"
       id="path315"
       d="m -997.58335,-560.37084 0,0 c -0.2,-0.1 -0.3,-0.3 -0.5,-0.4 0.2,0.2 0.4,0.3 0.5,0.4 z"
       class="st0" />
    <path
       style="fill:#ffffff"
       inkscape:connector-curvature="0"
       id="path317"
       d="m -1624.2833,-401.67084 c 0.7,0.4 1.4,0.8 2.1,1.3 -0.7,-0.5 -1.4,-0.9 -2.1,-1.3 z"
       class="st0" />
    <path
       inkscape:connector-curvature="0"
       id="path319"
       d="m -1538.2833,-124.87084 c -5.6,6.4 -9.7,12.4 -7.5,21 2.4,-7 4.8,-13.6 7.5,-21 z m -10.5,19.6 c -0.4,-3.9 0.1,-8.5 1.7,-12.1 2,-4.4 4.7,-8.1 8.1,-11.3 0.8,-0.8 1.7,-1.5 2.6,-2.3 0.9,-0.7 1.8,-1.4 2.8,-2.1 1,-0.7 1.9,-1.3 2.9,-1.9 1,-0.6 2.1,-1.2 3.1,-1.7 0.4,-0.2 0.9,-0.4 1.4,-0.5 0.3,-0.1 0.6,-0.2 0.9,-0.2 0.2,0 0.4,-0.1 0.6,-0.1 l -0.2,2.6 c -0.1,0 -0.2,0 -0.2,0 0,0 0,0 0,0 0,0 0,0 0,0 0.8,0.5 1.7,0.9 2.6,1.1 1.4,0.4 2.8,0.6 4,1.1 0.2,0.1 0.4,0.2 0.6,0.3 0.9,0.5 1.7,1.2 2.1,2.4 -0.6,0.1 -1.2,0.2 -1.8,0.3 -0.3,0 -0.6,0.1 -0.9,0.1 -0.6,0.1 -1.2,0.1 -1.8,0.2 -1.8,0.2 -3.5,0.4 -5.2,0.8 -1.3,0.3 -2.6,0.8 -3.7,1.5 -0.7,0.4 -1.3,1 -1.9,1.5 -0.2,0.2 -0.4,0.4 -0.6,0.6 -2.4,2.4 -4.4,5.7 -5.5,8.8 -2.4,6.6 -4.3,13.7 -4.9,20.599999 -0.7,7.4 3.7,11.6 10.2,11 0.5,0 1.1,-0.1 1.7,-0.2 0.6,-0.1 1.2,-0.3 1.8,-0.5 4.1,-1.3 7.5,-3.2 10.4,-5.6 0.5,-0.4 1,-0.9 1.5,-1.4 4.7,-4.5 7.9,-10.399999 10.2,-16.999999 1.4,-4 2.4,-8.2 3.6,-12.3 2.8,12.1 -2.1,21.799999 -9.7,30.299999 -0.3,0.3 -0.6,0.7 -0.9,1 -1.9,2 -4,3.6 -6.2,5 -2.3,1.4 -4.7,2.4 -7.3,3.1 -1.3,0.3 -2.7,0.6 -4.1,0.7 -2.7,0.3 -5,0.1 -7,-0.7 -0.3,-0.1 -0.6,-0.2 -0.9,-0.4 -0.6,-0.3 -1.1,-0.6 -1.6,-1 0,0 0,0 0,0 -0.5,-0.4 -0.9,-0.8 -1.4,-1.2 -1.3,-1.4 -2.3,-3.2 -3.1,-5.4 -1.5,-4.7 -3.3,-9.899999 -3.9,-15.099999 z" />
    <path
       style="fill:#ffffff"
       inkscape:connector-curvature="0"
       id="path321"
       d="m -1034.0833,-513.17084 c 0.3,-0.1 0.7,-0.2 1,-0.2 -0.3,0 -0.7,0.1 -1,0.2 -1.9,0.6 -3.8,1.2 -5.7,1.8 2,-0.6 3.8,-1.2 5.7,-1.8 z"
       class="st0" />
    <path
       style="fill:#ffffff"
       inkscape:connector-curvature="0"
       id="path323"
       d="m -1530.4833,-315.77084 c 1.9,-1 3.9,-2.1 5.8,-3.1 -2,1 -3.9,2 -5.8,3.1 z"
       class="st0" />
    <path
       style="fill:#ffffff"
       inkscape:connector-curvature="0"
       id="path325"
       d="m -1098.1833,-440.07084 c 1.2,-0.5 2.6,-0.2 3.9,-0.3 -1.1,0.8 -2.3,1.6 -3.4,2.4 -1.1,0.8 -2.3,1.6 -3.4,2.4 0,0 0,0 0,0 -6.2,2.7 -12.5,5.3 -18.7,8 -14.6,6.4 -29.2,12.8 -43.7,19.4 -6.2,2.8 -12,6.3 -18,9.5 -4.7,2.5 -9.2,5.4 -14.1,7.2 -3.6,1.3 -7.7,1.3 -11.6,1.8 -0.2,-0.7 -0.4,-1.4 -0.6,-2.1 5,-2.3 10,-4.7 15,-7 26,-11.5 52,-23.1 78,-34.6 1.4,-0.6 2.7,-1.2 4.1,-1.8 4.1,-1.6 8.3,-3.3 12.5,-4.9 z"
       class="st0" />
    <path
       inkscape:connector-curvature="0"
       id="path327"
       d="m -1095.8833,-178.67084 c -0.1,0 -0.2,0 -0.3,-0.1 -1.3,-0.3 -2.5,-0.5 -3.8,-0.8 1.3,0.3 2.7,0.6 4.1,0.9 z" />
    <path
       style="fill:#ffffff"
       inkscape:connector-curvature="0"
       id="path329"
       d="m -1118.1833,-332.07084 c 1.5,-0.3 3.1,-0.6 4.6,-0.9 -1.6,0.3 -3.1,0.6 -4.6,0.9 z"
       class="st0" />
    <path
       style="fill:#ffffff"
       inkscape:connector-curvature="0"
       id="path331"
       d="m -1636.2833,-265.67084 c -0.4,0.1 -0.8,0.2 -1.2,0.3 0.4,-0.1 0.8,-0.2 1.2,-0.3 l 0,0 z"
       class="st0" />
    <path
       inkscape:connector-curvature="0"
       id="path333"
       d="m -1102.4833,-349.57084 c 6.8,-1.9 14,-2.2 21.9,-3.3 -33,9.5 -65,18.6 -97,27.8 -0.3,-0.3 -0.5,-0.5 -0.8,-0.8 1.6,-0.8 3.1,-1.9 4.7,-2.6 0.2,-0.1 0.5,-0.2 0.7,-0.2 23.5,-7.1 46.9,-14.3 70.5,-20.9 z" />
    <path
       style="fill:#ffffff"
       inkscape:connector-curvature="0"
       id="path335"
       d="m -1583.6833,-285.67084 c 1.8,-1.2 3.6,-2.4 5.3,-3.6 -1.8,1.2 -3.5,2.4 -5.3,3.6 z"
       class="st0" />
    <path
       style="fill:#ffffff"
       inkscape:connector-curvature="0"
       id="path337"
       d="m -1338.3833,-301.87084 c 1,-0.4 1.9,-0.6 2.8,-0.9 -0.9,0.2 -1.8,0.5 -2.8,0.9 l 0,0 z"
       class="st0" />
    <path
       inkscape:connector-curvature="0"
       id="path339"
       d="m -988.28335,-485.47084 c -2.7,-2.5 -4.8,-4.5 -6.9,-6.5 2.8,0.9 4.8,2.7 7,4.2 1.8,1.3 3.8,2.4 5.1,-0.7 2.2,0.9 4.3,1.9 6.5,2.8 l -0.8,1.9 c -0.9,-0.5 -2.3,0.1 -3.5,0.2 0,0.5 -0.1,0.9 -0.2,1.4 10.5,5.1 21,10.2 31.5,15.3 l -0.5,1.1 0,0 c -2.6,-1.2 -5.2,-2.3 -7.7,-3.6 -3.8,-1.8 -7.7,-3.7 -11.5,-5.6 -2.5,-1.2 -5.1,-2.5 -7.7,-3.7 -1.3,-0.6 -2.6,-1.2 -3.8,-1.8 -2,-0.9 -4.8,-1.6 -6.8,-0.9 -8,2.9 -15.89995,5.8 -23.79995,8.8 -23.8,8.8 -47.6,17.7 -71.4,26.6 -1.5,0.6 -2.9,1.2 -4.4,2 -0.5,0.2 -1,0.5 -1.4,0.7 -1.4,0.8 -2.8,1.5 -4.3,2.3 -0.5,0.2 -1,0.5 -1.4,0.7 -1.3,0.1 -2.8,-0.1 -3.9,0.3 -4.2,1.6 -8.3,3.3 -12.5,5.1 l -1.1,-2.6 c 13.2,-5.5 26.5,-11 39.8,-16.3 25.1,-10.1 50.6,-19.2 75.89995,-28.8 2.4,-1.1 4.9,-1.9 7.8,-2.9 z" />
    <path
       style="fill:#ffffff"
       inkscape:connector-curvature="0"
       id="path341"
       d="m -1326.0833,-302.57084 c -0.6,-0.2 -1.2,-0.3 -1.7,-0.5 0.6,0.2 1.2,0.3 1.7,0.5 z"
       class="st0" />
    <path
       style="fill:#ffffff"
       inkscape:connector-curvature="0"
       id="path343"
       d="m -1524.6833,-137.47084 0,0 c -0.2,0 -0.4,0.1 -0.6,0.1 0.2,0 0.4,-0.1 0.6,-0.1 z"
       class="st0" />
    <path
       style="fill:#ffffff"
       inkscape:connector-curvature="0"
       id="path345"
       d="m -1073.5833,-353.07084 c -0.7,-0.2 -1.4,-0.3 -2,-0.5 0.7,0.1 1.3,0.3 2,0.5 0.3,0.1 0.6,0.1 0.9,0.1 -0.3,0 -0.6,-0.1 -0.9,-0.1 z"
       class="st0" />
    <path
       style="fill:#ffffff"
       inkscape:connector-curvature="0"
       id="path347"
       d="m -1095.6833,-491.97084 c 4.2,-1.4 8.5,-2.6 12.9,-3.3 -49.5,19.5 -99.2,38.6 -148.1,59.5 0.2,0.6 0.3,1.1 0.4,1.7 3.1,0.6 6.2,1.1 9.3,1.7 0.1,-0.2 0.2,-0.4 0.3,-0.6 -0.7,-0.4 -1.3,-0.7 -2.1,-1.2 51,-20.3 101.8,-40.6 152.7,-60.7 13,-5.1 26.2,-9.6 39.3,-14.3 4.9,-1.8 9.7,-3.7 14.7,-5.1 2.2,-0.6 4.7,-0.2 7.1,-0.3 0.8,0.5 1.5,1 2.2,1.5 0.5,0.3 1,0.7 1.5,1 0.7,0.5 1.5,1 2.2,1.5 0.6,0.7 1.2,1.5 1.6,2.1 -3,1.9 -5.9,3.6 -8.7,5.4 -1.9,1.3 -3.9,2 -6,2.4 -2.7,0.6 -5.4,0.9 -8.1,1.6 -14.7,4 -29.4,8.4 -43.7,13.7 -24.8,9.1 -49.4,18.8 -74,28.5 -25.6,10.2 -51.2,20.5 -76.6,31.2 -10.8,4.5 -21.1,10.2 -31.7,15.2 0,0 -0.1,0 -0.1,0.1 -4.5,2.2 -8.9,2.1 -13.8,0.4 -14.4,-5 -29.1,-9.3 -43.7,-13.9 -2.4,-0.8 -4.9,-1.7 -7.7,-2.7 27.9,-1.4 55.1,-2.8 82.3,-4.2 0,-0.6 0,-1.2 0,-1.7 -4.8,-0.4 -9.6,-1 -14.4,-1.1 -5,-0.1 -10,0.3 -15,0.4 -13.3,0.5 -26.6,1 -39.9,1.5 -3.6,0.1 -7.6,-0.2 -10.9,1 -11.4,4.1 -19.2,-4.1 -27.7,-6.5 10.5,-0.5 21.7,-0.9 32.8,-1.5 21.9,-1.1 43.9,-2.2 65.8,-3.7 3.6,-0.2 7.1,-0.7 10.5,-2.3 1.3,-0.6 2.6,-1.4 3.9,-2.5 3.7,-3 9.7,-3 14.6,-4.7 39.4,-13.2 78.7,-26.7 118.1,-40.1 z"
       class="st0" />
    <path
       style="fill:#ffffff"
       inkscape:connector-curvature="0"
       id="path349"
       d="m -1151.2833,-198.87084 c 7.7,2 15.5,3.7 23.2,5.7 -7.7,-1.9 -15.5,-3.7 -23.2,-5.7 z"
       class="st0" />
    <path
       style="fill:#ffffff"
       inkscape:connector-curvature="0"
       id="path351"
       d="m -1578.3833,-209.47084 c 6.8,-2.6 13.5,-5.3 20.3,-8 -6.8,2.8 -13.6,5.5 -20.4,8.1 0,0 0,-0.1 0.1,-0.1 z"
       class="st0" />
    <path
       style="fill:#ffffff"
       inkscape:connector-curvature="0"
       id="path353"
       d="m -1338.3833,-301.87084 0,0 c -0.8,0.3 -1.7,0.7 -2.6,1.1 0.9,-0.5 1.8,-0.8 2.6,-1.1 z"
       class="st0" />
    <path
       style="fill:#ffffff"
       inkscape:connector-curvature="0"
       id="path355"
       d="m -1439.3833,-361.37084 c 5.4,3.2 10.7,6.4 16,9.5 -5.3,-3.1 -10.6,-6.2 -16,-9.5 z"
       class="st0" />
    <path
       inkscape:connector-curvature="0"
       id="path357"
       d="m -1003.1833,-502.67084 c -4.2,1.1 -8.5,2 -12.9,3.1 l -0.2,-1 c 2.1,-0.5 4.1,-1.2 6,-2.4 2.8,-1.9 5.7,-3.6 8.7,-5.4 -0.5,-0.6 -1,-1.3 -1.6,-2.1 2.9,1.8 5.59995,1.1 8.79995,0.1 9,-2.8 17.9,-5.6 26.9,-8.3 3,-0.9 6,-1.8 9,-2.7 9,-2.7 18,-5.4 26.9,-8.2 3,-0.9 6,-1.8 9,-2.7 1.1,-0.3 2.1,-0.6 3.2,-0.9 1.1,-0.3 2.2,-0.5 3.2,-0.8 0.4,-0.1 0.7,-0.2 1.1,-0.3 0.4,-0.1 0.7,-0.2 1.1,-0.3 -8,6.6 -17.8,9.1 -27.5,12 -19.5,5.9 -39,11.6 -59.69995,17.8 l -2,2.1 z" />
    <path
       style="fill:#ffffff"
       inkscape:connector-curvature="0"
       id="path359"
       d="m -1095.2833,-178.57084 c 0,0 0,0 0,0 0,0 -0.1,0 -0.1,0 0,0 0.1,0 0.1,0 z"
       class="st0" />
    <polygon
       transform="translate(-1765.0833,-691.67084)"
       style="fill:#ffffff"
       id="polygon361"
       points="779.9,119.6 779,119 779,119 "
       class="st0" />
    <rect
       style="fill:#ffffff"
       id="rect363"
       height="0"
       width="0"
       class="st0"
       y="-314.77087"
       x="-1170.8833" />
    <path
       style="fill:#ffffff"
       inkscape:connector-curvature="0"
       id="path365"
       d="m -1176.2833,-206.67084 c 8.2,3.2 16.6,5.7 25.1,7.8 -8.6,-2.1 -17,-4.6 -25.1,-7.8 z"
       class="st0" />
    <path
       style="fill:#ffffff"
       inkscape:connector-curvature="0"
       id="path367"
       d="m -1250.6833,-274.57084 c 0.5,0.2 1.2,0.8 2,1.5 -0.8,-0.7 -1.5,-1.3 -2,-1.5 -21.3,-7.6 -42.6,-15.2 -63.9,-22.9 -0.6,-0.2 -1.1,-0.4 -1.7,-0.6 0.5,0.2 1.1,0.4 1.7,0.6 21.3,7.7 42.6,15.3 63.9,22.9 z"
       class="st0" />
    <path
       style="fill:#ffffff"
       inkscape:connector-curvature="0"
       id="path369"
       d="m -1530.4833,-315.77084 c -5.8,3.1 -11.4,6.2 -17,9.3 5.6,-3.1 11.2,-6.2 17,-9.3 z"
       class="st0" />
    <path
       inkscape:connector-curvature="0"
       id="path371"
       d="m -898.28335,-499.57084 c 1.5,-0.2 2.9,-0.4 4.4,-0.7 0.4,0.4 0.8,0.8 1.1,1.1 -0.8,1.2 -1.6,2.3 -2.4,3.5 l -2.3,-0.9 c -0.2,-0.4 -0.4,-0.8 -0.6,-1.2 l -0.2,-1.8 z" />
    <path
       style="fill:#ffffff"
       inkscape:connector-curvature="0"
       id="path373"
       d="m -1392.2833,-284.67084 c 5.1,-1.8 10.1,-3.6 15.2,-5.4 -5.1,1.8 -10.2,3.6 -15.2,5.4 z"
       class="st0" />
    <path
       style="fill:#ffffff"
       inkscape:connector-curvature="0"
       id="path375"
       d="m -1006.7833,-620.37084 c 5.4,4.9 10.89995,9.8 16.29995,14.7 -5.5,-5 -10.89995,-9.8 -16.29995,-14.7 z"
       class="st0" />
    <path
       style="fill:#ffffff"
       inkscape:connector-curvature="0"
       id="path377"
       d="m -1289.7833,-250.47084 c 0.2,0.1 0.4,0.2 0.6,0.3 -0.3,-0.1 -0.4,-0.2 -0.6,-0.3 z"
       class="st0" />
    <path
       style="fill:#ffffff"
       inkscape:connector-curvature="0"
       id="path379"
       d="m -1107.3833,-187.17084 c -4.5,-1.6 -9.1,-2.9 -13.7,-4.2 4.6,1.3 9.2,2.6 13.7,4.2 l 0,0 z"
       class="st0" />
    <path
       inkscape:connector-curvature="0"
       id="path381"
       d="m -1010.9833,-561.17084 c 4.9,-9.2 12.79995,-15.6 20.29995,-22.4 1.1,-1 2.1,-1.9 3.2,-2.9 0.2,0.2 0.4,0.3 0.6,0.5 0.2,0.2 0.4,0.4 0.5,0.5 -5.7,5.4 -11.3,10.8 -16.99995,16.1 0.1,0.2 0.3,0.4 0.4,0.7 1.5,-0.4 2.99995,-0.8 4.49995,-1.3 0.1,0.2 0.3,0.3 0.4,0.5 -4.19995,2.8 -8.49995,5.6 -12.89995,8.3 z" />
    <path
       style="fill:#ffffff"
       inkscape:connector-curvature="0"
       id="path383"
       d="m -1225.4833,-279.87084 c 3.7,-2.8 7.4,-5.6 11.1,-8.4 -3.7,2.8 -7.4,5.6 -11.1,8.4 z"
       class="st0" />
    <path
       inkscape:connector-curvature="0"
       id="path385"
       d="m -1515.9833,-323.77084 c -2.9,1.6 -5.9,3.2 -8.8,4.8 -1.9,1.1 -3.9,2.1 -5.8,3.1 -5.8,3.1 -11.4,6.2 -17,9.3 -1.9,1 -3.7,2.1 -5.6,3.2 -2.8,1.6 -5.5,3.2 -8.2,4.9 -9.2,5.5 -18.1,11.5 -27.1,17.5 -5.3,3.6 -10.7,7.1 -16,10.7 -0.3,-0.5 -0.7,-1.1 -1,-1.6 1.8,-1.1 3.7,-2.2 5.5,-3.3 1.8,-1.1 3.6,-2.2 5.4,-3.4 1.8,-1.1 3.6,-2.3 5.4,-3.5 1.8,-1.2 3.6,-2.4 5.3,-3.5 1.8,-1.2 3.6,-2.4 5.3,-3.6 0.9,-0.6 1.8,-1.2 2.7,-1.8 2.7,-1.8 5.3,-3.6 8,-5.4 16.3,-10.7 32.9,-20.8 51.9,-27.4 z" />
    <path
       style="fill:#ffffff"
       inkscape:connector-curvature="0"
       id="path387"
       d="m -1155.7833,-202.97084 c -8.1,-2.3 -16.3,-4.7 -24.4,-7 l 0,0 c 8.1,2.4 16.2,4.7 24.4,7 z"
       class="st0" />
    <path
       style="fill:#ffffff"
       inkscape:connector-curvature="0"
       id="path389"
       d="m -1294.1833,-271.17084 c 0.5,0.4 1,0.7 1.4,1 -0.4,-0.2 -0.9,-0.6 -1.4,-1 z"
       class="st0" />
    <path
       inkscape:connector-curvature="0"
       id="path391"
       d="m -940.58335,-488.87084 c -0.3,0.2 -0.9,-0.1 -2.7,-0.4 8.4,-7.9 18.7,-10.6 27.8,-15.9 -1.1,-0.2 -1.8,-0.4 -2.5,-0.6 2.1,-1 4.2,-2.1 6.3,-3.1 0.3,0.2 0.7,0.4 1,0.6 -0.9,1.7 -1.3,4.3 -2.7,5.1 -9,5 -18.1,9.6 -27.2,14.3 z" />
    <path
       inkscape:connector-curvature="0"
       id="path393"
       d="m -1024.2833,-636.47084 c -3.1,-3 -6.1,-6 -9.1,-9 0.6,0.4 1.1,0.7 1.7,1.1 1.7,1.1 3.4,2.1 4.9,3.3 4,3.2 7.9,6.3 11.9,9.5 11.9,9.5 23.69995,19 35.69995,28.5 0.2,0.2 0.4,0.3 0.5,0.5 1.7,1.6 1.7,3.2 1.2,4.8 -0.2,0.5 -0.3,1.1 -0.5,1.6 -0.2,0.4 -0.3,0.9 -0.4,1.3 0,0.1 0,0.1 0,0.1 -0.1,0.3 -0.2,0.5 -0.2,0.8 0,0.2 -0.1,0.3 -0.1,0.5 0,0.3 0,0.5 0,0.8 0,0 0,0 0,0 -0.1,-0.2 -0.3,-0.4 -0.4,-0.7 -0.3,-0.5 -0.6,-1 -0.8,-1.5 -0.1,-0.2 -0.3,-0.5 -0.4,-0.7 -0.6,-1 -1.2,-1.9 -2,-2.6 -2.7,-2.5 -5.4,-4.9 -8.1,-7.4 -5.4,-4.9 -10.89995,-9.8 -16.29995,-14.7 -2.7,-2.4 -5.4,-4.9 -8.1,-7.4 -3.3,-3 -6.4,-5.8 -9.5,-8.8 z" />
    <path
       style="fill:#ffffff"
       inkscape:connector-curvature="0"
       id="path395"
       d="m -1411.7833,-345.47084 c -2.8,-0.3 -5.6,-0.1 -8.6,0.6 3,-0.7 5.8,-0.9 8.6,-0.6 z"
       class="st0" />
    <path
       style="fill:#ffffff"
       inkscape:connector-curvature="0"
       id="path397"
       d="m -1322.6833,-44.670841 c 0.9,-1 1.5,-2.7 1.2,-3.9 -0.3,-1.2 -1.8,-2.1 -2.8,-3.2 -1,0.5 -1.9,0.7 -2,1.1 -0.6,1.9 -1,3.8 -1.2,5.8 -0.1,0.3 0.9,1.2 1.3,1.2 1.2,-0.2 2.8,-0.3 3.5,-1 z m -6.3,30.1 c -8.8,2.7 -14.3,0.4 -17.2,-8.2 -1.1,-3.4 -1.6,-7 -2.4,-10.5 0.8,-12.8 6.9,-22.9 14.9,-31.8 3.1,-3.4 8.5,-4.9 13,-6.9 0.9,-0.4 3.2,0.9 3.7,1.9 3.1,6.4 5.8,13 8.6,19.6 0.2,0.5 0.2,1 0.3,1.5 1.3,8.2 -9.1,30.8 -20.9,34.4 z"
       class="st0" />
    <path
       inkscape:connector-curvature="0"
       id="path399"
       d="m -1439.1833,-513.57084 c 9,9.1 17,19.2 25.8,28.6 l 0,0 -1.8,1.6 c -12.4,-13.1 -27.1,-24 -40.2,-36.5 -30.2,-28.6 -60.1,-57.7 -87.4,-89.2 -7.6,-8.8 -16.6,-16.4 -24.5,-24.9 -5.1,-5.5 -9.4,-11.6 -14,-17.5 -0.6,-0.7 -0.7,-1.7 -1.1,-2.6 0.3,-0.4 0.6,-0.7 1,-1 0.8,0.6 1.5,1.2 2.3,1.8 0.5,0.4 1,0.8 1.5,1.2 0.2,0.2 0.5,0.4 0.7,0.6 0.5,0.4 1,0.9 1.4,1.3 13,13.3 25.8,26.9 39,40 l 0,0 c 4,4 8.1,8 12.1,12.1 8.1,8 16.2,16.1 24.3,24.1 8.1,8 16.2,16 24.3,24.1 4.1,4 8.1,8 12.2,12.1 4,4 8.1,8.1 12.1,12.1 4.2,4 8.3,8.1 12.3,12.1 z" />
    <path
       style="fill:#ffffff"
       inkscape:connector-curvature="0"
       id="path401"
       d="m -1612.2833,-256.57084 c 0.3,0.6 0.5,1.2 0.8,1.8 -0.3,-0.6 -0.5,-1.2 -0.8,-1.8 z"
       class="st0" />
    <path
       inkscape:connector-curvature="0"
       id="path403"
       d="m -1128.0833,-193.17084 c -7.7,-1.9 -15.5,-3.7 -23.2,-5.7 -8.5,-2.2 -16.9,-4.6 -25.1,-7.8 -1.5,-0.6 -3,-1.2 -4.4,-1.9 0.2,-0.5 0.3,-0.9 0.5,-1.4 8.2,2.3 16.3,4.7 24.4,7 12.5,3.6 24.9,7.2 37.4,10.8 3.8,1.1 7.6,2.2 11.5,3.3 -0.2,0.6 -0.3,1.1 -0.5,1.7 -4.5,-1.6 -9.1,-2.9 -13.7,-4.2 -2.2,-0.6 -4.5,-1.2 -6.9,-1.8 z" />
    <path
       inkscape:connector-curvature="0"
       id="path405"
       d="m -918.08335,-505.67084 c 0,0 -0.1,0.1 -0.1,0.1 l -0.1,-0.1 c 0,0 0.1,0 0.2,0 z" />
    <path
       style="fill:#ffffff"
       inkscape:connector-curvature="0"
       id="path407"
       d="m -1531.7833,-84.470841 c 0.5,0 1.1,-0.1 1.7,-0.2 -0.6,0.1 -1.2,0.2 -1.7,0.2 z"
       class="st0" />
    <path
       style="fill:#ffffff"
       inkscape:connector-curvature="0"
       id="path409"
       d="m -1184.5833,-216.17084 c -1.2,-0.7 -2.4,-1.4 -3.6,-2.2 1.2,0.7 2.4,1.5 3.6,2.2 0,0 0,0 0,0 z"
       class="st0" />
    <path
       style="fill:#ffffff"
       inkscape:connector-curvature="0"
       id="path411"
       d="m -1336.9833,-307.67084 c 1.2,0.6 2.5,1.2 3.7,1.8 -1.3,-0.6 -2.5,-1.2 -3.7,-1.8 z"
       class="st0" />
    <path
       style="fill:#ffffff"
       inkscape:connector-curvature="0"
       id="path413"
       d="m -1410.0833,-274.27084 c -0.1,0.1 -0.2,0.2 -0.3,0.2 0.1,0 0.2,-0.1 0.3,-0.2 z"
       class="st0" />
    <path
       style="fill:#ffffff"
       inkscape:connector-curvature="0"
       id="path415"
       d="m -1598.8833,-232.57084 c 0.7,1.1 1.4,2.3 2,3.4 -0.7,-1.1 -1.3,-2.3 -2,-3.4 z"
       class="st0" />
    <path
       inkscape:connector-curvature="0"
       id="path417"
       d="m -1629.5833,-405.37084 c -13.8,46 -25.8,92 -6.7,139.7 -0.4,0.1 -0.8,0.2 -1.2,0.3 -0.4,0.1 -0.8,0.2 -1.2,0.3 -1.9,-3.2 -4.1,-6.3 -5.5,-9.7 -8.8,-21.2 -9.1,-43.3 -6.7,-65.8 2.2,-20.6 9.8,-39.5 17.7,-58.4 0.2,-0.6 0.5,-1.1 0.7,-1.7 0.3,-0.7 0.6,-1.4 0.9,-2.1 0.2,-0.5 0.5,-1 0.9,-1.4 0.1,-0.1 0.2,-0.2 0.3,-0.3 0.1,-0.3 0.5,-0.6 0.8,-0.9 z" />
    <path
       inkscape:connector-curvature="0"
       id="path419"
       d="m -1619.1833,-178.77084 c 3.8,32.4 -1.8,63.6 -10.4,94.599999 -0.3,1.1 -0.5,2.3 -0.8,3.4 -0.2,0.8 -0.4,1.5 -0.7,2.1 l 0,0 -0.7,-0.2 c 5.9,-42.999999 14,-85.799999 3.8,-129.499999 5.7,9.1 7.6,19.2 8.8,29.6 z" />
    <path
       style="fill:#ffffff"
       inkscape:connector-curvature="0"
       id="path421"
       d="m -1519.4833,-84.970841 c 2.3,-1.4 4.3,-3 6.2,-5 -1.9,2 -4,3.6 -6.2,5 z"
       class="st0" />
    <path
       style="fill:#ffffff"
       inkscape:connector-curvature="0"
       id="path423"
       d="m -1406.5833,-344.27084 c -1.7,-0.6 -3.3,-1 -5,-1.2 1.7,0.2 3.3,0.6 5,1.2 z"
       class="st0" />
    <path
       inkscape:connector-curvature="0"
       id="path425"
       d="m -1425.3833,-251.47084 c -12,18.4 -24.1,36.9 -36.6,55.1 -14,20.4 -29.1,40.2 -43.7,60.2 -4.5,6.2 -9.2,12.2 -14.2,18.1 27.5,-47 63,-88.6 92.8,-134.4 l 1.7,1 z" />
    <path
       inkscape:connector-curvature="0"
       id="path427"
       d="m -1522.9833,-114.57084 c 0.1,1.1 0.5,2.6 0.1,3.8 -0.8,2.1 -2.1,4 -3.4,5.8 -0.1,0.1 -1,-0.3 -1.7,-0.6 -0.1,-0.1 -0.3,-0.1 -0.4,-0.2 -0.1,0 -0.1,-0.1 -0.2,-0.1 -0.2,-0.1 -0.3,-0.2 -0.3,-0.2 0,0 0,0 0,0 0.6,-2.1 1.1,-4.4 2.4,-6.3 0.1,-0.1 0.2,-0.3 0.3,-0.4 0.1,-0.1 0.1,-0.1 0.2,-0.2 0.6,-0.5 1.3,-0.8 2,-1 0.3,-0.2 0.7,-0.4 1,-0.6 z" />
    <path
       inkscape:connector-curvature="0"
       id="path429"
       d="m -1218.3833,-277.77084 c 0.4,-0.4 0.9,-0.8 1.3,-1.1 1.3,-1.1 2.7,-2.2 4.1,-3.2 0.5,-0.3 0.9,-0.6 1.4,-1 0.5,-0.3 1,-0.6 1.4,-0.9 l 0,0 c 0.5,-0.3 1,-0.6 1.5,-0.9 0,0 0,0 0,0 4.7,-2.6 9.9,-4.1 15.8,-4 -4.2,2.2 -8.3,4.3 -12.4,6.4 -4.1,2.1 -8.2,4.2 -12.3,6.4 -0.3,-0.5 -0.6,-1.1 -0.8,-1.7 z" />
    <path
       inkscape:connector-curvature="0"
       id="path431"
       d="m -1523.6833,-534.97084 c 8,8 16.6,15.3 24.6,23.4 7.8,7.9 15.9,15.7 22.5,24.6 9.9,13.5 21.8,24.3 35.8,33.5 9.8,6.4 18.6,14.6 27.9,21.8 2.9,2.2 6.2,3.8 9.3,5.7 11.2,6.5 22.4,13 33.7,19.4 7.7,4.3 15.5,8.4 23.2,12.5 18.7,9.9 37.4,19.6 56,29.7 22.8,12.4 47.5,19.8 71.6,28.8 3.1,1.1 6.4,1.7 9.5,3.1 -3.5,-0.5 -7.1,-0.6 -10.5,-1.7 -15.6,-5.1 -31.7,-9.3 -46.6,-16 -21.8,-9.8 -42.8,-21.5 -64,-32.4 -12.9,-6.6 -25.8,-13.1 -38.5,-20 -12.7,-6.9 -25.2,-14.1 -37.5,-21.8 -6.9,-4.3 -13.1,-9.6 -19.6,-14.5 -9.1,-6.8 -18.5,-13 -27.1,-20.4 -7.8,-6.7 -15.6,-13.7 -21.6,-21.9 -9.2,-12.7 -20.2,-23.3 -31.4,-34.1 -15.2,-14.5 -29.2,-30.1 -44.2,-44.8 -18.6,-18.2 -36.3,-37.1 -52.1,-57.7 -0.6,-0.7 -1.1,-1.5 -1.7,-2.3 0.4,-0.3 0.7,-0.6 1.1,-1 4.6,5.7 9,11.5 13.9,16.9 10.3,11.5 20.7,23 31.4,34.2 11.2,11.9 22.7,23.5 34.3,35 z" />
    <path
       style="fill:#ffffff"
       inkscape:connector-curvature="0"
       id="path433"
       d="m -1615.9833,-363.27084 c 0.3,0 0.6,0 0.9,0.1 -0.4,6.2 -0.8,12.4 -1.2,18.6 -0.4,0 -0.8,-0.1 -1.2,-0.1 0.5,-6.2 1,-12.4 1.5,-18.6 z"
       class="st0" />
    <path
       style="fill:#ffffff"
       inkscape:connector-curvature="0"
       id="path435"
       d="m -1216.8833,-258.67084 c 0.5,-0.2 1,-0.4 1.4,-0.6 -0.4,0.2 -0.9,0.4 -1.4,0.6 l 0,0 0,0 z"
       class="st0" />
    <path
       style="fill:#ffffff"
       inkscape:connector-curvature="0"
       id="path437"
       d="m -1475.9833,-274.77084 c 2.1,-0.8 4.1,-1.5 6.1,-2.2 -2,0.7 -4,1.5 -6.1,2.2 z"
       class="st0" />
    <path
       style="fill:#ffffff"
       inkscape:connector-curvature="0"
       id="path439"
       d="m -1237.3833,-444.87084 c -0.4,0 -0.8,0.1 -1.1,0.1 0.4,0 0.7,-0.1 1.1,-0.1 z"
       class="st0" />
    <path
       style="fill:#ffffff"
       inkscape:connector-curvature="0"
       id="path441"
       d="m -954.28335,-631.27084 c 0.6,-0.4 1.1,-0.8 1.7,-1.1 -0.6,0.4 -1.2,0.7 -1.7,1.1 z"
       class="st0" />
    <path
       style="fill:#ffffff"
       inkscape:connector-curvature="0"
       id="path443"
       d="m -1179.7833,-309.27084 c 3.1,-1.6 6.1,-3.4 8.9,-5.4 -2.8,2 -5.8,3.8 -8.9,5.4 z"
       class="st0" />
    <path
       inkscape:connector-curvature="0"
       id="path445"
       d="m -897.78335,-491.87084 c 1.5,-0.4 3,-0.8 4.5,-1.2 l 0.5,2 c -5.9,2.2 -11.8,4.4 -17.8,6.6 -0.4,-0.8 -0.9,-1.6 -1.3,-2.5 4.8,-3.2 9.6,-6.4 14.3,-9.6 l 2.3,0.9 c -0.7,1.3 -1.6,2.5 -2.5,3.8 z" />
    <path
       style="fill:#ffffff"
       inkscape:connector-curvature="0"
       id="path447"
       d="m -969.28335,-475.17084 c 3.8,1.9 7.6,3.8 11.5,5.6 -3.9,-1.8 -7.7,-3.7 -11.5,-5.6 z"
       class="st0" />
    <path
       style="fill:#ffffff"
       inkscape:connector-curvature="0"
       id="path449"
       d="m -1062.4833,-550.97084 c 1.3,1.5 2.6,3 3.9,4.5 -1.3,-1.5 -2.6,-3 -3.9,-4.5 z"
       class="st0" />
    <path
       inkscape:connector-curvature="0"
       id="path451"
       d="m -962.28335,-499.77084 c -2,0.8 -4.5,0.7 -6.8,0.4 5.7,-5.8 42,-19.7 48.1,-18 -5.7,2.4 -11.4,4.9 -17.1,7.3 -8,3.5 -16,7 -24.2,10.3 z" />
    <path
       style="fill:#ffffff"
       inkscape:connector-curvature="0"
       id="path453"
       d="m -1249.0833,-407.67084 c 0.7,-0.3 1.4,-0.5 2,-0.6 11.4,-2.6 20.6,-9.9 31.1,-14.3 42.3,-17.7 84.7,-35 127.3,-52 19,-7.6 38.2,-14.4 57.6,-20.9 4.9,-1.7 9.9,-3 14.9,-4.1 4.4,-1 8.7,-2 12.9,-3.1 5.59995,5.8 12.19995,10.2 19.69995,13.3 0.1,0.3 0.2,0.6 0.3,0.8 -1.3,3.2 -3.3,2.1 -5.1,0.7 -2.1,-1.6 -4.1,-3.3 -7,-4.2 2.1,2 4.2,4 6.9,6.5 -2.9,1 -5.4,1.8 -7.8,2.7 -25.29995,9.6 -50.79995,18.7 -75.89995,28.8 -13.3,5.3 -26.5,10.8 -39.8,16.3 -17,7.1 -33.9,14.3 -50.9,21.4 -17.3,7.3 -34.6,14.7 -51.9,21.9 -1.1,0.4 -2.6,0.4 -3.8,0 -11.3,-3.8 -22.6,-7.7 -34.7,-11.9 1.8,-0.3 3,-0.9 4.2,-1.3 z"
       class="st0" />
    <path
       inkscape:connector-curvature="0"
       id="path455"
       d="m -907.08335,-536.97084 c -0.3,0.8 -0.5,1.4 -0.6,1.9 l 0,0 -2.1,-0.4 c -0.5,-0.1 -1,-0.2 -1.4,-0.3 1,-2.8 2.4,-5.5 2.8,-8.4 2,-15.8 3.8,-31.6 5.5,-47.5 1.3,-12.9 2.3,-25.8 3.6,-38.7 0.2,-1.8 0.9,-3.6 1.4,-5.5 0.5,0 1.1,0.1 1.7,0.1 0,3.8 0,7.6 0,11.3 -0.1,23.2 -1,46.2 -5.9,68.9 -1.5,6.5 -2.6,12.8 -5,18.6 z" />
    <path
       inkscape:connector-curvature="0"
       id="path457"
       d="m -1001.1833,-504.87084 c 5.89995,3.9 10.19995,7 14.69995,9.7 2.4,1.4 3.7,3 2.9,5.9 -7.5,-3.1 -14.1,-7.5 -19.69995,-13.3 l 2.1,-2.3 z" />
    <path
       inkscape:connector-curvature="0"
       id="path459"
       d="m -1630.6833,-210.07084 c -2.4,0.8 -4.9,1.7 -7.3,2.6 -1,0.4 -2.4,1.2 -2.9,2.1 l -2.9,-0.9 c 0,-0.1 0.1,-0.2 0.1,-0.3 -9,-1.1 -17.9,-1.8 -25.4,-6.1 -1.2,-0.7 -2.4,-1.5 -3.5,-2.3 -0.8,-0.7 -1.7,-1.4 -2.4,-2.1 0.2,-0.6 0.4,-1.2 0.6,-1.8 0.2,0.1 0.5,0.1 0.7,0.2 0.7,0.2 1.4,0.4 2.2,0.5 0.5,0.1 1,0.3 1.4,0.4 0.4,0.1 0.9,0.3 1.4,0.5 1.7,0.8 3.5,1.5 5.2,2.1 1.9,0.7 3.8,1.2 5.8,1.6 5,1.2 10.1,1.7 15.2,1.7 0.8,0 1.6,0 2.4,0 0.6,0 1.1,0 1.7,-0.1 0.7,0 1.4,-0.1 2.1,-0.1 0.8,0 1.7,-0.1 2.5,-0.2 0.4,0 0.8,-0.1 1.3,-0.1 0.1,0 0.3,0 0.4,-0.1 0.1,0 0.3,-0.1 0.5,-0.1 l 0.9,2.5 z" />
    <path
       inkscape:connector-curvature="0"
       id="path461"
       d="m -992.38335,-590.77084 c -6.4,6 -12.79995,11.9 -19.19995,17.8 -0.4,-0.4 -0.7,-0.8 -1.1,-1.1 6.3,-6 12.69995,-11.9 19.09995,-17.9 0.3,0.4 0.8,0.8 1.2,1.2 z" />
    <path
       inkscape:connector-curvature="0"
       id="path463"
       d="m -1355.5833,-30.870841 c -0.8,-8.2 0.5,-15.5 3.3,-21.9 l 0,0 2.2,0.5 c -1.2,6.7 -2.4,13.4 -3.8,21.3 l -1.7,0.1 z" />
    <path
       style="fill:#ffffff"
       inkscape:connector-curvature="0"
       id="path465"
       d="m -1258.9833,-238.17084 0,0 c -1.7,1.2 -3.4,2.4 -5,3.6 1.6,-1.2 3.3,-2.4 5,-3.6 z"
       class="st0" />
    <path
       style="fill:#ffffff"
       inkscape:connector-curvature="0"
       id="path467"
       d="m -1596.2833,-209.17084 0,0 c -5.1,-3.2 -10.3,-6.4 -15.4,-9.6 5.2,3.2 10.3,6.4 15.4,9.6 z"
       class="st0" />
    <path
       inkscape:connector-curvature="0"
       id="path469"
       d="m -1007.5833,-599.57084 c -2.2,1.7 -4.5,3.3 -6.7,5 -0.3,-0.4 -0.6,-0.8 -0.9,-1.2 2.2,-1.6 4.5,-3.3 6.8,-4.9 2.2,-1.6 4.5,-3.3 6.8,-4.9 0.3,0.4 0.6,0.8 0.9,1.1 -2.4,1.6 -4.7,3.2 -6.9,4.9 z" />
    <path
       style="fill:#ffffff"
       inkscape:connector-curvature="0"
       id="path471"
       d="m -1169.6833,-315.67084 c -0.4,0.3 -0.8,0.6 -1.2,0.9 l 0,0 c 0.4,-0.3 0.8,-0.6 1.2,-0.9 z"
       class="st0" />
    <path
       style="fill:#ffffff"
       inkscape:connector-curvature="0"
       id="path473"
       d="m -1066.2833,-555.47084 c 1.3,1.5 2.6,3 3.8,4.5 -1.3,-1.5 -2.6,-3 -3.8,-4.5 z"
       class="st0" />
    <path
       style="fill:#ffffff"
       inkscape:connector-curvature="0"
       id="path475"
       d="m -944.68335,-636.77084 c -1.3,0.1 -2.7,0.1 -4,0.2 -0.2,0 -0.4,0 -0.5,0.1 0.2,0 0.4,-0.1 0.5,-0.1 1.3,0 2.7,-0.1 4,-0.2 z"
       class="st0" />
    <path
       inkscape:connector-curvature="0"
       id="path477"
       d="m -1594.9833,-198.27084 c -0.7,0.1 -1.5,0 -2.4,-0.2 -0.4,-0.1 -0.8,-0.2 -1.3,-0.4 -0.2,0 -0.3,-0.1 -0.5,-0.2 -3.9,-1.5 -8.8,-4.9 -12.1,-8.3 -0.2,-0.2 -0.4,-0.4 -0.6,-0.6 -1.5,-1.6 -2.6,-3.1 -3.1,-4.4 0.4,-0.4 0.7,-0.8 1.1,-1.3 0.8,0.6 1.5,1.2 2.3,1.9 5.5,4.5 10.9,8.9 16.6,13.5 z" />
    <path
       inkscape:connector-curvature="0"
       id="path479"
       d="m -1377.0833,-290.07084 c 12.7,-4.5 25.4,-9.1 38.1,-13.7 l 0.7,1.9 c -0.8,0.3 -1.7,0.7 -2.6,1.1 -5.3,2.5 -10.8,4.6 -16.3,6.7 -2.7,1 -5.5,2 -8.2,3 -1.4,0.5 -2.8,1 -4.1,1.5 -1.4,0.5 -2.7,1 -4.1,1.5 l 0,0 c 10.4,29.4 18.8,59.1 25,89.3 l 0,0 -2.8,0.6 0,0 c -0.7,-3.1 -1.3,-6.3 -2.1,-9.4 -5.3,-22.6 -13.8,-44.4 -20.8,-66.6 -1.3,-4 -2.6,-7.9 -4.1,-12.1 -10.3,3.8 -20.6,7.6 -30.8,11.4 -0.1,0 -0.2,0.1 -0.3,0.1 -0.2,0.1 -0.4,0.2 -0.6,0.4 -0.1,0.1 -0.2,0.2 -0.3,0.2 -0.4,0.3 -0.7,0.7 -0.9,1.1 l 0,0 c -2.4,3.6 -4.7,7.2 -7.1,10.7 -2.4,3.6 -4.7,7.2 -7,10.7 l -1.7,-1.1 0,0 c 4.2,-6.5 8.4,-13.2 12.4,-19.9 -45.8,13.3 -89.3,32.7 -133.3,50.8 -3.4,1.4 -6.8,2.8 -10.2,4.1 -6.8,2.7 -13.5,5.4 -20.3,8 9.6,-4.8 19.2,-9.3 28.9,-13.8 2.4,-1.1 4.9,-2.2 7.3,-3.3 4.9,-2.2 9.8,-4.3 14.7,-6.4 4.9,-2.1 9.8,-4.2 14.8,-6.2 20,-8.3 40.2,-16.1 60.6,-23.7 7.3,-2.7 14.6,-5.4 21.9,-8.1 12.6,-4.6 25.2,-9.1 37.9,-13.7 5.1,-1.5 10.2,-3.3 15.3,-5.1 z" />
    <path
       style="fill:#ffffff"
       inkscape:connector-curvature="0"
       id="path481"
       d="m -1327.9833,-303.07084 c -2.5,-0.5 -4.9,-0.3 -7.5,0.3 2.5,-0.6 5,-0.8 7.5,-0.3 z"
       class="st0" />
    <path
       style="fill:#ffffff"
       inkscape:connector-curvature="0"
       id="path483"
       d="m -1217.0833,-278.87084 c 1.3,-1.1 2.7,-2.2 4.1,-3.2 -1.4,1 -2.7,2 -4.1,3.2 z"
       class="st0" />
    <path
       style="fill:#ffffff"
       inkscape:connector-curvature="0"
       id="path485"
       d="m -1159.0833,-320.97084 c 7.3,-2.1 14.6,-4.3 22,-6.4 -7.4,2.1 -14.7,4.3 -22,6.4 z"
       class="st0" />
    <path
       style="fill:#ffffff"
       inkscape:connector-curvature="0"
       id="path487"
       d="m -1097.6833,-438.07084 c -1.1,0.8 -2.3,1.6 -3.4,2.4 0,0 0,0 0,0 0,0 0,0 0,0 1.2,-0.8 2.3,-1.6 3.4,-2.4 z"
       class="st0" />
    <path
       style="fill:#ffffff"
       inkscape:connector-curvature="0"
       id="path489"
       d="m -1630.5833,-404.47084 c -0.1,0.1 -0.2,0.2 -0.3,0.3 0.1,0 0.2,-0.2 0.3,-0.3 z"
       class="st0" />
    <path
       style="fill:#ffffff"
       inkscape:connector-curvature="0"
       id="path491"
       d="m -1210.9833,-304.77084 c -5.1,3.5 -10.4,6.8 -15.4,10.5 -4.7,3.4 -9.7,6.7 -13.2,11.1 -3.2,4 -5.5,4.2 -10.1,1.1 6.3,-4.3 12.1,-8.3 18,-12.2 6.2,-4.1 12.5,-8.2 18.7,-12.2 l 2,1.7 z"
       class="st0" />
    <path
       inkscape:connector-curvature="0"
       id="path493"
       d="m -1283.1833,-222.17084 c -1.2,0.1 -2.6,-0.6 -3.8,-0.9 0.5,-1.1 0.6,-2.9 1.4,-3.3 3.2,-1.8 6.3,-3.5 9.6,-5.2 3.2,-1.7 6.4,-3.4 9.6,-5.1 2.1,-1.1 4.5,-1.9 6.7,-2.8 0.2,0.4 0.5,0.8 0.7,1.3 -1.7,1.2 -3.4,2.4 -5,3.6 -1.7,1.2 -3.3,2.4 -5,3.6 -3.4,2.4 -6.7,4.8 -10.1,7.1 -0.3,0.2 -0.6,0.4 -0.9,0.6 -1.1,0.6 -2.1,1 -3.2,1.1 z" />
    <path
       style="fill:#ffffff"
       inkscape:connector-curvature="0"
       id="path495"
       d="m -1339.4833,-308.77084 c 0.8,0.4 1.6,0.8 2.4,1.1 -0.7,-0.4 -1.6,-0.7 -2.4,-1.1 z"
       class="st0" />
    <path
       style="fill:#ffffff"
       inkscape:connector-curvature="0"
       id="path497"
       d="m -1488.2833,-270.27084 c 3.1,-1.2 6.1,-2.3 9.2,-3.4 -3.1,1.1 -6.1,2.3 -9.2,3.4 z"
       class="st0" />
    <path
       style="fill:#ffffff"
       inkscape:connector-curvature="0"
       id="path499"
       d="m -1348.5833,-52.070841 c -1.6,6.6 -3.3,13.2 -5.2,21.1 1.4,-7.9 2.6,-14.6 3.8,-21.3 0.5,0 0.9,0.1 1.4,0.2 z"
       class="st0" />
    <path
       style="fill:#258cd6"
       inkscape:connector-curvature="0"
       id="path501"
       d="m -1188.0833,-199.27084 c -0.1,-0.6 -0.2,-1.1 -0.2,-1.7 0,0.5 0.1,1.1 0.2,1.7 z"
       class="st1" />
    <path
       style="fill:#ffffff"
       inkscape:connector-curvature="0"
       id="path503"
       d="m -1514.2833,-262.17084 c 19.7,-8.7 39.6,-16.9 59.8,-24.5 -20.2,7.6 -40.1,15.8 -59.8,24.5 z"
       class="st0" />
    <path
       style="fill:#ffffff"
       inkscape:connector-curvature="0"
       id="path505"
       d="m -1087.1833,-444.17084 c 1.4,-0.7 2.9,-1.4 4.4,-2 -1.5,0.6 -2.9,1.2 -4.4,2 z"
       class="st0" />
    <path
       style="fill:#ffffff"
       inkscape:connector-curvature="0"
       id="path507"
       d="m -992.38335,-571.67084 c -1.8,0.8 -3.7,1.6 -5.5,2.4 1.8,-0.9 3.6,-1.7 5.5,-2.4 l 0,0 z"
       class="st0" />
    <path
       style="fill:#ffffff"
       inkscape:connector-curvature="0"
       id="path509"
       d="m -878.18335,-434.77084 c 2.6,1.2 5.2,2.3 7.9,3.5 -2.7,-1.1 -5.3,-2.3 -7.9,-3.5 z"
       class="st0" />
    <path
       style="fill:#ffffff"
       inkscape:connector-curvature="0"
       id="path511"
       d="m -1524.6833,-137.47084 c 0.8,-0.1 1.5,-0.2 2.3,-0.2 -0.7,0 -1.5,0.1 -2.3,0.2 l 0,0 z"
       class="st0" />
    <path
       inkscape:connector-curvature="0"
       id="path513"
       d="m -1085.2833,-337.17084 c -0.7,0.1 -1.3,0.2 -2,0.3 -1.1,0.2 -2.2,0.3 -3.3,0.5 -7.7,1.1 -15.5,2 -23.1,3.4 -1.5,0.3 -3.1,0.6 -4.6,0.9 -0.1,0 -0.1,0 -0.2,0 -0.7,0.1 -1.4,0.3 -2,0.4 -1.9,0.4 -3.7,0.9 -5.6,1.3 -3.7,0.9 -7.4,1.9 -11.1,2.9 -7.4,2 -14.7,4.3 -22,6.4 -1.8,0.5 -3.7,1.1 -5.5,1.6 -0.1,0 -0.2,0 -0.2,0.1 -0.2,0.1 -0.3,0.1 -0.5,0.2 -0.4,0.1 -0.8,0.3 -1.1,0.6 -0.7,0.7 -1.5,1.4 -2.2,2 -0.4,0.3 -0.8,0.6 -1.1,0.9 -0.4,0.3 -0.8,0.6 -1.2,0.9 l 0,0 -0.7,-0.9 c 4.9,-8.7 14.4,-8.1 22.1,-10.6 20.1,-6.7 40.9,-10.2 62,-12.3 1.3,-0.1 2.6,-0.4 3.9,-0.6 5,-0.8 8.7,-2.6 7,-8.7 -0.3,-1 0.3,-2.3 0.5,-3.7 0.4,1.1 0.7,2.1 1,3.1 0,0.1 0.1,0.2 0.1,0.2 1,3.8 0.8,6.3 -1,8 -0.2,0.2 -0.5,0.4 -0.8,0.6 -0.2,0.1 -0.4,0.3 -0.6,0.4 -0.1,0.1 -0.2,0.1 -0.3,0.2 -0.2,0.1 -0.5,0.2 -0.8,0.3 -0.3,0.1 -0.5,0.2 -0.8,0.3 -0.4,0.1 -0.9,0.3 -1.4,0.4 -0.8,0.2 -1.8,0.4 -2.8,0.6 -0.6,0.1 -1.1,0.2 -1.7,0.3 z" />
    <path
       style="fill:#ffffff"
       inkscape:connector-curvature="0"
       id="path515"
       d="m -961.58335,-622.47084 c -0.1,0.1 -0.2,0.3 -0.2,0.4 0,-0.1 0.1,-0.2 0.2,-0.4 z"
       class="st0" />
    <path
       style="fill:#ffffff"
       inkscape:connector-curvature="0"
       id="path517"
       d="m -1217.5833,-275.97084 c 4.1,-2.1 8.2,-4.2 12.3,-6.4 -4.1,2.1 -8.2,4.3 -12.3,6.4 l 0,0 z"
       class="st0" />
    <path
       style="fill:#ffffff"
       inkscape:connector-curvature="0"
       id="path519"
       d="m -915.58335,-505.17084 c -9.1,5.3 -19.3,8.1 -27.8,15.9 1.8,0.3 2.4,0.6 2.7,0.4 9.1,-4.7 18.2,-9.3 27.1,-14.3 1.4,-0.8 1.8,-3.3 2.7,-5.1 -0.3,-0.2 -0.7,-0.4 -1,-0.6 -2.1,1 -4.2,2.1 -6.3,3.1 -0.1,0 -0.1,0 -0.2,0 0,0 -0.1,0.1 -0.1,0.1 -3,0.3 -6.1,0.6 -9.1,0.9 -0.1,-0.2 -0.2,-0.4 -0.3,-0.6 3.9,-2.2 7.7,-4.3 11.6,-6.5 -0.3,-0.6 -0.6,-1.1 -1,-1.7 -13.3,5.9 -26.6,11.9 -39.8,17.8 0.1,0.5 0.3,1 0.4,1.5 2,-0.2 4.1,0 5.8,-0.8 10.1,-4.2 20,-9 31.1,-9.8 0.4,0 0.8,-0.5 1.2,-0.9 0.1,0 0.1,0 0.2,0 0,0 0.1,-0.1 0.1,-0.1 0.9,0.3 1.6,0.5 2.7,0.7 z m 22.8,14.1 c 0.2,0.3 0.3,0.6 0.5,0.9 -0.8,1 -1.7,1.9 -2.5,2.9 -0.6,0.9 -1,1.9 -1.9,3.6 8.6,-2.4 10.8,-5.1 9.7,-11.1 -2.1,0.6 -4.2,1.2 -6.4,1.8 -1.5,0.4 -3,0.8 -4.5,1.2 0.9,-1.3 1.8,-2.6 2.6,-3.8 0.8,-1.2 1.6,-2.4 2.4,-3.5 -0.4,-0.4 -0.8,-0.7 -1.1,-1.1 -1.5,0.2 -2.9,0.5 -4.4,0.7 -1.1,0.2 -2.1,0.3 -3.2,0.5 0,-1 0,-2 0,-4.7 -7.2,7.5 -17,9 -22.6,17 4.7,-1 8.9,-2.9 13.1,-4.9 4.3,-2 8.6,-4 12.9,-6 0.2,0.4 0.4,0.8 0.6,1.2 -4.8,3.2 -9.6,6.4 -14.3,9.6 0.4,0.8 0.9,1.6 1.3,2.5 6,-2.4 11.9,-4.6 17.8,-6.8 z m -0.6,-28.6 c 5.8,4.5 11,9.7 17,13.8 16.1,11.2 32.2,22.4 48.8,32.9 9.2,5.8 19.3,10.3 28.9,15.4 1.4,2.4 7.7,1.6 4.5,7 -2.9,1.9 -5.8,3.8 -8.8,5.7 -0.2,-0.2 -0.3,-0.3 -0.5,-0.5 2.3,-2.2 4.6,-4.3 6.9,-6.5 -20.6,8.7 -42.1,13.5 -63.8,17.6 -1.8,0.3 -4.2,0.4 -5.6,-0.5 -22.4,-15.3 -48.2,-23.2 -72.7,-33.8 -8.4,-3.6 -16.6,-7.7 -24.9,-11.4 -4.3,-2 -8.7,-3.8 -13.1,-5.7 -2.2,-0.9 -4.3,-1.8 -6.5,-2.8 -0.1,-0.3 -0.2,-0.6 -0.3,-0.8 0.8,-2.8 -0.5,-4.4 -2.9,-5.9 -4.5,-2.7 -8.8,-5.8 -14.69995,-9.7 20.79995,-6.2 40.29995,-11.9 59.69995,-17.8 9.6,-2.9 19.4,-5.4 27.5,-12 0.5,-0.2 0.9,-0.3 1.4,-0.5 0.5,-0.2 0.9,-0.3 1.4,-0.5 0.5,0.1 1,0.2 1.4,0.3 -2.5,4.8 1.5,5.9 4.4,7.7 4,2.6 8.1,5.1 11.9,8 z m -44.6,9.6 c 5.7,-2.4 11.4,-4.9 17.1,-7.3 -6.1,-1.7 -42.4,12.2 -48.1,18 2.3,0.2 4.7,0.4 6.8,-0.4 8.1,-3.3 16.1,-6.8 24.2,-10.3 z"
       class="st0" />
    <path
       inkscape:connector-curvature="0"
       id="path521"
       d="m -1265.2833,-266.97084 c -8.7,-0.4 -17.9,2 -26,-2.3 -0.5,-0.3 -1,-0.6 -1.5,-0.9 -0.5,-0.3 -1,-0.7 -1.4,-1 -0.3,-0.2 -0.6,-0.5 -0.9,-0.8 0.1,-0.5 0.2,-1.1 0.3,-1.6 9.8,2.2 19.6,4.4 29.5,6.6 z" />
    <path
       style="fill:#ffffff"
       inkscape:connector-curvature="0"
       id="path523"
       d="m -1634.7833,-94.470841 c 9.7,-36.499999 14.7,-73.199999 3,-110.299999 10.2,37.1 3.2,73.6 -3,110.299999 z m -3.3,9.5 c 0,0 -1.1,0.7 -1.3,0.6 -3.1,-3.2 -6.4,-6.2 -8.6,-9.9 -1,-1.7 -1.8,-3.6 -2.3,-5.7 -5.3,-24.199999 -4.6,-48.199999 0.9,-72.199999 2.5,-11 5.5,-21.9 8.5,-32.8 0,-0.1 0.1,-0.2 0.2,-0.4 0.5,-0.9 1.8,-1.7 2.9,-2.1 2.4,-0.9 4.8,-1.8 7.3,-2.6 0.6,-0.2 1.3,-0.5 2,-0.7 l 0.9,2.5 c 10.2,43.7 2.1,86.5 -3.8,129.499999 -0.6,0.2 -1.3,0.3 -1.9,0.5 -1.8,-2.3 -3.3,-4.5 -4.8,-6.7 z"
       class="st0" />
    <path
       style="fill:#ffffff"
       inkscape:connector-curvature="0"
       id="path525"
       d="m -1356.7833,-318.27084 c 1.1,0.5 2.2,1 3.4,1.7 -1.2,-0.7 -2.3,-1.2 -3.4,-1.7 z"
       class="st0" />
    <path
       style="fill:#ffffff"
       inkscape:connector-curvature="0"
       id="path527"
       d="m -867.98335,-431.17084 c -11.5,-5.9 -23,-11.8 -34.5,-17.7 0.2,-0.4 0.3,-0.8 0.5,-1.2 11.6,5.7 23.2,11.4 34.8,17.1 -0.3,0.6 -0.6,1.2 -0.8,1.8 z"
       class="st0" />
    <path
       style="fill:#ffffff"
       inkscape:connector-curvature="0"
       id="path529"
       d="m -1092.8833,-441.17084 c 1.4,-0.8 2.8,-1.5 4.3,-2.3 -1.4,0.8 -2.8,1.5 -4.3,2.3 z"
       class="st0" />
    <path
       style="fill:#ffffff"
       inkscape:connector-curvature="0"
       id="path531"
       d="m -1295.0833,-271.97084 c 0.3,0.3 0.6,0.5 0.9,0.8 -0.3,-0.2 -0.6,-0.5 -0.9,-0.8 l 0,0 z"
       class="st0" />
    <path
       style="fill:#ffffff"
       inkscape:connector-curvature="0"
       id="path533"
       d="m -949.58335,-467.07084 c -10.5,-5.1 -21,-10.2 -31.5,-15.3 0,-0.4 0.1,-0.9 0.2,-1.4 1.2,-0.1 2.6,-0.6 3.5,-0.2 9.5,5.3 18.8,10.7 28.2,16.1 -0.2,0.3 -0.3,0.6 -0.4,0.8 z"
       class="st0" />
    <path
       style="fill:#ffffff"
       inkscape:connector-curvature="0"
       id="path535"
       d="m -1594.8833,-198.17084 c -0.7,0.1 -1.5,0 -2.4,-0.2 0.8,0.2 1.7,0.3 2.4,0.2 l 0,0 z"
       class="st0" />
    <path
       inkscape:connector-curvature="0"
       id="path537"
       d="m -898.08335,-497.67084 c -4.3,2 -8.6,4 -12.9,6 -4.2,1.9 -8.4,3.9 -13.1,4.9 5.6,-8 15.4,-9.4 22.6,-17 0,2.7 0,3.7 0,4.7 1,-0.2 2.1,-0.3 3.2,-0.5 l 0.2,1.9 z" />
    <path
       style="fill:#ffffff"
       inkscape:connector-curvature="0"
       id="path539"
       d="m -1200.5833,-270.47084 c 1.5,0.1 3.1,0.4 4.7,0.7 -1.6,-0.4 -3.2,-0.6 -4.7,-0.7 z"
       class="st0" />
    <path
       style="fill:#ffffff"
       inkscape:connector-curvature="0"
       id="path541"
       d="m -1161.1833,-404.17084 c 4.7,-2.1 9.4,-4.1 14.1,-6.1 -4.7,2 -9.4,4 -14.1,6.1 -1.4,0.6 -2.9,1.3 -4.3,2 1.5,-0.7 2.9,-1.4 4.3,-2 z"
       class="st0" />
    <path
       style="fill:#ffffff"
       inkscape:connector-curvature="0"
       id="path543"
       d="m -1189.6833,-251.17084 c -0.2,-0.2 -0.3,-0.3 -0.5,-0.4 0.1,0.1 0.3,0.3 0.5,0.4 z"
       class="st0" />
    <path
       style="fill:#258cd6"
       inkscape:connector-curvature="0"
       id="path545"
       d="m -1191.1833,-87.770841 c 0.1,0 0.3,0 0.4,0 -0.1,0 -0.3,0 -0.4,0 z"
       class="st1" />
    <path
       style="fill:#ffffff"
       inkscape:connector-curvature="0"
       id="path547"
       d="m -1411.2833,-272.87084 c -2.4,3.6 -4.7,7.1 -7.1,10.7 2.4,-3.6 4.7,-7.2 7.1,-10.7 z"
       class="st0" />
    <path
       style="fill:#ffffff"
       inkscape:connector-curvature="0"
       id="path549"
       d="m -1001.7833,-605.67084 c -2.2,1.6 -4.5,3.3 -6.8,4.9 2.3,-1.6 4.6,-3.3 6.8,-4.9 l 0,0 z"
       class="st0" />
    <path
       style="fill:#ffffff"
       inkscape:connector-curvature="0"
       id="path551"
       d="m -1528.9833,-127.07084 c 1.1,-0.7 2.4,-1.2 3.7,-1.5 -1.4,0.3 -2.6,0.8 -3.7,1.5 -0.7,0.5 -1.3,1 -1.9,1.5 0.6,-0.5 1.2,-1.1 1.9,-1.5 z"
       class="st0" />
    <path
       style="fill:#ffffff"
       inkscape:connector-curvature="0"
       id="path553"
       d="m -1215.9833,-244.37084 c 4.3,3.8 8.5,7.6 12.7,11.4 -4.2,-3.7 -8.4,-7.5 -12.7,-11.4 z"
       class="st0" />
    <path
       style="fill:#ffffff"
       inkscape:connector-curvature="0"
       id="path555"
       d="m -1426.6833,-342.67084 c 2.2,-0.9 4.3,-1.7 6.4,-2.2 -2.1,0.5 -4.2,1.3 -6.4,2.2 l 0,0 z"
       class="st0" />
    <path
       inkscape:connector-curvature="0"
       id="path557"
       d="m -1095.2833,-178.57084 c 0,0 0.1,0.1 0,0 0.1,0 0.2,0.1 0.2,0.1 0,0 0,0 0,0 0,0 -0.1,0 -0.2,-0.1 0,0.1 0,0.1 0,0 -0.1,0.1 0,0.1 0,0 0,0 0,0 0,0 z" />
    <path
       inkscape:connector-curvature="0"
       id="path559"
       d="m -1594.9833,-211.27084 c -0.4,0.7 -0.9,1.4 -1.3,2.1 -5.1,-3.2 -10.3,-6.4 -15.4,-9.6 0.5,-0.8 1,-1.5 1.4,-2.3 5.2,3.3 10.3,6.5 15.3,9.8 z" />
    <path
       style="fill:#ffffff"
       inkscape:connector-curvature="0"
       id="path561"
       d="m -980.48335,-595.67084 c 0.2,0.2 0.3,0.5 0.4,0.7 -0.1,-0.3 -0.3,-0.5 -0.4,-0.7 z"
       class="st0" />
    <path
       style="fill:#ffffff"
       inkscape:connector-curvature="0"
       id="path563"
       d="m -992.38335,-590.77084 c -6.4,6 -12.79995,11.9 -19.19995,17.9 l 0,0 c 6.3,-6 12.79995,-12 19.19995,-17.9 z"
       class="st0" />
    <path
       style="fill:#ffffff"
       inkscape:connector-curvature="0"
       id="path565"
       d="m -887.98335,-439.37084 c 2.6,1.2 5.2,2.5 7.8,3.7 -2.6,-1.2 -5.2,-2.4 -7.8,-3.7 z"
       class="st0" />
    <path
       inkscape:connector-curvature="0"
       id="path567"
       d="m -1088.5833,-474.47084 c -42.6,17 -85,34.3 -127.3,52 -10.5,4.4 -19.7,11.7 -31.1,14.3 -0.7,0.2 -1.4,0.4 -2,0.6 l -1.3,-2.7 c 10.6,-5.1 20.9,-10.7 31.7,-15.2 25.4,-10.7 51,-21 76.6,-31.2 24.6,-9.8 49.2,-19.4 74,-28.5 14.3,-5.2 29,-9.6 43.7,-13.7 2.7,-0.7 5.4,-1 8.1,-1.6 l 0.2,1 c -5,1.2 -10,2.5 -14.9,4.1 -19.4,6.5 -38.7,13.3 -57.7,20.9 z" />
    <path
       style="fill:#ffffff"
       inkscape:connector-curvature="0"
       id="path569"
       d="m -1524.2833,-597.97084 c 8.1,8 16.2,16.1 24.3,24.1 -8.1,-8 -16.2,-16 -24.3,-24.1 z"
       class="st0" />
    <path
       inkscape:connector-curvature="0"
       id="path571"
       d="m -1657.9833,-220.77084 c 7.6,0 15.2,0 22.7,0 -7.7,2 -15.3,3.4 -22.7,0 z" />
    <path
       inkscape:connector-curvature="0"
       id="path573"
       d="m -1631.8833,-204.77084 c 11.7,37.1 6.7,73.8 -3,110.299999 6.3,-36.699999 13.3,-73.199999 3,-110.299999 z" />
    <path
       style="fill:#ffffff"
       inkscape:connector-curvature="0"
       id="path575"
       d="m -1380.0833,-458.37084 c -1.2,-0.8 -2.4,-1.5 -3.5,-2.3 1.1,0.7 2.3,1.5 3.5,2.3 6.8,4.4 14,8.1 21.2,11.9 -7.2,-3.8 -14.4,-7.5 -21.2,-11.9 z"
       class="st0" />
    <path
       inkscape:connector-curvature="0"
       id="path577"
       d="m -1225.4833,-279.87084 c -5.1,3.9 -9.9,8.1 -15.7,12.8 2,1.8 3.9,3.5 5.9,5.3 l -1.9,2.1 c -0.3,0.3 -0.7,0.6 -1,0.8 0.6,1.6 1,3.5 2,4.7 4.6,5.2 9.3,10.3 14.1,15.4 5.2,5.6 10.3,11.2 15.6,16.7 0.8,0.8 1.6,1.6 2.3,2.4 0.8,0.8 1.6,1.6 2.4,2.4 1.6,1.5 3.2,3.1 4.8,4.6 0.9,0.9 1.8,1.7 2.8,2.6 0.9,0.8 1.8,1.7 2.8,2.5 0,0 0,0 0,0.1 -0.2,0.2 -0.5,0.5 -0.7,0.7 -0.2,0.2 -0.5,0.5 -0.7,0.7 -1.9,-1.7 -3.7,-3.5 -5.5,-5.2 -3.2,-3 -6.5,-6.1 -9.8,-9.2 -9.8,-9.2 -19.8,-18.6 -29.9,-28.1 1.4,41 -1.4,81.5 -12.3,122.2 -0.1,0.3 -0.2,0.7 -0.3,1 1,-9.6 1.8,-18.2 2.8,-26.7 4.3,-36.8 6.2,-73.7 5.7,-110.7 0,-1 -1.1,-3.2 -2.5,-5.3 l 0.5,-0.3 c 0.4,0 0.8,0.1 1.2,0.1 5.7,-5.1 11.1,-10.7 17.3,-15.3 9.5,-7 19.2,-13.7 29.2,-19.8 7.4,-4.5 15.4,-7.8 23.1,-11.6 0.6,-0.3 1.5,-0.4 1.8,-0.9 l 0.7,0.9 0,0 c -2.8,2.1 -5.8,3.8 -8.9,5.4 -4.5,2.3 -9.1,4.4 -13.6,6.7 -1.4,0.7 -2.7,1.4 -4.1,2.2 -2,1.2 -4,2.4 -5.8,3.8 -2.8,2.1 -5.5,4.2 -8.3,6.3 -0.9,0.7 -1.9,1.4 -2.8,2.1 -3.8,3 -7.5,5.8 -11.2,8.6 z" />
    <path
       style="fill:#ffffff"
       inkscape:connector-curvature="0"
       id="path579"
       d="m -1178.4833,-199.37084 c 13.8,3.3 27.6,6.7 41.4,10 -13.9,-3.3 -27.6,-6.7 -41.4,-10 -0.7,-0.2 -1.5,-0.3 -2.2,-0.4 0.7,0.1 1.4,0.2 2.2,0.4 z"
       class="st0" />
    <path
       style="fill:#258cd6"
       inkscape:connector-curvature="0"
       id="path581"
       d="m -1191.4833,-207.37084 c -0.2,0.2 -0.5,0.5 -0.7,0.7 0.3,-0.2 0.5,-0.5 0.7,-0.7 l 0,0 z"
       class="st1" />
    <path
       style="fill:#ffffff"
       inkscape:connector-curvature="0"
       id="path583"
       d="m -984.18335,-580.97084 c 0.4,-0.9 0.8,-1.8 1.2,-2.8 -0.4,1 -0.8,1.9 -1.2,2.8 z"
       class="st0" />
    <path
       style="fill:#ffffff"
       inkscape:connector-curvature="0"
       id="path585"
       d="m -1118.3833,-332.07084 c -0.7,0.1 -1.4,0.3 -2,0.5 -1.9,0.4 -3.7,0.9 -5.6,1.3 1.8,-0.5 3.7,-0.9 5.6,-1.3 0.6,-0.2 1.3,-0.3 2,-0.5 z"
       class="st0" />
    <path
       style="fill:#ffffff"
       inkscape:connector-curvature="0"
       id="path587"
       d="m -1106.8833,-188.87084 0,0 c -3.8,-1.1 -7.6,-2.2 -11.5,-3.3 3.8,1.1 7.6,2.2 11.5,3.3 z"
       class="st0" />
    <path
       style="fill:#ffffff"
       inkscape:connector-curvature="0"
       id="path589"
       d="m -1524.2833,-597.97084 c -4,-4 -8.1,-8 -12.1,-12.1 l 0,0 c 4,4.1 8.1,8.1 12.1,12.1 z"
       class="st0" />
    <path
       style="fill:#ffffff"
       inkscape:connector-curvature="0"
       id="path591"
       d="m -1575.6833,-290.97084 c 2.7,-1.8 5.3,-3.6 8,-5.4 -2.7,1.8 -5.3,3.6 -8,5.4 z"
       class="st0" />
    <path
       inkscape:connector-curvature="0"
       id="path593"
       d="m -1592.6833,-269.87084 c 11.8,-6.1 23.7,-12 35.7,-17.7 42.7,-20.5 86.1,-39.2 129.4,-57.2 l 0.9,2.1 c -0.1,0.1 -0.3,0.1 -0.4,0.2 -0.1,0.1 -0.3,0.1 -0.4,0.2 -19,8.5 -38,17 -57,25.4 -6.4,2.8 -12.7,5.6 -19,8.4 -25.4,11.2 -50.8,22.4 -76.2,33.6 -1.6,0.7 -3.1,1.4 -4.7,2 -2.9,1.1 -5.6,2.1 -8.3,3 z" />
    <path
       inkscape:connector-curvature="0"
       id="path595"
       d="m -892.28335,-490.17084 c -0.2,-0.3 -0.3,-0.6 -0.5,-0.9 l -0.5,-2 c 2.2,-0.6 4.3,-1.2 6.4,-1.8 1.1,6 -1.2,8.7 -9.7,11.1 0.8,-1.6 1.2,-2.7 1.9,-3.6 0.7,-0.9 1.6,-1.9 2.4,-2.8 z" />
    <path
       style="fill:#ffffff"
       inkscape:connector-curvature="0"
       id="path597"
       d="m -1365.4833,-291.07084 c 2.8,-1 5.5,-2 8.2,-3 -2.7,1 -5.4,2 -8.2,3 z"
       class="st0" />
    <path
       inkscape:connector-curvature="0"
       id="path599"
       d="m -1609.2833,-267.77084 c -3,6.9 -1.5,12.4 2.6,18.4 3.8,5.6 6.7,11.8 10,17.7 0.4,0.7 0.4,1.5 -0.1,2.5 -0.6,-1.1 -1.3,-2.3 -2,-3.4 -3.2,-5.3 -6.5,-10.6 -9.5,-16 -0.2,-0.3 -0.3,-0.6 -0.5,-1 -0.9,-1.7 -1.8,-3.5 -2.6,-5.3 -0.3,-0.6 -0.5,-1.2 -0.8,-1.8 l 0,0 c -1.9,-4.5 -0.5,-10.5 -0.3,-15.8 0.1,-3.2 0.8,-6.5 1.2,-9.7 0.3,0 0.7,0 1,0.1 0.3,0 0.7,0 1,0.1 2.1,4.7 1.9,9.8 0,14.2 z" />
    <path
       inkscape:connector-curvature="0"
       id="path601"
       d="m -1227.8833,-449.87084 c 24.2,-8.1 48.3,-16.1 72.5,-24.1 2.5,-0.8 5,-1.7 7.5,-2.5 4.4,-1.5 8.9,-2.8 13.3,-4.3 1.5,-0.5 3,-1 4.4,-1.5 2,-0.7 3.9,-1.4 5.8,-2.2 3.7,-1.5 7.3,-3 11,-4.4 6.1,-2.2 12.2,-4.3 18.3,-6.2 1.4,-0.4 2.8,-0.9 4.1,-1.3 11.3,-3.5 22.7,-6.6 34.1,-9.9 5.7,-1.6 11.4,-3.3 17,-5 1.9,-0.6 3.8,-1.2 5.7,-1.8 0.3,-0.1 0.7,-0.2 1,-0.3 0.5,-0.1 0.9,-0.2 1.5,-0.2 0.3,0 0.7,-0.1 1,-0.1 0.5,-0.1 1,-0.1 1.7,-0.2 l 0,0 c -2.6,-2.3 -4.6,-3.8 -6.3,-5.7 -7.8,-8.9 -15.7,-17.7 -23.4,-26.7 -1.3,-1.5 -2.6,-3 -3.9,-4.5 0,0 0,0 0,0 -1.3,-1.5 -2.6,-3 -3.8,-4.5 l 0,0 c -6.4,-7.6 -12.8,-15.4 -18.5,-23.6 -6.4,-9.2 -13.5,-18.3 -13.6,-30.4 0,-0.9 0.2,-1.8 0.3,-2.8 1.6,5.2 2.3,10.5 4.8,14.8 17,30.1 39.9,55.5 63.7,80.3 0.6,0.6 1.2,1.1 1.9,1.5 0.7,0.4 1.4,0.7 2.1,1.1 1.5,-2.2 3,-4.3 4.5,-6.5 -29,-22 -47.5,-52.5 -68.5,-81 -2.5,-3.4 -4.2,-7.4 -6,-11.4 -0.4,-0.8 -0.7,-1.6 -1.1,-2.3 -0.2,-0.3 0.2,-0.9 0.5,-2.1 0.8,1.1 1.5,2.2 2.3,3.3 0.7,1 1.4,2 2.1,3 22.1,31.1 47,59.3 72.8,87.8 7.5,-12.7 14.5,-24.6 21.49995,-36.5 l 0,0 c -0.2,-0.1 -0.3,-0.3 -0.5,-0.4 -0.2,-0.1 -0.3,-0.3 -0.5,-0.4 -1.99995,1.3 -3.99995,2.6 -5.99995,3.9 -0.1,-0.2 -0.2,-0.4 -0.4,-0.6 1.7,-1.6 3.4,-3.1 5.09995,-4.6 2.7,-2.4 5.3,-4.8 8,-7.2 0.2,-0.2 0.3,-0.3 0.5,-0.4 -0.4,-0.5 -0.7,-1 -1.1,-1.5 l 0,0 c -1.8,0.8 -3.7,1.6 -5.5,2.4 -0.2,-0.2 -0.3,-0.3 -0.4,-0.5 7.2,-2.7 11.1,-8.2 14.3,-14.4 l 0,0 c 0.2,-0.5 0.5,-1 0.7,-1.4 0.2,-0.5 0.5,-1 0.7,-1.5 0.2,-0.5 0.5,-1 0.7,-1.5 0.2,-0.5 0.5,-1 0.7,-1.5 0.4,-0.8 1.1,-1.4 1.8,-2 0.1,-0.1 0.2,-0.2 0.3,-0.3 0.1,-0.1 0.2,-0.2 0.3,-0.3 -0.5,1.1 -1,2.2 -1.5,3.3 -0.5,1.1 -1,2.2 -1.5,3.4 -0.4,0.8 -0.7,1.5 -1,2.3 -0.4,0.9 -0.8,1.8 -1.2,2.8 -0.2,0.6 -0.5,1.2 -0.7,1.7 -0.5,1.2 0.2,2.9 -0.2,4.2 -0.2,0.8 -0.5,1.5 -1,2.3 l 0,0 c -0.4,0.7 -0.9,1.4 -1.5,1.9 -8.1,6.8 -10.8,16.8 -15.69995,25.4 0.4,0.3 0.8,0.5 1.2,0.8 5.89995,-9 11.89995,-17.9 17.69995,-26.9 3.4,-5.1 6.7,-10.3 9.8,-15.6 8.3,-13.9 15.7,-28.3 24.1,-42.2 -0.4,11.3 -53.69995,103.6 -63.59995,111 1.7,0 2.9,0 4.2,0 0.2,1.2 0.4,2.5 0.6,3.7 l 0,0 c -2.4,0.1 -4.9,-0.3 -7.1,0.3 -5,1.4 -9.8,3.3 -14.7,5.1 -13.1,4.8 -26.4,9.2 -39.3,14.3 -51,19.7 -101.8,40 -152.8,60.3 0.8,0.5 1.5,0.8 2.1,1.2 -0.1,0.2 -0.2,0.4 -0.3,0.6 -3.1,-0.6 -6.2,-1.1 -9.3,-1.7 -0.1,-0.6 -0.3,-1.1 -0.4,-1.7 48.9,-20.9 98.6,-40 148.1,-59.5 -4.4,0.7 -8.7,1.8 -12.9,3.3 -39.3,13.4 -78.6,26.9 -117.9,40.3 -4.9,1.7 -10.9,1.7 -14.6,4.7 -1.3,1 -2.6,1.8 -3.9,2.5 l -0.4,-0.9 c 0.1,0 0.2,-0.1 0.3,-0.2 0.2,-0.1 0.4,-0.3 0.6,-0.5 0.5,-0.5 0.8,-1.2 0.8,-2.4 0,-0.1 0.1,-0.2 0.3,-0.4 0.1,-0.1 0.2,-0.1 0.3,-0.2 0.8,-0.2 1.8,-0.5 2.4,-0.8 z" />
    <path
       style="fill:#ffffff"
       inkscape:connector-curvature="0"
       id="path603"
       d="m -1265.2833,-266.97084 c -9.8,-2.2 -19.7,-4.4 -29.5,-6.6 l 0,0 c 9.8,2.2 19.6,4.4 29.5,6.6 z"
       class="st0" />
    <path
       style="fill:#ffffff"
       inkscape:connector-curvature="0"
       id="path605"
       d="m -1591.2833,-233.87084 0,0 c -0.3,0.2 -0.6,0.4 -0.9,0.6 0.3,-0.2 0.6,-0.4 0.9,-0.6 z"
       class="st0" />
    <path
       style="fill:#ffffff"
       inkscape:connector-curvature="0"
       id="path607"
       d="m -1408.7833,-480.17084 c 0.5,0.5 1,1 1.6,1.5 -0.5,-0.5 -1.1,-1 -1.6,-1.5 z"
       class="st0" />
    <path
       inkscape:connector-curvature="0"
       id="path609"
       d="m -1651.4833,-226.47084 c 4.3,0 8.7,0 13,0 0,0.6 -0.1,1.2 -0.1,1.9 -2.2,-0.1 -4.3,-0.2 -6.5,-0.3 -2.2,-0.1 -4.3,-0.2 -6.5,-0.3 0,-0.5 0,-0.9 0.1,-1.3 z" />
    <path
       style="fill:#ffffff"
       inkscape:connector-curvature="0"
       id="path611"
       d="m -950.08335,-465.97084 c 0.4,0.2 0.8,0.4 1.2,0.5 -0.4,-0.1 -0.8,-0.3 -1.2,-0.5 z"
       class="st0" />
    <path
       style="fill:#ffffff"
       inkscape:connector-curvature="0"
       id="path613"
       d="m -1195.8833,-269.77084 c 1.7,0.3 3.4,0.8 5.2,1.3 -1.8,-0.6 -3.5,-1 -5.2,-1.3 z"
       class="st0" />
    <path
       style="fill:#ffffff"
       inkscape:connector-curvature="0"
       id="path615"
       d="m -1619.6833,-323.07084 c -0.1,0 -0.1,0 -0.2,0 l 0,0 c 0.1,0 0.1,0 0.2,0 z"
       class="st0" />
    <path
       style="fill:#ffffff"
       inkscape:connector-curvature="0"
       id="path617"
       d="m -1558.0833,-217.47084 c 3.4,-1.4 6.8,-2.8 10.2,-4.1 -3.5,1.3 -6.8,2.7 -10.2,4.1 z"
       class="st0" />
    <path
       style="fill:#ffffff"
       inkscape:connector-curvature="0"
       id="path619"
       d="m -1089.5833,-602.07084 c 21,28.5 39.5,59 68.5,81 -1.5,2.2 -3,4.3 -4.5,6.5 -0.7,-0.4 -1.5,-0.7 -2.1,-1.1 -0.7,-0.4 -1.4,-1 -1.9,-1.5 -23.8,-24.8 -46.7,-50.3 -63.7,-80.3 -2.4,-4.3 -3.2,-9.7 -4.8,-14.8 l 2.5,-1.1 0,0 c 1.8,3.8 3.5,7.9 6,11.3 z"
       class="st0" />
    <path
       style="fill:#ffffff"
       inkscape:connector-curvature="0"
       id="path621"
       d="m -1583.4833,-656.97084 0,0 c -0.4,0.2 -0.8,0.3 -1.2,0.4 0.5,-0.2 0.9,-0.3 1.2,-0.4 z"
       class="st0" />
    <path
       style="fill:#ffffff"
       inkscape:connector-curvature="0"
       id="path623"
       d="m -1524.9833,-134.87084 c 0.8,0.5 1.7,0.9 2.6,1.1 -1,-0.2 -1.9,-0.6 -2.6,-1.1 -0.1,0 -0.1,0 0,0 z"
       class="st0" />
    <path
       style="fill:#ffffff"
       inkscape:connector-curvature="0"
       id="path625"
       d="m -1545.7833,-103.87084 c -2.2,-8.5 1.9,-14.6 7.5,-21 -2.7,7.4 -5.1,14 -7.5,21 z"
       class="st0" />
    <path
       style="fill:#ffffff"
       inkscape:connector-curvature="0"
       id="path627"
       d="m -1530.9833,-125.57084 c -0.2,0.2 -0.4,0.4 -0.6,0.6 0.2,-0.2 0.4,-0.4 0.6,-0.6 z"
       class="st0" />
    <path
       style="fill:#ffffff"
       inkscape:connector-curvature="0"
       id="path629"
       d="m -1497.4833,-266.77084 c 2,-0.8 4.1,-1.6 6.1,-2.4 -2,0.8 -4,1.6 -6.1,2.4 z"
       class="st0" />
    <path
       inkscape:connector-curvature="0"
       id="path631"
       d="m -1326.1833,-43.770841 c -0.4,0 -1.4,-0.8 -1.3,-1.2 0.3,-2 0.7,-3.9 1.2,-5.8 0.1,-0.4 1,-0.6 2,-1.1 1,1.1 2.5,2 2.8,3.2 0.3,1.2 -0.4,3 -1.2,3.9 -0.7,0.8 -2.3,0.9 -3.5,1 z" />
    <path
       inkscape:connector-curvature="0"
       id="path633"
       d="m -880.18335,-435.67084 c -2.6,-1.2 -5.2,-2.4 -7.8,-3.7 -3.9,-1.9 -7.8,-3.7 -11.7,-5.6 -16.1,-7.5 -32.9,-13.4 -49.2,-20.5 -0.4,-0.2 -0.8,-0.3 -1.2,-0.5 l 0.5,-1.1 c 0.1,-0.2 0.2,-0.5 0.3,-0.7 -9.4,-5.4 -18.8,-10.8 -28.2,-16.1 l 0.8,-1.9 c 4.4,1.9 8.7,3.7 13.1,5.7 8.3,3.8 16.5,7.8 24.9,11.4 24.6,10.6 50.4,18.4 72.7,33.8 l -1.2,1.9 c -11.6,-5.7 -23.2,-11.4 -34.8,-17.1 -0.2,0.4 -0.3,0.8 -0.5,1.2 11.5,5.9 23,11.8 34.5,17.7 l -0.3,0.7 c -0.7,-0.3 -1.3,-0.5 -2,-0.8 -2.7,-1.1 -5.3,-2.3 -7.9,-3.5 -0.7,-0.3 -1.3,-0.6 -2,-0.9 z" />
    <path
       style="fill:#ffffff"
       inkscape:connector-curvature="0"
       id="path635"
       d="m -1106.6833,-431.77084 c 1.9,-1.3 3.7,-2.6 5.6,-3.8 -1.9,1.2 -3.7,2.5 -5.6,3.8 z"
       class="st0" />
    <path
       style="fill:#ffffff"
       inkscape:connector-curvature="0"
       id="path637"
       d="m -1210.0833,-283.97084 c -0.5,0.3 -1,0.6 -1.4,0.9 0.4,-0.3 0.9,-0.6 1.4,-0.9 z"
       class="st0" />
    <path
       style="fill:#ffffff"
       inkscape:connector-curvature="0"
       id="path641"
       d="m -1645.0833,-224.87084 c -2.2,-0.1 -4.3,-0.2 -6.5,-0.3 l 0,0 c 2.2,0 4.3,0.1 6.5,0.3 z"
       class="st0" />
    <path
       inkscape:connector-curvature="0"
       id="path643"
       d="m -1524.1833,-326.07084 c -14.8,7.3 -29.6,14.6 -44.5,22 -14.8,7.3 -29.6,14.6 -44.4,21.9 0.2,-0.3 0.4,-0.5 0.8,-0.9 0.1,-0.1 0.2,-0.2 0.2,-0.2 1.6,-1.5 4.4,-3.5 8,-5.8 0.2,-0.1 0.4,-0.3 0.6,-0.4 2.3,-1.4 4.9,-3 7.7,-4.6 0.5,-0.3 1,-0.6 1.6,-0.9 1.1,-0.6 2.1,-1.2 3.3,-1.8 2.5,-1.4 5.1,-2.8 7.8,-4.3 0.3,-0.2 0.6,-0.3 0.9,-0.5 0.6,-0.3 1.2,-0.6 1.8,-1 0.6,-0.3 1.2,-0.6 1.9,-1 0.6,-0.3 1.2,-0.6 1.9,-1 0.6,-0.3 1.2,-0.6 1.9,-1 0.6,-0.3 1.2,-0.6 1.9,-1 3.1,-1.6 6.3,-3.2 9.5,-4.7 0.9,-0.5 1.9,-0.9 2.8,-1.4 0.6,-0.3 1.2,-0.6 1.9,-0.9 1.9,-0.9 3.7,-1.8 5.5,-2.6 0.6,-0.3 1.2,-0.5 1.8,-0.8 0.6,-0.3 1.2,-0.5 1.8,-0.8 0.6,-0.3 1.2,-0.5 1.7,-0.8 0.6,-0.2 1.1,-0.5 1.7,-0.8 0.6,-0.2 1.1,-0.5 1.6,-0.7 0.8,-0.4 1.6,-0.7 2.4,-1.1 0.8,-0.3 1.5,-0.7 2.3,-1 0.5,-0.2 1,-0.4 1.5,-0.6 0.7,-0.3 1.4,-0.6 2.1,-0.9 0.4,-0.2 0.9,-0.4 1.3,-0.5 0.4,-0.2 0.9,-0.3 1.3,-0.5 0.4,-0.2 0.8,-0.3 1.2,-0.5 0.6,-0.2 1.2,-0.4 1.7,-0.6 0.4,-0.1 0.7,-0.2 1,-0.4 0.3,-0.1 0.7,-0.2 1,-0.3 1.9,-0.6 3.3,-0.9 4.1,-0.9 0.1,0.5 0.3,0.9 0.4,1.3 z" />
    <path
       style="fill:#258cd6"
       inkscape:connector-curvature="0"
       id="path645"
       d="m -1188.8833,-205.47084 c 0.1,0.9 0.2,1.8 0.3,2.6 -0.1,-0.8 -0.2,-1.6 -0.3,-2.6 z"
       class="st1" />
    <path
       inkscape:connector-curvature="0"
       id="path647"
       d="m -1516.4833,-134.37084 c -1.4,-0.1 -2.8,-0.2 -4.2,-0.3 -1.4,-0.1 -2.8,-0.2 -4.2,-0.3 l 0.2,-2.6 c 0.8,-0.1 1.5,-0.2 2.3,-0.2 0.8,0 1.7,0 2.5,0 0.1,0 0.2,0 0.2,0 0.2,0 0.5,0.2 0.7,0.3 1.1,0.7 1.9,1.9 2.5,3.1 z" />
    <path
       style="fill:#ffffff"
       inkscape:connector-curvature="0"
       id="path649"
       d="m -1515.6833,-130.07084 0,0 c -0.6,0.1 -1.2,0.2 -1.8,0.3 0.6,-0.1 1.2,-0.2 1.8,-0.3 z"
       class="st0" />
    <path
       style="fill:#ffffff"
       inkscape:connector-curvature="0"
       id="path651"
       d="m -924.18335,-634.37084 c -6.9,1.1 -13.8,2.3 -20.7,3.4 l 0,0 c 6.9,-1.1 13.8,-2.2 20.7,-3.4 z"
       class="st0" />
    <path
       style="fill:#ffffff"
       inkscape:connector-curvature="0"
       id="path653"
       d="m -1628.6833,-210.77084 c 2.1,-0.7 4.2,-1.5 6.3,-2.2 -2.1,0.7 -4.2,1.5 -6.3,2.2 z"
       class="st0" />
    <path
       style="fill:#ffffff"
       inkscape:connector-curvature="0"
       id="path655"
       d="m -1410.0833,-274.27084 c 0.2,-0.2 0.4,-0.3 0.6,-0.4 -0.2,0.1 -0.4,0.2 -0.6,0.4 z"
       class="st0" />
    <path
       inkscape:connector-curvature="0"
       id="path657"
       d="m -950.78335,-494.87084 c -1.8,0.7 -3.9,0.5 -5.8,0.8 -0.1,-0.5 -0.3,-1 -0.4,-1.5 13.3,-5.9 26.6,-11.9 39.8,-17.8 0.3,0.6 0.6,1.1 1,1.7 -3.9,2.2 -7.7,4.4 -11.6,6.5 0.1,0.2 0.2,0.4 0.3,0.6 3,-0.3 6.1,-0.6 9.1,-0.9 -0.4,0.4 -0.8,0.9 -1.2,0.9 -11.2,0.7 -21.1,5.5 -31.2,9.7 z" />
    <path
       style="fill:#ffffff"
       inkscape:connector-curvature="0"
       id="path659"
       d="m -1427.1833,-342.47084 c -0.1,0.1 -0.3,0.1 -0.4,0.2 -19,8.5 -38,17 -57,25.4 19,-8.4 38.1,-16.9 57,-25.4 0.1,-0.1 0.3,-0.2 0.4,-0.2 z"
       class="st0" />
    <path
       style="fill:#ffffff"
       inkscape:connector-curvature="0"
       id="path661"
       d="m -1604.3833,-270.37084 c 5.4,-3.5 10.7,-7.1 16,-10.7 -5.3,3.6 -10.6,7.2 -16,10.7 l 0,0 z"
       class="st0" />
    <path
       inkscape:connector-curvature="0"
       id="path663"
       d="m -1190.6833,-268.47084 c -0.3,0.1 -0.6,0.1 -0.9,0.2 -0.3,0.1 -0.6,0.1 -0.9,0.2 -1.2,0.2 -2.5,0.5 -3.7,0.8 -5.4,1.1 -10.9,1.9 -16.6,0.1 1.7,-2.6 6.1,-3.7 12.2,-3.1 1.5,0.1 3.1,0.4 4.7,0.7 0,0 0,0 0,0 1.7,0.1 3.4,0.5 5.2,1.1 z" />
    <path
       style="fill:#ffffff"
       inkscape:connector-curvature="0"
       id="path665"
       d="m -1568.5833,-304.17084 c -14.8,7.3 -29.6,14.6 -44.5,21.9 l 0,0 0,0 c 14.8,-7.2 29.6,-14.5 44.5,-21.9 z"
       class="st0" />
    <path
       style="fill:#ffffff"
       inkscape:connector-curvature="0"
       id="path667"
       d="m -1642.3833,-211.87084 c 0.8,0 1.6,0 2.4,0 -0.8,-0.1 -1.6,0 -2.4,0 z"
       class="st0" />
    <path
       style="fill:#ffffff"
       inkscape:connector-curvature="0"
       id="path669"
       d="m -855.68335,-425.87084 c -0.1,0 -0.2,-0.1 -0.3,-0.1 -3.1,-1 -6.2,-2.1 -9.3,-3.3 3,1.2 6.1,2.3 9.3,3.3 0.1,0 0.2,0 0.3,0.1 z"
       class="st0" />
    <path
       style="fill:#ffffff"
       inkscape:connector-curvature="0"
       id="path671"
       d="m -1463.3833,-537.77084 c 4,4 8.1,8.1 12.1,12.1 -4.1,-4 -8.1,-8.1 -12.1,-12.1 z"
       class="st0" />
    <path
       inkscape:connector-curvature="0"
       id="path673"
       d="m -1493.6833,-402.97084 c 24.7,18.7 49.8,36.7 78,50 16.2,7.6 31.9,16.3 47.7,24.7 28.5,15.1 58,27.7 89.1,36.7 7.5,2.2 14.7,5.3 22.1,7.7 1.6,0.5 4.5,0.6 5.3,-0.3 8.2,-10.5 20.3,-15.3 30.9,-22.4 13.1,-8.8 25.8,-18.2 39.1,-26.8 3.6,-2.3 8.3,-3 12.5,-4.3 18.9,-5.6 37.9,-11.1 56.9,-16.6 0.9,-0.3 1.9,-0.2 2.9,-0.3 0.1,0.2 0.2,0.5 0.3,0.7 -1.6,0.8 -3.1,1.7 -4.7,2.3 -18.6,6.3 -37,12.9 -55.8,18.5 -1.8,0.5 -3.5,1.2 -5.2,1.9 -11.9,5 -21.3,13.7 -32,20.6 -2.1,1.3 -4.2,2.7 -6.3,4 -6.3,4 -12.5,8.1 -18.7,12.2 -5.9,3.9 -11.7,8 -18,12.2 4.6,3.1 7,2.9 10.1,-1.1 3.5,-4.4 8.5,-7.7 13.2,-11.1 5,-3.6 10.3,-7 15.4,-10.5 1.7,-1.2 3.4,-2.4 5.1,-3.6 7.6,-5.6 15.2,-11.1 24.7,-13.3 -4.1,3 -8.3,6 -12.4,8.9 -11.9,8.4 -23.9,16.7 -35.7,25.3 -4.8,3.5 -9.5,7.3 -13.6,11.7 -1.5,1.6 -0.9,5 -1.2,7.6 l -0.5,0.3 c -1.2,-1.9 -2.8,-3.8 -4.1,-5.1 -0.8,-0.8 -1.5,-1.4 -2,-1.5 -21.3,-7.6 -42.6,-15.2 -63.9,-22.9 -0.6,-0.2 -1.1,-0.4 -1.7,-0.6 -1.7,-0.6 -3.4,-1.1 -4.8,-2.1 -0.9,-0.6 -1.8,-1.1 -2.7,-1.5 -0.3,-0.1 -0.6,-0.3 -0.9,-0.4 -0.5,-0.2 -1,-0.4 -1.4,-0.5 -0.6,-0.2 -1.2,-0.4 -1.7,-0.5 -0.1,0 -0.2,0 -0.2,-0.1 -2.5,-0.5 -4.9,-0.3 -7.5,0.3 -0.9,0.2 -1.8,0.5 -2.8,0.9 l -0.7,-1.9 c 1.4,-0.5 2.9,-1.1 4.3,-1.6 0.5,-0.2 0.9,-0.4 1.4,-0.5 0,0 0,0 0,0 -1.2,-0.6 -2.5,-1.2 -3.7,-1.8 -0.8,-0.4 -1.6,-0.8 -2.4,-1.1 -4.4,-2.1 -8.6,-4 -12.3,-6.6 -0.6,-0.4 -1.1,-0.8 -1.7,-1.1 -1.1,-0.7 -2.2,-1.3 -3.4,-1.7 -0.9,-0.4 -1.8,-0.7 -2.7,-0.9 -0.4,-0.1 -0.9,-0.2 -1.3,-0.3 -0.1,0 -0.2,0 -0.3,-0.1 -2.7,-0.5 -5.3,-0.5 -8,0 0,0 0,0 0,0 -0.9,0.1 -1.8,0.4 -2.7,0.6 -1.4,0.4 -2.8,0.8 -4.2,1.4 l -0.8,-2.1 c 0.2,-0.1 0.5,-0.2 0.7,-0.3 2,-0.8 4.1,-1.5 6.2,-2.3 0.1,0 0.3,-0.1 0.4,-0.1 0.6,-0.2 1.3,-0.5 2,-0.8 0,0 0,0 0,0 -11.3,-6.1 -22.6,-11.3 -32.9,-18 -2.1,-1.3 -4.1,-2.4 -6.1,-3.1 -1.7,-0.6 -3.3,-1 -5,-1.2 -0.1,0 -0.1,0 -0.2,0 -2.8,-0.3 -5.6,-0.1 -8.6,0.6 -2.1,0.5 -4.2,1.2 -6.4,2.2 l -0.9,-2.1 0,0 0,0 c 1.6,-0.6 3.2,-1.3 4.7,-2 1.6,-0.6 3.1,-1.3 4.7,-1.9 0,0 0,0 0,0 -1.7,-1.1 -3.5,-2.1 -5.2,-3.1 -5.3,-3.2 -10.6,-6.3 -16,-9.5 -7.2,-4.3 -14.3,-8.7 -21.3,-13.4 -3.5,-2.4 -7.1,-4.7 -10.7,-7.1 -1.2,-0.8 -2.4,-1.6 -3.5,-2.4 -9,-6.1 -17.6,-12.7 -24.9,-20.8 0.4,-0.5 0.8,-1 1.1,-1.5 1.6,1.1 3.2,2.3 4.9,3.5 z" />
    <path
       style="fill:#ffffff"
       inkscape:connector-curvature="0"
       id="path675"
       d="m -1289.2833,-250.17084 c 1.4,0.8 2.8,1.8 4,1.6 -1.2,0.2 -2.6,-0.9 -4,-1.6 z"
       class="st0" />
    <path
       inkscape:connector-curvature="0"
       id="path677"
       d="m -1234.3833,-445.17084 c 0.3,0 0.6,0 0.9,-0.1 0.3,0 0.6,-0.1 0.9,-0.2 l 0.4,0.9 c -3.4,1.6 -6.9,2.1 -10.5,2.3 -21.9,1.5 -43.8,2.5 -65.8,3.7 -11.1,0.6 -22.3,1 -32.8,1.5 8.5,2.4 16.4,10.6 27.7,6.5 3.3,-1.2 7.2,-0.9 10.9,-1 13.3,-0.5 26.6,-1 39.9,-1.5 5,-0.2 10,-0.5 15,-0.4 4.8,0.1 9.6,0.7 14.4,1.1 0,0.6 0,1.2 0,1.7 -27.2,1.4 -54.5,2.8 -82.3,4.2 2.8,1 5.2,1.9 7.7,2.7 14.6,4.6 29.3,8.9 43.7,13.9 4.9,1.7 9.3,1.8 13.8,-0.4 0,0 0.1,-0.1 0.1,-0.1 l 1.3,2.7 c -1.2,0.4 -2.4,1 -4,1.5 12.1,4.2 23.4,8.1 34.7,11.9 1.1,0.4 2.7,0.4 3.8,0 17.3,-7.3 34.6,-14.7 51.9,-21.9 17,-7.1 33.9,-14.3 50.9,-21.4 l 1.1,2.6 c -1.4,0.6 -2.8,1.2 -4.1,1.8 -26,11.5 -52,23 -78,34.6 -5,2.2 -10,4.6 -15,7 0.2,0.7 0.4,1.4 0.6,2.1 3.9,-0.6 8,-0.5 11.6,-1.8 4.9,-1.9 9.4,-4.8 14.1,-7.2 6,-3.2 11.9,-6.7 18,-9.5 14.5,-6.7 29.1,-13 43.7,-19.4 6.2,-2.7 12.4,-5.3 18.7,-8 -1.9,1.2 -3.7,2.5 -5.6,3.8 -5.6,3.9 -11.2,7.9 -17.2,10.9 -7.6,3.8 -15.4,7.2 -23.2,10.6 -4.7,2 -9.4,4 -14.1,6.1 -1.4,0.6 -2.9,1.3 -4.3,2 -2.8,1.4 -5.6,2.9 -8.4,4.3 -1.4,0.7 -2.8,1.4 -4.2,2.1 -0.7,0.3 -1.4,0.7 -2,1 -1.4,0.7 -2.7,1.3 -4,2 -1,0.5 -2,1 -2.9,1.4 -0.6,0.3 -1.2,0.6 -1.8,0.9 -0.6,0.3 -1.2,0.6 -1.7,0.9 -0.8,0.4 -1.6,0.8 -2.4,1.2 40.6,10.8 82.9,22.1 125.1,33.3 -0.1,0.7 -0.2,1.3 -0.3,2 -1.5,0 -3,0.2 -4.5,0.1 -0.3,0 -0.6,-0.1 -0.9,-0.2 -0.7,-0.1 -1.4,-0.3 -2,-0.5 -1.5,-0.3 -3,-0.7 -4.5,-1.1 -13.8,-3.3 -27.6,-6.8 -41.4,-10 -28.8,-6.7 -57.9,-12.4 -86.5,-20.1 -22,-6 -43.4,-14.4 -65.1,-21.6 -24.1,-8.1 -48.9,-14.7 -71.1,-27.3 -24.3,-13.9 -49.5,-26.4 -69.1,-47.7 -0.6,-0.6 -1.2,-1.3 -1.8,-1.9 l 1.8,-1.6 c 1.5,1.6 3.1,3.2 4.6,4.8 0.5,0.5 1,1 1.6,1.5 7.1,6.8 15.2,12.5 23.5,18 1.2,0.8 2.4,1.5 3.5,2.3 6.8,4.4 14,8.1 21.2,11.9 2.4,1.3 4.8,2.5 7.1,3.8 0.9,0.5 1.8,1.3 2.7,1.3 9.6,-0.1 19.3,0.1 28.9,-0.1 1.1,0 2.2,0 3.2,-0.1 4.3,-0.1 8.7,-0.3 13,-0.7 6.7,-0.6 13.4,-1.2 20.2,-1.7 0.5,0 0.9,-0.1 1.4,-0.1 1.4,-0.1 2.9,-0.2 4.3,-0.3 8.3,-0.5 16.5,-0.9 24.9,-0.8 3,0 6,0.1 9.1,0.3 1.8,0.1 3.6,0.1 5.4,0 0.1,0 0.2,0 0.3,0 0.4,0 0.8,-0.1 1.1,-0.1 0,0 0,0 0,0 0.4,0 0.8,-0.1 1.1,-0.2 0.4,-0.1 1.1,-0.1 1.7,-0.2 z" />
    <path
       inkscape:connector-curvature="0"
       id="path679"
       d="m -1095.2833,-178.47084 c 0,0 -0.1,0 0,0 -0.1,0 -0.1,0 -0.1,0 l 0,0 c 0,-0.1 0,-0.1 0.1,0 z" />
    <polygon
       transform="translate(-1765.0833,-691.67084)"
       style="fill:#ffffff"
       id="polygon681"
       points="667,79.3 669.4,78.2 667,79.4 "
       class="st0" />
    <path
       inkscape:connector-curvature="0"
       id="path683"
       d="m -1534.8833,-445.87084 c 8.3,11.6 18.8,21.5 28.3,32.2 1,1.2 2.2,2.3 3.2,3.5 -0.3,0.3 -0.7,0.5 -1,0.8 -15.7,-14.9 -32,-29.1 -45.3,-46.7 -25.3,-33.6 -51.9,-66.4 -78,-99.4 -6.3,-8 -13,-15.8 -19.5,-23.6 -0.7,0.3 -1.3,0.7 -1.9,1.1 l -1,0 c -0.2,-4.6 -1.4,-9 -2.9,-13.4 -1.1,-3.4 0,-6.4 2.5,-9.1 5.8,-6.5 11.8,-12.8 17.9,-18.9 6.1,-6.1 12.5,-12 19.2,-17.5 1.3,-1.1 2.7,-2.2 4,-3.3 6.8,-5.4 13.9,-10.4 21.4,-14.9 0.5,-0.3 1.1,-0.6 1.6,-0.8 0.2,-0.1 0.4,-0.1 0.6,-0.2 0.4,-0.1 0.8,-0.3 1.2,-0.4 0.4,-0.1 0.8,-0.3 1.2,-0.4 0.2,0.4 0.5,0.8 0.7,1.2 -4.6,3.9 -9.2,7.7 -13.9,11.6 -18,15.1 -35.5,30.7 -50.5,49 -1.9,2.3 -2.7,3.9 -0.2,6.7 8.8,9.9 17.6,19.9 25.9,30.2 29.8,36.5 58.8,73.9 86.5,112.3 z" />
    <path
       style="fill:#ffffff"
       inkscape:connector-curvature="0"
       id="path685"
       d="m -1093.9833,-614.67084 c 0.7,1 1.4,2 2.1,3 -0.7,-1 -1.4,-2 -2.1,-3 z"
       class="st0" />
    <path
       style="fill:#ffffff"
       inkscape:connector-curvature="0"
       id="path687"
       d="m -1000.8833,-604.57084 0,0 c -2.2,1.7 -4.5,3.3 -6.7,5 2.2,-1.7 4.5,-3.3 6.7,-5 z"
       class="st0" />
    <path
       inkscape:connector-curvature="0"
       id="path689"
       d="m -1608.9833,-259.97084 c 0.7,-0.4 1.4,-0.8 2,-1.2 5.2,9.1 10.4,18.2 15.7,27.3 -0.3,0.2 -0.6,0.4 -0.9,0.6 -0.3,0.2 -0.6,0.4 -0.8,0.6 -5.3,-9.1 -10.7,-18.2 -16,-27.3 z" />
    <path
       style="fill:#ffffff"
       inkscape:connector-curvature="0"
       id="path691"
       d="m -1192.8833,-288.77084 c -5.9,-0.2 -11,1.4 -15.8,4 4.8,-2.7 9.9,-4.2 15.8,-4 z"
       class="st0" />
    <path
       inkscape:connector-curvature="0"
       id="path693"
       d="m -1348.5833,-198.67084 c 0.4,2 0.8,4 1.2,6 l -2.8,0.5 c -0.4,-2 -0.8,-4 -1.2,-6 l 2.8,-0.5 z" />
    <path
       style="fill:#ffffff"
       inkscape:connector-curvature="0"
       id="path695"
       d="m -1582.5833,-228.17084 c -0.4,0.1 -0.7,0.3 -1.1,0.4 l 0,0 c 0.4,-0.1 0.8,-0.3 1.1,-0.4 z"
       class="st0" />
    <path
       inkscape:connector-curvature="0"
       id="path697"
       d="m -1632.7833,-257.67084 c -0.6,0.1 -1.2,0.3 -1.7,0.4 0.6,-0.2 1.1,-0.3 1.7,-0.4 0,0 0,0 0,0 z" />
    <path
       inkscape:connector-curvature="0"
       id="path699"
       d="m -1632.4833,-76.470841 c 0.1,-0.1 0.3,-0.2 0.4,-0.3 -0.1,0.1 -0.3,0.2 -0.4,0.3 z" />
    <path
       inkscape:connector-curvature="0"
       id="path701"
       d="m -1658.8833,-248.67084 c -0.2,0.2 -0.4,0.4 -0.6,0.6 0.2,-0.2 0.4,-0.4 0.6,-0.6 z" />
    <path
       inkscape:connector-curvature="0"
       id="path703"
       d="m -1536.9833,-429.67084 c 9.1,9.1 18.5,17.9 28.8,25.7 -10.2,-7.8 -19.6,-16.6 -28.8,-25.7 z" />
    <path
       inkscape:connector-curvature="0"
       id="path705"
       d="m -1664.1833,-242.67084 c -0.6,0.7 -1.2,1.5 -1.7,2.2 0.5,-0.7 1.1,-1.5 1.7,-2.2 z" />
    <path
       style="fill:#ffffff"
       inkscape:connector-curvature="0"
       id="path707"
       d="m -1504.3833,-409.37084 -1.8,2.2 c -9.5,-7.9 -19.1,-15.8 -28.1,-24.2 -11.3,-10.5 -22,-21.8 -31.7,-33.8 -14.1,-17.6 -26.9,-36.3 -40.5,-54.3 -13.1,-17.3 -26.5,-34.4 -39.7,-51.7 -1.4,-1.9 -2,-4.5 -3,-6.8 0.7,-0.4 1.3,-0.7 1.9,-1.1 6.5,7.9 13.2,15.6 19.5,23.6 26.1,33 52.7,65.8 78,99.4 13.4,17.6 29.7,31.7 45.4,46.7 z"
       class="st0" />
    <path
       inkscape:connector-curvature="0"
       id="path709"
       d="m -1636.3833,-76.570841 c 0.3,0.2 0.6,0.3 0.9,0.4 -0.3,-0.1 -0.6,-0.3 -0.9,-0.4 z" />
    <path
       inkscape:connector-curvature="0"
       id="path711"
       d="m -1637.6833,-77.470841 c -0.2,-0.1 -0.4,-0.3 -0.6,-0.5 -0.3,-0.3 -0.6,-0.5 -0.9,-0.8 0.3,0.3 0.6,0.5 0.9,0.8 0.2,0.1 0.4,0.3 0.6,0.5 z" />
    <path
       inkscape:connector-curvature="0"
       id="path713"
       d="m -1660.0833,-247.47084 c -0.6,0.6 -1.2,1.3 -1.8,2 0.6,-0.7 1.2,-1.4 1.8,-2 z" />
    <path
       inkscape:connector-curvature="0"
       id="path715"
       d="m -1659.4833,-248.07084 c -0.2,0.2 -0.4,0.4 -0.6,0.6 0.2,-0.2 0.4,-0.4 0.6,-0.6 z" />
    <path
       inkscape:connector-curvature="0"
       id="path717"
       d="m -1485.0833,-385.37084 c -0.2,0.2 -0.5,0.5 -0.7,0.7 0.3,-0.2 0.5,-0.5 0.7,-0.7 l 0,0 z" />
    <path
       inkscape:connector-curvature="0"
       id="path719"
       d="m -1499.4833,-352.47084 c -7.1,8.6 -11.5,18.5 -13.3,29.6 -1.1,-7.8 1.6,-14.7 5.4,-20.9 0.2,-0.4 0.5,-0.7 0.7,-1.1 0.2,-0.4 0.5,-0.7 0.7,-1.1 6.1,-9.1 13.5,-17.3 20.3,-25.9 1.6,-2.1 3.2,-4.2 4.6,-6.5 0.5,-0.7 0.4,-1.8 -0.2,-3.1 l 0,0 c -1,0.9 -1.9,1.9 -2.9,2.8 -14.2,14.3 -25.4,30.8 -37.1,47.3 0.4,-2 0.1,-4.4 1.2,-5.9 8.3,-12.6 16.7,-25.1 25.4,-37.4 2.4,-3.4 5.6,-6.3 9,-9.9 0.2,-0.2 0.5,-0.5 0.7,-0.7 l 0,0 c -1.1,-0.9 -2.2,-1.9 -3.3,-3 -3.3,-3.1 -6.8,-6.4 -10.8,-9.1 -1.5,-1 -3.1,-2.1 -4.6,-3.2 -1.5,-1.1 -3,-2.2 -4.5,-3.3 -10.3,-7.8 -19.7,-16.6 -28.8,-25.7 -9.1,-9.1 -17.9,-18.5 -26.9,-27.7 -4.1,-4.2 -6.9,-9.8 -10.4,-14.6 -16.9,-22.8 -33.8,-45.7 -50.9,-68.4 -7.8,-10.3 -15.8,-20.4 -23.7,-30.6 -0.6,-0.7 -1.4,-1.7 -1.3,-2.5 0.1,-1.5 0.2,-3 0.1,-4.5 l 1,0 c 1,2.3 1.5,4.9 3,6.8 13.1,17.3 26.6,34.4 39.7,51.7 13.6,18 26.4,36.7 40.5,54.3 9.6,12 20.4,23.3 31.7,33.8 9,8.5 18.6,16.3 28.1,24.2 4.3,3.6 8.6,7.1 12.9,10.7 0.9,0.7 2.1,1.3 2.7,2.2 3.1,4.6 9,6.2 11.7,11.3 0.1,0.3 1.5,-0.1 3.5,-0.3 -3,4.5 -5.4,8.5 -8.4,12.2 -5.2,6.1 -10.6,12.2 -15.8,18.5 z" />
    <path
       inkscape:connector-curvature="0"
       id="path721"
       d="m -1675.2833,-223.87084 c 2.6,-6.1 5.8,-11.7 9.4,-16.5 0.6,-0.8 1.1,-1.5 1.7,-2.2 0.2,-0.2 0.4,-0.5 0.6,-0.7 0.6,-0.7 1.2,-1.4 1.8,-2.1 0.6,-0.7 1.2,-1.3 1.8,-2 0.2,-0.2 0.4,-0.4 0.6,-0.6 0.2,-0.2 0.4,-0.4 0.6,-0.6 7,-7 14.5,-11 20.8,-10.6 0.5,0 1.1,0.1 1.6,0.2 0.5,0.1 1,0.2 1.5,0.4 0.7,0.2 1.5,0.6 2.1,1 -0.6,0.1 -1.1,0.3 -1.7,0.4 -1.1,0.3 -2.2,0.6 -3.3,1 -7.1,2.3 -13.4,6.2 -18.6,11.5 -5.9,6 -11.3,12.5 -17.6,19.5 -0.5,0.3 -0.9,0.8 -1.3,1.3 z" />
    <path
       inkscape:connector-curvature="0"
       id="path723"
       d="m -1630.9833,-78.670841 c -0.3,0.8 -0.7,1.4 -1.1,1.9 -0.1,0.1 -0.3,0.2 -0.4,0.3 -0.8,0.6 -1.8,0.7 -3,0.2 -0.3,-0.1 -0.6,-0.2 -0.9,-0.4 -0.1,-0.1 -0.3,-0.1 -0.4,-0.2 -0.3,-0.2 -0.6,-0.4 -0.9,-0.7 -0.2,-0.2 -0.4,-0.3 -0.6,-0.5 -0.3,-0.3 -0.6,-0.5 -0.9,-0.8 -4.4,-4.1 -7.4,-9.3 -10.4,-14.6 l 1.6,-0.9 c 2.2,3.8 5.5,6.8 8.6,9.9 0.2,0.2 1.3,-0.6 1.3,-0.6 1.5,2.1 3,4.4 4.5,6.6 0.6,-0.2 1.3,-0.3 1.9,-0.5 l 0.7,0.3 z" />
    <path
       inkscape:connector-curvature="0"
       id="path725"
       d="m -1503.6833,-400.57084 c 1.5,1.1 3,2.1 4.6,3.2 -1.5,-1.1 -3.1,-2.2 -4.6,-3.2 z" />
    <path
       inkscape:connector-curvature="0"
       id="path727"
       d="m -1661.8833,-245.47084 c -0.6,0.7 -1.2,1.4 -1.8,2.1 0.6,-0.7 1.2,-1.4 1.8,-2.1 z" />
    <path
       inkscape:connector-curvature="0"
       id="path729"
       d="m -1650.1833,-94.470841 c -5.1,-8.799999 -7.9,-17.999999 -8.7,-27.799999 -2.2,-26 1.9,-51.1 12.3,-75.1 1.2,-2.7 1.9,-5.7 2.9,-9 l 2.9,0.9 c -0.1,0.1 -0.1,0.3 -0.2,0.4 -3,10.9 -5.9,21.8 -8.5,32.8 -5.5,24 -6.2,48.1 -0.9,72.2 0.5,2.099999 1.3,3.999999 2.3,5.699999 l -1.6,0.9 c -0.1,-0.3 -0.3,-0.6 -0.5,-1 z" />
    <path
       inkscape:connector-curvature="0"
       id="path731"
       d="m -1637.8833,-256.37084 c 1.1,-0.4 2.2,-0.7 3.3,-1 -1,0.3 -2.2,0.7 -3.3,1 z" />
    <path
       inkscape:connector-curvature="0"
       id="path733"
       d="m -1637.6833,-77.470841 c 0.3,0.2 0.6,0.5 0.9,0.7 -0.3,-0.3 -0.6,-0.5 -0.9,-0.7 z" />
    <path
       inkscape:connector-curvature="0"
       id="path735"
       d="m -1481.2833,-381.47084 0,0 c -1,0.9 -1.9,1.9 -2.9,2.8 0.9,-0.9 1.9,-1.9 2.9,-2.8 z" />
    <path
       inkscape:connector-curvature="0"
       id="path737"
       d="m -1109.4833,-78.470841 c 0.6,-8 1,-16.1 2.1,-24.099999 1.1,-8.4 2.6,-16.8 4.3,-25.1 1.7,-8.3 3.8,-16.5 6,-24.7 2.1,-8.2 4.6,-16.2 6.9,-24.4 -1.8,-0.6 -3.3,-1.2 -4.9,-1.7 2.2,-0.1 4.4,-0.5 6.5,-0.1 0.7,0.1 1.6,2.7 1.3,3.9 -2.6,11 -5.7,21.9 -8.2,32.9 -4.3,19 -8.3,38 -12.3,56.999999 -0.5,2.2 -0.4,4.6 -1.6,6.8 -0.1,-0.1 -0.1,-0.3 -0.1,-0.5 z" />
    <path
       inkscape:connector-curvature="0"
       id="path739"
       d="m -1111.1833,-68.370841 c 0.3,0 0.5,0 0.8,0 -25.4,5.2 -50.1,1.6 -74,-6.6 -18.6,-6.4 -36,-15.7 -51.7,-27.499999 -5.4,-4 -8.7,-11.1 -12.7,-17 -0.1,-0.1 -0.1,-0.3 -0.1,-0.4 0.3,-0.5 0.4,-1 0.3,-1.5 0.3,-0.8 0.9,-1.7 1.7,-2.6 2,2.3 3.9,4.6 5.9,6.8 3.7,4 6.8,9 11.3,11.7 20.7,12.599999 41.3,25.699999 65.6,30.399999 17.4,3.4 34.9,7.4 52.9,6.7 z" />
    <path
       inkscape:connector-curvature="0"
       id="path741"
       d="m -1248.6833,-121.27084 c 0,0.4 0,0.9 -0.3,1.5 0,-0.5 0.1,-1 0.3,-1.5 z" />
    <g
       transform="translate(-1765.0833,-691.67084)"
       id="Layer_2" />
    <g
       transform="translate(-1765.0833,-691.67084)"
       id="Layer_4" />
  </g>
</svg>
