<?xml version="1.0" encoding="UTF-8" standalone="no"?>
<!-- Created with Inkscape (http://www.inkscape.org/) -->

<svg
   xmlns:dc="http://purl.org/dc/elements/1.1/"
   xmlns:cc="http://creativecommons.org/ns#"
   xmlns:rdf="http://www.w3.org/1999/02/22-rdf-syntax-ns#"
   xmlns:svg="http://www.w3.org/2000/svg"
   xmlns="http://www.w3.org/2000/svg"
   xmlns:sodipodi="http://sodipodi.sourceforge.net/DTD/sodipodi-0.dtd"
   xmlns:inkscape="http://www.inkscape.org/namespaces/inkscape"
   width="283.28885mm"
   height="161.30113mm"
   viewBox="0 0 1003.7794 571.53944"
   id="svg3531"
   version="1.1"
   inkscape:version="0.91 r13725"
   sodipodi:docname="distributed.svg">
  <defs
     id="defs3533" />
  <sodipodi:namedview
     id="base"
     pagecolor="#ffffff"
     bordercolor="#666666"
     borderopacity="1.0"
     inkscape:pageopacity="0.0"
     inkscape:pageshadow="2"
     inkscape:zoom="0.35"
     inkscape:cx="2234.0326"
     inkscape:cy="-211.37314"
     inkscape:document-units="px"
     inkscape:current-layer="layer1"
     showgrid="false"
     fit-margin-top="0"
     fit-margin-left="0"
     fit-margin-right="0"
     fit-margin-bottom="0"
     inkscape:window-width="1920"
     inkscape:window-height="1056"
     inkscape:window-x="0"
     inkscape:window-y="24"
     inkscape:window-maximized="1" />
  <metadata
     id="metadata3536">
    <rdf:RDF>
      <cc:Work
         rdf:about="">
        <dc:format>image/svg+xml</dc:format>
        <dc:type
           rdf:resource="http://purl.org/dc/dcmitype/StillImage" />
        <dc:title></dc:title>
      </cc:Work>
    </rdf:RDF>
  </metadata>
  <g
     inkscape:label="Layer 1"
     inkscape:groupmode="layer"
     id="layer1"
     transform="translate(1859.0326,250.55037)">
    <g
       transform="translate(-1868.6298,-322.45037)"
       id="Layer_1" />
    <g
       transform="translate(-1868.6298,-322.45037)"
       id="Layer_2" />
    <path
       d="m -1631.9298,-250.55037 c 28.7,0.1 51.8,22.9 51.6,51.2 -0.2,28.4 -23.3,51.1 -51.9,50.9 -28.8,-0.2 -51.5,-22.7 -51.5,-51.1 0,-28.3 23,-51 51.8,-51 z m 0,5.3 c -24.8,-0.8 -46.9,20.5 -46.6,45.8 0.2,25.6 20.7,45.9 46.6,45.9 25.9,0 46.3,-20.4 46.5,-46 0.2,-25.2 -22,-46.5 -46.5,-45.7 z"
       id="path923"
       inkscape:connector-curvature="0" />
    <path
       d="m -1160.3298,-246.45037 c 19.4,0.9 36,10.8 44.7,31.4 6.7,15.8 4.7,31.6 -5.5,45.8 -8.8,12.2 -20.9,19.3 -36,21.1 -26.2,3 -48.4,-12.5 -55.2,-34.3 -5.5,-17.8 -1.9,-34 11,-47.7 10.4,-11.1 23.2,-16.2 41,-16.3 z m -3.1,93.4 c 10.5,0.1 20,-2.9 28.5,-9.2 22.7,-16.8 22.4,-47.4 5.9,-64.6 -16.9,-17.7 -46.1,-18.8 -63.7,-4.4 -15,12.3 -20.6,31 -14.2,48.8 5.6,15.5 22.4,29.8 43.5,29.4 z"
       id="path925"
       inkscape:connector-curvature="0" />
    <path
       d="m -1401.0298,-147.45037 c -17.1,-0.5 -32.4,-9.6 -41.6,-27.7 -9,-17.7 -5.5,-38.4 8,-53 24.6,-26.6 69,-19.2 83.1,14.2 8,19 3.4,41.7 -15.5,56.3 -9.1,7 -19.4,10.2 -34,10.2 z m 2.5,-92.1 c -4.7,0.9 -9.5,1.3 -13.9,2.9 -16.2,6.1 -26.7,17.4 -29.3,34.9 -1.6,11.1 0.6,21.5 7.5,30.6 11,14.5 25.6,20.3 43.6,18 21,-2.7 42.1,-23.2 36.8,-51.1 -3.8,-19.4 -22.1,-35.3 -44.7,-35.3 z"
       id="path927"
       inkscape:connector-curvature="0" />
    <path
       d="m -1411.9298,126.04963 c -23.3,-0.1 -41.7,-19.1 -41.7,-42.800001 0,-23.5 19.7,-42.5 42.2,-42.2 23,0.3 41.5,19.2 41.5,42.6 -0.1,23.700001 -18.7,42.500001 -42,42.400001 z m -0.1,-5.1 c 19.4,0.5 36.3,-15.9 36.9,-35.700001 0.6,-21.5 -15.1,-38.5 -36.2,-39 -20.1,-0.5 -36.8,16.1 -37.2,37.1 -0.3,20.500001 16.4,37.700001 36.5,37.600001 z"
       id="path929"
       inkscape:connector-curvature="0" />
    <path
       d="m -1603.1298,39.049629 c 20.6,0.1 38.3,16 40.7,36.6 2.2,18.5 -4.5,33.100001 -20.2,43.200001 -14.5,9.3 -34.6,7.2 -47.4,-4.5 -18.2,-16.700001 -19.6,-44.000001 -2.9,-62.100001 8,-8.8 18,-13.2 29.8,-13.2 z m -0.1,4.7 c -3.8,0.7 -7.7,1 -11.2,2.3 -26.2,9.5 -31.8,41.6 -15.9,60.400001 12.9,15.2 33.2,16.3 46.4,7.2 13.1,-9 18.4,-21.800001 16.5,-37.600001 -2.1,-17.7 -18.1,-31.9 -35.8,-32.3 z"
       id="path931"
       inkscape:connector-curvature="0" />
    <path
       d="m -999.12978,126.04963 c -15.50002,-0.5 -29.50002,-8 -37.60002,-24.5 -7.1,-14.300001 -3.9,-30.900001 7.9,-42.700001 12.1,-12.1 26.9,-15.5 43.20002,-11.8 13.6,3.1 23.7,11.2 29.6,24 6,12.9 3,29.700001 -6.7,40.300001 -9.2,9.9 -20.5,14.7 -36.4,14.7 z m 2.7,-5.2 c 11.9,0.1 22,-4.4 30.2,-13.4 10,-11.100001 10.9,-28.900001 2,-40.600001 -14.3,-19 -41.80002,-21.6 -59.50002,-5.8 -13.8,12.4 -15.4,32.1 -3.4,46.200001 7.9,9.3 18.2,13.7 30.70002,13.6 z"
       id="path933"
       inkscape:connector-curvature="0" />
    <path
       d="m -1177.8298,38.049629 c 22.5,-0.2 41.1,18.3 41.3,41.1 0.2,23.000001 -18,41.500001 -41.1,41.700001 -22.8,0.2 -41.2,-18.1 -41.5,-41.100001 -0.3,-22.7 18.4,-41.5 41.3,-41.7 z m 36.2,41.7 c 0.5,-19 -15.2,-36.3 -35.7,-36.5 -19.7,-0.3 -36.3,15.7 -36.7,35.7 -0.4,19.4 15.3,36.000001 35.1,36.800001 19.9,0.7 37.4,-15.7 37.3,-36.000001 z"
       id="path935"
       inkscape:connector-curvature="0" />
    <path
       d="m -1753.7298,76.549629 c 0.2,18.6 -11.1,35.500001 -26.9,41.000001 -19.1,6.7 -39.6,-1.6 -49,-19.700001 -9.8,-18.9 -4.6,-41.8 12.4,-54.7 12.4,-9.4 29.8,-10.3 43,-2.1 13.6,8.3 20.1,20.7 20.5,35.5 z m -5.2,1.1 c 0.1,-8.7 -2.5,-16.5 -7.8,-23.4 -9.8,-12.7 -26.7,-17.3 -40.8,-10.9 -23.2,10.6 -27.1,38.5 -15.4,55.6 9.6,13.900001 25.6,19.200001 40.8,13.600001 13.9,-5.2 23.2,-19.100001 23.2,-34.900001 z"
       id="path937"
       inkscape:connector-curvature="0" />
    <path
       d="m -887.22978,320.54963 c -7.7,-0.3 -15.9,-3.1 -22.4,-9.9 -9.3,-9.8 -8.7,-24 1.5,-33.6 13.3,-12.5 36.7,-10.8 48,3.4 7.30002,9.2 6.30002,22.8 -2.3,30.8 -6.6,6.3 -14.3,9.4 -24.8,9.3 z m 1.7,-46.7 c -7.9,0 -14.2,2.4 -19.7,7.6 -7.5,7.1 -7.7,18.5 -0.5,25.8 10.2,10.4 27.9,10.9 38.8,1.3 8.80002,-7.8 8.90002,-19.8 0.2,-27.7 -5.4,-4.8 -11.7,-7 -18.8,-7 z"
       id="path939"
       inkscape:connector-curvature="0" />
    <path
       d="m -1064.5298,317.64963 c -9.6,-0.2 -18.2,-2.9 -24.8,-10.3 -7.7,-8.7 -7.4,-19.8 0.5,-28.3 12.4,-13.4 37.9,-12.8 49.7,1.1 7.4,8.8 6.7,20.6 -1.6,28.7 -6.7,6.2 -14.8,8.6 -23.8,8.8 z m -2.2,-5.2 c 9.6,0.2 16.4,-2.2 22.1,-7.1 7.1,-6.1 7.5,-16.3 0.9,-22.9 -10.6,-10.8 -30.9,-10.7 -41.5,0.2 -6.3,6.6 -5.9,16.5 0.9,22.6 5.6,5 12.2,7.2 17.6,7.2 z"
       id="path941"
       inkscape:connector-curvature="0" />
    <path
       d="m -1176.5298,267.04963 c 10.7,0.4 18.1,3.5 24,10.1 8.7,9.8 7.6,23.4 -2.6,32.5 -12.1,11 -33.3,9.7 -44,-2.7 -8.7,-10.1 -7.2,-24.8 3.4,-33.1 6.2,-4.9 13.3,-6.9 19.2,-6.8 z m 0.8,45 c 6.6,0 11.8,-1.8 16.7,-5.8 8.4,-6.7 9.5,-17.9 2.6,-25.7 -9.7,-11.1 -29.3,-11 -38.9,0.1 -5.8,6.7 -5.9,16.1 -0.1,22.8 5.2,6 11.9,8.6 19.7,8.6 z"
       id="path943"
       inkscape:connector-curvature="0" />
    <path
       d="m -1471.8298,317.64963 c -9,-0.2 -17.2,-3.2 -23.4,-10.5 -6.9,-8.1 -6.9,-19.4 0,-27.5 11.4,-13.6 34.8,-14.1 46.7,-1 8.7,9.7 7.8,23.1 -2.3,31.7 -5.9,5.1 -13,7.2 -21,7.3 z m 0.5,-5.2 c 7,0.1 13.3,-2.2 18.5,-7.2 6.8,-6.5 6.8,-17.2 0,-23.7 -8.7,-8.3 -23.3,-9.7 -33.3,-3.1 -12.3,8 -12,22.7 0.6,30.3 4.3,2.6 9,3.7 14.2,3.7 z"
       id="path945"
       inkscape:connector-curvature="0" />
    <path
       d="m -975.82978,316.84963 c -9.2,-0.4 -17.8,-2.7 -24.30002,-10 -7.5,-8.2 -6.7,-20 1.90002,-27.3 8.6,-7.3 18.6,-9.1 29.4,-7.5 7.3,1.1 13.6,4.2 18.6,9.8 6.2,7 6.1,17.4 -0.1,24.5 -6.2,7.2 -15.6,10.3 -25.5,10.5 z m 1.3,-5.2 c 7.1,-0.2 13.5,-2.2 18.8,-7 6.7,-6.1 6.6,-15.2 -0.3,-21.1 -5.4,-4.7 -11.7,-6.6 -18.7,-6.7 -7.5,-0.1 -14.3,1.7 -20.1,6.7 -6.90002,6 -7.10002,15.2 -0.2,21.3 5.8,5.1 12.9,6.9 20.5,6.8 z"
       id="path947"
       inkscape:connector-curvature="0" />
    <path
       d="m -1256.6298,264.94963 c 9.8,0.1 17.9,3.8 23.5,12 7.1,10.3 4.4,23.5 -6.2,31.7 -12.4,9.6 -31.7,6.7 -40.7,-6.1 -6.8,-9.6 -4.8,-23.2 4.4,-30.8 5.8,-4.7 11.5,-6.7 19,-6.8 z m -0.1,44.1 c 5.8,0.1 10.9,-1.7 15.3,-5.4 8.3,-6.8 9.3,-18.7 2.2,-26.2 -7.9,-8.2 -20.6,-9.9 -30.3,-3.9 -11.3,7 -12.7,20.9 -3.1,29.5 4.6,4.1 9.9,6.1 15.9,6 z"
       id="path949"
       inkscape:connector-curvature="0" />
    <path
       d="m -1377.6298,272.44963 c 8.5,0.2 16.1,2.8 22.1,9.2 8.6,9.2 7.5,22.1 -2.4,30.6 -10.9,9.3 -29.7,9.1 -40.3,-0.4 -11.5,-10.4 -9.8,-26.6 3.8,-34.9 5.2,-3.1 10.8,-4.4 16.8,-4.5 z m -0.1,41.6 c 7.8,0 14.7,-3.1 19.3,-8.4 4.7,-5.6 4.7,-14 0,-19.6 -9.3,-11 -28.4,-11.3 -38.1,-0.6 -5.7,6.3 -5.4,15.7 0.8,21.6 5,4.8 11.1,6.9 18,7 z"
       id="path951"
       inkscape:connector-curvature="0" />
    <path
       d="m -1662.5298,272.84963 c 8.4,0.2 16,3.1 21.7,10.1 6.6,8 6.4,19 -0.3,26.9 -11.2,13.1 -33.5,12.9 -44.3,-0.4 -7.8,-9.5 -6,-22.7 4,-30.4 5.4,-4.3 11.7,-6.1 18.9,-6.2 z m 0,41.5 c 5.4,0.1 10.6,-1.7 15.1,-5.4 8.2,-6.7 8.5,-17.8 0.6,-24.9 -8,-7.3 -21.6,-8.1 -30.4,-1.8 -10.6,7.6 -10.7,20 -0.1,27.7 4.3,3.2 9.1,4.4 14.8,4.4 z"
       id="path953"
       inkscape:connector-curvature="0" />
    <path
       d="m -1575.3298,273.34963 c 8.9,-0.1 15.8,2.5 21.4,8.3 7.7,7.9 7.9,19.5 0.6,27.8 -9.7,10.9 -29,12.1 -40,2.4 -11.5,-10.1 -10,-26.2 3.2,-34.3 4.9,-3 10.1,-4.3 14.8,-4.2 z m -0.8,39.9 c 8.4,0 13.8,-2.2 18.4,-6.6 6.3,-6 6.2,-15.9 -0.2,-21.8 -8,-7.4 -20.5,-8.6 -29.7,-2.8 -10.8,6.8 -11.2,19.4 -1,26.9 4.3,3.1 9.1,4.3 12.5,4.3 z"
       id="path955"
       inkscape:connector-curvature="0" />
    <path
       d="m -1015.6298,25.649629 c -4.5,-0.2 -6.7,-3.2 -9,-6.5 -36.8,-51.1 -73.7,-102.2 -110.6,-153.299999 -0.1,-0.1 -0.2,-0.2 -0.3,-0.4 -0.8,-1.1 -2.1,-2.4 -0.4,-3.5 1.6,-1.1 2.5,0.4 3.3,1.5 20.5,28.4 40.9,56.699999 61.4,85.099999 18.1,25.1 36.2,50.1999999 54.3,75.3 0.5,0.6 0.9,1.2 1.3,1.8 z"
       id="path957"
       inkscape:connector-curvature="0" />
    <path
       d="m -1733.8298,295.94963 c -0.3,11.5 -5.3,18.1 -13.8,22.5 -9.6,4.9 -22.9,2.5 -30.2,-5.4 -9.3,-10.1 -8,-24.5 3.1,-33.3 12.3,-9.7 31.7,-5.6 38.6,8.4 1.4,2.9 1.8,6.2 2.3,7.8 z m -24.4,-16.3 c -4.2,-0.2 -7.8,0.7 -11.7,3 -10.3,6 -12.1,19.6 -3.5,27.5 6.1,5.6 13.3,7 21,4.7 10.3,-3 15.6,-13.1 12.4,-22.8 -2.3,-6.9 -9.9,-12 -18.2,-12.4 z"
       id="path959"
       inkscape:connector-curvature="0" />
    <path
       d="m -1812.0298,295.54963 c -0.1,12.5 -10.7,22.4 -23.7,22.3 -12.9,-0.1 -23.5,-10.2 -23.3,-22.5 0.1,-12.5 10.7,-22.5 23.6,-22.5 13,0.2 23.5,10.3 23.4,22.7 z m -41.9,0 c 0,9.7 8.1,17.2 18.5,17.2 10.1,0 18.2,-7.7 18.2,-17.3 -0.1,-9.7 -8.2,-17.3 -18.4,-17.3 -10.2,0 -18.3,7.7 -18.3,17.4 z"
       id="path961"
       inkscape:connector-curvature="0" />
    <path
       d="m -1754.1298,21.949629 c -1.9,0 -2.7,-1.3 -2,-2.6 0.7,-1.5 1.6,-2.8 2.4,-4.2 28.6,-47.4 57.1,-94.9 85.7,-142.299999 0.8,-1.3 1.4,-3.6 3.5,-2.2 2,1.2 0.3,2.7 -0.4,4 -29.1,48.399999 -58.3,96.799999 -87.5,145.199999 -0.5,0.9 -1.2,1.6 -1.7,2.1 z"
       id="path963"
       inkscape:connector-curvature="0" />
    <path
       d="m -1399.2298,26.649629 c 0.5,-54.5 1,-109 1.5,-163.599999 1.2,0 2.3,0 3.4,0 0,2.3 0,4.4 0,6.5 -0.1,13 -0.2,26 -0.3,39.099999 -0.2,18.8 -0.3,37.6 -0.5,56.4 -0.1,16.1 -0.3,32.1999999 -0.5,48.3 0,3.5 -0.1,6.9 -0.2,10.4 0.2,3.1 0.1,3.2 -3.4,2.9 z"
       id="path965"
       inkscape:connector-curvature="0" />
    <path
       d="m -1173.8298,19.549629 c 2,-19.40000012 4,-39 6,-58.5 1.9,-18.9 3.8,-37.7 5.7,-56.6 1.2,-12.399999 2.5,-24.799999 3.8,-37.199999 0.1,-0.8 1.2,-2.2 1.9,-2.2 1.6,-0.1 1.7,1.3 1.6,2.7 -2.1,20.3 -4.2,40.599999 -6.2,60.899999 -2.1,20.5 -4.1,41.1 -6.2,61.5999999 -1,9.99999998 -2,19.9000001 -3.1,29.9000001 -0.1,1.4 0.1,3.4 -2,3.2 -2.4,-0.2 -1.5,-2.2 -1.5,-3.8 z"
       id="path967"
       inkscape:connector-curvature="0" />
    <path
       d="m -1607.7298,20.549629 c -0.3,0.3 -0.9,1.5 -1.7,1.6 -1.5,0.3 -1.9,-1 -2,-2.2 -1.1,-13.1000001 -2.2,-26.2000001 -3.3,-39.4 -1.5,-17.3 -2.9,-34.7 -4.4,-52 -1.3,-15.5 -2.6,-30.999999 -3.9,-46.499999 -0.2,-2.2 -0.5,-4.5 -0.5,-6.7 0,-0.8 1,-1.6 1.5,-2.4 0.6,0.7 1.7,1.4 1.8,2.2 0.7,6.6 1.2,13.2 1.8,19.8 1.5,17.399999 3,34.799999 4.4,52.199999 1.5,17.1 2.9,34.2 4.3,51.2999999 0.8,7.1 1.4,14.1000001 2,22.1000001 z"
       id="path969"
       inkscape:connector-curvature="0" />
    <path
       d="m -1788.5298,135.44963 c 3.3,-0.6 3.3,-0.6 4,2.6 7.6,38.3 15.1,76.5 22.7,114.8 0.1,0.5 0.4,1.2 0.2,1.6 -0.3,0.7 -0.9,1.4 -1.4,2.1 -0.7,-0.5 -1.8,-0.9 -1.9,-1.5 -0.9,-3.7 -1.6,-7.4 -2.3,-11.1 -5.3,-27 -10.7,-54 -16,-81.1 -1.7,-8.7 -3.4,-17.4 -5.2,-26 -0.1,-0.5 0,-1 -0.1,-1.4 z"
       id="path971"
       inkscape:connector-curvature="0" />
    <path
       d="m -1625.1298,137.04963 c 1.2,0 2.3,0 3.6,0 -2.3,8.5 -4.6,16.8 -6.9,25.1 -7.9,28.8 -15.8,57.6 -23.7,86.4 -0.4,1.4 -0.2,3.9 -2.6,3.2 -2.6,-0.7 -1.1,-2.8 -0.7,-4.2 9.9,-36.1 19.8,-72.2 29.7,-108.2 0.1,-0.9 0.4,-1.6 0.6,-2.3 z"
       id="path973"
       inkscape:connector-curvature="0" />
    <path
       d="m -1805.3298,136.34963 c -0.8,4.7 -1.6,9 -2.4,13.3 -6.3,34 -12.5,68 -18.8,102 -0.3,1.4 0,3.6 -2.3,3.2 -2.5,-0.4 -1.4,-2.5 -1.1,-4 5.3,-28.8 10.6,-57.7 15.9,-86.5 1.6,-8.6 3.2,-17.1 4.7,-25.7 0.4,-2.2 1.9,-2.1 4,-2.3 z"
       id="path975"
       inkscape:connector-curvature="0" />
    <path
       d="m -1433.1298,138.14963 c -1.8,8.1 -3.5,16 -5.3,24 -6.4,29.3 -12.9,58.6 -19.3,87.9 -0.1,0.3 0,0.7 -0.2,0.9 -0.7,0.6 -1.5,1.2 -2.2,1.8 -0.4,-0.8 -1.3,-1.8 -1.2,-2.5 0.3,-2.5 1,-5 1.6,-7.4 7.5,-34 14.9,-67.9 22.3,-101.9 0.6,-2.6 1.5,-3.6 4.3,-2.8 z"
       id="path977"
       inkscape:connector-curvature="0" />
    <path
       d="m -949.32978,137.24963 c 3.1,-1.2 4.2,0.5 5.4,2.8 16.7,32.7 33.4,65.4 50.2,98.1 0.2,0.4 0.6,0.8 0.6,1.2 -0.1,0.9 -0.4,1.7 -0.7,2.6 -0.8,-0.4 -2,-0.5 -2.4,-1.1 -1.6,-2.6 -2.9,-5.4 -4.3,-8.2 -16,-31.2 -32,-62.5 -48,-93.7 -0.3,-0.6 -0.5,-1.2 -0.8,-1.7 z"
       id="path979"
       inkscape:connector-curvature="0" />
    <path
       d="m -1396.1298,137.94963 c 1.2,0 2.3,0 3.5,0 0.9,5.8 1.9,11.7 2.8,17.5 3.8,24.4 7.6,48.8 11.4,73.3 1.1,7.2 2.3,14.5 3.4,21.7 0.1,0.6 0.3,1.3 0.2,1.8 -0.3,0.8 -0.9,1.6 -1.3,2.3 -0.7,-0.6 -1.9,-1.2 -2,-1.9 -1,-5.8 -1.9,-11.5 -2.8,-17.3 -3.3,-21.4 -6.7,-42.7 -10,-64.1 -1.8,-11.1 -3.5,-22.1 -5.2,-33.3 z"
       id="path981"
       inkscape:connector-curvature="0" />
    <path
       d="m -1580.9298,254.54963 c -0.4,-5 -0.9,-10.1 -1.3,-15.2 -1.7,-19.6 -3.3,-39.1 -4.9,-58.7 -1.1,-13 -2.2,-25.9 -3.3,-38.9 -0.1,-1.3 -0.1,-2.7 1.5,-2.9 1.8,-0.2 2,1.3 2.1,2.7 2.7,32.6 5.5,65.2 8.2,97.8 0.3,3.9 0.7,7.8 1,11.7 0.2,3.3 0.2,3.3 -3.3,3.5 z"
       id="path983"
       inkscape:connector-curvature="0" />
    <path
       d="m -1025.4298,138.64963 c -2.8,8 -5.6,15.9 -8.4,23.8 -9,25.7 -18.1,51.4 -27.1,77.1 -0.3,0.8 -0.5,1.7 -1,2.3 -0.4,0.5 -1.4,1.1 -1.8,0.9 -0.6,-0.3 -1.1,-1.2 -1.3,-1.9 -0.1,-0.5 0.2,-1.2 0.5,-1.8 11.5,-32.6 23,-65.2 34.4,-97.8 0.8,-2.4 1.9,-3.4 4.7,-2.6 z"
       id="path985"
       inkscape:connector-curvature="0" />
    <path
       d="m -1166.7298,190.64963 c 0.7,17.5 1.4,34.9 2.2,52.4 0,0.3 0,0.6 0.1,0.9 0,1.3 0,2.6 -1.8,2.7 -1.7,0 -1.8,-1.4 -1.8,-2.7 -0.1,-2.8 -0.2,-5.7 -0.3,-8.5 -0.9,-22.5 -1.8,-45.1 -2.8,-67.6 -0.4,-9.9 -0.8,-19.9 -1.2,-29.8 0,-0.6 -0.2,-1.3 0,-1.8 0.4,-0.8 1,-1.4 1.5,-2.1 0.6,0.6 1.6,1.2 1.8,1.9 0.3,1.9 0.3,3.8 0.4,5.8 0.6,16.2 1.2,32.5 1.9,48.8 z"
       id="path987"
       inkscape:connector-curvature="0" />
    <path
       d="m -1203.8298,134.24963 c -3.6,9.8 -7.2,19.4 -10.8,29.1 -8.6,23.1 -17.2,46.1 -25.7,69.2 -0.2,0.5 -0.4,1 -0.5,1.5 -0.4,1.2 -1,2.5 -2.6,1.8 -1.6,-0.6 -1.1,-1.9 -0.7,-3.1 4.2,-11.3 8.4,-22.6 12.6,-34 7.7,-20.6 15.4,-41.2 22.9,-61.9 0.9,-2.4 2,-3.2 4.8,-2.6 z"
       id="path989"
       inkscape:connector-curvature="0" />
    <path
       d="m -990.42978,139.84963 c 1.2,0.1 2.2,0.2 3.4,0.3 0.4,5.8 0.7,11.5 1.1,17.3 1.3,20.7 2.7,41.3 4,62 0.4,6.5 0.8,12.9 1.2,19.4 0.1,1.3 0.1,2.7 -1.6,2.8 -1.7,0.1 -1.8,-1.3 -1.9,-2.5 -0.9,-13.4 -1.8,-26.7 -2.6,-40.1 -1.2,-18.6 -2.4,-37.2 -3.6,-55.8 -0.1,-1.1 0,-2.1 0,-3.4 z"
       id="path991"
       inkscape:connector-curvature="0" />
    <path
       class="st0"
       d="m -1631.9298,-245.25037 c 24.6,-0.8 46.7,20.5 46.5,45.7 -0.2,25.6 -20.6,46 -46.5,46 -26,0 -46.4,-20.3 -46.6,-45.9 -0.3,-25.3 21.8,-46.6 46.6,-45.8 z m 9.3,53.2 c -1,-1.2 -1.5,-2.4 -2.4,-2.7 -0.6,-0.2 -2.1,0.6 -2.4,1.3 -1,2.1 -1.6,4.4 -2.5,6.6 -0.3,0.8 -1.1,1.5 -1.6,2.2 -0.2,0.4 -0.6,1 -0.4,1.2 0.7,1.3 4.3,1.6 5,0.4 1.4,-2.8 2.7,-5.8 4.3,-9 z m -16.7,-0.3 c -0.5,-0.7 -1,-2 -1.8,-2.3 -1.6,-0.6 -2.2,1 -2.6,2.2 -0.5,1.5 -0.5,3.3 -1.4,4.5 -1.2,1.6 -0.6,2.2 0.7,3 1.6,0.9 2.7,0.4 3.3,-1.2 0.8,-1.7 1.2,-3.7 1.8,-6.2 z"
       id="path993"
       inkscape:connector-curvature="0"
       style="fill:#ffffff" />
    <path
       class="st0"
       d="m -1163.4298,-153.05037 c -21.1,0.4 -37.9,-13.9 -43.5,-29.4 -6.4,-17.8 -0.8,-36.4 14.2,-48.8 17.6,-14.4 46.8,-13.3 63.7,4.4 16.4,17.2 16.7,47.8 -5.9,64.6 -8.5,6.3 -18,9.3 -28.5,9.2 z m -6.2,-41.4 c 0.1,0 0.3,0 0.4,0 -0.1,-0.7 0,-1.4 -0.2,-2.1 -0.3,-0.9 -0.7,-1.8 -1,-2.7 -0.7,0.8 -1.5,1.5 -2.2,2.4 -0.2,0.2 -0.3,0.6 -0.3,0.9 -0.5,3.2 -1.2,6.4 -1.2,9.6 0,1.4 1.1,2.9 2.1,4.1 0.8,1 2.3,0.2 2.4,-1.2 0.1,-3.8 0,-7.4 0,-11 z m -14.6,9.2 c 0.6,-1.7 1.3,-2.9 1.5,-4.2 0.5,-2.8 0.8,-5.6 1,-8.4 0,-0.5 -1,-1.4 -1.6,-1.4 -0.5,0 -1.4,0.9 -1.5,1.5 -0.5,2.2 -0.4,4.4 -1,6.5 -0.9,2.4 0.7,3.9 1.6,6 z"
       id="path995"
       inkscape:connector-curvature="0"
       style="fill:#ffffff" />
    <path
       class="st0"
       d="m -1398.5298,-239.55037 c 22.6,0 41,15.9 44.7,35.4 5.3,27.9 -15.8,48.4 -36.8,51.1 -18,2.3 -32.6,-3.6 -43.6,-18 -6.9,-9.1 -9.1,-19.5 -7.5,-30.6 2.6,-17.5 13.1,-28.8 29.3,-34.9 4.3,-1.7 9.2,-2 13.9,-3 z m 11.4,70.2 c 1.4,2 2.4,3.4 3.4,4.7 0.5,0.6 1.1,1.1 1.6,1.6 0.2,-0.9 0.8,-1.9 0.6,-2.7 -0.7,-3 -2.3,-5.6 -4.9,-7.2 -0.6,-0.4 -2.2,-0.2 -2.5,0.3 -1.6,2.7 -3,5.5 -4.4,8.3 -0.3,0.6 0.2,1.5 0.3,2.3 0.7,-0.5 1.6,-0.8 2.1,-1.5 1.4,-1.7 2.5,-3.6 3.8,-5.8 z m -14.7,5.3 c -0.3,-0.7 -0.4,-1.4 -0.7,-1.9 -1.4,-2 -2.8,-4 -4.4,-5.8 -0.4,-0.4 -2.2,-0.3 -2.7,0.2 -1.8,1.7 -3.3,3.6 -4.8,5.5 -0.3,0.4 0,1.3 0.1,1.9 0.6,-0.2 1.3,-0.1 1.7,-0.5 1.6,-1.4 3.1,-2.8 4.7,-4.3 2,1.6 2.3,5.5 6.1,4.9 z"
       id="path997"
       inkscape:connector-curvature="0"
       style="fill:#ffffff" />
    <path
       class="st0"
       d="m -1412.0298,120.94963 c -20.1,0.1 -36.8,-17.1 -36.5,-37.600001 0.4,-21 17,-37.6 37.2,-37.1 21.1,0.5 36.8,17.4 36.2,39 -0.5,19.800001 -17.5,36.200001 -36.9,35.700001 z m 13.7,-30.800001 c 0,-0.1 0,-0.2 -0.1,-0.3 -1.5,0 -2.9,-0.1 -4.4,0.1 -0.7,0.1 -1.3,0.8 -1.9,1.3 0.6,0.5 1.1,1.2 1.7,1.3 5.4,1.3 10.6,-0.5 15.9,-0.9 0.3,0 0.7,-0.5 0.7,-0.7 0,-0.4 -0.3,-1 -0.6,-1 -1.5,-0.4 -3,-0.9 -4.5,-0.8 -2.1,0 -4.4,0.6 -6.8,1 z m -18.4,-1.3 c -0.8,0.4 -1.3,0.9 -1.8,0.9 -3.6,0 -7.2,-0.1 -10.8,-0.1 -0.7,0 -1.4,0.4 -2.2,0.7 0.6,0.5 1.1,1.3 1.7,1.3 3.7,0.1 7.3,0.2 11,0.1 1.5,0 3,-0.4 4.5,-0.7 0,-0.2 0,-0.5 0.1,-0.7 -0.9,-0.6 -1.8,-1.1 -2.5,-1.5 z"
       id="path999"
       inkscape:connector-curvature="0"
       style="fill:#ffffff" />
    <path
       class="st0"
       d="m -1603.2298,43.749629 c 17.8,0.3 33.7,14.6 35.8,32.2 1.9,15.8 -3.4,28.600001 -16.5,37.600001 -13.2,9.1 -33.6,8 -46.4,-7.2 -15.9,-18.700001 -10.3,-50.900001 15.9,-60.400001 3.5,-1.2 7.4,-1.4 11.2,-2.2 z m -6.8,40.2 c -0.3,0 -0.6,0 -0.9,0 -0.2,0.9 -0.3,1.9 -0.5,2.8 -0.5,2.7 -0.3,5.7 -1.5,8.1 -1.4,2.7 0.3,3.4 1.3,4.7 2.8,-5.1 4.4,-10.2 1.6,-15.6 z m -9.7,13.3 c 1,-4.5 2,-8.8 3,-13.1 -0.4,-0.1 -0.7,-0.2 -1.1,-0.3 -0.9,2.7 -1.6,5.5 -2.6,8.1 -0.9,2 -1.2,3.7 0.7,5.3 z"
       id="path1001"
       inkscape:connector-curvature="0"
       style="fill:#ffffff" />
    <path
       class="st0"
       d="m -996.42978,120.84963 c -12.50002,0 -22.80002,-4.4 -30.70002,-13.6 -12,-14.100001 -10.5,-33.800001 3.4,-46.200001 17.7,-15.8 45.20002,-13.2 59.50002,5.8 8.8,11.7 8,29.4 -2,40.600001 -8.2,9.1 -18.4,13.6 -30.2,13.4 z m -9.80002,-58.100001 c -0.4,-0.5 -0.7,-1.1 -1.2,-1.3 -0.5,-0.2 -1.4,-0.1 -1.6,0.2 -1.8,2.4 -3.7,4.9 -5.2,7.5 -0.3,0.5 0.5,1.7 1,2.4 0.1,0.2 1.2,0 1.5,-0.3 1.4,-1.6 2.7,-3.3 3.9,-5 0.7,-1 1.1,-2.2 1.6,-3.5 z m 2.5,11.5 c 0.5,-0.7 0.7,-1.3 1.1,-1.7 1.6,-1.7 3.40002,-3.2 4.80002,-5 0.9,-1 1.4,-2.4 -0.1,-3.4 -1.5,-0.9 -2.20002,0.5 -3.00002,1.3 -1.3,1.3 -2.7,2.6 -3.9,4 -0.4,0.5 -0.6,1.4 -0.4,1.9 0.3,1 1,1.8 1.5,2.9 z"
       id="path1003"
       inkscape:connector-curvature="0"
       style="fill:#ffffff" />
    <path
       class="st0"
       d="m -1141.6298,79.749629 c 0.1,20.2 -17.4,36.700001 -37.3,35.900001 -19.7,-0.8 -35.5,-17.400001 -35.1,-36.800001 0.4,-19.9 17,-35.9 36.7,-35.7 20.5,0.4 36.1,17.6 35.7,36.6 z m -20.8,8.3 c -0.8,0.5 -1.4,1 -2.1,1.3 -3.5,1.7 -7.1,3.2 -10.6,5 -1.8,0.9 -1.3,2.8 -1.3,4.3 0,0.5 0.7,1.400001 1,1.400001 1.3,-0.200001 2.7,-0.500001 3.9,-1.100001 0.7,-0.4 1.1,-1.4 1.6,-2.2 0.6,-0.8 1,-1.9 1.8,-2.4 1.7,-1 3.6,-1.8 5.4,-2.5 1.3,-0.4 1.6,-1 1,-2.2 -0.3,-0.5 -0.5,-1.2 -0.7,-1.6 z m -34,-1.9 c -0.2,0.3 -0.4,0.5 -0.5,0.8 2.2,1.5 4.3,3.1 6.5,4.6 -0.9,0.9 -0.9,5.2 0.4,6 1.8,1.1 3.1,-0.3 4.6,-1.7 -1.1,-1 -2.1,-1.9 -3.1,-2.8 0.1,-0.1 0.4,-0.4 1.3,-1.1 -3.3,-2 -6.3,-3.9 -9.2,-5.8 z"
       id="path1005"
       inkscape:connector-curvature="0"
       style="fill:#ffffff" />
    <path
       class="st0"
       d="m -1758.9298,77.649629 c 0,15.8 -9.3,29.800001 -23.2,34.900001 -15.2,5.6 -31.2,0.3 -40.8,-13.600001 -11.8,-17.1 -7.9,-45 15.4,-55.6 14,-6.4 30.9,-1.8 40.8,10.9 5.3,6.9 7.9,14.7 7.8,23.4 z m -26.9,-26 c -0.2,1.5 -0.7,2.6 -0.3,3.3 1.5,2.8 3.2,5.6 4.9,8.2 0.3,0.5 1.4,0.6 2.1,0.8 0,-0.8 0.3,-1.7 0,-2.3 -1.5,-2.9 -3.2,-5.8 -4.8,-8.6 -0.3,-0.3 -0.9,-0.6 -1.9,-1.4 z m 6.4,-2.6 c -1.2,2.8 1,4.6 2.1,6.1 1.2,1.6 2.4,4.4 5.5,3.5 -0.1,-2.8 -3.8,-7.7 -7.6,-9.6 z m -4.7,14.1 c 0.1,-3.5 -1.8,-6.8 -4.7,-8.1 1.6,2.8 3,5.3 4.7,8.1 z"
       id="path1007"
       inkscape:connector-curvature="0"
       style="fill:#ffffff" />
    <path
       class="st0"
       d="m -885.52978,273.84963 c 7.1,0 13.5,2.1 18.8,7 8.70002,7.9 8.60002,19.9 -0.2,27.7 -10.9,9.7 -28.6,9.1 -38.8,-1.3 -7.2,-7.3 -7,-18.7 0.5,-25.8 5.4,-5.2 11.7,-7.6 19.7,-7.6 z m 1.4,3.5 c -0.3,0.1 -0.6,0.1 -0.9,0.2 -1.5,3.2 -1.1,5.3 1.6,6 -0.2,-2.1 -0.5,-4.1 -0.7,-6.2 z m -6.4,6.9 c -0.5,-1.5 -1.1,-3 -1.6,-4.5 -0.2,0.1 -0.5,0.2 -0.7,0.3 -0.6,1.9 0.1,3.3 2.3,4.2 z"
       id="path1009"
       inkscape:connector-curvature="0"
       style="fill:#ffffff" />
    <path
       class="st0"
       d="m -1066.7298,312.44963 c -5.3,0.1 -12,-2.2 -17.6,-7.2 -6.9,-6.2 -7.3,-16.1 -0.9,-22.6 10.5,-10.9 30.9,-11 41.5,-0.2 6.6,6.7 6.2,16.8 -0.9,22.9 -5.8,4.9 -12.5,7.3 -22.1,7.1 z m 7.2,-17.3 c 0,-2.6 0.1,-5.1 -0.1,-7.4 0,-0.6 -0.9,-1.2 -1.3,-1.8 -0.6,0.6 -1.6,1 -1.7,1.7 -0.3,1.3 -0.3,2.7 -0.3,4.1 0.1,1.8 1.2,2.7 3.4,3.4 z m -13.2,-2.6 c 0.6,-0.2 1.5,-0.5 1.5,-0.6 -0.1,-1.8 -0.4,-3.6 -0.7,-5.4 -0.2,0 -0.3,0.1 -0.5,0.1 -0.1,1.8 -0.2,3.6 -0.3,5.9 z"
       id="path1011"
       inkscape:connector-curvature="0"
       style="fill:#ffffff" />
    <path
       class="st0"
       d="m -1175.7298,312.04963 c -7.8,0 -14.5,-2.6 -19.7,-8.5 -5.8,-6.7 -5.7,-16.1 0.1,-22.8 9.6,-11.2 29.2,-11.2 38.9,-0.1 6.9,7.9 5.7,19 -2.6,25.7 -4.9,3.8 -10.1,5.6 -16.7,5.7 z m 8.3,-22.7 c -1.5,1.9 -2.5,4 -5.4,4.7 0,-1.5 0,-2.8 0,-4.1 -0.2,0 -0.4,0 -0.7,-0.1 -0.3,1.3 -0.6,2.6 -0.8,3.9 -0.3,1.7 0.7,2.8 2.4,2.4 1.4,-0.3 2.7,-0.9 3.9,-1.7 3,-2 3,-2.1 0.6,-5.1 z m -10.8,-1.3 c -0.8,-0.6 -1.6,-1.1 -2.3,-1.6 -1.9,2.4 -3.6,4.5 -5.5,6.9 -0.3,-1 -0.6,-1.7 -0.8,-2.5 -0.3,0.4 -0.4,0.8 -0.3,1.1 0.2,0.9 0.3,2.3 0.9,2.7 1.2,0.8 2.1,-0.1 3,-1.2 1.4,-1.9 3.1,-3.5 5,-5.4 z"
       id="path1013"
       inkscape:connector-curvature="0"
       style="fill:#ffffff" />
    <path
       class="st0"
       d="m -1471.3298,312.44963 c -5.2,0 -9.9,-1.1 -14.3,-3.7 -12.5,-7.6 -12.8,-22.3 -0.6,-30.3 10.1,-6.6 24.7,-5.2 33.3,3.1 6.8,6.5 6.8,17.2 0,23.7 -5.1,5 -11.4,7.3 -18.4,7.2 z m 9.8,-31.8 c -0.5,1.1 -1.3,1.9 -1.2,2.6 0.3,2.9 1.3,5.7 3.9,7.4 0.5,0.4 1.3,0.3 2,0.5 0,-0.7 0.3,-1.5 0,-2.1 -1,-2.4 -2,-4.7 -3.1,-7 -0.2,-0.4 -0.7,-0.6 -1.6,-1.4 z m -2.1,11.4 c -0.6,-2.3 -1.1,-4.4 -1.7,-6.5 -0.2,-0.7 -0.8,-1.4 -1.2,-2 -0.6,0.6 -1.5,1.1 -1.8,1.8 -0.9,3.1 1.3,6.3 4.7,6.7 z"
       id="path1015"
       inkscape:connector-curvature="0"
       style="fill:#ffffff" />
    <path
       class="st0"
       d="m -974.52978,311.64963 c -7.6,0.1 -14.6,-1.7 -20.5,-6.9 -6.80002,-6.1 -6.70002,-15.3 0.2,-21.3 5.8,-5 12.6,-6.8 20.1,-6.7 7,0.1 13.3,2.1 18.7,6.7 6.9,6 7,15 0.3,21.1 -5.3,4.9 -11.7,6.9 -18.8,7.1 z m -0.8,-5.7 c 0,-2.7 0.1,-5.1 0,-7.5 0,-0.5 -0.6,-0.9 -0.9,-1.3 -0.3,0.2 -0.7,0.4 -0.8,0.7 -1.5,2.9 -1,5.6 1.7,8.1 z m 7.2,-0.1 c -0.4,-2.4 -0.7,-4.5 -1.1,-6.6 -0.1,-0.4 -0.6,-0.7 -0.9,-1.1 -0.3,0.4 -0.9,0.7 -0.9,1.1 -0.2,2.2 -0.4,5 2.9,6.6 z"
       id="path1017"
       inkscape:connector-curvature="0"
       style="fill:#ffffff" />
    <path
       class="st0"
       d="m -1256.7298,309.04963 c -6,0.1 -11.3,-1.9 -15.8,-5.9 -9.6,-8.6 -8.2,-22.6 3.1,-29.5 9.7,-6 22.4,-4.4 30.3,3.9 7.1,7.4 6.1,19.4 -2.2,26.2 -4.5,3.6 -9.6,5.4 -15.4,5.3 z m 3,-18.1 c -1.9,-4.3 -7.3,-5.8 -9.5,-1.2 -0.2,0.5 -0.2,1.2 -0.3,1.8 0.5,-0.2 1.1,-0.2 1.5,-0.5 1.8,-1.7 3.6,-2 5.8,-0.5 0.5,0.4 1.4,0.3 2.5,0.4 z m 5.2,-0.3 c 0.2,0.2 0.4,0.4 0.6,0.6 1.4,-0.3 2.8,-0.6 4,-0.9 1.2,1.1 2.2,2 3.4,3.1 -0.1,-1.5 0,-2.8 -0.2,-4 -0.4,-1.6 -1.7,-2.7 -3.2,-2.1 -1.7,0.8 -3.1,2.2 -4.6,3.3 z"
       id="path1019"
       inkscape:connector-curvature="0"
       style="fill:#ffffff" />
    <path
       class="st0"
       d="m -1377.7298,314.04963 c -6.9,0 -13,-2.1 -18.1,-7 -6.2,-5.9 -6.5,-15.3 -0.8,-21.6 9.7,-10.7 28.8,-10.4 38.1,0.6 4.7,5.6 4.7,14 0,19.6 -4.4,5.3 -11.4,8.3 -19.2,8.4 z m -13.4,-18.3 c 1,-1.7 2.2,-3.3 2.9,-5.1 0.3,-0.7 -0.4,-1.9 -0.7,-2.8 -0.7,0.4 -1.5,0.7 -2.1,1.3 -0.5,0.5 -0.6,1.4 -1.1,2 -1.8,1.9 -1,3.3 1,4.6 z m 6.5,0.2 c 1.1,-2.5 3.1,-4.5 1.8,-7.4 -2.7,2.1 -3.5,4.9 -1.8,7.4 z"
       id="path1021"
       inkscape:connector-curvature="0"
       style="fill:#ffffff" />
    <path
       class="st0"
       d="m -1662.5298,314.34963 c -5.7,0 -10.5,-1.2 -14.8,-4.3 -10.5,-7.7 -10.5,-20.2 0.1,-27.7 8.8,-6.3 22.4,-5.5 30.4,1.8 7.9,7.1 7.6,18.2 -0.6,24.9 -4.5,3.6 -9.7,5.3 -15.1,5.3 z m 7.7,-16.5 c 0.3,-0.1 0.6,-0.3 0.9,-0.4 -0.4,-2.6 -0.8,-5.3 -1.3,-7.9 -0.1,-0.4 -1,-0.8 -1.4,-0.7 -0.4,0 -0.9,0.8 -0.9,1.2 0,1.6 0,3.3 0.5,4.8 0.3,1.1 1.4,2 2.2,3 z m -9.2,-1 c -0.1,-1.8 -0.1,-3.3 -0.3,-4.8 0,-0.3 -0.8,-0.9 -1.1,-0.8 -0.4,0 -0.9,0.6 -1,1.1 -0.2,1.8 0.4,3.3 2.4,4.5 z"
       id="path1023"
       inkscape:connector-curvature="0"
       style="fill:#ffffff" />
    <path
       class="st0"
       d="m -1576.1298,313.24963 c -3.5,0 -8.2,-1.2 -12.4,-4.3 -10.3,-7.5 -9.8,-20.1 1,-26.9 9.2,-5.8 21.7,-4.6 29.7,2.8 6.4,5.9 6.4,15.8 0.2,21.8 -4.7,4.4 -10.1,6.6 -18.5,6.6 z m 2.6,-25.4 c -0.2,-0.4 -0.7,-1.2 -1.2,-1.9 -0.6,0.6 -1.2,1.2 -1.7,1.8 -1.1,1.5 -1.8,3.2 -3.2,4.4 -1,0.8 -1.8,1.5 -1,2.5 0.9,1.1 2.3,1.8 3.6,0.6 2.1,-1.8 3.3,-4.1 3.5,-7.4 z m -11.7,5.3 c 0.4,-1 0.6,-1.7 1,-2.2 1.3,-1.6 2.7,-3.2 4,-4.9 0.3,-0.5 0.2,-1.3 0.3,-1.9 -0.7,0.2 -1.6,0.2 -2,0.7 -1.1,1.2 -1.7,2.8 -2.9,3.8 -1.5,1.4 -1.4,2.6 -0.4,4.5 z"
       id="path1025"
       inkscape:connector-curvature="0"
       style="fill:#ffffff" />
    <path
       class="st0"
       d="m -1758.2298,279.64963 c 8.3,0.4 15.9,5.5 18.2,12.3 3.3,9.8 -2,19.8 -12.4,22.8 -7.8,2.3 -15,0.9 -21,-4.7 -8.5,-7.9 -6.8,-21.4 3.5,-27.5 3.9,-2.2 7.5,-3.1 11.7,-2.9 z m 9.1,12 c 0.6,0.9 1.4,2.2 2.4,3.4 0.2,0.2 0.7,0.5 1,0.4 0.3,-0.1 0.6,-0.6 0.6,-0.8 -0.3,-1.7 -0.6,-3.5 -1.2,-5.1 -0.6,-1.5 -1.9,-2.3 -3.6,-1.4 -1.3,0.7 -3.2,1 -2.8,2.9 0,0.4 2.3,0.4 3.6,0.6 z m -13.2,2.3 c 0.2,-0.2 0.5,-0.3 0.7,-0.5 -0.3,-1.2 -0.3,-2.5 -0.9,-3.5 -0.6,-1.2 -1.6,-2.7 -2.6,-3 -1.7,-0.4 -3.8,-0.4 -4.9,1.6 -0.3,0.6 0,1.5 0,2.2 0.6,-0.2 1.2,-0.5 1.8,-0.7 0.8,-0.3 1.6,-0.9 2.4,-0.8 0.6,0.1 1,1.1 1.4,1.7 0.7,1 1.4,2 2.1,3 z"
       id="path1027"
       inkscape:connector-curvature="0"
       style="fill:#ffffff" />
    <path
       class="st0"
       d="m -1853.9298,295.54963 c 0,-9.7 8.1,-17.4 18.3,-17.5 10.3,0 18.4,7.6 18.4,17.3 0.1,9.6 -8.1,17.3 -18.2,17.3 -10.4,0.1 -18.4,-7.4 -18.5,-17.1 z m 26.1,-5.4 c -0.5,-2 -0.8,-3.8 -1.3,-5.4 -0.2,-0.5 -0.9,-0.8 -1.4,-1.2 -0.3,0.5 -0.8,0.9 -0.9,1.4 -0.5,2.3 0.6,3.8 3.6,5.2 z m -4.3,0.5 c -0.4,-1.7 -0.6,-3.2 -1.1,-4.5 -0.2,-0.5 -1,-0.7 -1.5,-1 -0.3,0.5 -1,1.1 -0.9,1.6 0.2,1.9 0.9,3.5 3.5,3.9 z"
       id="path1029"
       inkscape:connector-curvature="0"
       style="fill:#ffffff" />
    <path
       d="m -1622.6298,-192.05037 c -1.6,3.3 -2.9,6.2 -4.4,9 -0.7,1.2 -4.3,0.9 -5,-0.4 -0.1,-0.3 0.2,-0.9 0.4,-1.2 0.5,-0.8 1.3,-1.4 1.6,-2.2 0.9,-2.2 1.5,-4.5 2.5,-6.6 0.4,-0.7 1.8,-1.5 2.4,-1.3 1,0.3 1.5,1.5 2.5,2.7 z"
       id="path1031"
       inkscape:connector-curvature="0" />
    <path
       d="m -1639.3298,-192.35037 c -0.7,2.5 -1,4.4 -1.7,6.3 -0.5,1.5 -1.6,2.1 -3.3,1.2 -1.4,-0.8 -1.9,-1.4 -0.7,-3 0.9,-1.2 0.9,-3 1.4,-4.5 0.4,-1.3 0.9,-2.8 2.6,-2.2 0.8,0.2 1.2,1.6 1.7,2.2 z"
       id="path1033"
       inkscape:connector-curvature="0" />
    <path
       d="m -1169.6298,-194.45037 c 0,3.6 0,7.2 0,10.8 0,1.4 -1.5,2.2 -2.4,1.2 -1,-1.2 -2.1,-2.7 -2.1,-4.1 0.1,-3.2 0.8,-6.4 1.2,-9.6 0,-0.3 0.1,-0.6 0.3,-0.9 0.7,-0.8 1.5,-1.6 2.2,-2.4 0.3,0.9 0.8,1.8 1,2.7 0.2,0.7 0.1,1.4 0.2,2.1 -0.1,0.2 -0.2,0.2 -0.4,0.2 z"
       id="path1035"
       inkscape:connector-curvature="0" />
    <path
       d="m -1184.2298,-185.25037 c -0.9,-2.1 -2.4,-3.6 -1.7,-6.1 0.6,-2.1 0.6,-4.4 1,-6.5 0.1,-0.6 1,-1.5 1.5,-1.5 0.6,0 1.6,1 1.6,1.4 -0.2,2.8 -0.5,5.6 -1,8.4 -0.2,1.4 -0.8,2.6 -1.4,4.3 z"
       id="path1037"
       inkscape:connector-curvature="0" />
    <path
       d="m -1387.1298,-169.35037 c -1.3,2.1 -2.4,4 -3.7,5.8 -0.5,0.7 -1.4,1 -2.1,1.5 -0.1,-0.8 -0.6,-1.7 -0.3,-2.3 1.3,-2.8 2.7,-5.6 4.4,-8.3 0.3,-0.5 1.9,-0.6 2.5,-0.3 2.6,1.7 4.2,4.2 4.9,7.2 0.2,0.8 -0.4,1.8 -0.6,2.7 -0.5,-0.5 -1.2,-1 -1.6,-1.6 -1.1,-1.3 -2,-2.7 -3.5,-4.7 z"
       id="path1039"
       inkscape:connector-curvature="0" />
    <path
       d="m -1401.8298,-164.05037 c -3.8,0.6 -4,-3.2 -6.3,-4.9 -1.6,1.4 -3.1,2.9 -4.7,4.3 -0.4,0.4 -1.1,0.3 -1.7,0.5 0,-0.6 -0.4,-1.5 -0.1,-1.9 1.5,-1.9 3.1,-3.8 4.8,-5.5 0.5,-0.5 2.3,-0.6 2.7,-0.2 1.7,1.8 3,3.8 4.4,5.8 0.5,0.5 0.6,1.2 0.9,1.9 z"
       id="path1041"
       inkscape:connector-curvature="0" />
    <path
       d="m -1398.3298,90.149629 c 2.3,-0.4 4.6,-1 7,-1.1 1.5,-0.1 3,0.4 4.5,0.8 0.3,0.1 0.6,0.7 0.6,1 0,0.2 -0.4,0.7 -0.7,0.7 -5.3,0.4 -10.5,2.3 -15.9,0.9 -0.6,-0.2 -1.1,-0.9 -1.7,-1.3 0.6,-0.4 1.2,-1.2 1.9,-1.3 1.4,-0.2 2.9,-0.1 4.4,-0.1 -0.1,0.2 -0.1,0.3 -0.1,0.4 z"
       id="path1043"
       inkscape:connector-curvature="0" />
    <path
       d="m -1416.7298,88.849629 c 0.7,0.4 1.6,0.9 2.4,1.5 0,0.2 0,0.5 -0.1,0.7 -1.5,0.2 -3,0.6 -4.5,0.7 -3.7,0.1 -7.3,0 -11,-0.1 -0.6,0 -1.1,-0.9 -1.7,-1.3 0.7,-0.2 1.4,-0.7 2.2,-0.7 3.6,0 7.2,0.1 10.8,0.1 0.6,-0.1 1.1,-0.5 1.9,-0.9 z"
       id="path1045"
       inkscape:connector-curvature="0" />
    <path
       d="m -1610.0298,83.949629 c 2.8,5.4 1.2,10.5 -1.6,15.6 -1,-1.3 -2.7,-2.1 -1.3,-4.7 1.2,-2.3 1.1,-5.3 1.5,-8.1 0.2,-0.9 0.3,-1.9 0.5,-2.8 0.3,0 0.6,0 0.9,0 z"
       id="path1047"
       inkscape:connector-curvature="0" />
    <path
       d="m -1619.7298,97.249629 c -1.9,-1.6 -1.6,-3.3 -0.8,-5.3 1,-2.6 1.8,-5.4 2.6,-8.1 0.4,0.1 0.7,0.2 1.1,0.3 -0.9,4.3 -1.9,8.6 -2.9,13.1 z"
       id="path1049"
       inkscape:connector-curvature="0" />
    <path
       d="m -1006.2298,62.749629 c -0.6,1.3 -0.9,2.5 -1.6,3.5 -1.2,1.8 -2.5,3.4 -3.9,5 -0.3,0.3 -1.4,0.5 -1.5,0.3 -0.5,-0.7 -1.3,-2 -1,-2.4 1.6,-2.6 3.4,-5.1 5.2,-7.5 0.2,-0.3 1.2,-0.4 1.6,-0.2 0.5,0.2 0.8,0.8 1.2,1.3 z"
       id="path1051"
       inkscape:connector-curvature="0" />
    <path
       d="m -1003.7298,74.249629 c -0.6,-1 -1.2,-1.8 -1.5,-2.7 -0.2,-0.6 0,-1.5 0.4,-1.9 1.2,-1.4 2.6,-2.7 3.9,-4 0.8,-0.8 1.50002,-2.3 3.00002,-1.3 1.6,1 1,2.4 0.1,3.4 -1.5,1.8 -3.20002,3.3 -4.80002,5 -0.4,0.2 -0.6,0.7 -1.1,1.5 z"
       id="path1053"
       inkscape:connector-curvature="0" />
    <path
       d="m -1162.4298,88.049629 c 0.2,0.4 0.4,1.1 0.7,1.7 0.6,1.2 0.3,1.7 -1,2.2 -1.9,0.7 -3.7,1.5 -5.4,2.5 -0.8,0.5 -1.2,1.6 -1.8,2.4 -0.5,0.7 -0.9,1.8 -1.6,2.2 -1.2,0.6 -2.6,0.9 -3.9,1.100001 -0.3,0 -1,-0.900001 -1,-1.400001 0,-1.5 -0.5,-3.4 1.3,-4.3 3.5,-1.7 7.1,-3.3 10.6,-5 0.7,-0.4 1.3,-0.9 2.1,-1.4 z"
       id="path1055"
       inkscape:connector-curvature="0" />
    <path
       d="m -1196.4298,86.149629 c 3,1.9 5.9,3.7 9.1,5.8 -0.8,0.7 -1.2,1 -1.3,1.1 1,0.9 2,1.8 3.1,2.8 -1.6,1.5 -2.8,2.8 -4.6,1.7 -1.3,-0.8 -1.4,-5 -0.4,-6 -2.1,-1.5 -4.3,-3.1 -6.5,-4.6 0.2,-0.2 0.4,-0.5 0.6,-0.8 z"
       id="path1057"
       inkscape:connector-curvature="0" />
    <path
       d="m -1785.8298,51.649629 c 1,0.8 1.5,1 1.8,1.4 1.7,2.8 3.3,5.7 4.8,8.6 0.3,0.6 0,1.5 0,2.3 -0.7,-0.3 -1.7,-0.3 -2.1,-0.8 -1.8,-2.7 -3.4,-5.4 -4.9,-8.2 -0.3,-0.7 0.2,-1.8 0.4,-3.3 z"
       id="path1059"
       inkscape:connector-curvature="0" />
    <path
       d="m -1779.4298,49.049629 c 3.7,2 7.5,6.8 7.6,9.6 -3.1,1 -4.3,-1.8 -5.5,-3.5 -1,-1.6 -3.2,-3.3 -2.1,-6.1 z"
       id="path1061"
       inkscape:connector-curvature="0" />
    <path
       d="m -1784.1298,63.149629 c -1.6,-2.8 -3.1,-5.3 -4.7,-8.1 2.8,1.3 4.8,4.7 4.7,8.1 z"
       id="path1063"
       inkscape:connector-curvature="0" />
    <path
       d="m -884.12978,277.34963 c 0.2,2 0.5,4 0.7,6.2 -2.6,-0.7 -3.1,-2.8 -1.6,-6 0.3,-0.1 0.6,-0.1 0.9,-0.2 z"
       id="path1065"
       inkscape:connector-curvature="0" />
    <path
       d="m -890.52978,284.24963 c -2.1,-0.8 -2.9,-2.2 -2.3,-4.2 0.2,-0.1 0.5,-0.2 0.7,-0.3 0.5,1.5 1,3 1.6,4.5 z"
       id="path1067"
       inkscape:connector-curvature="0" />
    <path
       d="m -1059.5298,295.14963 c -2.2,-0.7 -3.3,-1.6 -3.4,-3.5 0,-1.4 -0.1,-2.8 0.3,-4.1 0.2,-0.7 1.1,-1.1 1.7,-1.7 0.5,0.6 1.3,1.2 1.3,1.8 0.2,2.4 0.1,4.8 0.1,7.5 z"
       id="path1069"
       inkscape:connector-curvature="0" />
    <path
       d="m -1072.7298,292.54963 c 0.1,-2.3 0.2,-4.1 0.3,-5.9 0.2,0 0.3,-0.1 0.5,-0.1 0.2,1.8 0.5,3.6 0.7,5.4 0,0.2 -0.9,0.4 -1.5,0.6 z"
       id="path1071"
       inkscape:connector-curvature="0" />
    <path
       d="m -1167.4298,289.34963 c 2.4,3 2.5,3.1 -0.6,5.1 -1.2,0.8 -2.5,1.4 -3.9,1.7 -1.7,0.4 -2.7,-0.6 -2.4,-2.4 0.2,-1.3 0.5,-2.6 0.8,-3.9 0.2,0 0.4,0 0.7,0.1 0,1.3 0,2.5 0,4.1 2.9,-0.7 3.9,-2.8 5.4,-4.7 z"
       id="path1073"
       inkscape:connector-curvature="0" />
    <path
       d="m -1178.2298,288.04963 c -1.8,1.9 -3.6,3.6 -5,5.4 -0.9,1.1 -1.8,1.9 -3,1.2 -0.6,-0.4 -0.7,-1.7 -0.9,-2.7 -0.1,-0.3 0,-0.7 0.3,-1.1 0.2,0.8 0.5,1.5 0.8,2.5 1.9,-2.3 3.6,-4.5 5.5,-6.9 0.7,0.5 1.4,1 2.3,1.6 z"
       id="path1075"
       inkscape:connector-curvature="0" />
    <path
       d="m -1461.5298,280.64963 c 0.8,0.7 1.4,1 1.6,1.4 1.1,2.3 2.2,4.7 3.1,7 0.2,0.6 0,1.4 0,2.1 -0.7,-0.2 -1.4,-0.2 -2,-0.5 -2.7,-1.7 -3.6,-4.5 -3.9,-7.4 -0.1,-0.7 0.7,-1.5 1.2,-2.6 z"
       id="path1077"
       inkscape:connector-curvature="0" />
    <path
       d="m -1463.6298,292.04963 c -3.4,-0.5 -5.6,-3.7 -4.7,-6.7 0.2,-0.7 1.2,-1.2 1.8,-1.8 0.4,0.7 1,1.3 1.2,2 0.6,2.2 1.1,4.3 1.7,6.5 z"
       id="path1079"
       inkscape:connector-curvature="0" />
    <path
       d="m -975.32978,305.94963 c -2.6,-2.5 -3.2,-5.2 -1.8,-8.1 0.1,-0.3 0.5,-0.5 0.8,-0.7 0.3,0.4 0.9,0.9 0.9,1.3 0.1,2.4 0.1,4.7 0.1,7.5 z"
       id="path1081"
       inkscape:connector-curvature="0" />
    <path
       d="m -968.12978,305.84963 c -3.3,-1.6 -3.1,-4.4 -3,-6.7 0,-0.4 0.6,-0.7 0.9,-1.1 0.3,0.4 0.9,0.7 0.9,1.1 0.5,2.1 0.8,4.2 1.2,6.7 z"
       id="path1083"
       inkscape:connector-curvature="0" />
    <path
       d="m -1253.7298,290.94963 c -1.1,-0.2 -2,0 -2.6,-0.4 -2.1,-1.5 -3.9,-1.2 -5.8,0.5 -0.3,0.3 -1,0.4 -1.5,0.5 0.1,-0.6 0,-1.2 0.3,-1.8 2.3,-4.5 7.7,-3 9.6,1.2 z"
       id="path1085"
       inkscape:connector-curvature="0" />
    <path
       d="m -1248.5298,290.64963 c 1.5,-1.1 2.9,-2.5 4.5,-3.3 1.5,-0.7 2.8,0.5 3.2,2.1 0.3,1.2 0.2,2.5 0.2,4 -1.2,-1.1 -2.3,-2 -3.4,-3.1 -1.2,0.3 -2.6,0.6 -4,0.9 -0.1,-0.1 -0.3,-0.3 -0.5,-0.6 z"
       id="path1087"
       inkscape:connector-curvature="0" />
    <path
       d="m -1391.1298,295.74963 c -2,-1.4 -2.8,-2.7 -1.1,-4.6 0.5,-0.5 0.6,-1.4 1.1,-2 0.6,-0.6 1.4,-0.9 2.1,-1.3 0.3,1 1,2.1 0.7,2.8 -0.6,1.8 -1.7,3.4 -2.8,5.1 z"
       id="path1089"
       inkscape:connector-curvature="0" />
    <path
       d="m -1384.6298,295.94963 c -1.7,-2.5 -0.9,-5.3 1.8,-7.4 1.3,2.9 -0.7,4.9 -1.8,7.4 z"
       id="path1091"
       inkscape:connector-curvature="0" />
    <path
       d="m -1654.8298,297.84963 c -0.8,-1 -1.9,-1.9 -2.3,-3 -0.5,-1.5 -0.4,-3.2 -0.5,-4.8 0,-0.4 0.5,-1.2 0.9,-1.2 0.5,-0.1 1.3,0.4 1.4,0.7 0.5,2.6 0.9,5.2 1.3,7.9 -0.2,0.1 -0.5,0.2 -0.8,0.4 z"
       id="path1093"
       inkscape:connector-curvature="0" />
    <path
       d="m -1664.0298,296.84963 c -2.1,-1.2 -2.7,-2.7 -2.4,-4.5 0.1,-0.4 0.6,-1 1,-1.1 0.4,0 1.1,0.5 1.1,0.8 0.2,1.5 0.2,3 0.3,4.8 z"
       id="path1095"
       inkscape:connector-curvature="0" />
    <path
       d="m -1573.5298,287.84963 c -0.2,3.3 -1.4,5.6 -3.5,7.4 -1.4,1.2 -2.8,0.4 -3.6,-0.6 -0.8,-1 0,-1.7 1,-2.5 1.3,-1.1 2.1,-2.9 3.2,-4.4 0.5,-0.7 1.2,-1.2 1.7,-1.8 0.5,0.7 1,1.5 1.2,1.9 z"
       id="path1097"
       inkscape:connector-curvature="0" />
    <path
       d="m -1585.2298,293.14963 c -0.9,-1.9 -1.1,-3.1 0.4,-4.4 1.2,-1 1.8,-2.6 2.9,-3.8 0.4,-0.5 1.3,-0.5 2,-0.7 -0.1,0.6 0,1.4 -0.3,1.9 -1.3,1.7 -2.7,3.2 -4,4.9 -0.4,0.4 -0.6,1.1 -1,2.1 z"
       id="path1099"
       inkscape:connector-curvature="0" />
    <path
       d="m -1749.1298,291.64963 c -1.4,-0.2 -3.6,-0.2 -3.7,-0.6 -0.4,-1.9 1.5,-2.2 2.8,-2.9 1.7,-0.9 3,-0.1 3.6,1.4 0.7,1.6 0.9,3.4 1.2,5.1 0,0.3 -0.3,0.8 -0.6,0.8 -0.3,0.1 -0.8,-0.1 -1,-0.4 -0.8,-1.2 -1.7,-2.5 -2.3,-3.4 z"
       id="path1101"
       inkscape:connector-curvature="0" />
    <path
       d="m -1762.3298,293.94963 c -0.7,-1 -1.4,-2 -2.1,-3 -0.4,-0.6 -0.9,-1.6 -1.4,-1.7 -0.7,-0.1 -1.6,0.5 -2.4,0.8 -0.6,0.2 -1.2,0.5 -1.8,0.7 0,-0.7 -0.3,-1.6 0,-2.2 1.1,-1.9 3.2,-2 4.9,-1.6 1.1,0.3 2,1.8 2.6,3 0.6,1 0.6,2.3 0.9,3.5 -0.2,0.2 -0.5,0.3 -0.7,0.5 z"
       id="path1103"
       inkscape:connector-curvature="0" />
    <path
       d="m -1827.8298,290.14963 c -3,-1.4 -4.1,-2.9 -3.7,-5.2 0.1,-0.5 0.6,-0.9 0.9,-1.4 0.5,0.4 1.3,0.7 1.4,1.2 0.6,1.7 1,3.4 1.4,5.4 z"
       id="path1105"
       inkscape:connector-curvature="0" />
    <path
       d="m -1832.1298,290.64963 c -2.6,-0.4 -3.3,-2 -3.6,-3.9 -0.1,-0.5 0.6,-1.1 0.9,-1.6 0.5,0.3 1.4,0.6 1.5,1 0.6,1.3 0.8,2.8 1.2,4.5 z"
       id="path1107"
       inkscape:connector-curvature="0" />
  </g>
</svg>
