<?xml version="1.0" encoding="UTF-8" standalone="no"?>
<!-- Created with Inkscape (http://www.inkscape.org/) -->

<svg
   xmlns:dc="http://purl.org/dc/elements/1.1/"
   xmlns:cc="http://creativecommons.org/ns#"
   xmlns:rdf="http://www.w3.org/1999/02/22-rdf-syntax-ns#"
   xmlns:svg="http://www.w3.org/2000/svg"
   xmlns="http://www.w3.org/2000/svg"
   xmlns:sodipodi="http://sodipodi.sourceforge.net/DTD/sodipodi-0.dtd"
   xmlns:inkscape="http://www.inkscape.org/namespaces/inkscape"
   width="274.90762mm"
   height="179.81445mm"
   viewBox="0 0 974.08213 637.13782"
   id="svg5796"
   version="1.1"
   inkscape:version="0.91 r13725"
   sodipodi:docname="multidevice.svg">
  <defs
     id="defs5798" />
  <sodipodi:namedview
     id="base"
     pagecolor="#ffffff"
     bordercolor="#666666"
     borderopacity="1.0"
     inkscape:pageopacity="0.0"
     inkscape:pageshadow="2"
     inkscape:zoom="0.35"
     inkscape:cx="1213.4697"
     inkscape:cy="-244.28823"
     inkscape:document-units="px"
     inkscape:current-layer="layer1"
     showgrid="false"
     fit-margin-top="0"
     fit-margin-left="0"
     fit-margin-right="0"
     fit-margin-bottom="0"
     inkscape:window-width="1920"
     inkscape:window-height="1056"
     inkscape:window-x="0"
     inkscape:window-y="24"
     inkscape:window-maximized="1" />
  <metadata
     id="metadata5801">
    <rdf:RDF>
      <cc:Work
         rdf:about="">
        <dc:format>image/svg+xml</dc:format>
        <dc:type
           rdf:resource="http://purl.org/dc/dcmitype/StillImage" />
        <dc:title></dc:title>
      </cc:Work>
    </rdf:RDF>
  </metadata>
  <g
     inkscape:label="Layer 1"
     inkscape:groupmode="layer"
     id="layer1"
     transform="translate(838.46966,349.06385)">
    <g
       transform="translate(-870.69695,-394.72992)"
       id="Layer_1" />
    <g
       transform="translate(-870.69695,-394.72992)"
       id="Layer_2" />
    <path
       d="m -527.29694,64.770074 c 2.6,-0.1 5.2,-0.3 7.9,-0.4 51.4,-1.5 102.8,-2.5 154.2,-0.8 28.4,0.9 56.7,2.5 85.1,3.5 25.5,0.9 51.1,1.4 76.7,1.9 20.3,0.5 40.6,0.6 60.8,1.2 18.3,0.5 36.6,1.5 54.899996,2.3 9.1,0.4 18.3,0.6 27.4,1 15.5,0.8 31.1,1.8 46.6,2.8 7.6999998,0.5 15.2999998,1 22.9999998,1.4 1.1000002,0.1 2.2000002,0 3.6000002,0 0.7,-6.2 1.3,-12.3 2,-18.6 -0.8,-0.1 -1.4,-0.1 -2,-0.1 -44.1,-0.5 -88.2,-1.1 -132.299996,-1.5 -32.1,-0.3 -64.2,-0.4 -96.3,-0.9 -17.9,-0.3 -35.9,-1.4 -53.8,-2.3 -15.3,-0.8 -30.5,-1.7 -45.8,-2.6 -14.1,-0.9 -28.2,-2 -42.4,-2.6 -22.9,-1 -45.7,-2.4 -68.6,-2.4 -40.6,-0.1 -81.3,0.6 -121.9,1 -5,0 -10,0 -15,-0.1 -0.6,0 -1.1,-0.5 -1.7,-0.7 0.5,-0.3 1,-0.8 1.6,-0.8 29.9,-0.5 59.7,-1.2 89.6,-1.5 30,-0.2 60,-0.3 90,0.1 17.5,0.2 34.9,1.4 52.3,2.1 13.9,0.6 27.9,1.1 41.8,1.5 28.7,0.8 57.4,1.8 86.2,2.3 29.4,0.6 58.7,0.7 88.1,1.2 23.899996,0.4 47.699996,0.8 71.599996,1.7 18.7,0.7 37.3999998,2.1 56.1,3.1 0.4,0 0.8,0 1.6,0 0.5,-2.6 1.2,-5.1 1.4,-7.8 0.4,-5.2 3.6,-8.7 7.2,-11.7 2.7,-2.3 6.4,-0.1 6.3,3.7 -0.1,3.8 -0.7,7.7 -1.4,11.5 -1.4,7.9 -1.5,15.8 -1.3,23.8 0,0.5 0.2,0.9 0.4,1.4 0.2,0 0.4,0 0.6,0 0.2,-1.1 0.5,-2.2 0.6,-3.4 0.7,-8.1 1.4,-16.1 2.2,-24.2 0.1,-1.2 0.8,-2.3 1.2,-3.4 0.3,0 0.6,0 0.9,0 0.4,1.2 1.1,2.3 1,3.5 -0.3,6.7 -0.8,13.3 -1.3,20 -1,13.9 -2.2,27.8 -3.2,41.699996 -1.9,27.2 -2.8,54.4 -2.1,81.7 0.4,15 1.1,30 1.7,45 0.1,3.7 0.7,4.1 4.3,4 6.3,0 12.7,0 19,-0.1 0.6,0 1.2,0 2.2,0 -1.8,2.3 -3.9,2.8 -6.1,2.9 -5.6,0.1 -11.1,0.2 -16.7,0 -2.1,-0.1 -3.3,0.5 -3.8,2.5 -0.1,0.6 -0.6,1.2 -0.9,1.8 -0.2,0 -0.4,-0.1 -0.6,-0.1 0,-0.6 0,-1.3 -0.1,-1.9 -0.3,-0.9 -0.6,-1.9 -1.1,-2.6 -0.4,-0.5 -1.3,-0.6 -1.9,-0.8 -0.2,0.7 -0.5,1.4 -0.4,2 0.4,5.6 0.9,11.2 1.3,16.8 0.2,2.6 1.2,3.8 3.8,4.3 2.6,0.5 5.3,1.1 7.9,1.3 1.8,0.1 3.6,-0.3 5.4,-0.5 2.8,-0.5 5.7,-1.7 8.4,-1.5 14.7,1.1 28.4,-2.9 42.1,-7.5 8.6,-2.9 17.100004,-6.1 25.600004,-9.2 2,-0.7 4.1,-1.3 6.1,-1.8 0,-2.7 0.2,-5.3 0,-8 -1.1,-12.8 0.1,-25.6 0.7,-38.4 0.8,-17.2 1.7,-34.5 1.8,-51.7 0.1,-16.4 -0.4,-32.8 -1.2,-49.1 -0.8,-14.799996 -2.3,-29.599996 -3.4,-44.399996 -0.2,-2.9 0,-5.9 0.2,-8.8 0,-0.4 0.6,-0.9 0.9,-1.3 0.3,0.4 0.7,0.8 0.8,1.2 1.1,7.6 2.2,15.2 3.4,22.8 0.8,5.1 1.5,10.3 2.6,15.4 -1.6,-15.3 -3.2,-30.6 -4.8,-46.1 -4.4,-0.5 -8.7,-1.1 -13,-1.6 -11.300004,-1.2 -22.700004,-2.8 -34.000004,-3.4 -8,-0.5 -16.2,0.1 -24.2,0.7 -5.2,0.4 -10.4,1.9 -15.5,2.9 -0.7,0.1 -1.3,0.3 -2,0.4 -0.8,-2.7 -0.4,-4.1 2.3,-4.9 5.1,-1.6 10.2,-3.4 15.4,-4 12.8,-1.6 25.6,-0.7 38.4,0.5 2,0.2 4,0.4 6.3,0.6 0.4,-5.9 1,-11.7 1,-17.4 0.4,-31.3 0.6,-62.7 0.9,-94 0.6,-52.300004 1.400004,-104.500004 2.000004,-156.800004 0.2,-12.39999 0.4,-24.79999 0.4,-37.19999 0,-7.2 -0.7,-14.4 -0.3,-21.5 0.5,-8.6 1.8,-17.2 2.9,-25.8 0.1,-0.8 0.8,-1.6 1.2,-2.4 0.2,0.1 0.3,0.1 0.5,0.2 0,0.3 0.1,0.6 0.1,1 0.6,18.3 0.8,36.6 1.7,54.9 1.8,36.79999 0.2,73.49999 0,110.29999 -0.3,46.6 -0.5,93.100004 -1,139.700004 -0.2,16.0000002 -1.3,32.1 -2,48.1 -0.1,3 -0.1,3 2.8,3.6 5.6,1.3 11.2,2.6 16.9,3.8 1.5,0.3 2.2,1 2.6,2.5 5.6,17.1 7,34.8 7.2,52.7 0.1,10.599996 0.2,21.099996 0.4,31.699996 0,2.6 0.1,5.2 0.6,7.8 0.9,5.2 -0.4,10.2 -0.9,15.3 -2.1,22 -3,44 -2.6,66 0.2,8.9 0.6,17.9 0.9,26.8 0.2,4.5 -0.4,8.9 -3.1,12.7 -0.4,0.5 -0.9,0.9 -1.4,1.4 -0.3,-0.6 -0.7,-1.1 -0.9,-1.7 -0.2,-0.5 -0.3,-1 -0.5,-2.1 -2.5,1.2 -5.1,1.8 -6.9,3.3 -7.7,6.8 -17.1,9.9 -26.600004,12.8 -6.7,2 -13.7,2.6 -20.6,2.8 -6.1,0.2 -12.1,0.5 -18.2,0.8 -0.8,0 -1.7,0.1 -2.5,0.4 -7.5,3.7 -15.2,3.6 -23,1.4 -0.7,-0.2 -1.3,-0.3 -2.2,-0.5 0.1,1 0.1,1.8 0.1,2.9 -0.8,-0.3 -1.6,-0.5 -2.3,-0.8 -2.5,-0.9 -5,-1.9 -7.5,-2.7 -5.3,-1.7 -7.8000002,-4.6 -7.5000002,-10.2 0.8000002,-16.7 -1,-33.2 -2.2,-49.8 -1,-13.6 -1.6,-27.3 -2.2,-40.9 -0.4,-7.7 -0.7,-15.5 -1,-23.2 0,-1 -0.2,-2.1 -0.3,-3.4 -5.5,0 -10.8,0 -16.0999998,0 -32,0.3 -63.9,0.5 -95.899996,1 -25.2,0.4 -50.4,1.4 -75.6,1.8 -19.4,0.3 -38.7,0.5 -58.1,0.2 -23.7,-0.4 -47.3,-1.3 -71,-2 -7.1,-0.2 -14.2,-0.5 -21.5,-0.8 -0.1,4.6 -3.2,7.4 -5.8,10.4 -11.4,13.1 -23.2,25.8 -33.9,39.4 -9.2,11.7 -18.3,23.4 -28.3,34.4 -0.5,0.6 -1,1.3 -1.8,2.2 0.6,0.1 1,0.2 1.4,0.2 31.2,0.3 62.4,0.8 93.6,0.8 47,0 94,-0.5 140.9,-0.4 15.5,0 31,0.8 46.4,1.7 6.2,0.3 12.4,1.7 18.6,2.6 0.8,0.1 1.6,0.2 3,0.3 -0.7,-1 -1.1,-1.8 -1.6,-2.4 -15.4,-17.9 -30.7,-35.8 -46.2,-53.6 -2.3,-2.7 -5.4,-4.7 -7.9,-7.1 -0.8,-0.7 -1.4,-1.9 -1.5,-3 -0.1,-1.3 0.4,-2.7 0.7,-4 3.1,-0.2 5.3,0.8 7.3,3.1 10.7,12.1 21.6,23.9 32.4,35.9 2.8,3.1 5.3,6.6 8,9.8 4.1,4.8 8.3,9.5 12.499996,14.3 0.9,1.1 1.9,2.1 2.8,3.2 2.7,3.6 3.2,7.5 1.3,12.1 -2.9,-5.1 -7.5,-4.4 -12.099996,-4.3 -5.9,0.1 -11.8,-0.3 -17.7,-0.3 -35.1,-0.5 -70.3,-1 -105.4,-1.5 -41.4,-0.6 -82.8,-1.2 -124.2,-1.9 -14.9,-0.3 -29.8,-1 -44.8,-1.4 -4.1,-0.1 -8.1,0.3 -12.5,0.5 1.2,4.1 2.3,7.8 3.5,11.4 0.1,0.4 1.3,0.7 1.9,0.7 8.4,0.1 16.8,0.2 25.1,0.1 56.3,-0.4 112.5,-1.1 168.8,-1.2 38.7,-0.1 77.3,0.7 115.999996,1.1 0.7,0 1.4,0.5 2.1,0.8 0,0.3 0,0.7 0,1 -1.5,0.5 -3,1.4 -4.6,1.5 -27.699996,1.8 -55.499996,1.6 -83.199996,1.5 -21.8,-0.1 -43.7,0.1 -65.5,-0.1 -42.9,-0.4 -85.8,-0.9 -128.7,-1.5 -9.9,-0.1 -19.8,-0.8 -29.8,-1.1 -1.2,0 -2.5,0 -3.5,0.5 -6.5,3.7 -12.6,0.4 -13.7,-7.7 -0.2,-1.3 -0.4,-2.6 -0.6,-4.3 -5,3.2 -10,6.4 -14.9,9.5 -0.2,-0.2 -0.4,-0.4 -0.6,-0.6 2.2,-2.7 4.3,-5.4 6.6,-7.9 1.6,-1.8 3.8,-3.3 5,-5.4 1.4,-2.3 2.1,-5.1 3.1,-7.7 0.6,-1.6 0.7,-3.3 1.6,-4.7 12,-19.1 9.9,-48.6 -2.3,-64.9 -3.2,-4.3 -7,-8.3 -10.8,-12.1 -2.7,-2.7 -4.4,-2.5 -6.6,0.6 -3.2,4.6 -6.1,9.5 -9.3,14.1 -1.4,2.1 -3.4,3.9 -4.8,6.1 -0.7,1.1 -0.6,2.7 -0.8,4.1 0.3,0.1 0.5,0.2 0.8,0.3 1.2,-1.8 2.4,-3.6 3.6,-5.4 0.2,0.1 0.3,0.2 0.5,0.3 -0.2,0.5 -0.4,1.1 -0.6,1.6 -0.7,1.6 -1.5,3.2 -2.2,4.8 -1.3,3.1 -1.1,3.7 1.5,5.9 3.5,2.9 5.9,6.7 7.2,11 3.2,10.4 6.4,20.9 7.4,31.8 0.3,3.7 0.6,7.3 2.8,10.6 1.6,2.5 0.7,5.1 -0.9,7.5 -2.2,3.3 -4.4,6.5 -6.4,9.9 -1.6,2.9 -3.2,5.9 -4.1,9 -4.2,13.5 -13.3,22.2 -26.1,27.4 -12.7,5.2 -25.8,6 -39.2,4.3 -3.1,-0.4 -6.3,-1 -9.3,-1.9 -8.1,-2.4 -14.3,-7.2 -18.3,-14.6 -5.7,-10.4 -8.3,-21.5 -7.2,-33.3 0.4,-4.4 1.9,-8.6 4.2,-12.3 -0.3,5.6 -0.9,11.2 -0.8,16.8 0.2,11.3 4.1,21.3 11.4,30 4.4,5.3 10.2,8.4 16.9,9.1 11.7,1.3 23.4,1.5 34.8,-1.9 8.2,-2.5 15.6,-6.5 21.1,-13.3 1.3,-1.6 2.3,-3.3 3.5,-5.2 -2.3,-0.7 -4.2,-1.3 -6,-1.8 2.8,-1.5 5.5,-2.7 7.9,-4.3 0.8,-0.5 0.9,-1.9 1.6,-3.5 -2.1,0.7 -3.6,1.2 -5,1.8 -10.1,4.4 -20.6,6 -31.5,5.3 -7.8,-0.5 -15.4,-6.7 -16.7,-14.4 -0.3,-1.8 0,-3.8 0.3,-5.6 0.8,-3.8 1.8,-7.6 2.8,-11.6 -3.7,-0.3 -7.2,-0.6 -10.7,-1 -7.1,-0.8 -14.1,-1.6 -21.2,-2.7 -2.1,-0.3 -4.1,-1.7 -6.2,-2.7 0,0.8 0,1.7 0,2.9 -3.1,-1.6 -5.1,-4 -6.5,-6.9 -3.7,-7.9 -5.1,-16.3 -4.7,-25 0.5,-10.2 4.1,-19.5 8,-28.7 2.5,-5.8 5.1,-11.6 7.7,-17.4 0.3,-0.7 0.6,-1.4 1,-2.4 -5.1,-0.4 -10,-0.8 -14.9,-1.2 -17.3,-1.3 -34.7,-2.6 -52,-3.9 -0.4,0 -0.8,0 -1,-0.1 -0.4,-0.3 -1,-0.7 -1,-1 0,-0.3 0.6,-1 1,-1 2.4,-0.3 4.9,-0.7 7.3,-0.6 12.2,0.4 24.3,1 36.5,1.4 9.1,0.3 18.2,0.4 27.3,0.5 1.2,0 2.9,-0.8 3.5,-1.7 5.6,-9.3 13.4,-16.5 22.1,-22.7 0.5,-0.4 1,-0.8 1.6,-1.3 -0.5,-0.3 -0.8,-0.5 -1.1,-0.7 -0.3,-0.2 -0.6,-0.3 -1.4,-0.8 2.1,-0.5 3.7,-1.2 5.3,-1.3 21.6,-1.8 42.1,2.6 61.8,11.4 0.8,0.3 1.5,0.7 2.2,1.2 3.8,2.3 5.2,5.5 4.2,9.9 -0.4,1.6 -1,3.2 -1.5,5 2.4,0 4.7,0 6.9,0 31.8,0.5 63.5,0.9 95.3,1.6 55.4,1.3 110.8,2.2 166.3,0.7 44.6,-1.2 89.099996,-1.6 133.699996,-2.2 11.3,-0.2 22.4999998,0 33.7999998,0.2 2,0 2.7,-0.4 3,-2.6 2.1,-17.2 4.4,-34.499996 6.7000002,-51.699996 0,-0.3 0.1,-0.7 0.1,-1.3 -3.6000002,-0.2 -7.1000002,-0.5 -10.6000002,-0.6 -46.6999998,-1.3 -93.2999998,-2.7 -139.9999958,-4 -27.4,-0.7 -54.8,-1.1 -82.2,-2.1 -27.9,-1 -55.9,-2.3 -83.8,-3.6 -26.7,-1.3 -53.5,-2.7 -80.2,-4.4 -38.5,-2.4 -77.1,-1.2 -115.6,-0.5 -8.2,0.2 -16.5,0.4 -24.7,0.6 -0.7,0 -1.4,-0.1 -2.1,-0.2 -0.1,-0.5 -0.1,-0.7 -0.1,-0.9 z m 27.8,155.199996 c 0,0.1 -0.1,0.2 -0.1,0.3 4.4,0.8 8.8,1.6 13.2,2.5 0.6,0.1 1.2,0.6 1.8,1 -0.6,0.4 -1.3,1 -2,1.1 -2.4,0.4 -4.7,0.6 -7.1,0.9 -3.3,0.5 -4.8,2 -5.2,5.1 -0.3,2.9 -0.6,5.7 -0.6,8.6 0,6.2 4.4,11.7 10.6,12.3 5,0.5 10.1,0.3 15.1,-0.4 9.5,-1.4 18.2,-5.2 25.9,-10.9 3,-2.2 4.7,-5.2 4.8,-8.9 0.1,-3.2 0.3,-6.5 0.2,-9.7 -0.5,-15.6 -4.9,-30.2 -10.9,-44.5 -0.2,-0.4 -0.7,-0.7 -1.1,-1 -0.4,0.5 -0.8,0.9 -1,1.4 -2,5.1 -3.9,10.2 -5.8,15.3 -2.4,6.5 -4.6,13 -4.9,19.9 -0.1,3.3 0,6.6 0,9.8 -2.5,-1.1 -3.9,-2.9 -4.1,-5.9 -0.1,-2.4 -0.1,-4.9 0.3,-7.3 1,-7.8 4.1,-15 7.2,-22.1 1.8,-4.2 3.7,-8.4 5.7,-13.1 -1.3,0.6 -2.1,1.2 -3,1.4 -4.1,1.1 -6.4,4 -7.5,7.8 -1.1,3.8 -2.1,7.7 -2.6,11.7 -0.9,8 -1.3,16 -2.1,23.9 -0.1,1.4 -0.7,2.7 -1,4 -4.1,-1.5 -3.6,-5.2 -4.5,-8.2 -1,1.2 -1.8,2.3 -2.8,3.2 -2.2,2.2 -3.3,2.2 -6.2,1.2 -1.8,-0.6 -3.8,-0.8 -5.7,-0.7 -2.2,0.3 -4.4,0.9 -6.6,1.3 z m 92.2,-15.9 c 20.3,-20 40.6,-40.1 61.2,-60.4 -28.1,-2.6 -55.6,-1.2 -83.2,-1.4 19.7,16.3 24.2,37.7 22,61.8 z m -90,-93.7 c -2.3,-0.5 -3.8,-0.6 -4.9,1.2 -0.5,0.8 -1.3,1.5 -2,2.2 -4.9,5.1 -9.9,10.2 -14.7,15.4 -1.8,1.9 -3.3,4.2 -3.3,6.9 0,2 -0.8,3.4 -2.2,4.5 -2.6,1.9 -4.3,4.4 -5.8,7.1 -1.3,2.5 -2.8,4.9 -4.1,7.4 -7.6,14.4 -12.2,29.6 -10.3,46.1 0.5,4 1.8,7.9 2.7,11.9 0.2,0 0.5,-0.1 0.7,-0.1 0,-0.5 0,-0.9 0.1,-1.4 0.7,-6.2 1.1,-12.5 2.3,-18.6 2.2,-11.1 7,-21.3 12.3,-31.2 7.7,-14.3 14.4,-29.2 24.7,-42.1 2,-2.6 3,-6 4.5,-9.3 z m -27.6,80.8 c 2.9,0.6 4.8,-0.8 6.4,-2.5 3.5,-3.6 7,-7.3 10.5,-10.9 11.7,-12 23.6,-24 33.7,-37.5 2.8,-3.7 5.4,-7.6 8.1,-11.3 -0.2,-0.1 -0.3,-0.2 -0.5,-0.4 -19.2,20.8 -38.6,41.6 -58.2,62.6 z m 53,-37.6 c -5.1,1.8 -32.2,27.5 -36.6,34.5 0.6,0.1 1.3,0.1 1.6,-0.2 9,-8.3 18.1,-16.5 26.9,-25 3,-2.8 5.5,-6.2 8.1,-9.3 z m 494.399996,70.7 c -0.1,0 -0.3,0 -0.4,0 0,5.2 0,10.4 0,15.5 0,2.2 1.1,2.7 3.2,1.5 -0.9,-5.6 -1.8,-11.3 -2.8,-17 z m -416.899996,-14.2 c -0.1,-0.1 -0.3,-0.2 -0.4,-0.4 -3.5,3.1 -7,6.1 -10.3,9.2 -2.1,2 -2.3,3 -1.9,5.3 4.3,-4.8 8.5,-9.5 12.6,-14.1 z m -128.8,9 c 0.1,0.3 0.1,0.5 0.2,0.8 4.1,0.4 8.2,0.8 12.3,1.1 0.5,0 1.1,-0.3 1.6,-0.5 -0.5,-0.3 -1,-0.9 -1.5,-0.9 -3.7,-0.3 -7.4,-0.6 -11.1,-0.8 -0.6,-0.1 -1.1,0.2 -1.5,0.3 z"
       id="path1875"
       inkscape:connector-curvature="0" />
    <path
       d="m -816.29695,216.77007 c -0.1,1.1 -0.1,1.9 -0.2,3 -0.8,-0.6 -1.5,-1.1 -1.9,-1.6 -2.3,-2.8 -4.4,-5.9 -6.9,-8.5 -2.5,-2.7 -5.5,-5 -8.2,-7.5 -0.5,-0.5 -1.1,-1.3 -1.2,-2 -0.9,-15.7 -1.9,-31.3 -2.7,-47 -1.3,-27.9 -1.4,-55.799996 -0.4,-83.599996 0.6,-17.5 2,-35 3.2,-52.5 1.3,-19.4999998 2.8,-38.9 4.4,-58.3 0.9,-11.2 2.2,-22.4 3.6,-33.6 0.9,-7.4 1.9,-14.8 3.2,-22.1 0.5,-2.7 2,-5.300004 3.2,-8.300004 2.1,1.5 3.6,2.7 5.1,3.8 13,-11.1 28.6,-14.7 44.9,-16.4 21.2,-2.1 42.50001,-1.6 63.70001,-0.1 23,1.5 45.7,5.6 68.2,10.4 1,0.2 1.9,1 3.2,1.8 -3.3,1.7 -6.1,0.9 -8.9,0.6 -17.8,-1.5 -35.6,-3.4 -53.4,-4.7 -17.8,-1.3 -35.6,-2.2 -53.40001,-2.8 -14.1,-0.5 -28.1,1.5 -41.8,5 -3.7,1 -7.1,2.9 -10.6,4.5 -1.9,0.8 -3.7,1.6 -5.5,2.6 -2.3,1.200004 -3.8,3.100004 -3.8,5.900004 0,0.4 -0.1,0.9 -0.3,1.2 -2.1,2.9 -2.3,6.2 -1.4,9.5 1.4,5.2 0.9,10.5 0.8,15.7 -0.7,24.1 -1.2,48.2 -2.1,72.2000002 -0.7,20.0999998 -1.9,40.1999998 -2.8,60.2999998 -0.9,19.4 -1.9,38.799996 -2.6,58.199996 -0.6,17.2 -0.8,34.5 -0.9,51.8 0,5.3 0.6,10.7 1,16.2 1.9,-0.2 3.4,-0.4 5.2,-0.6 -0.9,1.6 -1.9,3 -2.6,4.4 -2.4,4.7 -1.8,8.7 1.7,12.7 1.5,1.7 3,3.4 4.4,5.1 2.5,3 5.7,4.7 9.5,4.7 8.2,0.1 16.3,0 24.5,-0.2 21.7,-0.5 43.40001,-1 65.10001,-1.5 15.6,-0.4 31.1,-1.1 46.7,-1.3 9.1,-0.1 18.3,0.3 27.4,0.5 0,0.2 0.1,0.5 0.1,0.7 -4.5,1 -8.9,2.5 -13.4,2.9 -6.6,0.7 -13.2,0.3 -19.8,0.9 -2.7,0.2 -5.3,1.8 -8,2.7 0.1,0.3 0.1,0.7 0.2,1 3.8,0 7.7,0.3 11.5,-0.1 10.6,-1.1 21.2,-2.6 31.9,-3.7 5.8,-0.6 11.6,-1 17.5,-1.4 0.7,0 2,0.6 2,0.8 -0.2,1 -0.4,2.1 -1,2.7 -0.6,0.6 -1.7,0.8 -2.7,1.1 -18.6,5.3 -37.6,7.4 -57,7.2 -8,-0.1 -16.1,-0.2 -24.1,-0.1 -2.1,0 -4.2,0.4 -6.2,1 -9.4,3.1 -19.1,4.4 -28.9,4.8 -12.60001,0.6 -25.20001,1.1 -37.80001,1 -14.4,-0.1 -26.9,-5.4 -37.5,-15.2 -1.3,-1.1 -2.7,-2.3 -4.2,-3.8 z m 15.2,3.5 c 0,0.1 -0.1,0.2 -0.1,0.4 0.8,0.5 1.5,1 2.3,1.4 7.9,4.8 16.7,6.7 25.7,6.9 8.3,0.3 16.6,0 24.9,-0.4 5.6,-0.3 11.10001,-1.3 17.00001,-2.1 -2.1,-1.1 -4.5,0.1 -5.6,-2.1 1,-2.1 2.9,-1.6 4.5,-1.7 4.3,-0.4 8.7,-0.9 13,-0.9 4.8,0 9.6,0.6 14.3,0.5 4.4,-0.1 8.8,-0.9 13.2,-1.4 0,-0.2 0,-0.4 -0.1,-0.6 -36.3,0 -72.70001,0 -109.10001,0 z m -23.7,-141.099996 c 0.6,-0.2 1.2,-0.2 1.2,-0.3 2.3,-37.4 4.6,-74.6999998 7,-112.5 -0.8,0.4 -1.2,0.5 -1.2,0.7 -2.4,37.3000002 -4.7,74.6 -7,112.1 z"
       id="path1877"
       inkscape:connector-curvature="0" />
    <path
       d="m -363.59694,-348.92992 c 0.1,0.3 0.2,0.4 0.1,0.6 -0.7,4.8 -0.7,4.8 -5.6,4.9 -52.3,1.6 -104.6,0 -156.9,-0.8 -33,-0.5 -66,-0.5 -99.1,-0.8 -6,0 -12.1,0 -18.3,0 -0.6,4.3 -1.2,8.2 -1.8,12 -3.3,20.2 -3.8,40.6 -2.9,61.1 0.3,7 1.2,13.9 1.6,20.8 0.4,8.99999 0.5,17.99999 0.7,26.99999 0.3,13.4 0.5,26.8 1.1,40.1 0.4,10.2 0.6,20.4 3.4,30.4 1.1,4 0,7.9 -0.3,11.9 -0.6,7.6 -0.9,15.2 -1.3,22.8 -0.2,3.6 -2.3,6.2 -5.6,6.6 -3.2,0.4 -6.4,-1.9 -7.1,-5.3 -0.2,-1 -0.3,-2.1 -0.3,-3.1 -0.5,-13.3 -0.8,-26.6 -1.4,-39.9 -0.5,-10 -1.6,-19.9 -2.1,-29.9 -0.7,-13.6 -1.3,-27.2 -1.5,-40.7 -0.4,-19.59999 -0.2,-39.19999 -0.7,-58.69999 -0.4,-16.6 2.6,-32.6 6.2,-48.7 0.2,-0.7 0.3,-1.4 0.5,-2.1 1.1,-4.5 4.5,-7.2 9.1,-7.3 54,-0.7 108.1,-1.5 162.3,-0.7 27.9,0.4 55.8,0.5 83.7,0.6 11.1,0 22.1,-0.5 33.2,-0.8 0.9,-0.1 2,0 3,0 z"
       id="path1879"
       inkscape:connector-curvature="0" />
    <path
       d="m -383.09694,-341.32992 c 3.6,0 7.1,-0.2 10.5,0 18.6,1.3 37.2,0 55.7,-0.8 16.9,-0.7 33.8,-1.8 50.7,-2.2 57.7,-1.3 115.3,-2.5 172.999996,-3.4 29.1,-0.4 58.3,-0.4 87.4999998,0 18.7000002,0.2 37.3000002,1.4 55.9000002,2.3 15.3,0.7 30.7,1.3 46,1 5.500004,-0.1 11.100004,0.9 16.600004,1.4 0.5,0 1,0.3 1.5,0.8 -0.4,0.1 -0.8,0.3 -1.2,0.3 -13.200004,0.4 -26.300004,1.2 -39.500004,1.1 -17.5,-0.1 -35.1,-1.1 -52.6,-1.4 -23.0000002,-0.3 -45.9,-0.4 -68.9,-0.2 -48.9,0.4 -97.899996,0.9 -146.799996,1.7 -50,1 -100,2.1 -150,3 -12.1,0.2 -24.1,-0.3 -36,-1.8 -0.9,0 -2.9,0.7 -2.4,-1.8 z"
       id="path1881"
       inkscape:connector-curvature="0" />
    <path
       d="m -626.69694,-335.12992 c 0.6,0 1.2,-0.1 1.8,-0.1 24.4,0 48.7,-0.2 73.1,0.2 12.3,0.2 24.6,1.5 36.9,2.1 11.4,0.6 22.8,1.1 34.2,1.6 22,1 44,2.1 66.1,2.8 19.1,0.6 38.3,0.9 57.5,0.9 32.5,-0.1 65.1,-0.3 97.6,-0.8 25.5,-0.4 51,-1.7 76.4,-2.2 26.7,-0.5 53.4,-0.5 80.1,-0.7 29.199996,-0.1 58.499996,-0.4 87.699996,-0.1 14.0999998,0.1 28.1,1.3 42.2,2.1 2.2,0.1 4.5,0.3 6.7,0.5 0.9,0.1 1.8,0.5 2.7,0.8 0,0.2 0,0.5 -0.1,0.7 -0.8,0 -1.6,0 -2.3,0 -36.5000002,0.3 -73,0.4 -109.4,0.9 -48.699996,0.6 -97.299996,1.5 -145.999996,2 -42.1,0.4 -84.2,0.7 -126.3,0.5 -24.4,-0.1 -48.7,-1.3 -73.1,-2.2 -16.1,-0.6 -32.2,-1.3 -48.3,-2.1 -17.9,-1 -35.8,-2.4 -53.8,-3.3 -19.8,-1 -39.5,-1.8 -59.3,-2.3 -13.7,-0.4 -27.5,-0.1 -41.2,-0.2 -1.1,0 -2.1,-0.3 -3.2,-0.4 0,-0.2 0,-0.4 0,-0.7 z"
       id="path1883"
       inkscape:connector-curvature="0" />
    <path
       d="m 81.203056,5.5700742 c -0.2,-2 -0.5,-4 -0.7,-5.99999996 -1,-14.60000024 -0.4,-29.10000024 0.6,-43.70000024 0.8,-12.5 1.5,-25 2.3,-37.5 0.9,-14.9 2.1,-29.800004 2.6,-44.700004 1,-25.8 1.8,-51.6 2.5,-77.5 0.3,-11.8 0.1,-23.5 -0.4,-35.3 -0.3,-8.5 -1.6,-16.89999 -2.3,-25.39999 -0.9,-10.8 -1.7,-21.6 -2.3,-32.4 -0.1,-2 0.4,-4 0.8,-6 0.1,-0.4 0.6,-0.8 0.9,-1.2 0.2,0.4 0.6,0.7 0.7,1.1 3.9,22.2 8.5,44.2 9.1,66.79999 0.7,26.9 -0.1,53.7 -0.9,80.5 -0.4,13.9 -1,27.9 -1.9,41.8 -0.8,12.4 -2,24.700004 -3,37.000004 -1.1,12.8 -2.2,25.7 -3.2,38.5 -1.1,13.8 -2,27.7 -3,41.5000002 -0.1,0.9 -0.6,1.7 -1,2.6 -0.3,0 -0.6,-0.1 -0.8,-0.1 z"
       id="path1885"
       inkscape:connector-curvature="0" />
    <path
       d="m -613.99694,-103.02993 c 3.1,6.700004 4.4,13.800004 5.5,20.900004 2.6,16.7 5.3,33.3 7.8,50 2.5,16.4 2.7,32.90000024 2.8,49.5 0.1,17.1 -1.3,34.2 -2.9,51.2 -1.3,13.6 -2.1,27.2 -3.1,40.799996 -1.2,16.5 -2.4,33 -3.7,49.5 -0.8,10.7 -1.7,21.3 -2.7,32 -0.5,5 -1.3,9.9 -1.7,14.9 -0.2,3 0.1,6 0,9.1 0,0.5 -0.4,1 -0.6,1.5 -0.3,-0.4 -0.8,-0.8 -1,-1.3 -2.7,-7.7 -1.5,-15.6 -1.1,-23.5 0.8,-17.9 1.7,-35.7 2.8,-53.6 1.3,-20.8 2.7,-41.599996 4.6,-62.299996 1.9,-21.4 4.1,-42.7 4.1,-64.3 0,-17.4999998 -1.5,-34.9 -4.1,-52.1 -1.9,-12.4 -3.3,-25 -5,-37.5 -1,-7.3 -2.1,-14.6 -3.2,-21.900004 -0.1,-1.3 -0.4,-2.5 1.5,-2.9 z"
       id="path1887"
       inkscape:connector-curvature="0" />
    <path
       d="m -619.99694,186.17007 c 0.5,-3.3 1,-6.5 1.4,-9.8 1.3,-9.4 0.7,-18.8 0.3,-28.3 -0.5,-13.3 -1.3,-26.6 -1.5,-39.9 -0.5,-25.099996 -1,-50.099996 -0.8,-75.199996 0.2,-21.2 1.4,-42.3999998 2.2,-63.5 0.7,-15.9 1,-31.8 -1.3,-47.6 -0.8,-6 -0.3,-12.2 -0.4,-18.3 0,-0.7 0.4,-1.3 0.7,-2 0.4,0.6 1,1.2 1.1,1.9 1.1,7.9 1.7,15.8 3.1,23.6 2.5,13.7 2,27.5 1.8,41.3 -0.5,42.7 -1.1,85.5 -1.3,128.2 -0.1,14.599996 0.8,29.299996 0.8,43.899996 0,9.1 -0.6,18.3 -1,27.4 -0.3,6.3 -2.1,12.2 -4.4,18 -0.1,0.2 -0.3,0.3 -0.4,0.4 0,0 -0.2,-0.1 -0.3,-0.1 z"
       id="path1889"
       inkscape:connector-curvature="0" />
    <path
       d="m -371.29694,-49.629926 c 0,-0.4 -0.2,-0.8 -0.1,-0.9 2.2,-2.8 4,-6.2 6.8,-8.2 9.5,-6.9 18.2,-14.7 26.2,-23.3 12.9,-13.7 25.9,-27.300004 40.3,-39.500004 9.2,-7.8 17.4,-16.4 24.4,-26.2 8,-11.3 18.1,-20.4 28.1,-29.6 21.1,-19.5 42.2,-39 62.9,-58.9 7.3,-7 13.5,-15.29999 20.2,-22.99999 1.4,-1.6 2.7,-3.3 4.3,-4.7 6,-5.2 12.1,-10.3 18.3,-15.3 1,-0.8 2.6,-1.1 3.8,-1.6 0.1,0.2 0.2,0.4 0.3,0.6 -0.6,0.7 -1.2,1.3 -1.8,2 -7.7,8.2 -15.6,16.3 -23.1,24.6 -5.7,6.29999 -10.6,13.39999 -16.7,19.29999 -15.2,14.8 -30.9,29.2 -46.4,43.8 -12.3,11.5 -24.8,23 -37.1,34.5 -1.5,1.4 -2.9,2.9 -4.1,4.6 -8.5,12.5 -19.1,23 -30.3,33.2 -15.2,13.9 -30.1,28.200004 -45.3,42.200004 -4.6,4.3 -9.7,8.2 -14.7,11.9 -5.7,4.2 -11.4,8.2 -15.3,14.4 0,0 -0.2,0 -0.7,0.1 z"
       id="path1891"
       inkscape:connector-curvature="0" />
    <path
       d="m 111.20306,49.970074 c 0.5,12.6 1.3,24.8 1.3,37.1 0.1,31.799996 0,63.699996 -0.4,95.499996 -0.3,20.7 -2.2,41.3 -5.5,61.8 0,0.1 -0.1,0.2 -0.4,0.7 -0.2,-2.1 -0.4,-3.9 -0.6,-5.9 -4.7,0.6 -9.200004,1.1 -13.700004,1.6 -4.5,0.5 -9.1,1.1 -13.6,1.5 -1.8,0.2 -3.1,0.8 -3.9,2.4 -1.9,3.9 -5.4,5 -9.2,4.3 -2.9,-0.6 -5.5,-2.2 -8.2,-3.5 -1.4,-0.7 -1.1,-2.2 -0.7,-3.4 1.4,-5.2 7.7,-8.5 13.2,-6.6 2.2,0.8 4,2.5 6.1,3.7 1.2,0.7 2.7,1.6 3.9,1.4 7.9,-1 15.7,-2.2 23.600004,-3.5 2.7,-0.4 3.4,-1.7 3.5,-4.9 0.1,-7.7 0,-15.5 0.3,-23.2 1.3,-42.5 1.2,-85.1 1.3,-127.599996 0,-9.4 0.5,-18.7 0.8,-28.1 -0.2,-1.3 -0.5,-3 2.2,-3.3 z M 64.403056,248.27007 c 2.6,-2.1 4.8,-3.9 7.2,-5.9 -4.9,-3 -8.1,-2.5 -10.1,1.6 0.8,1.2 1.6,2.4 2.4,3.6 0.2,0.2 0.3,0.4 0.5,0.7 z"
       id="path1893"
       inkscape:connector-curvature="0" />
    <path
       d="m -630.89694,-335.52992 c 0.3,1.8 0.7,3.5 0.8,5.3 0.5,21.3 0.9,42.5 1.4,63.8 0.8,30.89999 1.5,61.79999 2.7,92.69999 0.6,15 2.3,29.9 3.5,44.8 0.2,2.4 0.5,4.8 0.6,7.2 0,0.9 -0.4,1.9 -0.6,2.9 -0.3,0 -0.6,0 -0.9,0 -1.6,-8 -3.4,-15.9 -4.8,-23.9 -2.7,-15.7 -3.5,-31.6 -4.1,-47.5 -0.7,-18.4 -1.8,-36.9 -1.8,-55.3 0.1,-24.59999 1,-49.29999 1.7,-73.89999 0.1,-5.3 0.6,-10.6 0.9,-15.9 0.2,-0.1 0.4,-0.1 0.6,-0.2 z"
       id="path1895"
       inkscape:connector-curvature="0" />
    <path
       d="m -786.79695,181.37007 c -0.6,-3.9 0.1,-7.6 1.4,-11.2 5.1,-14.4 12.5,-27.7 20.4,-40.7 2.8,-4.6 5.9,-8.8 9.5,-12.9 4.1,-4.6 8.1,-9.4 11.4,-14.6 11.60001,-17.899996 23.20001,-35.799996 34.30001,-53.999996 5.1,-8.3 8.9,-17.4 13.4,-26.1 2.6,-5 5,-10.1 8,-14.7999998 10.1,-15.7 17.9,-32.7000002 26.2,-49.4000002 2.1,-4.1 3.7,-8.5 5.5,-12.7 0.2,-0.4 0.4,-0.8 0.9,-1.6 0.1,0.8 0.3,1.2 0.2,1.4 -1.3,3.9 -2.2,8 -3.9,11.8 -10.8,24.3 -24.2,47.3000002 -36.1,71.1 -17.3,34.5 -38.8,66 -62.20001,96.499996 -1.4,1.8 -2.9,3.7 -4.1,5.7 -9.3,15.5 -18.5,31.1 -23.8,48.5 -0.2,1.1 -0.7,2 -1.1,3 z"
       id="path1897"
       inkscape:connector-curvature="0" />
    <path
       d="m -268.19694,-126.42993 c 3.2,-3.4 6.2,-7.1 9.8,-10 21.5,-17.7 43.3,-35.1 64.8,-52.9 5.3,-4.4 9.8,-9.9 14.7,-14.8 3.6,-3.7 7.2,-7.3 10.9,-10.9 1.9,-1.8 3.5,-1.9 6.4,-0.2 -4.1,0.8 -6.1,3.6 -7.9,6.8 -5.7,10.3 -13.6,18.6 -22.6,25.9 -13.3,10.8 -26.6,21.8 -40.3,32.2 -11.2,8.5 -23,16.2 -34.6,24.2 -0.2,0.1 -0.4,0.2 -0.6,0.2 -0.2,-0.1 -0.4,-0.3 -0.6,-0.5 z"
       id="path1899"
       inkscape:connector-curvature="0" />
    <path
       d="m -632.29694,-99.129926 c -7,3.5 -14.4,3.1 -21.8,2.8 -11.4,-0.6 -22.8,-1.1 -34.2,-1.6 -8.5,-0.4 -17,-0.7 -25.5,-1.1 -0.4,0 -0.8,0 -1.4,0 -0.2,1.5 -0.4,2.9 -0.6,4.4 -0.4,2 -1.6,3 -3.7,3.1 -4.9,0.1 -8.2,-2.6 -8.9,-7.3 -1,0 -1.9,0.1 -2.7,0 -1.1,-0.1 -2.2,-0.6 -3.3,-0.5 -18.50001,1 -37.00001,2.1 -55.50001,3.2 -3.2,0.2 -6.4,0.3 -9.7,0.5 -0.7,-1.5 -0.3,-2.1 1.1,-2.2 9,-1 18,-2.200004 27.1,-2.900004 12,-0.9 24,-1.4 36.10001,-2.1 1,-0.1 1.9,-0.3 2.9,-0.4 3,-0.4 6,-1 9,-1.1 2.9,-0.1 5.9,0.2 9,0.4 -0.3,0.5 -0.6,1 -1,1.6 27.7,1 55.3,2 82.9,3.000004 0.1,-0.2 0.1,0 0.2,0.2 z m -87.8,3.6 c -0.3,-3.3 -1.7,-4.800004 -4,-4.4 -2,0.4 -2.6,1.7 -1.3,3.2 1.4,1.7 3.2,2 5.3,1.2 z"
       id="path1901"
       inkscape:connector-curvature="0" />
    <path
       d="m -662.19694,10.670074 c -19.1,36.5 -38.8,72.7 -63.4,106.099996 0.2,-0.6 0.4,-1.3 0.7,-1.9 3.9,-9.6 9.3,-18.399996 14.7,-27.299996 14.8,-24.3 29.6,-48.6 44.4,-72.8 0.9,-1.5 2,-3 3,-4.5 0.1,0.2 0.4,0.3 0.6,0.4 z"
       id="path1903"
       inkscape:connector-curvature="0" />
    <path
       d="m 87.403056,66.670074 c 1.3,7.4 -0.3,14.4 -2.9,21.3 -11.7,31.299996 -23.4,62.499996 -35.1,93.799996 -0.5,1.5 -1.5,2.8 -2.2,4.2 -0.2,-0.1 -0.4,-0.2 -0.7,-0.2 0.2,-1.1 0.4,-2.2 0.7,-3.3 3.6,-15.5 9.4,-30.2 15.2,-44.9 6.3,-16.3 12.8,-32.6 19.3,-48.799996 2.8,-7.2 5.1,-14.4 5.7,-22.1 z"
       id="path1905"
       inkscape:connector-curvature="0" />
    <path
       d="m 100.00306,93.170074 c -0.300004,0.9 -0.500004,1.8 -0.900004,2.7 -8.1,20.199996 -16.4,40.299996 -24.3,60.599996 -4.5,11.5 -8,23.4 -12.2,35 -1.1,3 -2.7,5.8 -4.1,8.7 -0.3,-0.1 -0.6,-0.2 -0.9,-0.3 2.7,-8.6 5.1,-17.2 8,-25.7 9.5,-27.8 22,-54.4 33.8,-81.299996 0.3,0.2 0.5,0.3 0.600004,0.3 z"
       id="path1907"
       inkscape:connector-curvature="0" />
    <path
       class="st0"
       d="m -499.49694,219.97007 c 2.2,-0.4 4.4,-1 6.6,-1.1 1.9,-0.1 3.9,0.1 5.7,0.7 2.9,1 4,1 6.2,-1.2 0.9,-1 1.7,-2 2.8,-3.2 0.9,3 0.4,6.7 4.5,8.2 0.3,-1.3 0.9,-2.6 1,-4 0.7,-8 1.2,-16 2.1,-23.9 0.4,-3.9 1.5,-7.8 2.6,-11.7 1.1,-3.9 3.3,-6.8 7.5,-7.8 0.9,-0.2 1.7,-0.8 3,-1.4 -2,4.7 -3.9,8.9 -5.7,13.1 -3.1,7.2 -6.1,14.3 -7.2,22.1 -0.3,2.4 -0.4,4.9 -0.3,7.3 0.2,3 1.6,4.7 4.1,5.9 0,-3.1 -0.1,-6.5 0,-9.8 0.3,-7 2.5,-13.5 4.9,-19.9 1.9,-5.1 3.8,-10.2 5.8,-15.3 0.2,-0.5 0.7,-0.9 1,-1.4 0.4,0.3 0.9,0.6 1.1,1 6,14.2 10.4,28.9 10.9,44.5 0.1,3.2 -0.1,6.5 -0.2,9.7 -0.1,3.8 -1.9,6.8 -4.8,8.9 -7.8,5.7 -16.4,9.6 -25.9,10.9 -5,0.7 -10.1,0.9 -15.1,0.4 -6.2,-0.6 -10.5,-6.1 -10.6,-12.3 0,-2.9 0.2,-5.8 0.6,-8.6 0.4,-3.2 1.9,-4.6 5.2,-5.1 2.4,-0.4 4.8,-0.5 7.1,-0.9 0.7,-0.1 1.3,-0.7 2,-1.1 -0.6,-0.3 -1.1,-0.8 -1.8,-1 -4.4,-0.9 -8.8,-1.7 -13.2,-2.5 0,-0.3 0.1,-0.4 0.1,-0.5 z"
       id="path1909"
       inkscape:connector-curvature="0"
       style="fill:#ffffff" />
    <path
       class="st0"
       d="m -407.29694,204.07007 c 2.2,-24.1 -2.3,-45.6 -22.1,-61.8 27.6,0.2 55.2,-1.2 83.2,1.4 -20.5,20.3 -40.8,40.4 -61.1,60.4 z"
       id="path1911"
       inkscape:connector-curvature="0"
       style="fill:#ffffff" />
    <path
       class="st0"
       d="m -497.29694,110.37007 c -1.5,3.3 -2.5,6.7 -4.5,9.3 -10.2,12.9 -17,27.8 -24.7,42.1 -5.3,9.9 -10.1,20.1 -12.3,31.2 -1.2,6.1 -1.6,12.4 -2.3,18.6 -0.1,0.5 -0.1,0.9 -0.1,1.4 -0.2,0 -0.5,0.1 -0.7,0.1 -0.9,-4 -2.2,-7.9 -2.7,-11.9 -1.9,-16.5 2.7,-31.7 10.3,-46.1 1.3,-2.5 2.7,-4.9 4.1,-7.4 1.5,-2.7 3.2,-5.3 5.8,-7.1 1.5,-1.1 2.3,-2.4 2.2,-4.5 0,-2.7 1.4,-5 3.3,-6.9 4.9,-5.2 9.8,-10.3 14.7,-15.4 0.7,-0.7 1.5,-1.4 2,-2.2 1.1,-1.8 2.7,-1.7 4.9,-1.2 z"
       id="path1913"
       inkscape:connector-curvature="0"
       style="fill:#ffffff" />
    <path
       class="st0"
       d="m -524.89694,191.17007 c 19.6,-21 39,-41.8 58.4,-62.6 0.2,0.1 0.3,0.2 0.5,0.4 -2.7,3.8 -5.3,7.6 -8.1,11.3 -10.1,13.5 -22,25.4 -33.7,37.5 -3.5,3.6 -7,7.3 -10.5,10.9 -1.8,1.8 -3.7,3.1 -6.6,2.5 z"
       id="path1915"
       inkscape:connector-curvature="0"
       style="fill:#ffffff" />
    <path
       class="st0"
       d="m -471.89694,153.57007 c -2.7,3.1 -5.1,6.5 -8.1,9.3 -8.9,8.4 -17.9,16.7 -26.9,25 -0.4,0.3 -1,0.3 -1.6,0.2 4.4,-7 31.5,-32.7 36.6,-34.5 z"
       id="path1917"
       inkscape:connector-curvature="0"
       style="fill:#ffffff" />
    <path
       class="st0"
       d="m 22.503056,224.27007 c 0.9,5.7 1.9,11.4 2.8,17.1 -2.1,1.2 -3.2,0.7 -3.2,-1.5 -0.1,-5.2 0,-10.4 0,-15.5 0.1,0 0.3,0 0.4,-0.1 z"
       id="path1919"
       inkscape:connector-curvature="0"
       style="fill:#ffffff" />
    <path
       class="st0"
       d="m -394.39694,210.07007 c -4.2,4.7 -8.3,9.4 -12.6,14.1 -0.5,-2.2 -0.2,-3.3 1.9,-5.3 3.4,-3.2 6.9,-6.2 10.3,-9.2 0.1,0.1 0.3,0.2 0.4,0.4 z"
       id="path1921"
       inkscape:connector-curvature="0"
       style="fill:#ffffff" />
    <path
       class="st0"
       d="m -523.19694,219.07007 c 0.5,-0.1 1,-0.4 1.4,-0.4 3.7,0.2 7.4,0.5 11.1,0.8 0.5,0 1,0.6 1.5,0.9 -0.5,0.2 -1.1,0.5 -1.6,0.5 -4.1,-0.3 -8.2,-0.7 -12.3,-1.1 0,-0.2 -0.1,-0.4 -0.1,-0.7 z"
       id="path1923"
       inkscape:connector-curvature="0"
       style="fill:#ffffff" />
    <path
       class="st0"
       d="m -801.09695,220.27007 c 36.4,0 72.80001,0 109.20001,0 0,0.2 0,0.4 0.1,0.6 -4.4,0.5 -8.8,1.2 -13.2,1.4 -4.8,0.1 -9.6,-0.6 -14.3,-0.5 -4.3,0 -8.7,0.5 -13,0.9 -1.6,0.2 -3.5,-0.3 -4.5,1.7 1.1,2.3 3.6,1 5.6,2.1 -5.9,0.8 -11.50001,1.8 -17.00001,2.1 -8.3,0.4 -16.6,0.7 -24.9,0.4 -9.1,-0.3 -17.8,-2.2 -25.7,-6.9 -0.8,-0.5 -1.5,-1 -2.3,-1.4 -0.1,-0.1 0,-0.3 0,-0.4 z"
       id="path1925"
       inkscape:connector-curvature="0"
       style="fill:#ffffff" />
    <path
       class="st0"
       d="m -824.79695,79.170074 c 2.3,-37.5 4.6,-74.8999998 7,-112.2 0,-0.1 0.4,-0.2 1.2,-0.7 -2.3,37.8000002 -4.6,75.2 -7,112.5 0,0.2 -0.6,0.3 -1.2,0.4 z"
       id="path1927"
       inkscape:connector-curvature="0"
       style="fill:#ffffff" />
    <path
       class="st0"
       d="m 64.403056,248.27007 c -0.2,-0.3 -0.3,-0.5 -0.4,-0.7 -0.8,-1.2 -1.6,-2.4 -2.4,-3.6 2,-4.1 5.2,-4.6 10.1,-1.6 -2.5,2 -4.8,3.8 -7.3,5.9 z"
       id="path1929"
       inkscape:connector-curvature="0"
       style="fill:#ffffff" />
    <path
       class="st0"
       d="m -720.09694,-95.529926 c -2.1,0.8 -3.8,0.4 -5.2,-1.1 -1.3,-1.5 -0.8,-2.9 1.3,-3.2 2.2,-0.400004 3.6,1 3.9,4.3 z"
       id="path1931"
       inkscape:connector-curvature="0"
       style="fill:#ffffff" />
  </g>
</svg>
