<?xml version="1.0" encoding="UTF-8" standalone="no"?>
<!-- Created with Inkscape (http://www.inkscape.org/) -->

<svg
   xmlns:dc="http://purl.org/dc/elements/1.1/"
   xmlns:cc="http://creativecommons.org/ns#"
   xmlns:rdf="http://www.w3.org/1999/02/22-rdf-syntax-ns#"
   xmlns:svg="http://www.w3.org/2000/svg"
   xmlns="http://www.w3.org/2000/svg"
   xmlns:sodipodi="http://sodipodi.sourceforge.net/DTD/sodipodi-0.dtd"
   xmlns:inkscape="http://www.inkscape.org/namespaces/inkscape"
   width="155.20892mm"
   height="194.50169mm"
   viewBox="0 0 549.95288 689.17923"
   id="svg5986"
   version="1.1"
   inkscape:version="0.91 r13725"
   sodipodi:docname="multi lingual.svg">
  <defs
     id="defs5988" />
  <sodipodi:namedview
     id="base"
     pagecolor="#ffffff"
     bordercolor="#666666"
     borderopacity="1.0"
     inkscape:pageopacity="0.0"
     inkscape:pageshadow="2"
     inkscape:zoom="0.35"
     inkscape:cx="481.40501"
     inkscape:cy="298.87534"
     inkscape:document-units="px"
     inkscape:current-layer="layer1"
     showgrid="false"
     fit-margin-top="0"
     fit-margin-left="0"
     fit-margin-right="0"
     fit-margin-bottom="0"
     inkscape:window-width="1920"
     inkscape:window-height="1056"
     inkscape:window-x="0"
     inkscape:window-y="24"
     inkscape:window-maximized="1" />
  <metadata
     id="metadata5991">
    <rdf:RDF>
      <cc:Work
         rdf:about="">
        <dc:format>image/svg+xml</dc:format>
        <dc:type
           rdf:resource="http://purl.org/dc/dcmitype/StillImage" />
        <dc:title></dc:title>
      </cc:Work>
    </rdf:RDF>
  </metadata>
  <g
     inkscape:label="Layer 1"
     inkscape:groupmode="layer"
     id="layer1"
     transform="translate(106.40501,-256.34401)">
    <g
       transform="translate(-335.35313,238.41876)"
       id="Layer_1" />
    <g
       transform="translate(-335.35313,238.41876)"
       id="Layer_2" />
    <path
       d="m 153.34687,642.61875 c -1.9,0.1 -3,-0.5 -4,-1.4 -2.5,-2.2 -5.1,-4.4 -7.5,-6.7 -8.4,-7.7 -17.7,-14 -27.6,-19.5 -7.6,-4.3 -15.600002,-6.2 -24.200002,-5.2 -6.8,0.8 -13.5,1.6 -20.3,2.6 -7.7,1.2 -15.1,3.8 -22.3,6.7 -8.3,3.4 -16.6,6.8 -24.9,10.2 -4.1,1.7 -6.6,4.7 -7.7,8.9 -1.2,4.6 -1.5,9.3 -1.3,14.1 0.1,1.2 0.1,2.4 -0.2,3.6 -0.4,2.2 -2.3,2.9 -4.1999995,1.6 -1.4,-1 -2.5,-2.4 -2.6,-4.1 -0.2,-2.1 -0.3,-4.3 -0.4,-6.5 -0.1,-1.6 0,-3.2 0,-5.1 -0.5,0.4 -0.9,0.6 -1.1,0.9 -1.7,2 -3.5,4 -5.20000001,6 -1.59999999,1.9 -2.59999999,4 -3.09999999,6.4 -0.9,4.9 -2.9,9.5 -5.300004,13.9 -5.5000005,10.3 -9.0000005,21.2 -11.1000005,32.6 -1.9,10.4 -2.5,20.8 -2.3,31.3 0.2,9.8 1,19.5 3.5,29 1.1,3.9 2.6,7.7 4,11.6 0.5,1.4 1.1,2.7 1.6,4 0.9,2.3 1,4.5 0.1,6.8 -0.6,1.5 -1.2,2.9 -1.9,4.7 -0.7,-0.8 -1.1,-1.3 -1.5,-1.9 -3,-4.3 -7.3,-6.4 -12.5,-6.5 -1.8,0 -3.7,0.2 -5.5,0.4 -2,0.3 -3.4,1.7 -4.6,3.3 -3.1,4 -5.4,8.5 -7.2,13.2 -0.4,1.2 -0.8,2.4 -1,3.7 -0.9,4.9 0.9,8.7 4.9,11.4 1.2,0.8 2.5,1.4 3.9,1.9 1.3,0.5 2.7,1 4.1,1.3 5.2,1 9.9,3.1 14.4,5.8 2.1,1.2 4.1,2.5 6.3,3.8 -0.1,0 0.1,0 0.2,-0.1 2.4,-2.1 3,-1.9 4.9000005,0.6 4.000004,5.1 8.00000399,10.2 12.200004,15.2 20.6999995,24.3 42.1999995,47.9 64.1999995,71 2.9,3.1 3.6,5.8 1.8,9.6 -1.7,3.4 -2.7,7.2 -4,10.8 -0.6,1.7 -1.6,2.7 -3.3,3.2 -13,4.3 -26.3,7.4 -40,8.9 -9.1,1 -18.1999995,1 -27.3999995,0.8 -12.6000045,-0.3 -25.2000045,-0.5 -37.7000045,-0.9 -6.5,-0.2 -12.9,-1.2 -19,-3.8 -2.3,-1 -4.6,-2.3 -6.8,-3.5 -4,-2.2 -6.4,-6 -8.3,-10 -0.7,-1.4 -0.5,-2.8 0.4,-4.1 0.1,-0.2 0.3,-0.4 0.4,-0.6 1.3,-1.9 1.1,-3.1 -0.7,-4.6 -0.8,-0.7 -1.6,-1.2 -2.8,-2.2 1.1,-0.1 1.8,-0.1 2.6,-0.1 -0.7,-3.3 -1.4,-6.5 -2.2,-9.7 -6.5,-26.3 -13.1,-52.5 -19.7,-78.8 -3.600004,-14.2 -6.000004,-28.7 -7.100004,-43.3 -1.1,-14.1 -0.9,-28.2 0,-42.3 0.4,-6.4 0.8,-12.8 1.5,-19.2 1.2,-11.9 4.300004,-23.5 8.400004,-34.7 4.3,-11.7 9,-23.3 15.2,-34.2 3.7,-6.5 7.9,-12.7 12.9,-18.2 4.9,-5.4 10.8,-9.6 18,-11.4 5,-1.3 9.9,-0.9 14.7,0.8 1.1,0.4 2.1,0.8 2.4,2.3 -4,1.6 -8.4,0.3 -12.5,1 -0.2,1.4 1,1.8 1.5,2.7 0.8,-0.5 1.6,-1.2 2.4,-1.4 0.8,-0.2 1.7,0 2.6,0.1 10.9,1.8 21,5.7 30.0000005,12.2 0.6,0.4 1.2,0.8 1.8,1.3 0.900004,-0.7 1.700004,-1.5 2.600004,-2.2 2.9,-2.3 5.7,-4.6 8.7,-6.9 2.9,-2.2 5.3,-4.8 7.2999995,-7.9 1.8,-2.8 3.4,-5.6 5.2,-8.4 1.6,-2.4 3.2,-4.8 5.1,-6.9 3.5,-3.9 8,-5.8 13.2,-5.8 1.2,0 2.4,-0.2 3.6,-0.3 2,-0.3 3.8,0.3 5.4,1.6 1.6,1.3 1.4,3.2 -0.4,4.1 -1.3,0.7 -2.9,1 -4.3,1.4 -2.1,0.6 -4,1.5 -5.3,3.7 1,0.4 1.8,-0.2 2.5,-0.4 8.7,-3.2 17.6,-6.1 26.6,-8.2 7.2,-1.7 14.5,-2.7 21.9,-2.6 0.6,0 1.3,0 1.9,0 11.1,-0.8 21.200002,2.8 30.700002,7.9 9.5,5.1 18.1,11.5 26.7,18 3.3,2.5 5.6,6 7.9,9.3 0.8,0.8 0.6,2.1 0.8,3.4 z m -92.300002,278.3 c -0.7,-0.8 -1.2,-1.3 -1.7,-1.8 -13.3,-13.7 -26.6,-27.4 -39.9,-41.1 -5.4,-5.5 -10.6999995,-11 -15.8999995,-16.7 -6.7,-7.3 -12.400004,-15.3 -15.4000045,-25 -0.5,-1.6 -1.6,-2.1 -3.1,-2.1 -5,-0.2 -9.3,-2.2 -13.2,-5.2 -4.9,-3.7 -9.8,-7.3 -14.7,-10.9 -3.8,-2.8 -6.4,-6.3 -7.6,-10.8 -1.6,-5.6 -3,-11.3 -4.3,-17 -0.5,-2.2 -0.6,-4.4 -0.6,-6.7 0,-2.6 1.3,-4.4 3.6,-5.5 0.9,-0.4 1.9,-0.8 2.9,-1 3.3,-0.7 6.6,-1.4 9.9,-2 3.5,-0.6 6.9,-1.1 10.5,-1.7 0,-0.5 0,-0.9 -0.1,-1.3 -0.7,-2.7 -1.5,-5.4 -2.1,-8.1 -1.1,-4.7 -2.5,-9.3 -3,-14.1 -0.7,-6.8 -1,-13.7 -1.2,-20.6 -0.3,-11.9 0.6,-23.7 3.3,-35.3 3.1,-13.3 9,-25.7 14.2,-38.2 0.7,-1.6 1.9,-2.7 3.7,-3.2 3.1,-0.9 4.9000005,-3.1 6.2000005,-6 -11.1000005,-7 -22.4000005,-13.1 -35.5000005,-15.1 -1.7,2.3 -3.5,4.7 -5.2,7.1 -1,1.4 -2,2.9 -2.8,4.5 -5.7,12.1 -10.3,24.7 -13.6,37.7 -2.5,9.8 -4.1,19.7 -5.5,29.7 -1.4,10.5 -2.4,21 -2.6,31.6 -0.3,15.1 0.3,30.3 1.2,45.4 0.6,10.3 1.9,20.6 4.3,30.6 2.2,9.1 4.5,18.2 6.3,27.4 2.9,15 6.9,29.6 12.5,43.8 2.5,6.3 4.8,12.6 7.1,18.9 0.5,1.4 1,2.8 0.5,4.9 -0.8,-1 -1.4,-1.5 -1.8,-2.3 -1.4,-2.3 -2.7,-4.7 -4,-7.1 -7.4,-13.6 -13.8,-27.7 -17.8,-42.7 -1.2,-4.4 -2.1,-8.9 -3.3,-13.3 -2.5,-9.2 -5.2,-18.3 -7.5,-27.6 -3.4,-13.7 -4.8,-27.6 -5.2,-41.6 -0.5,-17.1 -0.7,-34.3 0.7,-51.4 1,-13 2.7,-26 5.5,-38.7 3.5,-15.8 8.2,-31.1 16.3,-45.2 0.3,-0.5 0.5,-1.1 0.9,-2 -1.9,0.5 -2.7,1.7 -3.5,2.9 -2.3,3.4 -4.6,6.8 -6.6,10.3 -8.5,15 -14.9,30.9 -19.7,47.3 -2.5,8.3 -4.1,16.8 -4.4,25.5 -0.6,19.4 -0.3,38.8 1.1,58.1 0.6,8.1 1.5,16.1 2.4,24.1 1.1,9.5 2.6,18.9 5.2,28.1 5.9,20.9 11.1,41.9 15.6,63.2 1.3,6.4 3.4,12.3 7.1,17.7 1.1,1.6 2,3.5 2.8,5.3 0.4,0.9 0.8,1.5 1.8,1.8 3.6,1.2 7,2.7 10.6,3.8 2.2,0.7 4.5,1.2 6.8,1.3 6.5,0.4 13,0.7 19.4,0.8 9.6000005,0.1 19.20000449,-0.1 28.800004,-0.3 7.2,-0.2 14.4,-1 21.5,-2.3 9.2,-1.7 18,-4.4 27,-7 0.7,-0.2 1.3,-0.5 2.1,-0.9 z"
       id="path1738"
       inkscape:connector-curvature="0" />
    <path
       d="m 260.94687,604.61875 c 0.6,-1 1.2,-2 1.9,-3 3.2,-4.7 6.1,-9.6 9.6,-14.1 5,-6.6 11.4,-11.6 19.1,-14.9 8.5,-3.6 17.1,-6.8 26.1,-9 8,-2 15.6,-4.9 22.8,-8.8 5.4,-2.9 10.9,-5.7 16.4,-8.6 0.5,-0.3 1,-0.5 1.5,-0.8 6.7,-3.4 9.9,-8.9 10.6,-16.3 0.8,-8.5 -0.8,-16.4 -4.2,-24.1 -1.4,-3.2 -2.8,-6.5 -4,-9.8 -0.5,-1.3 -0.7,-2.8 -0.6,-4.2 0.4,-4.9 -1,-9.4 -3.6,-13.4 -1.6,-2.5 -3.6,-4.7 -5.5,-7 -0.6,-0.7 -1.3,-1.4 -2,-2.1 -2.7,-3.1 -2.6,-5.8 0.4,-9.2 1,1.2 2,2.5 3,3.7 1.8,2.2 3.5,4.4 5.4,6.5 3.3,3.7 5.5,8 7.2,12.7 2.8,8.2 5.7,16.3 8.6,24.5 2.7,7.5 3.5,15.1 2.3,22.9 -0.5,3.2 -1.1,6.5 -1.8,9.7 -0.9,4.4 -3.4,7.7 -7.1,10.2 -1.5,1 -3,1.9 -4.5,2.7 -8.4,4.2 -16.9,8.5 -25.4,12.6 -2.4,1.2 -4.9,2 -7.4,2.9 -11.7,3.9 -23.4,7.9 -35.1,11.7 -4.8,1.6 -8.7,4.4 -11.8,8.3 -3.1,4 -6,8.1 -8.9,12.3 -2.3,3.4 -4.5,7 -6.6,10.6 -0.5,0.8 -0.9,1.7 -1.2,2.6 -1.5,3.8 -4.3,4.5 -7.2,1.7 -2,-2 -4,-4.2 -6,-6.3 -6.1,-6.3 -4.5,-15.4 0.1,-20.7 4.1,-4.7 8.2,-9.5 12,-14.4 2.9,-3.7 5.6,-7.6 8.3,-11.5 1.8,-2.6 1.6,-4.4 -0.5,-6.7 -2.9,-3.1 -6.5,-5.5 -10.2,-7.5 -5.7,-3 -11.8,-5.1 -17.8,-7.1 -15,-4.9 -30.5,-8.1 -46.2,-9.8 -14,-1.5 -28,-1.6 -42,-1.1 -7,0.3 -14.1,0.5 -21.1,0.6 -14.9,0.2 -29.8,0.9 -44.700002,2.1 -10.4,0.8 -20.7,2 -31.1,2.6 -10.4,0.6 -20.8,0.8 -31.2,0.9 -8.4,0 -16.8,-0.1 -25.1999995,-0.8 -14.9000045,-1.2 -29.5000045,-4 -43.5000045,-9.5 -6.4,-2.5 -12.3,-5.8 -17.7,-10.1 -6.3,-4.9 -12.6,-9.9 -18.8,-14.9 -12.7,-10.2 -19.7,-23.8 -23.3,-39.3 -2.400004,-10.3 -2.600004,-20.6 -1.500004,-31.1 1.500004,-14.2 4.400004,-28.1 9.000004,-41.7 2.7,-8.2 6.7,-15.7 11.5,-22.9 9.1,-13.69999 18.8,-26.99999 28.9,-39.89999 3.4,-4.3 7.1,-8.3 11.3,-11.7 1.9,-1.5 3.8,-3 5.9,-4.2 10.9,-6 21.4,-12.6 32.8000045,-17.7 8.6,-3.8 17.2999995,-7.3 26.4999995,-9 3.6,-0.7 7.3,-0.9 11,-1.3 0.4,0 0.8,0.1 1.4,0.1 -0.4,0.6 -0.5,1.1 -0.8,1.2 -0.9,0.4 -1.8,0.8 -2.7,1 -8.9,2.4 -17.4,5.6 -25.4999995,9.7 -8.9,4.5 -17.800004,9.2 -26.6000045,13.9 -2,1 -3.9,2.2 -5.9,3.3 -8.3,4.7 -15.3,10.8 -20.9,18.5 -5.3,7.2 -10.5,14.5 -15.7,21.8 -2.6,3.6 -5,7.19999 -7.6,10.79999 -10.9,15.1 -17.7,31.9 -21.2,50 -1.9,9.6 -3.4,19.3 -3.6,29.1 -0.3,11.9 1.7,23.5 7,34.3 3.3,6.9 7.9,12.9 13.9,17.6 7.6,6 15.2,12 23,17.8 11.1,8.2 23.7,12.5 37.2,14.6 19.7000045,3.1 39.600004,3.6 59.400004,2.5 14.3,-0.8 28.6,-1.9 42.9,-2.8 9.6,-0.6 19.200002,-1.1 28.800002,-1.6 11.8,-0.6 23.7,-1.2 35.5,-1.6 11.8,-0.4 23.6,-0.5 35.3,0.2 25.7,1.6 50.5,7.1 74.2,17.4 5.2,2.2 10,5.1 14.5,8.4 5.2,3.9 6.1,13 2.4,17.8 -4.5,5.9 -8.8,11.8 -13.3,17.7 -1,1.3 -2.2,2.6 -3.3,3.8 -2.6,2.8 -4.3,6.1 -5.8,9.6 -1.5,3 -0.2,6.3 2.9,7.6 z"
       id="path1740"
       inkscape:connector-curvature="0" />
    <path
       d="m 16.346868,294.31876 c 2.2,-1.2 4.3,-2.6 6.6,-3.6 19.3,-8.6 39.7,-14 60.4,-18 13.2,-2.6 26.400002,-5.2 39.700002,-7.4 11.4,-1.9 22.8,-3.4 34.3,-4.6 17.3,-1.9 34.7,-2.6 52,-3.5 20.7,-1 41.3,-1.2 62,-0.3 10.6,0.5 21.3,1.4 31.9,2.1 6.6,0.5 13.1,0.9 19.6,1.5 14.8,1.4 29.3,4.2 43.7,8 10.8,2.9 21.6,6 31.8,10.8 12,5.6 22.6,13.1 30.9,23.5 7.9,9.9 12.4,21.2 13.8,33.8 2,18.4 -2.1,35.49999 -10.3,51.79999 -10.3,20.5 -24.9,37.1 -44.4,49.4 -10.6,6.7 -21.6,12.6 -32.9,18 -1.9,0.9 -3.7,1.8 -5.7,2.7 -0.1,-1.4 -0.1,-2.5 -0.2,-3.6 -0.2,-2.5 0.8,-4.6 2.8,-6 1.2,-0.9 2.6,-1.6 3.9,-2.3 11.8,-6.2 23.3,-12.8 34,-20.8 21.5,-16.1 35.3,-37.3 41.8,-63.3 2.6,-10.19999 3.1,-20.59999 1,-30.99999 -2.6,-13.4 -9.6,-24.1 -19.8,-32.9 -9,-7.7 -19.3,-13.2 -30.4,-17.2 -16.5,-5.9 -33.4,-10.2 -50.7,-12.8 -14.6,-2.1 -29.3,-3.3 -44,-4.4 -21.8,-1.6 -43.6,-1.7 -65.4,-1 -10.7,0.3 -21.3,0.5 -31.9,1.2 -12.9,0.8 -25.9,1.8 -38.8,3.2 -30,3.4 -59.500002,9.3 -88.900002,15.5 -9.8,2.1 -19.3,5.2 -29,7.8 -4.9,1.3 -9.8,2.5 -14.6,3.8 -1.1,0.5 -2,0.7 -3.2,-0.4 z"
       id="path1742"
       inkscape:connector-curvature="0" />
    <path
       d="m 187.24687,809.31875 c 1.3,0.8 2.5,1.6 4,2.5 -0.8,0.3 -1.2,0.5 -1.6,0.6 -5.5,0.8 -10.9,1.8 -16.4,2.2 -11.1,1 -21.7,-1.2 -31.9,-5.5 -15.7,-6.7 -28,-17.5 -37.2,-31.9 -1.4,-2.2 -2.7,-4.6 -4.1,-6.8 -3.200002,-5.2 -3.900002,-10.9 -3.200002,-16.9 0.1,-1 0.2,-1.9 0.3,-2.9 0,-0.3 0,-0.6 -0.1,-1.2 -1.6,-0.4 -3.2,-0.8 -4.8,-1.2 -3.9,-1.1 -7.9,-2.1 -11.7,-3.5 -5.9,-2.1 -10.7,-5.7 -14.1,-11.1 -0.2,-0.3 -0.5,-0.6 -1,-1.2 -0.6,1.5 -1.2,2.7 -1.6,4 -1.7,5.2 -2.4,10.6 -2.8,16.1 -0.3,4.4 -0.4,8.8 -0.5,13.2 -2.6,-0.7 -4.1,-2.6 -4.6,-5.1 -0.5,-2.7 -0.9,-5.6 -0.7,-8.3 0.3,-3.8 0.9,-7.6 1.9,-11.3 1.2,-4.8 2.9,-9.5 4.4,-14.2 0.3,-0.9 0.7,-1.8 1.3,-2.5 1.1,-1.4 2.7,-1.1 3.4,0.5 0.3,0.6 0.3,1.2 0.5,1.9 0.9,4.1 3.2,7.4 6.8,9.5 2.5,1.5 5.2,2.8 8,3.8 7.8,2.8 15.9,4.3 24.200002,5 9.8,0.8 19.7,0.5 29.5,0.2 6.6,-0.2 13.3,-0.5 19.9,-1.1 10.9,-1 21.5,-3.4 32,-6.1 2.9,-0.7 5.9,-1.5 8.8,-2.5 9.7,-3.5 15.5,-10.5 17.5,-20.5 0.5,-2.5 0.4,-4.9 -0.1,-7.4 -0.2,-0.9 -0.5,-1.7 -0.6,-2.6 -0.3,-1.7 0,-2 1.7,-2.5 0.3,-0.1 0.6,-0.2 1.1,-0.3 -1.4,-2.5 -2.8,-4.9 -4.2,-7.5 4.4,1.2 7.6,5.3 8,9.9 0.3,2.9 0.7,5.7 0.9,8.6 0.1,1.5 0,3.1 -0.3,4.5 -1,4.4 -2.8,8.5 -5.4,12.2 -2.7,3.8 -6.1,6.7 -10.3,8.8 -2.8,1.4 -5.6,2.8 -8.5,4.4 0.2,0.8 0.3,1.6 0.5,2.3 0.5,2.3 1.3,4.5 1.6,6.8 0.6,4.5 -1.5,7.5 -6,8.2 -6.1,1 -12.2,1.9 -18.3,2.8 -2.5,0.4 -5,0.8 -7.6,1.2 1.2,2.9 2.8,5.4 3.4,8.3 0.6,2.8 0.1,5.9 0.1,8.9 1.2,0.5 2.2,0.9 3.2,1.4 3.2,1.6 6.4,3 9.4,4.8 2.7,1.6 4.9,3.8 6.7,6.5 2.7,4 2.9,8 0.4,12.2 -0.7,0.7 -1.3,1.7 -1.9,2.8 z m -58,-14.1 c 3,1.7 5.9,3.3 8.7,4.9 8.2,4.5 16.8,7.3 26.3,7.4 4.5,0 8.9,0.7 13.4,1 1.6,0.1 3,-0.2 4.3,-1.2 3.7,-2.8 4.4,-8.2 1.4,-11.7 -1,-1.1 -2.2,-2.1 -3.4,-3 -7.4,-4.9 -15.5,-7.5 -24.4,-7.5 -7,0 -13.6,1.5 -20.1,4 -2.9,1.1 -5.1,2.8 -6.2,6.1 z m -19.8,-36.1 c 2.6,0 4.9,-0.1 7.1,0 21,0.6 42,-0.5 62.8,-3.7 2.9,-0.5 5.9,-0.9 8.8,-1.4 2.4,-0.4 2.9,-1.2 2.5,-3.6 -0.3,-1.8 -0.6,-3.6 -1,-5.5 -0.7,0.1 -1.2,0.1 -1.7,0.3 -17.7,4.5 -35.8,6.3 -54,6.4 -7.9,0 -15.9,-0.5 -23.8,-0.7 -0.6,0 -1.2,0.1 -2.1,0.1 0.5,2.8 0.9,5.5 1.4,8.1 z"
       id="path1744"
       inkscape:connector-curvature="0" />
    <path
       d="m 109.24687,373.41875 c 4.6,-1.5 9.1,-3 13.5,-4.5 0.8,1.5 0.7,2.3 -0.4,3.4 -1.7,1.8 -3.5,3.6 -5.1,5.4 -3.2,3.7 -7.2,4.2 -11.6,3.2 -2.4,-0.6 -3.9,-2.1 -4.3,-4.6 -0.2,-1.3 -0.3,-2.5 -0.4,-3.8 -0.1,-0.9 0,-1.7 0,-3 -0.9,0.6 -1.500002,1 -2.000002,1.4 -2.5,1.9 -5,3.8 -7.5,5.6 -2.1,1.5 -4.5,2.4 -7.2,2.3 -4,0 -6.9,-2.1 -8.3,-5.8 -0.3,-0.7 -0.5,-1.5 -0.8,-2.4 -0.8,0.6 -1.4,1.1 -2,1.6 -2.8,2.4 -5.6,4.8 -8.3,7.3 -5.7,5.1 -12.5,6.6 -19.9,5.4 -4.2,-0.7 -7.3,-4.6 -7.5,-9.1 -0.3,-5.8 0.7,-11.4 3.6,-16.5 5.4,-9.29999 12.2,-17.39999 20.8,-23.99999 2.8,-2.1 5.9,-2.7 9.3,-2.3 3.3,0.4 5,2.2 5.2,5.5 0.2,3.1 -0.4,5.9 -2,8.5 -1.2,1.9 -2.7,3.8 -4.3,5.5 -4.2,4.39999 -9,7.99999 -14.1,11.19999 -1.5,1 -3.2,1.4 -5,1.5 -1.5,0.1 -3,0.1 -4.7,0.2 -0.8,3.3 -1.2,6.5 -1.4,9.8 -0.1,1.5 0.9,2.3 2.7,2.5 2.9,0.4 5.8,0.2 8.4,-1.2 1.9,-1 3.7,-2.2 5.3,-3.6 4.3,-3.7 8.4,-7.5 12.6,-11.2 1.6,-1.4 2.7,-3.1 3.5,-5.1 3.5,-8.79999 7,-17.59999 10.5,-26.29999 0.7,-1.6 1.3,-3.3 2.1,-4.9 0.6,-1.2 1.2,-2.4 2,-3.5 1.7,-2.4 4,-3.6 7,-3.4 1.100002,0.1 2.200002,0.2 3.300002,0.5 2.8,0.7 3.6,2 3.5,4.9 -0.9,13.7 -6.700002,24.9 -16.700002,34.09999 -1,0.9 -2,1.8 -3.1,2.7 -3,2.4 -3.3,5.7 -2.9,9.2 0.2,1.3 1,1.8 2.3,1.4 1.2,-0.4 2.4,-1 3.4,-1.8 4.9,-4 9.6,-8.3 13.700002,-13.1 3.6,-4.29999 6.2,-9.09999 8.2,-14.29999 1.5,-4 3.5,-7.9 5.5,-11.7 1.4,-2.7 3,-5.3 4.4,-8 1.1,-2 2.8,-3.3 4.8,-4.1 1.8,-0.7 3,-0.2 3.7,1.6 0.7,1.7 1,3.4 0.2,5.1 -4.6,10.2 -8.7,20.7 -15.4,29.8 -3.9,5.39999 -5.4,11.49999 -4.6,18.59999 z M 69.546868,340.51876 c -6.2,1.6 -17.2,12.6 -18.1,17.89999 7.5,-4.39999 14.1,-9.49999 18.1,-17.89999 z m 18.8,7.1 c 0.6,-0.2 0.8,-0.2 0.9,-0.3 3.9,-5.3 7.4,-10.9 9.1,-17.3 0.2,-0.8 0.4,-1.6 0.5,-2.3 0.1,-0.6 0.3,-1.3 -0.6,-1.6 -0.8,-0.3 -1.2,0.2 -1.4,0.9 0,0.1 -0.1,0.1 -0.1,0.2 -2.7,6.2 -5.5,12.4 -8.2,18.7 -0.1,0.4 -0.1,0.9 -0.2,1.7 z"
       id="path1746"
       inkscape:connector-curvature="0" />
    <path
       d="m 286.94687,315.61876 c 3.3,-0.3 6.4,-0.6 9.5,-0.9 1,-0.1 2.1,-0.2 3.1,-0.3 1.6,-0.2 2.3,-0.7 2.4,-2.2 0.4,-3.7 0.2,-7.3 -2.3,-10.2 -1.4,-1.6 -1,-3.1 1.2,-3.7 3.3,-1 6.8,1.4 7.3,5.1 0.3,2.1 0.3,4.3 0.4,6.5 0,1 0,2.1 0,3.2 2,0.7 3.8,0.3 5.5,-0.3 2.4,-0.9 4.7,-2.1 7,-3.2 2.5,-1.3 4.9,-2.7 7.4,-3.9 2.9,-1.5 5.6,-0.6 8.1,1.1 1.5,1 1.8,2.6 1.8,4.2 0.1,6.5 -4.1,10.5 -9.9,12.2 -2.5,0.7 -5.1,0.4 -7.6,-0.3 -0.9,-0.3 -1.8,-0.5 -3,-0.8 -0.1,2.3 -0.4,4.5 -0.3,6.6 0.3,3.7 3.6,5.7 7.1,4.4 0.7,-0.2 1.3,-0.6 1.9,-1.1 6.1,-5.1 11.5,-10.7 14.8,-18.1 0.8,-1.7 2,-2.9 3.6,-3.6 2.2,-1 3.5,-0.5 4.4,1.7 0.3,0.8 0.4,1.8 0.2,2.6 -1.8,8.2 -1.3,16.4 -0.6,24.6 0.2,2.9 0.5,5.7 0.6,8.6 0.2,4.6 -2.1,7.8 -6.4,9.29999 -4.9,1.7 -9.8,1.6 -14.6,0.2 -4.4,-1.29999 -5.8,-5.49999 -3.3,-9.39999 1,-1.6 1.8,-3.4 2.7,-5.1 0.3,-0.5 0.6,-1 1,-1.8 1.3,1.5 1.7,3.1 2,4.6 0.8,3.4 1.7,4.1 5.1,4 0.5,0 1,0 1.4,-0.1 3.8,-0.5 4.8,-1.8 4.6,-5.6 -0.2,-3.8 -0.4,-7.7 -0.7,-11.5 -0.1,-0.9 -0.2,-1.8 -0.3,-3.1 -0.9,0.8 -1.5,1.2 -2.1,1.8 -2.7,2.4 -5.4,4.8 -8.1,7.1 -4.5,3.8 -9.5,3.4 -14.4,1.1 -4.5,-2.1 -6.2,-6.1 -6.1,-10.8 0,-2.6 0.2,-5.3 0.3,-7.8 -2.2,-0.7 -2.8,-0.3 -3.2,1.8 -0.8,3.8 -1.6,7.7 -2.5,11.5 -0.2,0.9 -0.5,1.8 -0.7,2.7 -3,0.3 -4.5,-0.8 -5.1,-3.5 -0.6,-2.7 0,-5.3 0.3,-7.9 0.1,-1.1 0.4,-2.2 0.6,-3.3 -1.6,-0.3 -11.1,0.5 -14.3,1.2 -0.1,0.8 -0.3,1.8 -0.4,2.7 -0.4,3.7 -0.7,7.3 -1.1,11 -0.1,1.3 -0.5,2.5 -1,3.7 -0.6,1.3 -1.5,2.6 -3.2,2.3 -1.7,-0.2 -2,-1.7 -2.4,-3 -0.7,-2.9 -0.7,-5.9 -0.3,-8.8 1.1,-8.3 2.2,-16.5 3.2,-24.8 0.2,-1.4 0,-2.9 -0.3,-4.2 -0.3,-1.8 0.5,-3 2.4,-3.5 1.8,-0.4 2.9,0.3 3.1,2.4 0.4,3.8 0.7,7.7 1,11.5 0,0.9 0.1,1.9 0.2,3.1 z"
       id="path1748"
       inkscape:connector-curvature="0" />
    <path
       d="m 14.846868,362.11875 c -0.7,0.1 -1.3,0 -1.8,0.2 -3.5999995,0.9 -6.2999995,3.1 -8.1999995,6.3 -2.2,3.7 -4.40000001,7.5 -6.6,11.2 -0.7,1.1 -1.4,2.2 -2.2,3.2 -3.300004,4.2 -8.1000045,5.5 -13.1000045,3.8 -2.1,-0.7 -3.5,-2.1 -4.1,-4.3 -1.2,-3.9 -0.5,-7.1 2.7,-10 5.8,-5.2 11.9000005,-10 18.90000449,-13.6 1.90000001,-1 3.00000001,-2.59999 3.90000001,-4.39999 2.8,-5 4.5,-10.4 6.2999995,-15.8 1.5,-4.6 3,-9.1 4.5,-13.7 0.5,-1.6 1.4,-2.8 3.4,-3.6 -0.1,2.1 -0.1,3.9 -0.3,5.7 -0.5,3.7 -1.2,7.4 -1.8,11.1 -0.6,3.8 -1.7,7.5 -3.1,11.1 -0.5,1.1 -0.6,2.4 -1,3.9 1,-0.2 1.5,-0.3 2,-0.5 5.5,-2 9.7,-5.6 12.5,-10.7 4.2,-7.7 9.4,-14.7 14.9,-21.5 2.8,-3.5 6.7,-5.1 10.8,-6.2 2.9,-0.8 4.8,0.8 5.2,3.7 0.2,1.6 0.1,3.2 -0.8,4.6 -3.8,6 -7.6,12 -11.5,18 -2.2,3.3 -5.1,5.9 -8.4,8.2 -2.7,1.9 -5.3,3.9 -7.8,5.9 -1.8,1.5 -3.3,3.29999 -4.2,5.49999 -2.3,5.5 -4.6,11.1 -6.9,16.6 -0.1,0.4 -0.2,0.7 -0.4,1.6 4.4,-2.3 8.4,-4.3 9.6,-9.5 1,0.1 1.7,0.2 1.8,1.3 0.2,3.7 0.5,7.3 0.7,10.7 -3.1,2.1 -5.9,4.1 -8.8,6 -2,1.4 -4.2,1.9 -6.6,1.7 -2.9,-0.3 -4.2,-1.4 -4.6999995,-4.3 -0.6,-3.2 0,-6.4 0.8999995,-9.5 0.9,-3.1 2.2,-6.2 3.3,-9.3 0,-1.1 0.4,-2.1 0.9,-3.4 z m -20.9999995,10.8 c -0.2,-0.2 -0.500004,-0.4 -0.700004,-0.6 -2.2,2 -4.5000005,4.1 -6.7000005,6.2 1.5,1 1.8,1 3,0.3 2.2000005,-1.4 3.1000005,-3.8 4.4000045,-5.9 z"
       id="path1750"
       inkscape:connector-curvature="0" />
    <path
       d="m 166.54687,623.11875 c 0.6,-0.6 0.8,-1 1.2,-1.3 3.4,-2.2 5.3,-5.4 6.7,-9.1 1.4,-3.9 2.9,-7.8 4.3,-11.7 1.1,-3 1.8,-6 1.2,-9.2 -0.4,-2.2 -1.3,-3.9 -3.1,-5.2 -9.9,-7.6 -21,-12.7 -33.4,-14.4 -10.3,-1.5 -20.8,-1.2 -31.2,-1.1 -10.2,0.1 -20.400002,0.8 -30.300002,3.2 -10.4,2.6 -20.7,5.6 -31,8.7 -9.6,3 -19.1,6.4 -28.7,9.7 -15.9999995,5.7 -30.0000035,14.7 -42.700004,25.9 -0.7,0.6 -1.2,1.3 -1.8,2 -1,1.3 -2.2,2 -4.1,2 0.3,-0.7 0.5,-1.3 0.8,-1.8 2.5,-4.2 5.7,-7.7 9.4,-10.9 13.0000045,-11.2 27.400004,-20.1 43.800004,-25.5 12.4,-4.1 24.8,-8 37.3,-11.8 11.3,-3.4 23,-4.9 34.7,-6 12.800002,-1.1 25.600002,-1.5 38.400002,-0.9 4.9,0.2 9.7,1 14.4,2.4 8,2.4 15.7,5.6 22.6,10.5 1.6,1.2 3.3,2.2 5,3.3 4.9,3.2 6.7,7.8 6.1,13.4 -0.4,3.9 -1.6,7.7 -3.3,11.2 -2.3,4.8 -5.4,9.1 -8.6,13.3 -0.4,0.5 -0.9,1 -1.4,1.3 -1.7,1.3 -3.7,1.8 -6.3,2 z"
       id="path1752"
       inkscape:connector-curvature="0" />
    <path
       d="m 180.64687,920.41875 c 0.1,-4.7 -0.2,-8.8 0.9,-13 3.4,-13.8 6.9,-27.7 10.1,-41.5 3.2,-14.2 5.7,-28.6 6.8,-43.2 0.5,-5.9 0.1,-11.8 0,-17.8 0,-2.4 -0.3,-4.8 -0.5,-7.2 -0.1,-2 -0.7,-3.9 -1.8,-5.7 -4.2,-6.6 -5.3,-13.8 -4.4,-21.4 0.2,-1.8 0.4,-3.6 0.6,-5.8 2.1,1.8 1.3,4.3 2.6,6 0.5,-1.2 0.9,-2.2 1.4,-3.3 1.1,1.2 1.5,2.5 1.8,3.9 1.4,6 2.8,12 4.1,18 0.7,3.1 1.9,5.9 3.6,8.6 1.2,1.8 2.3,3.6 2.8,5.9 -1.7,0.7 -2.6,-1.2 -4.1,-1.1 0,1.1 -0.1,2.1 0,3.1 1.4,10.9 0.8,21.8 -0.9,32.6 -3.3,20.4 -8.6,40.4 -13.9,60.4 -1.9,7.3 -5.1,14 -8.3,20.7 -0.1,0 -0.3,0.2 -0.8,0.8 z"
       id="path1754"
       inkscape:connector-curvature="0" />
    <path
       d="m 124.64687,359.81875 c 0,-0.3 0.1,-0.6 0,-1 -0.6,-4.29999 1.5,-7.29999 4.6,-9.89999 8,-6.8 17.2,-10.5 27.8,-10 3.4,0.2 6.5,1.1 9.2,3.2 5.5,4.3 6.1,11 1.5,16.19999 -0.1,0.1 -0.1,0.1 -0.2,0.2 -4.9,5.3 -10.5,9.9 -16.4,14.1 -3.8,2.7 -7.9,4.4 -12.6,5 -7.2,0.8 -10.3,-3 -11.2,-7.5 -0.1,-0.7 -0.3,-1.5 -0.8,-2 -1.8,-1.9 -2.2,-4.2 -2,-6.7 0,-0.5 0,-1 0.1,-1.6 -0.1,0 -0.1,0 0,0 z m 29.4,-12.59999 c -3.5,0.4 -7.1,0.9 -10.4,2.2 -2.3,0.9 -4,2.4 -4.9,4.6 -1.4,3.49999 -2.7,6.99999 -3.9,10.59999 -0.5,1.6 0.1,3.2 1.3,4.4 1.1,1.1 2.6,0.9 3.8,0.3 2.2,-1.1 4.5,-2.1 6.5,-3.6 3.1,-2.2 6.1,-4.7 9,-7.1 1.8,-1.5 3.5,-3.09999 5.2,-4.69999 1.1,-1 1.9,-2.3 1.4,-3.8 -0.5,-1.7 -2,-2.2 -3.6,-2.4 -1.5,-0.3 -2.9,-0.4 -4.4,-0.5 z"
       id="path1756"
       inkscape:connector-curvature="0" />
    <path
       d="m 252.54687,399.91875 c -0.2,3.3 -0.2,6.7 -0.7,10 -0.6,3.8 -2.1,7.4 -4.5,10.5 -2.3,3.1 -4.7,6.1 -7.4,8.8 -3.8,3.8 -8.5,5.4 -13.8,4.1 -2.7,-0.6 -4.8,-2.2 -6.3,-4.5 -2.2,-3.3 -3.3,-6.9 -3.8,-10.8 -0.4,-2.6 -0.7,-5.2 -0.8,-7.9 0,-1.3 0.4,-2.7 1,-3.9 1,-2.1 2,-4.2 2.5,-6.5 0.6,-3.1 2.3,-5.7 4.5,-7.8 2.6,-2.5 5.3,-4.8 8.1,-7.1 0.8,-0.7 2,-1 3.1,-1.2 8.5,-0.9 18.1,7.7 18.1,16.3 z m -7.6,3.6 c -0.2,-1.4 -0.2,-2.9 -0.5,-4.3 -0.6,-3.1 -2.5,-5.3 -5.2,-6.9 -1.2,-0.7 -2.6,-1.1 -3.9,-0.2 -4.5,2.8 -8.4,6.2 -10.1,11.5 -1,3.2 -1.8,6.5 -2.6,9.7 -0.1,0.3 -0.2,0.6 -0.1,0.9 0.2,1.9 0.4,3.8 0.6,5.7 0.2,1.8 0.6,3.5 1.7,4.9 1.6,2.1 3.3,2.5 5.7,1.7 3.1,-1.1 5.4,-3 7.4,-5.5 4.1,-5.1 6.8,-10.8 7,-17.5 z"
       id="path1758"
       inkscape:connector-curvature="0" />
    <path
       d="m 25.846868,474.61875 c -2,0.3 -3.7,0.5 -5.4,0.7 -0.3,0.8 -0.5,1.5 -0.8,2.3 -1.4,4.8 -2.9,9.5 -4.2,14.3 -0.9,3.3 -2.6,5.4 -6.0999995,6 -2,-2 -2.6,-4.4 -1.7,-7.2 1.1,-3.3 2.1,-6.7 3.1999995,-10.1 0.2,-0.8 0.5,-1.5 0.7,-2.5 -0.7,-0.1 -1.2,-0.2 -1.6999995,-0.2 -2.9,0 -5.8,0.1 -8.6,0 -2.8,-0.2 -4.3,1.2 -5.2,3.6 -1.4,3.8 -2.900004,7.6 -4.500004,11.4 -0.6,1.4 -1.5,2.7 -2.5000005,3.7 -1.4,1.3 -3.1,1.3 -4.2,0.5 -1.1,-0.8 -1.5,-2.5 -0.9,-4.1 1.4,-3.7 2.9,-7.5 4.4,-11.2 0.8,-2 1.3,-3.9 0.3,-6 -0.6,-1.3 -0.1,-2.3 1,-3.2 0.4000005,-0.3 0.9000005,-0.6 1.4000005,-0.9 1.6,-0.8 2.5,-2.1 3.000004,-3.8 1.7,-5.5 3.5,-11 5.19999999,-16.5 0.5,-1.7 1.4,-3 3.10000001,-3.8 1.7,1.3 2.5,2.7 1.9,5.1 -1.4,5.8 -2.6,11.7 -3.90000001,17.6 0,0.2 0,0.5 0,0.9 0.5,0 1.10000001,0.2 1.60000001,0.1 3.4,-0.2 6.9,-0.4 10.2999995,-0.6 1.7,-0.1 2.8,-0.7 3.4,-2.4 1,-2.9 2.5,-5.6 3.4,-8.5 0.7,-2.3 0.8,-4.7 1.1,-7.1 0.1,-0.5 -0.1,-1.1 0,-1.7 0.5,-2.2 1.7,-2.9 3.8,-2.3 2.8,0.8 3.7,1.9 3.7,4.8 0,1.6 -0.2,3.2 -0.7,4.7 -0.9,3.1 -1.9,6.1 -3.1,9.1 -1.3,3.9 -1.3,4.1 2,7.3 z"
       id="path1760"
       inkscape:connector-curvature="0" />
    <path
       d="m 143.64687,668.11875 c 0.3,-1.2 0.4,-2.1 0.7,-2.9 4.1,-12.1 10.7,-22.7 19.9,-31.6 6.5,-6.2 14.2,-8.9 23.3,-8.2 5.5,0.4 10.4,6 10.7,11.3 0.3,5 -0.7,9.7 -2.8,14.2 -1.9,4.1 -4.3,7.9 -7.3,11.3 -3.1,3.6 -3.2,7.1 -1.1,11.2 3.2,6.3 7.5,11.2 14.5,13 2.1,0.6 4.3,0.7 6.4,1 2.8,0.4 3.9,1.5 4.5,4.8 -2.1,-0.1 -4.2,-0.2 -6.2,-0.4 -1.9,-0.2 -3.8,-0.6 -5.7,-1 -6.8,-1.7 -11.7,-5.8 -14.6,-12.2 -1.1,-2.5 -1.8,-5.1 -2.7,-7.7 -0.2,-0.4 -0.3,-0.9 -0.5,-1.7 -0.7,1 -1.2,1.8 -1.7,2.5 -2.3,3.2 -4.6,3.6 -8,1.3 1,-0.6 2.3,-1.1 3.1,-1.9 0.8,-0.9 1.2,-2.2 1.9,-3.3 1.3,-2.2 2.7,-4.4 4.1,-6.5 2.5,-3.9 5.1,-7.8 7.5,-11.7 2.1,-3.5 3.5,-7.2 3.4,-11.4 -0.1,-4.6 -2.8,-7.2 -7.4,-7.3 -5.1,-0.1 -9.7,1.2 -13.8,4.2 -2.9,2.1 -5.6,4.5 -8.1,7.1 -6.4,6.7 -11.5,14.4 -16,22.5 -1.4,2.2 -1.7,2.5 -4.1,3.4 z"
       id="path1762"
       inkscape:connector-curvature="0" />
    <path
       d="m 299.34687,440.81875 c -0.8,-0.2 -1.3,-0.3 -1.8,-0.5 -1.9,-0.5 -3.3,-1.5 -4.1,-3.4 -0.5,-1.4 -1.5,-1.7 -2.3,-0.7 -2.8,3.3 -6.6,2.5 -10,2.6 -3.2,0 -5.2,-2 -5.7,-5.2 -0.8,-4.8 0.7,-8.9 4.5,-11.9 1.7,-1.4 3.8,-2.3 5.8,-3.3 1.3,-0.7 2.8,-1.2 4.1,-1.9 1.5,-0.8 1.8,-1.6 1.3,-3.2 -0.4,-1.2 -0.9,-2.4 -1.6,-3.5 -1.1,-1.8 -2.4,-2.2 -4.3,-1.3 -1.7,0.8 -3.2,1.8 -4.8,2.7 -1.3,0.8 -2.6,1.1 -4.1,0.8 -0.7,-1.4 -0.4,-2.7 0.3,-4 2.4,-4.5 8.1,-7.4 13.2,-6.5 3,0.5 5.2,2.3 6.2,5.1 1.1,2.7 2,5.6 2.3,8.5 0.9,6.8 1.5,13.7 2.3,20.5 0.2,1.9 -0.4,3.5 -1.3,5.2 z m -6.6,-12.4 c -0.1,-0.9 -0.1,-1.6 -0.2,-2.2 -0.1,-0.7 -0.3,-1.3 -0.4,-2 -6.1,1.2 -8.9,3.5 -8.9,7.4 3.2,-1.1 6.3,-2.1 9.5,-3.2 z"
       id="path1764"
       inkscape:connector-curvature="0" />
    <path
       d="m 270.84687,505.11875 c 0.2,-3.6 0.4,-7.2 0.8,-10.8 0.2,-2.5 1.4,-4.4 3.5,-5.7 0.7,-0.5 1.4,-1.1 1.8,-1.8 1.4,-2.4 3.5,-3.9 6,-4.9 2.1,-0.8 4.2,-1.6 6.3,-2.3 9.1,-3.1 17.8,3.6 17.3,13.3 -0.2,3.6 -1.5,6.9 -3.7,9.7 -3,3.9 -6.5,7.3 -10.8,9.8 -1,0.6 -2,1.1 -3,1.5 -3.7,1.6 -7.4,2.4 -11.2,-0.1 -0.9,-0.6 -1.9,-0.9 -2.8,-1.3 -3.2,-1.5 -4.4,-4.1 -4.2,-7.4 z m 11.5,4.1 c 1.4,-0.4 2.9,-0.7 4.2,-1.4 4.6,-2.4 8.4,-5.8 11.4,-10.1 0.7,-1 1.2,-2.1 1.4,-3.3 1,-5.3 -3,-9.2 -8.2,-8 -1.7,0.4 -3.4,1.2 -5,2.2 -1.4,0.8 -2.7,2 -4,3.1 -1.5,1.2 -3.5,2.3 -4.4,3.9 -1,1.7 -1,4 -1.4,6 -1,5.2 0.6,7.1 6,7.6 z"
       id="path1766"
       inkscape:connector-curvature="0" />
    <path
       d="m 53.546868,483.11875 c 1.1,0.5 2,0.9 3,1.4 -0.7,1.7 -1.2,3.2 -1.9,4.7 -0.7,1.4 -1.9,2.2 -3.4,2.2 -1.1,0 -2.3,0.1 -3.4,-0.1 -2.1,-0.4 -4.1,-0.1 -6.1,0.6 -2,0.7 -4,1.3 -6,1.8 -5.7,1.3 -9.4,-2.7 -8,-8.3 1.4,-5.3 3.7,-10.1 7.4,-14.1 3.2,-3.5 6.3,-7 9.6,-10.5 2.2,-2.3 6.8,-2.7 9.3,-0.9 0.5,0.4 0.9,1.1 1.1,1.8 0.6,2.1 1,4.2 1.8,6.2 1.8,4.5 1.4,8.6 -1.5,12.5 -0.7,0.7 -1.2,1.6 -1.9,2.7 z m -3.7,-17.1 c -0.9,-1 -1.4,-0.3 -1.8,0.1 -1.9,1.9 -3.8,3.7 -5.6,5.7 -2.5,2.7 -4.7,5.7 -6.3,9.1 -0.9,2 -1.7,4.1 -2,6.4 7.5,-1.7 14.7,-9.2 15.3,-16.4 -0.6,-0.4 -1.3,-0.8 -2.1,-1.3 1,-1.3 1.7,-2.4 2.5,-3.6 z"
       id="path1768"
       inkscape:connector-curvature="0" />
    <path
       d="m 253.84687,492.31875 c -2.1,-0.2 -3.6,0.6 -4.9,1.8 -2.2,1.9 -4.4,3.9 -6.5,6.1 -1.1,1.2 -2.3,1.7 -3.8,1.7 -2.6,0.1 -4.1,-2 -2.9,-4.3 2.2,-4.3 4.9,-8.3 9.3,-10.7 4.4,-2.4 8.9,-2.9 13.6,-0.6 1.3,0.6 2.6,1.3 3.9,1.9 0,0.9 0,1.7 0,2.5 -0.1,2.1 -0.2,4.2 1.1,6 0.6,0.8 0.6,1.9 0,2.7 -1,1.2 -0.7,2.5 -0.4,3.9 0.2,1 0.5,2 0.7,3 0.5,2.3 -1,4.2 -3.3,3.8 -3.5,-0.5 -6,0.9 -8.3,3.3 -1.3,1.3 -3,1.9 -4.7,2.1 -1.4,0.1 -2.9,0.2 -4.3,0.1 -4.8,-0.4 -7.1,-4.2 -5.4,-8.7 0.9,-2.3 2.6,-4.1 4.8,-5.2 2.3,-1.2 4.7,-2.3 7.1,-3.4 0.8,-0.4 1.6,-0.6 2.4,-1 2.2,-1.3 2.6,-2.2 1.6,-5 z m 1.2,9.4 c -4.1,2.3 -7.8,4.5 -11.7,6.7 0.3,0.7 0.5,1.1 0.8,1.8 3.9,-1.1 7.7,-2.1 11.7,-3.2 -0.3,-1.8 -0.5,-3.4 -0.8,-5.3 z"
       id="path1770"
       inkscape:connector-curvature="0" />
    <path
       d="m 75.446868,682.61875 c 1.2,-3.4 1.2,-6.8 0.8,-10.1 -0.4,-3.7 -1.5,-7.2 -3.3,-10.5 -0.6,-1.1 -1.1,-2.1 -1.6,-3.2 -0.3,-0.6 -0.5,-1.2 -0.6,-1.8 -0.2,-1.3 -0.5,-2.7 0.7,-3.6 1.3,-0.9 2.8,-0.6 4.1,0.3 2,1.3 3.6,2.9 4.6,5.1 1.9,3.8 3.1,7.8 3.4,12 0.2,3.3 0.1,6.7 0,10.1 0,0.9 -0.2,1.8 -0.5,2.6 -1.2,3.6 -4.7,5.6 -8.4,4.5 -1.4,-0.4 -2.6,-1.1 -3.8,-1.9 -4,-2.6 -8,-5.4 -11.9,-8.1 -2.2,-1.5 -4.3,-3 -6.3,-4.8 -2.3,-2.1 -3.7,-4.8 -4.3,-7.9 -0.2,-0.9 -0.2,-1.8 -0.2,-2.6 0.1,-1.9 1,-3 2.9,-3.3 1.1,-0.2 2.2,-0.2 3.4,-0.2 1.9,0 3.2,0.9 3.9,2.7 1.7,4.1 4.4,7.4 7,10.8 0.4,0.5 0.8,1 1.1,1.6 2.4,4.5 4,6 9,8.3 z"
       id="path1772"
       inkscape:connector-curvature="0" />
    <path
       d="m 70.146868,600.01875 c 1,-3.1 3.1,-4.7 5.8,-5.9 5.5,-2.4 11.2,-3.8 17.1,-4.5 6.6,-0.9 12.900002,0.7 18.900002,3.3 2.3,1 4.2,2.8 6.2,4.4 1,0.8 1.8,1.8 2.9,2.5 2.2,1.6 3,3.6 2.4,6.3 -2,0.8 -3.7,0.6 -5.5,-0.8 -4.3,-3.2 -9.3,-4.5 -14.6,-4.7 -8.300002,-0.3 -16.500002,0.1 -24.600002,1.7 -3.3,0.6 -6,-0.3 -8.6,-2.3 z"
       id="path1774"
       inkscape:connector-curvature="0" />
    <path
       d="m 89.446868,481.81875 c -1.3,-0.3 -2.3,-0.5 -3.3,-0.7 0.1,-1.2 0.3,-2.4 0.4,-3.5 0.2,-2 0.8,-3.9 2.1,-5.3 2.2,-2.5 4.5,-5 7.1,-7.1 2.6,-2.1 5.900002,-2.4 9.100002,-2.1 1.7,0.1 3.5,0.4 5.2,0.9 3.5,1 5.1,3.4 4.7,7 -0.2,2.2 -0.7,4.3 -2,6.1 -2.7,3.6 -5.3,7.3 -8.5,10.4 -3,2.9 -6.900002,3.5 -11.000002,2.4 -2.4,-0.7 -3.6,-2.5 -3.8,-5 0,-1 0,-1.9 0,-3.1 z m 6.3,1.9 c 5.500002,-1.4 11.200002,-8 11.400002,-13.1 -1,-0.2 -2.1,-0.4 -3.2,-0.5 -4.200002,-0.2 -6.700002,1.5 -7.800002,5.6 -0.8,2.6 -1,5.2 -0.4,8 z"
       id="path1776"
       inkscape:connector-curvature="0" />
    <path
       d="m 208.84687,506.61875 c -0.4,6.7 -5.5,9.7 -10.8,10.7 -3,0.6 -6.1,0.3 -9,-0.7 -8.1,-2.7 -11.8,-9.1 -10,-17.4 0.4,-1.9 1.1,-3.7 1.8,-5.5 2.2,-5.4 6.5,-8.4 11.7,-10.3 2.5,-1 5.1,-0.7 7.4,0.7 1.6,1 3,2.2 4.4,3.3 0.3,0.2 0.5,0.9 0.4,1.2 -0.1,0.3 -0.7,0.7 -1.1,0.7 -1.2,-0.1 -2.4,-0.2 -3.6,-0.4 -3.4,-0.7 -6.5,0 -9.4,1.9 -3.4,2.2 -5.5,5.3 -5.6,9.5 0,2.1 0.2,4.3 0.6,6.4 0.7,3 2.9,4.7 5.9,4.8 3,0.1 6.1,-0.2 9.1,-0.6 2.2,-0.3 4.2,-1.5 5.8,-3.2 0.6,-0.7 1.2,-1.5 2.4,-1.1 z"
       id="path1778"
       inkscape:connector-curvature="0" />
    <path
       d="m 84.546868,649.51875 c 2,-1.7 2.7,-1.7 4.3,-0.2 1.6,1.6 3,3.4 4.6,5 2.6,2.6 5.2,5.2 8.100002,7.5 1.6,1.3 3.5,2.3 5.4,3 2.7,1.1 4.4,0 4.8,-2.8 0.8,-5.2 -0.6,-10 -3.7,-14.2 -0.9,-1.1 -1.9,-2.1 -2.9,-3.2 -0.6,-0.6 -1.3,-1.3 -1.7,-2 -1,-1.7 -0.4,-3.2 1.5,-3.6 0.5,-0.1 1.1,-0.2 1.7,-0.3 2.2,-0.5 4.1,0.2 5.6,2 5.2,5.9 7.2,12.9 6.5,20.7 0,0.2 -0.1,0.5 -0.1,0.7 -0.3,6.7 -6.4,9 -11.1,7.8 -3.3,-0.9 -6.3,-2.5 -8.800002,-4.7 -2.3,-2 -4.4,-4.2 -6.4,-6.5 -2.8,-2.9 -5.2,-6 -7.8,-9.2 z"
       id="path1780"
       inkscape:connector-curvature="0" />
    <path
       d="m 179.14687,350.11876 c 0.1,-0.9 0,-1.8 0.3,-2.4 2.3,-4.2 3.7,-8.9 5.1,-13.5 1.5,-4.9 3.6,-9.4 6.6,-13.5 2.4,-3.2 4.4,-6.7 5.1,-10.8 0.4,-2.1 4.1,-3.9 6,-3 0.7,0.3 1.4,1.2 1.5,1.9 0.2,1 0,2.1 -0.3,3 -0.9,2.4 -1.8,4.8 -3,7.1 -3.5,7.1 -7,14.2 -10.5,21.3 -2,4.1 -4.8,7.5 -9.2,9.4 -0.2,0.1 -0.4,0.2 -0.7,0.3 -0.1,0.1 -0.3,0.1 -0.9,0.2 z"
       id="path1782"
       inkscape:connector-curvature="0" />
    <path
       d="m 266.64687,395.41875 c 0.4,8.1 -1,16.1 -1.4,24.2 -0.2,2.8 -0.5,5.6 -0.7,8.4 -0.1,0.8 -0.2,1.6 -0.4,2.4 -0.6,1.8 -1.6,2.5 -3.4,2.4 -1.8,-0.1 -3.1,-1.2 -3.3,-2.9 -0.1,-0.8 -0.1,-1.6 0,-2.4 0.7,-11.1 1.4,-22.2 2.1,-33.3 0,-0.7 0.1,-1.4 0.1,-2.2 0.3,-2.2 1.2,-3.1 3.2,-3.2 2.1,-0.1 3.3,0.9 3.6,3 0.1,1.2 0.1,2.4 0.2,3.6 z"
       id="path1784"
       inkscape:connector-curvature="0" />
    <path
       d="m 62.346868,485.41875 c 0.2,-0.9 0.3,-1.4 0.5,-2 1.8,-6 3.8,-12 5.5,-18.1 1,-3.6 1.6,-7.3 2.4,-11 0.1,-0.4 0.1,-0.8 0.2,-1.2 0.4,-1.4 2,-1.9 2.7,-0.7 1.5,2.3 3.2,4.4 2.4,7.6 -2.3,8.9 -4.5,17.8 -6.7,26.7 -0.4,1.4 -0.6,3 -2.4,3.2 -1.7,0.3 -2.7,-0.9 -3.5,-2.1 -0.4,-0.7 -0.8,-1.7 -1.1,-2.4 z"
       id="path1786"
       inkscape:connector-curvature="0" />
    <path
       d="m 78.646868,485.81875 c -0.3,-0.2 -0.6,-0.4 -0.8,-0.6 -2.1,-1.6 -2.6,-3.5 -1.8,-6.1 1.9,-5.9 3.6,-11.8 5.4,-17.7 0.7,-2.4 1.4,-4.9 2.1,-7.4 0.3,-1 0.6,-2.1 1.8,-2.3 1.2,-0.2 1.9,0.5 2.6,1.4 1.1,1.5 1.6,2.9 1,4.8 -2.3,7.6 -4.5,15.3 -6.6,23.1 -0.6,2.1 -1.7,3.6 -3.7,4.8 z"
       id="path1788"
       inkscape:connector-curvature="0" />
    <path
       d="m 368.84687,319.31876 c -2.2,-1.3 -3.1,-2.9 -3.1,-5.4 0.1,-7.8 0,-15.7 0,-23.6 0,-0.6 0,-1.3 0.1,-1.9 0.4,-2 2.1,-2.6 3.8,-1.3 1.1,0.8 1.7,1.9 1.9,3.2 0.6,4.4 1.5,8.9 1.5,13.4 0,4.1 -0.9,8.3 -1.6,12.4 -0.1,1.5 -1.5,2.3 -2.6,3.2 z"
       id="path1790"
       inkscape:connector-curvature="0" />
    <path
       d="m 223.54687,489.71875 c 2.1,1.3 2.9,3 2.9,5.3 0.1,4.5 0.3,9 0.5,13.4 0.1,1.7 -0.4,3.2 -1.7,4.3 -1.7,1.4 -3.4,0.9 -4,-1.2 -0.2,-0.5 -0.3,-1.1 -0.3,-1.7 -0.2,-4.8 -0.4,-9.6 -0.5,-14.4 -0.2,-2.5 0.7,-4.5 3.1,-5.7 z"
       id="path1792"
       inkscape:connector-curvature="0" />
    <path
       d="m 124.74687,461.91875 c -0.2,-2 -0.5,-3.8 -0.7,-5.7 -0.3,-2.6 -0.1,-5.1 0.8,-7.6 0.8,-2.3 1.6,-4.7 2.6,-7 0.7,-1.7 1.8,-2.2 3.2,-1.9 1.9,0.4 2.7,1.7 2.2,3.8 -1.1,4 -2.2,8 -3.3,12 -0.4,1.5 -0.7,2.9 -1.1,4.4 -0.7,2.8 -0.9,2.9 -3.7,2 z"
       id="path1794"
       inkscape:connector-curvature="0" />
    <path
       d="m 347.84687,306.51876 c -1.9,-1.1 -2.7,-2.9 -3.3,-4.9 -1,-3.7 -1,-3.7 1.3,-6.7 0.7,-0.9 1.6,-1.8 2.5,-2.5 1.6,-1.1 3.3,-1 4.4,0.6 1,1.5 1.8,3.2 2.4,4.9 0.2,0.7 -0.2,2 -0.7,2.6 -1.9,2 -4,3.8 -6.1,5.7 0,0.2 -0.2,0.2 -0.5,0.3 z"
       id="path1796"
       inkscape:connector-curvature="0" />
    <path
       d="m -30.153136,626.61875 c 1.2,-1.7 2.4,-1.8 4.1,-1.2 6.5,2.4 12.4,6 18.3000005,9.5 1.400004,0.8 1.700004,2 1.800004,3.5 -1.400004,0.4 -2.600004,0 -3.700004,-0.5 -6.0000005,-3 -12.0000005,-6 -18.0000005,-9.1 -1,-0.6 -1.7,-1.5 -2.5,-2.2 z"
       id="path1798"
       inkscape:connector-curvature="0" />
    <path
       d="m 188.84687,369.61875 c -0.5,1.7 -0.7,3.5 -1.4,5 -1.3,2.8 -4.2,3.1 -6.2,0.7 -2.2,-2.7 -2.4,-5.6 -1.1,-8.8 0.9,-2 2.7,-3.1 4.5,-2.8 1.9,0.3 3.3,1.8 3.7,3.9 0.1,0.6 0.1,1.3 0.1,1.9 0.2,0 0.3,0 0.4,0.1 z"
       id="path1800"
       inkscape:connector-curvature="0" />
    <path
       d="m 296.14687,378.01875 c 3.4,2.3 3.8,3.1 2.9,6.6 -0.5,2.1 -1.3,4.1 -2.3,6 -1.6,3 -2.8,3.4 -6.1,2.7 -0.5,-0.1 -1.1,-0.3 -1.8,-0.6 2.4,-5 4,-10.1 7.3,-14.7 z"
       id="path1802"
       inkscape:connector-curvature="0" />
    <path
       d="m 219.14687,475.41875 c 1,0.3 1.8,0.4 2.5,0.7 3.3,1.5 3.7,3.7 1.2,6.3 -0.1,0.1 -0.2,0.2 -0.3,0.3 -2.6,2.4 -4.9,2.3 -7.2,-0.5 -1.7,-2 -1.5,-4 0.7,-5.5 0.9,-0.5 2.1,-0.8 3.1,-1.3 z"
       id="path1804"
       inkscape:connector-curvature="0" />
    <path
       d="m 373.04687,333.31876 c 0,2.6 -1.5,4.3 -3.8,4.2 -2.9,0 -5.2,-2.3 -5.3,-5.1 0,-2.1 1.8,-3.9 4,-3.9 3,-0.1 5.1,1.9 5.1,4.8 z"
       id="path1806"
       inkscape:connector-curvature="0" />
    <path
       d="m 129.44687,482.61875 c -1.3,1.1 -2.5,2.2 -3.8,3.2 -2.5,-1.2 -4,-3.1 -5.3,-5.1 0,-0.2 0,-0.4 0.1,-0.6 2.9,-4.3 6,-4.1 8.3,0.5 0.2,0.6 0.4,1.2 0.7,2 z"
       id="path1808"
       inkscape:connector-curvature="0" />
    <path
       d="m -22.253136,795.61875 c 0.8,0.3 1.3,0.5 1.9,0.8 -1.1,3.4 -2.2,6.6 -3.2,9.9 -0.3,0.9 -0.8,1.2 -1.6,0.9 -0.9,-0.2 -1.4,-0.9 -1.1,-1.8 0.4,-1.4 0.9,-2.7 1.5,-4 0.8,-1.9 1.6,-3.7 2.5,-5.8 z"
       id="path1810"
       inkscape:connector-curvature="0" />
    <path
       class="st0"
       d="m 61.046868,920.91875 c -0.9,0.4 -1.4,0.7 -2,0.9 -8.9,2.5 -17.8,5.3 -27,7 -7.1,1.3 -14.3,2.1 -21.5,2.3 -9.59999951,0.3 -19.2000035,0.4 -28.800004,0.3 -6.5,0 -13,-0.4 -19.4,-0.8 -2.3,-0.1 -4.6,-0.6 -6.8,-1.3 -3.6,-1.1 -7.1,-2.5 -10.6,-3.8 -0.9,-0.3 -1.4,-0.9 -1.8,-1.8 -0.8,-1.8 -1.7,-3.7 -2.8,-5.3 -3.7,-5.4 -5.7,-11.3 -7.1,-17.7 -4.5,-21.2 -9.6,-42.3 -15.6,-63.2 -2.6,-9.2 -4.1,-18.6 -5.2,-28.1 -0.9,-8 -1.8,-16.1 -2.4,-24.1 -1.4,-19.4 -1.7,-38.7 -1.1,-58.1 0.3,-8.7 1.9,-17.2 4.4,-25.5 4.9,-16.5 11.3,-32.4 19.7,-47.3 2,-3.5 4.3,-6.9 6.6,-10.3 0.8,-1.1 1.6,-2.4 3.5,-2.9 -0.4,0.9 -0.6,1.5 -0.9,2 -8.2,14.1 -12.8,29.5 -16.3,45.2 -2.8,12.8 -4.5,25.7 -5.5,38.7 -1.4,17.1 -1.2,34.3 -0.7,51.4 0.4,14 1.8,28 5.2,41.6 2.3,9.2 5,18.4 7.5,27.6 1.2,4.4 2.1,8.9 3.3,13.3 4,15 10.4,29.1 17.8,42.7 1.3,2.4 2.7,4.8 4,7.1 0.4,0.7 1,1.3 1.8,2.3 0.5,-2.1 0,-3.5 -0.5,-4.9 -2.4,-6.3 -4.7,-12.6 -7.1,-18.9 -5.6,-14.2 -9.6,-28.8 -12.5,-43.8 -1.8,-9.2 -4.2,-18.3 -6.3,-27.4 -2.4,-10.1 -3.7,-20.3 -4.3,-30.6 -0.9,-15.1 -1.5,-30.3 -1.2,-45.4 0.2,-10.6 1.1,-21.1 2.6,-31.6 1.4,-10 3,-20 5.5,-29.7 3.3,-13 7.9,-25.5 13.6,-37.7 0.7,-1.6 1.7,-3.1 2.8,-4.5 1.7,-2.4 3.5,-4.8 5.2,-7.1 13.1,2 24.4,8.1 35.5000005,15.1 -1.3,2.8 -3.1000005,5.1 -6.2000005,6 -1.7,0.5 -3,1.6 -3.7,3.2 -5.2,12.6 -11.1,24.9 -14.2,38.2 -2.7,11.6 -3.6,23.4 -3.3,35.3 0.2,6.9 0.4,13.8 1.2,20.6 0.5,4.7 1.9,9.4 3,14.1 0.6,2.7 1.4,5.4 2.1,8.1 0.1,0.4 0.1,0.8 0.1,1.3 -3.6,0.6 -7,1.1 -10.5,1.7 -3.3,0.6 -6.6,1.3 -9.9,2 -1,0.2 -2,0.6 -2.9,1 -2.3,1.1 -3.6,2.9 -3.6,5.5 0,2.2 0.1,4.5 0.6,6.7 1.3,5.7 2.7,11.4 4.3,17 1.2,4.5 3.9,8 7.6,10.8 4.9,3.6 9.8,7.2 14.7,10.9 3.9,3 8.2,5 13.2,5.2 1.5,0 2.6,0.5 3.1,2.1 3.0000005,9.6 8.7000045,17.6 15.4000045,25 5.2,5.7 10.5999995,11.2 15.8999995,16.7 13.3,13.7 26.6,27.4 39.9,41.1 0.4,0.4 0.9,1 1.6,1.8 z m -89.200004,-0.7 c -0.4,-1.8 -0.6,-3.5 -1,-5.2 -1.5,-5.7 -3.1,-11.3 -4.5,-16.9 -5,-21.5 -9.7,-43.1 -15.1,-64.6 -4,-16.1 -6.9,-32.4 -8,-49 -1.3,-20.5 -0.6,-41 1.5,-61.5 1.5,-14.6 4.6,-28.9 8.8,-43 3.4,-11.5 7.4,-22.8 12,-34 0.7,-1.7 0.9,-3.3 0,-4.9 -3.2,0.6 -3.3,0.5 -4.8,3.2 -1.8,3.2 -3.7,6.4 -5.3,9.7 -11.7,25.3 -18.3,51.9 -20.3,79.6 -0.7,9.7 -0.8,19.4 -0.9,29.1 -0.3,19.3 1.2,38.4 5.2,57.3 2.3,11 5,22 7.7,33 3.6,14.8 7.4,29.5 13,43.7 3,7.5 6.4,14.8 9.7,22.2 0.2,0.7 0.3,1.7 2,1.3 z"
       id="path1812"
       inkscape:connector-curvature="0"
       style="fill:#ffffff" />
    <path
       class="st0"
       d="m 129.24687,795.21875 c 1.1,-3.3 3.3,-5 6.1,-6.1 6.5,-2.4 13.1,-3.9 20.1,-4 8.9,0 17,2.5 24.4,7.5 1.2,0.8 2.5,1.8 3.4,3 3,3.5 2.3,8.9 -1.4,11.7 -1.3,1 -2.7,1.3 -4.3,1.2 -4.5,-0.4 -8.9,-1 -13.4,-1 -9.5,-0.1 -18.1,-2.9 -26.3,-7.4 -2.7,-1.6 -5.6,-3.2 -8.6,-4.9 z"
       id="path1814"
       inkscape:connector-curvature="0"
       style="fill:#ffffff" />
    <path
       class="st0"
       d="m 109.44687,759.11875 c -0.5,-2.6 -1,-5.3 -1.5,-8.3 0.9,0 1.5,-0.1 2.1,-0.1 7.9,0.2 15.9,0.7 23.8,0.7 18.2,-0.1 36.3,-1.9 54,-6.4 0.5,-0.1 1.1,-0.2 1.7,-0.3 0.3,1.9 0.7,3.7 1,5.5 0.4,2.5 -0.1,3.2 -2.5,3.6 -2.9,0.5 -5.8,1 -8.8,1.4 -20.8,3.2 -41.7,4.3 -62.8,3.7 -2.1,0.2 -4.3,0.2 -7,0.2 z"
       id="path1816"
       inkscape:connector-curvature="0"
       style="fill:#ffffff" />
    <path
       class="st0"
       d="m 69.546868,340.51876 c -4,8.4 -10.5,13.5 -18.1,17.89999 0.8,-5.29999 11.8,-16.19999 18.1,-17.89999 z"
       id="path1818"
       inkscape:connector-curvature="0"
       style="fill:#ffffff" />
    <path
       class="st0"
       d="m 88.346868,347.61876 c 0.1,-0.8 0.1,-1.3 0.3,-1.7 2.7,-6.2 5.5,-12.4 8.2,-18.7 0,-0.1 0.1,-0.1 0.1,-0.2 0.2,-0.7 0.6,-1.2 1.4,-0.9 0.9,0.3 0.7,1 0.6,1.6 -0.1,0.8 -0.3,1.6 -0.5,2.3 -1.8,6.4 -5.3,12 -9.1,17.3 -0.1,0.1 -0.4,0.1 -1,0.3 z"
       id="path1820"
       inkscape:connector-curvature="0"
       style="fill:#ffffff" />
    <path
       class="st0"
       d="m -6.1531315,372.91875 c -1.200004,2.1 -2.200004,4.5 -4.4000045,5.9 -1.2,0.7 -1.5,0.7 -3,-0.3 2.2,-2.2 4.5000005,-4.2 6.7000005,-6.2 0.2,0.2 0.4,0.4 0.700004,0.6 z"
       id="path1822"
       inkscape:connector-curvature="0"
       style="fill:#ffffff" />
    <path
       class="st0"
       d="m 154.04687,347.21876 c 1.5,0.2 3,0.3 4.4,0.5 1.5,0.3 3,0.8 3.6,2.4 0.5,1.6 -0.3,2.8 -1.4,3.8 -1.7,1.6 -3.4,3.19999 -5.2,4.69999 -3,2.4 -5.9,4.9 -9,7.1 -2,1.4 -4.3,2.5 -6.5,3.6 -1.3,0.6 -2.7,0.8 -3.8,-0.3 -1.2,-1.2 -1.8,-2.8 -1.3,-4.4 1.2,-3.6 2.5,-7.1 3.9,-10.59999 0.9,-2.2 2.7,-3.8 4.9,-4.6 3.3,-1.3 6.9,-1.8 10.4,-2.2 z"
       id="path1824"
       inkscape:connector-curvature="0"
       style="fill:#ffffff" />
    <path
       class="st0"
       d="m 244.94687,403.51875 c -0.1,6.7 -2.9,12.4 -6.9,17.6 -2,2.5 -4.3,4.4 -7.4,5.5 -2.4,0.8 -4.1,0.4 -5.7,-1.7 -1.1,-1.5 -1.6,-3.1 -1.7,-4.9 -0.2,-1.9 -0.4,-3.8 -0.6,-5.7 0,-0.3 0.1,-0.6 0.1,-0.9 0.9,-3.2 1.6,-6.5 2.6,-9.7 1.7,-5.2 5.6,-8.6 10.1,-11.5 1.3,-0.8 2.6,-0.5 3.9,0.2 2.7,1.6 4.6,3.7 5.2,6.9 0.1,1.3 0.2,2.7 0.4,4.2 z"
       id="path1826"
       inkscape:connector-curvature="0"
       style="fill:#ffffff" />
    <path
       class="st0"
       d="m 292.74687,428.41875 c -3.2,1.1 -6.3,2.1 -9.4,3.2 0,-3.9 2.7,-6.1 8.9,-7.4 0.1,0.7 0.3,1.3 0.4,2 0,0.7 0,1.3 0.1,2.2 z"
       id="path1828"
       inkscape:connector-curvature="0"
       style="fill:#ffffff" />
    <path
       class="st0"
       d="m 282.34687,509.21875 c -5.4,-0.5 -7,-2.4 -6,-7.6 0.4,-2 0.4,-4.3 1.4,-6 0.9,-1.6 2.9,-2.6 4.4,-3.9 1.3,-1.1 2.5,-2.2 4,-3.1 1.6,-0.9 3.3,-1.7 5,-2.2 5.3,-1.2 9.2,2.6 8.2,8 -0.2,1.1 -0.7,2.3 -1.4,3.3 -3,4.3 -6.7,7.7 -11.4,10.1 -1.3,0.7 -2.8,0.9 -4.2,1.4 z"
       id="path1830"
       inkscape:connector-curvature="0"
       style="fill:#ffffff" />
    <path
       class="st0"
       d="m 49.846868,466.01875 c -0.8,1.2 -1.5,2.3 -2.3,3.5 0.8,0.5 1.4,0.9 2.1,1.3 -0.6,7.3 -7.9,14.7 -15.3,16.4 0.3,-2.3 1.1,-4.4 2,-6.4 1.6,-3.4 3.7,-6.3 6.3,-9.1 1.8,-1.9 3.7,-3.8 5.6,-5.7 0.3,-0.2 0.7,-0.9 1.6,0 z"
       id="path1832"
       inkscape:connector-curvature="0"
       style="fill:#ffffff" />
    <path
       class="st0"
       d="m 255.04687,501.71875 c 0.3,2 0.5,3.5 0.8,5.2 -4,1.1 -7.8,2.2 -11.7,3.2 -0.3,-0.6 -0.5,-1.1 -0.8,-1.8 3.9,-2.1 7.6,-4.3 11.7,-6.6 z"
       id="path1834"
       inkscape:connector-curvature="0"
       style="fill:#ffffff" />
    <path
       class="st0"
       d="m 95.746868,483.71875 c -0.6,-2.8 -0.4,-5.5 0.4,-8 1.1,-4 3.7,-5.8 7.800002,-5.6 1.1,0.1 2.2,0.3 3.2,0.5 -0.2,5.1 -6,11.7 -11.400002,13.1 z"
       id="path1836"
       inkscape:connector-curvature="0"
       style="fill:#ffffff" />
    <path
       d="m -28.153136,920.21875 c -1.7,0.4 -1.8,-0.6 -2.1,-1.3 -3.3,-7.4 -6.8,-14.7 -9.7,-22.2 -5.6,-14.2 -9.4,-28.9 -13,-43.7 -2.7,-11 -5.4,-21.9 -7.7,-33 -4,-18.9 -5.5,-38 -5.2,-57.3 0.1,-9.7 0.2,-19.4 0.9,-29.1 2,-27.7 8.5,-54.4 20.3,-79.6 1.5,-3.3 3.4,-6.5 5.3,-9.7 1.5,-2.6 1.6,-2.6 4.8,-3.2 0.9,1.6 0.7,3.2 0,4.9 -4.5,11.1 -8.6,22.4 -12,34 -4.1,14.1 -7.3,28.4 -8.8,43 -2.1,20.4 -2.7,40.9 -1.5,61.5 1,16.6 3.9,32.9 8,49 5.4,21.4 10,43 15.1,64.6 1.3,5.7 3,11.3 4.5,16.9 0.5,1.7 0.8,3.4 1.1,5.2 z"
       id="path1838"
       inkscape:connector-curvature="0" />
  </g>
</svg>
