<?xml version="1.0" encoding="UTF-8" standalone="no"?>
<!-- Created with Inkscape (http://www.inkscape.org/) -->

<svg
   xmlns:dc="http://purl.org/dc/elements/1.1/"
   xmlns:cc="http://creativecommons.org/ns#"
   xmlns:rdf="http://www.w3.org/1999/02/22-rdf-syntax-ns#"
   xmlns:svg="http://www.w3.org/2000/svg"
   xmlns="http://www.w3.org/2000/svg"
   xmlns:sodipodi="http://sodipodi.sourceforge.net/DTD/sodipodi-0.dtd"
   xmlns:inkscape="http://www.inkscape.org/namespaces/inkscape"
   width="267.23639mm"
   height="160.89542mm"
   viewBox="0 0 946.90059 570.10187"
   id="svg5661"
   version="1.1"
   inkscape:version="0.91 r13725"
   sodipodi:docname="no match.svg">
  <defs
     id="defs5663" />
  <sodipodi:namedview
     id="base"
     pagecolor="#ffffff"
     bordercolor="#666666"
     borderopacity="1.0"
     inkscape:pageopacity="0.0"
     inkscape:pageshadow="2"
     inkscape:zoom="0.35"
     inkscape:cx="2202.736"
     inkscape:cy="-692.09193"
     inkscape:document-units="px"
     inkscape:current-layer="layer1"
     showgrid="false"
     fit-margin-top="0"
     fit-margin-left="0"
     fit-margin-right="0"
     fit-margin-bottom="0"
     inkscape:window-width="1920"
     inkscape:window-height="1056"
     inkscape:window-x="0"
     inkscape:window-y="24"
     inkscape:window-maximized="1" />
  <metadata
     id="metadata5666">
    <rdf:RDF>
      <cc:Work
         rdf:about="">
        <dc:format>image/svg+xml</dc:format>
        <dc:type
           rdf:resource="http://purl.org/dc/dcmitype/StillImage" />
        <dc:title></dc:title>
      </cc:Work>
    </rdf:RDF>
  </metadata>
  <g
     inkscape:label="Layer 1"
     inkscape:groupmode="layer"
     id="layer1"
     transform="translate(1827.736,729.83158)">
    <g
       transform="translate(-1876.6772,-842.42973)"
       id="Layer_1" />
    <g
       transform="translate(-1876.6772,-842.42973)"
       id="Layer_2" />
    <path
       d="m -1536.7772,-264.72973 c 10.5,8.8 13.5,19.6 12.7,31.5 -0.2,3.5 -1,7.2 -2.5,10.3 -4.9,11.1 -9.8,22.1 -15.7,32.7 -2.6,4.5 -7.4,7.8 -11.4,11.5 -0.6,0.5 -2,0.8 -2.9,0.5 -4.3,-1.4 -7.7,-0.4 -10.5,3.3 0.9,-3.9 0.8,-7.7 6.7,-8.3 6.9,-0.7 10.8,-6.8 13.7,-12.1 5.6,-10.2 11,-20.9 14.8,-31.8 2.9,-8.1 2.7,-17.1 -1.3,-25.4 -5.5,-11.9 -5.5,-11.9 -18.4,-11.3 -2.7,0.1 -5.3,0.4 -8.2,0.7 2,7.2 4.7,13.9 5.6,20.8 2.2,15.9 3.4,32.2 -3.6,47.1 -4.9,10.6 -13.7,18.5 -24.3,24.1 -3.3,1.7 -6.8,3.2 -10.1,4.9 -0.7,0.3 -1.9,0.9 -1.9,1.4 0,5.3 -3.7,4.5 -7.2,4.6 -10.1,0.1 -20.3,0.5 -30.4,0.5 -20.6,-0.1 -38.6,-5.8 -52.9,-21.7 -9.2,-10.2 -17.5,-21.3 -21.7,-34.2 -2.4,-7.3 -1.7,-16.3 0,-24 1.6,-7.4 1.5,-9.8 -6.3,-10.6 -5.7,-0.6 -11.6,-0.6 -17.4,-0.9 -15.6,-0.8 -31.2,-1.8 -46.8,-2.5 -11.4,-0.5 -22.8,-0.6 -34.2,-1 -6.3,-0.2 -10.9,-4.5 -10.3,-10.2 1,-10.9 0.9,-21.5 -0.8,-32.5 -2.2,-13.9 -1.9,-28.2 -3.3,-42.2 -1.6,-17.4 5.1,-33.4 7.7,-51.5 1.8,2.9 2.9,4.4 4,6.1 0.4,-0.6 0.9,-0.9 1,-1.4 3.7,-15 16,-23.1 26.1,-33 2.9,-2.8 6.6,-7.1 10.8,-0.7 0.6,1 3.2,0.8 4.8,1.1 10.5,1.8 21,3.7 31.5,5.3 6,0.9 11.9,0.1 17.2,-3.2 5.1,-3.2 10.2,-6.2 15.3,-9.3 1.6,4.1 0.9,6.8 -3.5,9.5 -2.9,1.8 -5.7,3.6 -8.6,5.4 -9.9,6.2 -20.8,4.3 -31.2,2.5 -8.6,-1.5 -17.6,-3.3 -25.1,-7.4 -6.7,-3.7 -9.1,0 -12.7,3.3 -4.5,4.1 -8.8,8.4 -14.4,13.7 11.8,2.6 21.7,5.4 31.8,6.7 16.9,2.2 33.8,2.8 50.3,-4 13.1,-5.3 23.4,-20.3 24.6,-33.9 2.3,-27.8 -12.6,-46.4 -34,-60.3 -9.8,-6.3 -22.1,-8.9 -34.3,-8.2 -8.9,0.5 -17.9,1.4 -26.8,2.6 -3.3,0.4 -6.2,2.2 -9.5,3.4 0.2,1.5 0.4,3.1 0.7,5.6 -1.9,-0.9 -3.1,-1.4 -4.1,-2 -4.7,-3.2 -7.4,-9 -14.2,-9.7 -1.6,-0.2 -4.2,-5 -4,-7.5 1.4,-15.9 0,-31.5 -1.8,-47.3 -1.9,-13.3 -2.8,-26.7 -3.9,-40.1 -0.6,-6.8 3.5,-11.7 7.3,-16.2 3.5,-4.1 7.7,-1.5 10,1 3,-1.1 5.4,-1.8 7.6,-3 2.5,-1.3 4.7,-2.9 6.9,-4.6 4,-3.1 7.9,-6.5 11.9,-9.5 4.2,-3.1 8.8,-4.50001 14.2,-4.40001 9.7,0.2 19.5,-0.6 29.2,-0.6 11.6,0 23.1,0.5 34.7,0.8 0.6,0 1.3,-0.1 2,-0.1 -2.6,-7.4 -5.7,-14.3 -7.3,-21.7 -2.5,-11.6 -5,-23.4 1.1,-34.8 5.6,-10.4 14,-18.3 23.2,-25.5 16,-12.5 34.2,-17.3 54.3,-17.4 13.6,-0.1 26.1,3.9 38.6,8.3 3,1 6.2,1.5 9.4,2 24.8,4 40.4,19 50.7,41.2 4.8,10.4 5.6,21.3 5.6,32.4 0,3 -1.9,5.8 -2.7,8.9 -0.6,2.7 -0.8,5.4 -1.3,9.10001 -1.9,-4.40001 -3.8,-7.60001 -3.1,-12.40001 4.7,-32.2 -13.1,-65.8 -44.4,-74.3 -0.8,-0.2 -1.6,-0.4 -3,0.3 2.5,1.9 5,3.8 7.5,5.8 11.1,9.2 21.4,19 26.7,32.9 3.4,8.8 3.5,18.1 -0.8,26.2 -5.9,11.2 -13.4,21.60001 -20.4,32.20001 -1.7,2.7 -4,5 -5.6,8 11,-7.7 22,-15.4 33.6,-23.40001 1.4,3.00001 2.5,5.20001 4.1,8.70001 20.2,-1.3 40.8,-2.7 61.4,-4.1 14.1,-1 28.2,-2.40001 42.2,-3.30001 2.2,-0.1 4.3,1.60001 6.5,2.60001 -1.1,1.6 -2.4,3.2 -3.5,4.8 -0.4,0.6 -1,1.5 -0.9,2.2 2.4,15.4 -2.4,29.9 -5.4,44.6 -2.9,14.1 -4.7,28.5 -7.1,42.8 -0.3,2.2 -0.9,4.2 -1.4,6.6 1.9,0.6 3.7,0.9 5,1.8 0.6,0.4 0.6,2.6 0.1,3.3 -1.5,2 -3.4,3.9 -5.4,5.4 -7.8,5.7 -15.6,11.4 -23.7,16.6 -1.2,0.8 -3.9,-0.7 -5.8,-1.1 0.8,-1.7 1.2,-4.1 2.7,-5.2 4.8,-4 9.8,-7.9 15.1,-11.3 4.9,-3.2 5.4,-7.9 5.3,-12.8 0,-20.1 4.2,-39.4 9.8,-58.6 3.2,-10.9 5.1,-21.9 8,-34.4 -14.8,10.1 -28.3,19.3 -41.3,28.1 -0.9,11 -2.3,21.7 -2.7,32.5 -0.4,10.9 -0.1,21.7 0,32.6 0,2.8 0.6,5.5 0.3,8.2 -0.1,1.4 -1.4,3.2 -2.7,3.8 -0.9,0.4 -3.4,-0.6 -3.8,-1.6 -1.9,-4.8 -4.8,-9.8 -4.9,-14.7 -0.2,-12.9 0.7,-25.8 1.7,-38.7 0.4,-4.8 2.5,-9.4 3.4,-14.4 -3,4.1 -6.7,3.3 -10.9,2.9 -8.9,-0.9 -18,-1.1 -27,-1.2 -17.2,-0.2 -34.5,-0.1 -51.7,-0.4 -6.2,-0.1 -12.6,-0.9 -18.7,-2.2 -3.3,-0.6 -5,-5 -9.2,-4.4 0.1,-1.2 -0.2,-3 0.4,-3.5 12.7,-9.4 20.6,-22.9 30.1,-35.00001 4.5,-5.7 8.3,-12.1 11.5,-18.6 5,-10.2 4.3,-20.5 -2.8,-29.8 -14.4,-18.8 -32.2,-33.4 -56.3,-36.9 -24.8,-3.5 -47.9,0.9 -66.9,19.1 -3,2.9 -5.9,5.6 -8.6,8.7 -10.3,11.7 -9.5,25.2 -6.6,39.1 3,13.7 10.1,25.20001 19,35.60001 1.8,2.2 3.5,4.4 6.2,7.8 -2.7,-0.3 -4,-0.1 -4.7,-0.7 -5.4,-4.1 -10.6,-8.3 -16.1,-12.5 -1.1,-0.9 -2.4,-2.4 -3.6,-2.5 -22.9,-0.5 -45.9,-0.7 -68.9,-1.3 -5.3,-0.1 -9.5,1.3 -13.5,4.6 -3.1,2.6 -6.7,4.6 -10.9,7.5 1.9,0.3 3.1,0.6 4.3,0.6 21.6,-0.1 43.3,-0.4 64.9,-0.2 7.8,0.1 15.8,0.7 23.2,2.4 4.7,1 8.9,4.6 13.3,7.1 -0.2,0.5 -0.4,1 -0.7,1.5 -0.7,0.2 -1.6,0.6 -2.3,0.4 -13,-4.4 -26.3,-1.7 -39.5,-1.9 -19,-0.2 -38.2,0.6 -57.2,0.6 -7.2,0 -14.2,-1 -22.8,-1.6 0,3.2 -0.7,6.5 0.1,9.3 4.7,17.3 8.2,34.6 7.8,52.7 -0.2,7.5 0,15 0,21.3 9.3,-0.6 18.4,-2.7 27.1,-1.4 16.1,2.4 32.7,3.9 47.4,12.1 5.8,3.2 11.9,5.8 17.8,8.8 1,0.5 2.4,1.1 2.8,2 5.8,10.4 11,20.9 16.1,31.4 0.1,0.2 0,0.6 -0.1,1.3 -1.9,-1.4 -3.7,-2.7 -5.4,-3.9 2.8,6.6 5.9,12.7 7.9,19.3 3.5,12.1 3.4,24.2 -0.9,36.5 -3.7,10.5 -11.4,17.6 -18.9,24.9 -2.7,2.6 -7.1,3.2 -10.6,4.7 -8.2,3.5 -16.6,5.2 -25.7,5.6 -18.6,0.8 -36.7,-1.9 -54.4,-7.2 -3.2,-0.9 -6,-2.9 -10.3,-4.9 9.8,39.1 5.3,78.2 8.5,118 5.5,0 11.3,-0.1 17,0 15.7,0.4 31.2,1.3 46.9,1.1 13.4,-0.1 26.8,-1.5 40.2,-2 3.3,-0.1 6.8,0.8 9.9,1.8 1.6,0.6 2.8,2.6 4.5,4.3 -5.4,0.8 -9.7,1.5 -15.2,2.4 3,2.2 4.7,3.4 7,5 0.5,-1.2 1.1,-2.6 1.6,-3.9 0.7,0.3 1.4,0.6 2.2,0.8 1.3,7.1 2.9,14 4,21.1 1.3,8.2 2,16.5 3.5,24.7 4.1,22.2 25.7,38.4 48.7,39.2 7.1,0.2 14,2.3 21,3.2 2.9,0.4 6,0.9 8.5,0 22.8,-8.5 39.8,-22.2 37.7,-51.9 -0.7,-10 -2.5,-19.6 -5.8,-28.9 -0.6,-1.6 -0.5,-3.6 -0.2,-5.3 0.3,-1.8 1.4,-3.5 1.8,-5.2 1.7,-8.4 6.6,-10.5 15.2,-10.2 17.2,0.5 34.4,-0.7 51.6,-1.2 0.6,0 1.3,-0.2 2.9,-0.5 0,-40.3 0,-80.6 0,-122.1 -8.1,3 -15,6.5 -22.3,7.9 -14.7,3 -29.8,4.6 -43.6,-3.6 -3.5,-2 -6.3,-5.6 -8.7,-9.1 -5.5,-8.4 -8.1,-17.7 -8.2,-27.9 -0.1,-15.3 1,-30.3 5.4,-44.9 5,-16.8 15.6,-27.6 33.1,-31.7 14.1,-3.4 28.1,-3 41.8,0.8 5.6,1.5 10.8,5.5 15.9,8.7 1,0.6 1.3,2.7 1.9,4 -1.6,0.4 -3.6,1.4 -5,0.9 -4,-1.2 -7.8,-3.5 -11.9,-4.5 -16.2,-4 -32.3,-4.7 -47.9,2.6 -7.3,3.4 -12.2,8.9 -14.7,16.2 -7.3,20.4 -10.3,41.3 -4.2,62.6 3.1,10.6 10.9,16.8 21.9,16.4 11.4,-0.5 22.6,-2.2 34,-3.2 4,-0.4 8,-0.5 12.7,-0.7 0.6,-0.4 2,-1.2 3.5,-2.2 0.6,1.5 1.4,3 1.7,4.5 1.5,9.4 3.1,18.7 4.3,28.3 0.7,5.9 1.2,11.9 1.3,17.8 0.2,26.4 0.1,52.8 0.2,79.3 0,1.6 0.1,3.3 0.7,5.2 4.2,-5.7 12.4,-7.9 13.8,-15.8 0.5,-2.9 -0.8,-5.9 -0.8,-8.9 0.2,-32.4 0.6,-64.7 0.9,-97.1 0,-6.8 -0.1,-13.6 -0.8,-20.4 -0.3,-2.9 -2,-5.7 -3.8,-8.2 -0.5,-0.8 -3.4,-1.1 -4.2,-0.4 -7.4,5.2 -14.5,10.9 -21.9,16.3 -0.7,0.5 -2.2,0.2 -4,-0.7 3.6,-4.2 7.2,-8.3 10,-11.7 -10.4,0.8 -21.8,2.3 -33.2,2.5 -16.4,0.2 -22.4,-10.2 -23.7,-23.2 -1.3,-14.3 2.3,-28 12.3,-38.7 6.3,-6.8 14,-12.2 21.1,-18.3 0.5,0.5 0.9,1 1.4,1.5 -3,2.8 -5.8,5.5 -8.8,8.2 -9.5,8.6 -17.2,18 -18.2,31.7 -0.5,7.1 -1.6,13.7 1.1,20.6 2.8,6.8 6.8,10.2 14.3,10 8.5,-0.3 16.9,-1.3 25.4,-2.4 5,-0.6 9.9,-1.9 15,-2.5 4.2,-0.4 8.6,-0.2 12.8,0.2 6.1,0.6 8.4,6.1 9.4,10.6 1.9,8.5 3,17.4 3,26.2 0.1,26.6 -0.6,53.2 -0.8,79.8 -0.1,8.3 0.5,16.7 0.1,25 -0.1,3 -1.6,6.9 -3.8,8.7 -6.8,5.7 -14.1,10.8 -21.4,15.8 -0.9,0.6 -2.7,0.5 -3.9,0.2 -13.2,-3.9 -26.7,-1.4 -41.4,-1 z m 86.7,-356 c -0.2,-0.4 -0.5,-0.8 -0.7,-1.2 -7.6,0.9 -15.2,2 -22.7,2.6 -13.4,0.8 -26.8,1.4 -40.2,1.5 -6.2,0 -12.4,-1.5 -18.6,-2 -7.4,-0.6 -14.1,-0.6 -20.5,5.1 -7.4,6.6 -16.1,11.7 -25.2,18.2 6,0 10.8,0.1 15.5,0 26.6,-1 53.2,-1.7 81.1,5.2 -0.8,-3.5 -0.9,-5.5 -1.8,-7.1 -1.5,-2.7 -0.7,-3.6 1.9,-4.3 12,-3.2 20.7,-12.3 31.2,-18 z m -330.9,116 c 0,-0.2 0,-0.4 0,-0.6 -6.1,1.5 -12.3,2.9 -18.3,4.7 -1.1,0.3 -1.6,2.6 -2.8,4.6 8,-3.3 14.5,-6.1 21.1,-8.7 z"
       id="path1982"
       inkscape:connector-curvature="0" />
    <path
       d="m -1028.7772,-244.52973 c 0.3,-4.8 -1.6,-5.1 -6.6,-3.9 -7.4,1.7 -15.2,1.7 -22.7,2.7 -14.8,1.8 -53.8,0.5 -67.4,-2.4 -3,-8.5 -5,-17.4 -9.2,-25.2 -3.2,-5.9 -4.3,-11.7 -5.5,-18 -1.1,-5.9 -4.3,-11.9 -8.1,-16.7 -8.4,-10.8 -19,-18.3 -33.1,-20.3 -4,-0.6 -5.7,1.1 -6.3,5.2 -1.9,12.3 -4.3,24.6 -6.7,37.3 -4.8,-2.8 -5.2,-7.1 -4.3,-11.2 1.8,-8.7 4.4,-17.3 6.8,-26 0.4,-1.4 0.7,-2.9 1,-4.4 -10.3,0 -16.1,4.1 -20.1,13.5 -6.1,14.4 -5.4,29.2 -2.3,44.1 0.3,1.2 0.6,2.5 1.3,5.3 5.6,-5 10.8,-9.4 15.6,-13.6 1.9,9.1 -8.5,21.8 -18.2,20.8 -3.5,-0.4 -7.1,-1.2 -10.1,-2.7 -5.8,-2.7 -11.6,-1.5 -17.5,-0.8 -9.9,1.1 -20,1.7 -30,2.2 -20.8,0.8 -41.6,2.2 -62.4,1.7 -8.8,-0.2 -17.5,-4.2 -26.2,-6.9 -2.7,-0.8 -4.2,-2.8 -3.2,-6.5 0.6,-2.3 -1.8,-5.1 -1.8,-7.7 0.1,-7.8 0.9,-15.6 1.3,-23.4 0.4,-9 0.9,-18 0.9,-27 -0.1,-18 -0.6,-36 -0.8,-54.1 0,-5.2 0.2,-10.5 0.8,-15.8 0.6,-5 1.8,-9.8 2.9,-15.1 1.8,0.5 3.1,0.9 4.4,1.3 0.4,-0.3 0.9,-0.6 1.1,-1 6.6,-8.7 12.5,-17.8 21.8,-24 3.6,-2.4 6.6,-4.1 11.1,-1.2 2.5,1.5 6.3,1.5 9.4,1.1 12.4,-1.5 23.8,-5.9 33.9,-13.2 1.7,-1.2 2.5,-4.1 4.2,-7.1 1.2,2.2 2,3.7 3.2,5.6 -0.3,-4 -0.3,-7.9 -0.8,-11.6 -1.1,-8.5 -4.5,-15.1 -13.3,-18.8 -12,-5.1 -23.6,-11.2 -37,-8.7 -5.1,0.9 -10.4,3.1 -14.8,5.8 -8.5,5.5 -14.1,4.7 -20,-3.6 -5.1,-7.3 -4.6,-15.6 -4.3,-23.6 0.6,-18.3 2.3,-36.7 3.1,-55.1 0.3,-7.3 -0.5,-14.5 -0.7,-21.8 0,-1.4 0.7,-3 1.5,-5.7 1.8,3.1 2.9,4.9 3.9,6.8 0.5,-0.1 1,-0.3 1.4,-0.4 -0.6,-2 -1.4,-4.1 -1.6,-6.1 -0.2,-1.5 0,-3.9 0.9,-4.5 7.6,-5.5 15.5,-10.8 23.1,-16.2 4.5,-3.3 8.8,-6.9 13.4,-10 3.4,-2.4 6.7,-2.7 11.3,-1.4 5.8,1.6 12.5,0.4 18.7,0.2 22.8,-0.8 45.6,-1.4 68.3,2 14.2,2.2 28.8,1.6 43.2,2.8 2.7,0.2 6.1,1.4 7.6,3.5 1.9,2.7 -0.2,5.4 -2.5,8 -1.8,2 -3.2,5.1 -3.6,7.9 -1,6.2 -1.4,12.5 -2,18.7 -1.3,13.9 4.2,25.8 11.8,36.7 7.5,10.6 19,10.1 30.2,8 8.6,-1.6 9.1,-2.7 9.5,-11.6 0.5,-11.7 1.7,-23.4 -3.5,-34.7 -1.6,-3.6 3.5,-9.7 8.4,-12.3 8,-4.1 15.6,-8.8 23.4,-13.1 2.5,-1.3 5.2,-3 7.8,-3 25.9,0.5 51.8,0.9 77.7,2.2 10.89997,0.5 21.49997,3.1 32.39997,4.2 5.2,0.5 10.5,-0.2 15.8,-0.2 4,-0.1 5.4,1.9 5,5.8 -0.5,4.3 -1,8.7 -1.1,13 -0.3,15.4 -0.3,30.6 -0.9,46 -0.2,6.2 -1.8,12.4 -3,19.1 3.3,-0.7 6.1,-1.9 9,-1.9 15.6,-0.1 30.4,3.2 43.7,11.4 11.2,6.9 17.2,18.1 22.4,29.7 5.1,11.3 7.5,23.1 5.8,35.6 -1.5,11.6 -8.3,20 -17.9,25.3 -13.3,7.4 -27,14.5 -41.5,19.1 -9.4,3 -17.1,9.4 -26.9,10.9 -7.1,1.1 -14,2.5 -21.3,3.8 0.8,4.3 1.6,9.1 2.8,13.8 5.1,21.9 4.4,44.2 5,66.5 0.2,8.8 -0.2,17.7 -1.4,26.4 -1,7.6 -4.6,14.3 -11.5,18.6 -6.79997,4.2 -13.49997,8.5 -20.49997,12.5 -2.8,1.5 -6,2 -8.9,3.4 -1.7,0.8 -3.4,2.4 -5.3,4 z m 36.59997,-255 c -1.4,0.4 -3,0.9 -4.4,1 -6.69997,0.9 -12.89997,-3 -13.19997,-9.3 -0.9,-21.4 -1.1,-42.8 -1.5,-64.3 0,-0.8 0.6,-1.9 1.2,-2.6 2.7,-2.8 1.5,-5.2 -0.2,-7.8 -1,-1.4 -1.9,-2.9 -3.3,-4.9 -34,0 -68.6,0 -104,0 3.4,8.8 4.8,17.2 3.4,26.2 -2.2,13.8 -0.3,28.2 -8.6,40.9 -5.5,8.5 -12.3,15.9 -22.3,17.1 -14,1.8 -28.3,0.9 -41.9,-3.6 -19.1,-6.2 -28.6,-19 -29.8,-37.9 -1,-15.8 -0.7,-31.9 8.4,-47 -3.3,0 -5.7,0 -8.2,0 -26.2,-0.2 -52.4,-0.3 -78.7,-0.6 -11.8,-0.1 -23.6,-0.5 -35.3,-0.5 -1.4,0 -3.9,1.6 -4.2,2.9 -5.6,25.4 -6.1,51.3 -7.4,77.2 -0.1,1.9 0.8,4 1.2,6 11.1,-5.1 22,-5.3 32.8,-4.3 12.9,1.3 24,8.3 35.4,13.8 8.4,4 15.6,9.5 20.3,17.4 5.4,9.1 10.3,19 1.6,29.1 -3.1,3.5 -6.8,6.5 -10.1,9.6 -0.7,0.7 -1.9,1 -2.3,1.8 -2.5,5 -3.9,10.8 -7.2,15.2 -11.1,14.8 -26.5,23.2 -44.4,26.7 -8.9,1.7 -18.2,1.9 -26.3,2.8 1.6,19 3.4,38.6 4.9,58.3 1.5,19.8 2.7,39.6 4.1,59.7 2.5,0 4.1,0.1 5.8,0 22.6,-1.4 45.2,-3 67.8,-4.3 11.6,-0.7 23.2,-1.1 33.5,-1.6 1,-10 1,-20.5 3.3,-30.4 3.4,-14.8 11.4,-23.3 28.8,-25.8 14.1,-2 26.5,4.6 39.8,5.7 2.4,0.2 4.7,0.9 6.9,1.9 13.2,6.2 21.7,17.1 26.4,30.4 3.9,11.1 6,22.8 9.2,35.4 27.6,2.8 56.6,3.4 85.2,-5.4 -0.7,-3.8 -1.5,-7.3 -1.8,-10.8 -1.2,-13.9 -2.8,-27.8 -3.4,-41.7 -0.7,-15.8 -0.8,-31.6 -0.6,-47.4 0.1,-4.7 2.2,-9.5 3.7,-14.1 0.4,-1.1 2.5,-2.3 3.7,-2.4 0.8,0 2.3,2 2.4,3.2 0.2,2.5 -0.7,5 -0.6,7.6 0.7,22.4 1.2,45 2.6,67.4 0.9,15.8 3.2,31.5 4.8,47.2 5,-3.3 10.9,-7.1 16.69997,-11 1,-0.7 1.9,-1.7 2.6,-2.9 4.4,-6.9 5.1,-14.6 4.9,-22.5 -0.6,-23.1 -1.1,-46.3 -2,-69.4 -0.3,-7.7 -1.8,-15.4 -2.8,-23 -3.9,-0.4 -7.29997,-0.5 -10.59997,-1 -7.7,-1.1 -13.6,-5.1 -17.4,-11.8 -0.7,-1.3 -0.6,-3.8 0.1,-5 0.5,-0.8 3.2,-0.8 4.6,-0.4 2.4,0.8 4.4,2.8 6.9,3.4 17.09997,4.3 34.29997,4.3 50.39997,-3.2 13.8,-6.5 21.8,-17.4 21.3,-33.6 -0.4,-12.1 -4.4,-22.6 -11.3,-32.4 -5.7,-8.1 -13.6,-13.3 -22.9,-16.3 -6.2,-1.9 -12.7,-3.3 -19.7,-4.9 1.4,-2 2,-2.8 2.7,-3.6 2.4,-0.3 4.7,-0.5 7.1,-0.9 7.1,-1.1 13.6,-0.9 20.7,2 22.8,9.6 36.8,40.2 34,62.8 -0.9,7.1 -3.9,13.9 -5.7,20.5 9.2,-4.9 19.6,-9.9 29.4,-15.8 12.2,-7.2 18.2,-17.9 15.6,-32.2 -4.7,-24.4 -14.2,-44.5 -41.4,-51.8 -13.1,-3.5 -25,-3.2 -36.8,2.3 -8.8,3.8 -16.3,8.6 -23.9,12.9 z m 28.3,-97.9 c -0.5,-0.1 -0.9,-0.2 -1.1,-0.1 -12.1,5.7 -24.2,11.6 -36.19997,17.5 -0.9,0.5 -1.9,2 -1.9,3.1 0.2,8 0.6,15.9 1.1,23.9 1,16.6 2.19997,33.1 3.29997,51.1 6.7,-3.8 12.2,-6.6 17.1,-10 5.8,-4.2 13.1,-7.1 13.1,-16.6 0,-6.7 2.6,-13.4 3,-20.2 0.8,-16.2 1.1,-32.3 1.6,-48.7 z m -215.99997,-2.7 c -3.3,3.1 -6.3,6.2 -9.6,9.1 -4.2,3.7 -8.7,7 -12.9,10.6 -1.3,1.1 -3.3,2.7 -3.4,4.1 -0.8,9.8 -1.9,19.7 -1.4,29.4 0.8,16.8 10.2,27.8 26.7,30.9 9.4,1.8 19.1,2 28.8,2.3 9.8,0.2 18.5,-7.5 20.7,-17.2 -6.2,0 -12.5,0.3 -18.7,-0.1 -8.5,-0.5 -15.5,-4.7 -20.1,-11.6 -8.2,-12.3 -13.9,-25.7 -12.5,-41.1 0.6,-5.4 1.5,-10.8 2.4,-16.4 z m -21.3,7.4 c 6.7,-6.5 13.9,-13.5 21.1,-20.6 -10.3,-0.7 -20.3,-1.3 -30.2,-2.3 -11.5,-1.1 -22.9,-3.2 -34.5,-3.7 -18,-0.8 -36,-0.7 -54.1,-1 -2.9,0 -6.5,0.9 -8.5,-0.4 -3.8,-2.4 -5.9,-0.4 -8.6,1.3 -1.8,1.2 -3.6,2.6 -5.4,3.9 -5.1,3.7 -10.2,7.5 -16.2,11.8 2,0.5 3.4,1 4.7,1.1 23.3,0.5 46.7,0.7 70,1.5 15.2,0.5 30.3,1.2 45.4,2.8 5.3,0.5 10,0.8 14.6,-1.9 0.9,-0.5 2,-0.7 3.7,-1.2 -0.9,3.6 -1.5,6.6 -2,8.7 z m -151.9,182 c 1.9,0.7 3.1,1.3 4.4,1.6 22.6,5.4 43.2,0.3 61.6,-13.3 7.9,-5.8 12.7,-14 14.2,-23.1 -5.4,3.3 -10.8,7.4 -16.7,9.9 -10.9,4.5 -22.2,7.9 -34.1,4.3 -3.8,-1.1 -6.6,-0.5 -9.3,2 -6.5,6.1 -12.9,11.9 -20.1,18.6 z m 348.6,-176.7 c 7.69997,-4 14.99997,-7.9 22.89997,-12.1 -2.8,-0.8 -5,-1.7 -7.3,-2.3 -17.79997,-4 -35.99997,-4.3 -54.29997,-5.3 -11.1,-0.6 -22.1,-2.6 -33.2,-4 -2.6,-0.3 -5.7,-2.5 -7.5,-1.5 -9.1,4.6 -17.9,10 -26.4,14.8 9.4,0 19.1,0.1 29,0 6.5,-0.1 12.9,-0.6 19.4,-0.7 14.7,-0.2 29.6,-1.4 43.5,5.5 2,1 4.8,1.7 6.9,1.2 4,-0.9 6.1,0.4 7,4.4 z m -348.3,281.7 c -1.5,12.2 -3,23.1 -4.3,34.4 1.6,0.1 3.6,0.2 6.5,0.3 -0.8,-11.4 -1.5,-22.5 -2.2,-34.7 z"
       id="path1984"
       inkscape:connector-curvature="0" />
    <path
       d="m -1473.3772,-181.42973 c -6,-4.7 -6.6,-6 -2.9,-11.2 6.9,-9.6 14.1,-19 21.3,-28.5 0.7,-0.9 2.2,-1.1 3.2,-1.7 0.4,1.4 1.6,3.3 1.1,4.3 -2.3,5.1 -4.6,10.2 -7.7,14.8 -4.2,6.2 -9.1,12.1 -13.5,18.1 -0.7,1.1 -0.9,2.4 -1.5,4.2 z"
       id="path1986"
       inkscape:connector-curvature="0" />
    <path
       d="m -1378.9772,-190.42973 c -4.7,-0.9 -6.7,-3.1 -7.9,-7.4 -2.5,-8.6 -5.9,-17 -14.7,-21.6 -0.6,-0.3 -1.2,-1.7 -1,-2.6 0.1,-0.7 1.2,-1.9 1.9,-1.8 2.2,0 4.7,-0.2 6.3,0.9 8.3,5.4 13.9,13 15.9,22.7 0.6,3.2 -0.2,6.5 -0.5,9.8 z"
       id="path1988"
       inkscape:connector-curvature="0" />
    <path
       d="m -1359.9772,-661.52974 c -1.7,-4.1 -3.2,-7.9 -0.7,-12.7 3.2,-6.3 5.4,-13.1 8.4,-19.5 0.7,-1.5 3.1,-2.3 4.7,-3.4 1,1.5 2.9,3.2 2.8,4.7 -0.7,8.8 -3.4,16.7 -9.9,23.1 -1.9,1.9 -2.6,5.1 -3.9,7.8 -0.4,0.1 -0.9,0.1 -1.4,0 z"
       id="path1990"
       inkscape:connector-curvature="0" />
    <path
       d="m -1421.5772,-203.32973 c 0,2.9 0.2,5.7 -0.1,8.6 -0.1,1.1 -1,2.6 -2,3.1 -0.7,0.4 -2.6,-0.1 -3.1,-0.7 -1.4,-2 -3.1,-4.3 -3.4,-6.6 -0.9,-6.9 -1.4,-13.8 -1.8,-20.8 -0.1,-1.3 1.3,-3.7 2.3,-3.8 1.4,-0.1 3.9,0.9 4.3,2 1.9,5.9 3.4,12 4.9,18 -0.4,0.1 -0.8,0.2 -1.1,0.2 z"
       id="path1992"
       inkscape:connector-curvature="0" />
    <path
       d="m -1415.9772,-657.92974 c -6.5,-2.8 -26,-31.1 -25.1,-35.8 6.1,1.1 20.8,22 25.1,35.8 z"
       id="path1994"
       inkscape:connector-curvature="0" />
    <path
       d="m -1391.4772,-662.22974 c -0.8,-7.5 -1.7,-14.4 -2.3,-21.3 -0.1,-1.6 0.4,-4.5 1.3,-4.9 2.7,-1.1 3.8,0.9 4.1,3.5 0.6,6.5 1.7,12.9 1.8,19.4 0.3,5.1 -0.8,5.4 -4.9,3.3 z"
       id="path1996"
       inkscape:connector-curvature="0" />
    <path
       class="st0"
       d="m -1450.0772,-620.72973 c -10.6,5.7 -19.3,14.8 -31.4,18 -2.7,0.7 -3.5,1.6 -1.9,4.3 0.9,1.5 0.9,3.6 1.8,7.1 -27.9,-7 -54.5,-6.2 -81.1,-5.2 -4.7,0.2 -9.4,0 -15.5,0 9.2,-6.5 17.9,-11.6 25.2,-18.2 6.3,-5.7 13.2,-5.7 20.5,-5.1 6.2,0.5 12.4,2.2 18.6,2 13.4,-0.1 26.8,-0.7 40.2,-1.5 7.6,-0.4 15.2,-1.6 22.7,-2.6 0.5,0.3 0.7,0.7 0.9,1.2 z"
       id="path1998"
       inkscape:connector-curvature="0"
       style="fill:#ffffff" />
    <path
       class="st0"
       d="m -1780.9772,-504.72973 c -6.6,2.8 -13.1,5.4 -21.2,8.8 1.2,-2.2 1.7,-4.3 2.8,-4.6 6,-1.8 12.2,-3.2 18.3,-4.7 0.1,0.1 0.1,0.3 0.1,0.5 z"
       id="path2000"
       inkscape:connector-curvature="0"
       style="fill:#ffffff" />
    <path
       class="st0"
       d="m -991.97723,-499.32973 c -0.6,0.8 -1.1,1.5 -2.7,3.6 7,1.7 13.4,3 19.7,4.9 9.3,3 17.3,8.2 22.9,16.3 6.8,9.6 10.9,20.3 11.3,32.4 0.6,16.2 -7.4,27.1 -21.3,33.6 -16.2,7.5 -33.3,7.5 -50.39997,3.2 -2.5,-0.6 -4.5,-2.6 -6.9,-3.4 -1.4,-0.5 -4.1,-0.4 -4.6,0.4 -0.8,1.2 -0.9,3.7 -0.1,5 3.9,6.7 9.7,10.8 17.4,11.8 3.4,0.5 6.79997,0.7 10.59997,1 0.9,7.7 2.5,15.4 2.8,23 0.9,23.1 1.4,46.3 2,69.4 0.2,7.9 -0.6,15.6 -4.9,22.5 -0.7,1.1 -1.5,2.2 -2.6,2.9 -5.69997,3.9 -11.59997,7.7 -16.69997,11 -1.6,-15.7 -3.8,-31.3 -4.8,-47.2 -1.3,-22.4 -1.8,-45 -2.6,-67.4 -0.1,-2.6 0.8,-5.1 0.6,-7.6 -0.1,-1.2 -1.5,-3.2 -2.4,-3.2 -1.3,0 -3.4,1.2 -3.7,2.4 -1.5,4.6 -3.6,9.4 -3.7,14.1 -0.3,15.8 -0.1,31.6 0.6,47.4 0.6,13.9 2,27.8 3.4,41.7 0.3,3.6 1.2,7.1 1.8,10.8 -28.6,8.8 -57.4,8.2 -85.2,5.4 -3.2,-12.6 -5.3,-24.4 -9.2,-35.4 -4.7,-13.3 -13.1,-24.2 -26.4,-30.4 -2.2,-1 -4.5,-1.7 -6.9,-1.9 -13.4,-1.1 -25.7,-7.8 -39.8,-5.7 -17.4,2.6 -25.4,11.1 -28.8,25.8 -2.3,9.9 -2.3,20.4 -3.3,30.4 -10.2,0.5 -21.8,0.9 -33.5,1.6 -22.6,1.3 -45.2,2.9 -67.8,4.3 -1.6,0.1 -3.4,0 -5.8,0 -1.3,-20.1 -2.6,-39.8 -4.1,-59.7 -1.5,-19.6 -3.3,-39.1 -4.9,-58.3 8.1,-0.8 17.3,-1 26.3,-2.8 17.9,-3.5 33.4,-11.9 44.4,-26.7 3.3,-4.4 4.7,-10.1 7.2,-15.2 0.4,-0.8 1.5,-1.1 2.3,-1.8 3.4,-3.2 7.2,-6.1 10.1,-9.6 8.6,-10.1 3.8,-20 -1.6,-29.1 -4.7,-7.8 -11.9,-13.4 -20.3,-17.4 -11.5,-5.5 -22.5,-12.5 -35.4,-13.8 -10.8,-1 -21.7,-0.8 -32.8,4.3 -0.4,-2.2 -1.3,-4.1 -1.2,-6 1.3,-25.8 1.7,-51.7 7.4,-77.2 0.3,-1.2 2.8,-2.9 4.2,-2.9 11.8,0 23.6,0.4 35.3,0.5 26.2,0.2 52.4,0.4 78.7,0.6 2.5,0 5,0 8.2,0 -9.1,15 -9.4,31.2 -8.4,47 1.2,18.8 10.6,31.6 29.8,37.9 13.6,4.4 28,5.3 41.9,3.6 9.9,-1.3 16.7,-8.6 22.3,-17.1 8.2,-12.7 6.5,-27.1 8.6,-40.9 1.4,-9 0,-17.4 -3.4,-26.2 35.4,0 70,0 104,0 1.3,2 2.4,3.5 3.3,4.9 1.8,2.6 2.9,5 0.2,7.8 -0.6,0.6 -1.2,1.7 -1.2,2.6 0.4,21.4 0.7,42.9 1.5,64.3 0.3,6.5 6.6,10.2 13.19997,9.3 1.5,-0.2 3,-0.7 4.4,-1 l 1,0.2 z"
       id="path2002"
       inkscape:connector-curvature="0"
       style="fill:#ffffff" />
    <path
       class="st0"
       d="m -992.17723,-499.52973 c 7.7,-4.3 15.1,-9.1 23,-12.8 11.8,-5.4 23.7,-5.7 36.8,-2.3 27.2,7.3 36.8,27.4 41.4,51.8 2.8,14.2 -3.4,25 -15.6,32.2 -9.9,5.8 -20.3,10.9 -29.4,15.8 1.9,-6.6 4.9,-13.4 5.7,-20.5 2.8,-22.5 -11.2,-53.1 -34,-62.8 -7.1,-3 -13.6,-3.2 -20.7,-2 -2.4,0.4 -4.7,0.6 -7.1,0.9 0.1,-0.1 -0.1,-0.3 -0.1,-0.3 z"
       id="path2004"
       inkscape:connector-curvature="0"
       style="fill:#ffffff" />
    <path
       class="st0"
       d="m -963.87723,-597.42973 c -0.5,16.4 -0.8,32.5 -1.6,48.6 -0.4,6.8 -3,13.4 -3,20.2 0,9.5 -7.3,12.5 -13.1,16.6 -4.9,3.5 -10.4,6.1 -17.1,10 -1.1,-17.9 -2.29997,-34.5 -3.29997,-51.1 -0.5,-8 -0.9,-15.9 -1.1,-23.9 0,-1 0.9,-2.6 1.9,-3.1 11.99997,-5.9 24.19997,-11.7 36.19997,-17.5 0.2,-0.1 0.6,0.1 1.1,0.2 z"
       id="path2006"
       inkscape:connector-curvature="0"
       style="fill:#ffffff" />
    <path
       class="st0"
       d="m -1179.8772,-600.12973 c -0.8,5.5 -1.8,11.1 -2.4,16.6 -1.5,15.4 4.2,28.8 12.5,41.1 4.6,6.9 11.6,11.1 20.1,11.6 6.2,0.4 12.5,0.1 18.7,0.1 -2.2,9.7 -10.9,17.4 -20.7,17.2 -9.6,-0.2 -19.5,-0.4 -28.8,-2.3 -16.6,-3.3 -25.9,-14.1 -26.7,-30.9 -0.5,-9.7 0.7,-19.7 1.4,-29.4 0.1,-1.4 2,-3 3.4,-4.1 4.3,-3.6 8.7,-7 12.9,-10.6 3.2,-3 6.3,-6.2 9.6,-9.3 z"
       id="path2008"
       inkscape:connector-curvature="0"
       style="fill:#ffffff" />
    <path
       class="st0"
       d="m -1201.1772,-592.72973 c 0.5,-2.2 1.1,-5.2 2,-8.9 -1.6,0.5 -2.8,0.7 -3.7,1.2 -4.6,2.8 -9.3,2.5 -14.6,1.9 -15.1,-1.5 -30.2,-2.3 -45.4,-2.8 -23.3,-0.7 -46.7,-1 -70,-1.5 -1.3,0 -2.7,-0.6 -4.7,-1.1 5.9,-4.3 11.1,-8.1 16.2,-11.8 1.7,-1.3 3.6,-2.7 5.4,-3.9 2.7,-1.7 4.8,-3.7 8.6,-1.3 2.2,1.3 5.6,0.4 8.5,0.4 18,0.3 36,0.2 54.1,1 11.6,0.5 22.9,2.6 34.5,3.7 9.9,0.9 20,1.5 30.2,2.3 -7.2,7.3 -14.5,14.4 -21.1,20.8 z"
       id="path2010"
       inkscape:connector-curvature="0"
       style="fill:#ffffff" />
    <path
       class="st0"
       d="m -1353.0772,-410.72973 c 7.2,-6.6 13.7,-12.5 20.1,-18.4 2.8,-2.6 5.5,-3.2 9.3,-2 11.9,3.6 23.2,0.2 34.1,-4.3 5.9,-2.5 11.3,-6.7 16.7,-9.9 -1.5,9.1 -6.5,17.3 -14.2,23.1 -18.4,13.6 -38.9,18.7 -61.6,13.3 -1.3,-0.5 -2.6,-1.1 -4.4,-1.8 z"
       id="path2012"
       inkscape:connector-curvature="0"
       style="fill:#ffffff" />
    <path
       class="st0"
       d="m -1004.4772,-587.42973 c -0.9,-4 -3,-5.3 -7.1,-4.3 -2,0.5 -4.8,-0.2 -6.9,-1.2 -13.9,-7 -28.8,-5.8 -43.5,-5.5 -6.5,0.1 -12.9,0.6 -19.4,0.7 -9.7,0.1 -19.6,0 -29,0 8.5,-4.9 17.3,-10.2 26.4,-14.8 1.7,-0.9 4.9,1.1 7.5,1.5 11.1,1.4 22.1,3.4 33.2,4 18.1,1.1 36.4,1.3 54.29997,5.3 2.3,0.5 4.5,1.3 7.3,2.3 -7.9,4.2 -15.1,8 -22.79997,12 z"
       id="path2014"
       inkscape:connector-curvature="0"
       style="fill:#ffffff" />
    <path
       class="st0"
       d="m -1352.7772,-305.72973 c 0.7,12.1 1.4,23.2 2.2,34.6 -2.9,-0.1 -4.8,-0.2 -6.5,-0.3 1.3,-11 2.8,-22 4.3,-34.3 z"
       id="path2016"
       inkscape:connector-curvature="0"
       style="fill:#ffffff" />
  </g>
</svg>
