<?xml version="1.0" encoding="UTF-8" standalone="no"?>
<!-- Created with Inkscape (http://www.inkscape.org/) -->

<svg
   xmlns:dc="http://purl.org/dc/elements/1.1/"
   xmlns:cc="http://creativecommons.org/ns#"
   xmlns:rdf="http://www.w3.org/1999/02/22-rdf-syntax-ns#"
   xmlns:svg="http://www.w3.org/2000/svg"
   xmlns="http://www.w3.org/2000/svg"
   xmlns:xlink="http://www.w3.org/1999/xlink"
   xmlns:sodipodi="http://sodipodi.sourceforge.net/DTD/sodipodi-0.dtd"
   xmlns:inkscape="http://www.inkscape.org/namespaces/inkscape"
   width="201.77742mm"
   height="84.471008mm"
   viewBox="0 0 714.95936 299.30673"
   id="svg3803"
   version="1.1"
   inkscape:version="0.91 r13725"
   sodipodi:docname="openstack-edx-logo.svg">
  <defs
     id="defs3805">
    <linearGradient
       inkscape:collect="always"
       xlink:href="#SVGID_3_"
       id="linearGradient3561"
       gradientUnits="userSpaceOnUse"
       x1="429.74899"
       y1="690.01862"
       x2="431.22809"
       y2="688.53943" />
    <linearGradient
       x1="429.74899"
       y1="690.01862"
       x2="431.22809"
       y2="688.53943"
       id="SVGID_3_"
       gradientUnits="userSpaceOnUse">
      <stop
         id="stop2888"
         style="stop-color:#c63827;stop-opacity:1"
         offset="0" />
      <stop
         id="stop2890"
         style="stop-color:#88221a;stop-opacity:1"
         offset="1" />
    </linearGradient>
    <linearGradient
       inkscape:collect="always"
       xlink:href="#SVGID_5_"
       id="linearGradient3563"
       gradientUnits="userSpaceOnUse"
       x1="399.06931"
       y1="663.08112"
       x2="401.867"
       y2="660.28339" />
    <linearGradient
       x1="399.06931"
       y1="663.08112"
       x2="401.867"
       y2="660.28339"
       id="SVGID_5_"
       gradientUnits="userSpaceOnUse">
      <stop
         id="stop2902"
         style="stop-color:#88221a;stop-opacity:1"
         offset="0" />
      <stop
         id="stop2904"
         style="stop-color:#c43827;stop-opacity:1"
         offset="1" />
    </linearGradient>
    <clipPath
       id="SVGID_6_">
      <use
         id="use2909"
         style="overflow:visible"
         x="0"
         y="0"
         width="715.55798"
         height="742.133"
         xlink:href="#SVGID_4_" />
    </clipPath>
    <linearGradient
       inkscape:collect="always"
       xlink:href="#SVGID_7_"
       id="linearGradient3565"
       gradientUnits="userSpaceOnUse"
       x1="409.9512"
       y1="668.42767"
       x2="428.87079"
       y2="649.50812" />
    <linearGradient
       x1="409.9512"
       y1="668.42767"
       x2="428.87079"
       y2="649.50812"
       id="SVGID_7_"
       gradientUnits="userSpaceOnUse">
      <stop
         id="stop2914"
         style="stop-color:#88221a;stop-opacity:1"
         offset="0" />
      <stop
         id="stop2916"
         style="stop-color:#c43827;stop-opacity:1"
         offset="1" />
    </linearGradient>
    <clipPath
       id="clipPath34">
      <path
         inkscape:connector-curvature="0"
         d="m 321.489,169.063 233.992,1.94 -1.245,150.198 -233.993,-1.941 1.246,-150.197 z"
         id="path36" />
    </clipPath>
    <clipPath
       id="clipPath42">
      <path
         inkscape:connector-curvature="0"
         d="M 0,0 612,0 612,792 0,792 0,0 Z"
         id="path44" />
    </clipPath>
    <clipPath
       id="SVGID_2_">
      <use
         height="100%"
         width="100%"
         y="0"
         x="0"
         id="use10"
         style="overflow:visible"
         xlink:href="#SVGID_1_" />
    </clipPath>
    <clipPath
       id="SVGID_4_-3">
      <use
         height="100%"
         width="100%"
         y="0"
         x="0"
         id="use18"
         style="overflow:visible"
         xlink:href="#SVGID_3_-8" />
    </clipPath>
    <clipPath
       id="SVGID_6_-8">
      <use
         height="100%"
         width="100%"
         y="0"
         x="0"
         id="use26"
         style="overflow:visible"
         xlink:href="#SVGID_5_-4" />
    </clipPath>
    <clipPath
       id="clipPath4303">
      <use
         height="100%"
         width="100%"
         y="0"
         x="0"
         id="use4305"
         style="overflow:visible"
         xlink:href="#SVGID_5_-4" />
    </clipPath>
    <clipPath
       id="clipPath4307">
      <use
         height="100%"
         width="100%"
         y="0"
         x="0"
         id="use4309"
         style="overflow:visible"
         xlink:href="#SVGID_5_-4" />
    </clipPath>
    <clipPath
       id="clipPath4311">
      <use
         height="100%"
         width="100%"
         y="0"
         x="0"
         id="use4313"
         style="overflow:visible"
         xlink:href="#SVGID_5_-4" />
    </clipPath>
    <clipPath
       id="clipPath4315">
      <use
         height="100%"
         width="100%"
         y="0"
         x="0"
         id="use4317"
         style="overflow:visible"
         xlink:href="#SVGID_5_-4" />
    </clipPath>
    <clipPath
       id="clipPath4319">
      <use
         height="100%"
         width="100%"
         y="0"
         x="0"
         id="use4321"
         style="overflow:visible"
         xlink:href="#SVGID_5_-4" />
    </clipPath>
    <clipPath
       id="clipPath4323">
      <use
         height="100%"
         width="100%"
         y="0"
         x="0"
         id="use4325"
         style="overflow:visible"
         xlink:href="#SVGID_5_-4" />
    </clipPath>
  </defs>
  <sodipodi:namedview
     id="base"
     pagecolor="#ffffff"
     bordercolor="#666666"
     borderopacity="1.0"
     inkscape:pageopacity="0.0"
     inkscape:pageshadow="2"
     inkscape:zoom="0.35"
     inkscape:cx="254.58999"
     inkscape:cy="89.653362"
     inkscape:document-units="px"
     inkscape:current-layer="layer1"
     showgrid="false"
     fit-margin-top="5"
     fit-margin-left="5"
     fit-margin-right="5"
     fit-margin-bottom="5"
     inkscape:window-width="1280"
     inkscape:window-height="1000"
     inkscape:window-x="0"
     inkscape:window-y="24"
     inkscape:window-maximized="1" />
  <metadata
     id="metadata3808">
    <rdf:RDF>
      <cc:Work
         rdf:about="">
        <dc:format>image/svg+xml</dc:format>
        <dc:type
           rdf:resource="http://purl.org/dc/dcmitype/StillImage" />
        <dc:title></dc:title>
      </cc:Work>
    </rdf:RDF>
  </metadata>
  <g
     inkscape:label="Layer 1"
     inkscape:groupmode="layer"
     id="layer1"
     transform="translate(-76.715427,-322.70884)">
    <g
       id="g3988"
       transform="matrix(3.9542992,0,0,3.9542992,-403.25814,73.240434)">
      <path
         d="m 169.32169,87.832113 -22.47202,1.9542 c -1.04426,0.0918 -1.90076,1.01411 -1.90488,2.05836 l -0.006,2.27352 -2.58459,0.22474 2.52978,2.50101 0.0658,17.183577 22.51998,-1.97064 c 1.04974,-0.0918 1.90488,-1.0141 1.90762,-2.06658 l 0.003,-2.63393 2.47633,-0.21653 -2.46674,-2.4407 -0.0685,-16.867027 z m -39.72551,-16.10782 47.63141,-4.14139 c 1.04974,-0.0891 1.99944,0.27272 2.65586,0.92914 l 1.51431,1.49649 6.05722,5.98871 c 0.60298,0.59612 0.96888,1.42796 0.96888,2.38313 l -0.037,11.96233 -2.5613,0.22201 2.501,2.4777 0.0713,18.140147 -2.47085,0.2179 2.46948,2.43936 -0.0233,12.3296 c -0.007,1.9967 -1.63353,3.7645 -3.64666,3.9426 l -47.62868,4.173 c -1.05111,0.092 -1.99943,-0.2741 -2.66271,-0.9292 l -7.56879,-7.4852 c -0.60024,-0.5947 -0.96477,-1.4321 -0.96203,-2.379 l 0.0233,-12.32824 2.47634,-0.2179 -2.47086,-2.44208 -0.0726,-18.137397 2.59282,-0.22749 -2.53389,-2.50648 0.0329,-11.96232 c 0.003,-2.00766 1.63627,-3.77138 3.64393,-3.94542 z"
         id="path2879"
         style="opacity:1;fill:#88221a"
         inkscape:connector-curvature="0" />
      <g
         style="opacity:1"
         transform="matrix(1.3704123,0,0,1.3704123,-417.57106,-829.66166)"
         id="g2881">
        <path
           d="m 410.476,688.617 16.433,-1.438 5.523,5.463 -20.58,1.802 c -0.765,0.069 -1.382,-0.497 -1.382,-1.264 l 0.006,-1.923 -1.802,-1.781 1.805,-0.158 -0.003,-0.701 z"
           id="path2883"
           style="fill:#c63827"
           inkscape:connector-curvature="0" />
      </g>
      <g
         style="opacity:1"
         transform="matrix(1.3704123,0,0,1.3704123,-417.57106,-829.66166)"
         id="g2885">
        <linearGradient
           x1="429.74899"
           y1="690.01862"
           x2="431.22809"
           y2="688.53943"
           id="linearGradient15387"
           gradientUnits="userSpaceOnUse">
          <stop
             id="stop15389"
             style="stop-color:#c63827;stop-opacity:1"
             offset="0" />
          <stop
             id="stop15391"
             style="stop-color:#88221a;stop-opacity:1"
             offset="1" />
        </linearGradient>
        <path
           d="m 432.432,692.642 -5.523,-5.463 c 0.766,-0.067 1.39,-0.74 1.392,-1.508 l 5.523,5.465 c -0.003,0.766 -0.629,1.438 -1.392,1.506 z"
           id="path2892"
           style="fill:url(#linearGradient3561)"
           inkscape:connector-curvature="0" />
      </g>
      <g
         style="opacity:1"
         transform="matrix(1.3704123,0,0,1.3704123,-417.57106,-829.66166)"
         id="g2894">
        <g
           id="g2896">
          <defs
             id="defs2898">
            <path
               d="m 402.137,666.088 -5.523,-5.463 c 0.002,-1.463 1.193,-2.75 2.659,-2.877 l 5.522,5.463 c -1.463,0.129 -2.655,1.415 -2.658,2.877 z"
               id="SVGID_4_"
               inkscape:connector-curvature="0" />
          </defs>
          <linearGradient
             x1="399.06931"
             y1="663.08112"
             x2="401.867"
             y2="660.28339"
             id="linearGradient15398"
             gradientUnits="userSpaceOnUse">
            <stop
               id="stop15400"
               style="stop-color:#88221a;stop-opacity:1"
               offset="0" />
            <stop
               id="stop15402"
               style="stop-color:#c43827;stop-opacity:1"
               offset="1" />
          </linearGradient>
          <use
             id="use2906"
             style="overflow:visible;fill:url(#linearGradient3563)"
             x="0"
             y="0"
             width="715.55798"
             height="742.133"
             xlink:href="#SVGID_4_" />
          <clipPath
             id="clipPath15405">
            <use
               id="use15407"
               style="overflow:visible"
               x="0"
               y="0"
               width="715.55798"
               height="742.133"
               xlink:href="#SVGID_4_" />
          </clipPath>
          <g
             clip-path="url(#SVGID_6_)"
             id="g2911">
            <linearGradient
               x1="409.9512"
               y1="668.42767"
               x2="428.87079"
               y2="649.50812"
               id="linearGradient15410"
               gradientUnits="userSpaceOnUse">
              <stop
                 id="stop15412"
                 style="stop-color:#88221a;stop-opacity:1"
                 offset="0" />
              <stop
                 id="stop15414"
                 style="stop-color:#c43827;stop-opacity:1"
                 offset="1" />
            </linearGradient>
            <polygon
               points="439.55,660.187 404.795,663.211 399.272,657.748 434.029,654.726 "
               id="polygon2918"
               style="fill:url(#linearGradient3565)" />
          </g>
        </g>
      </g>
      <g
         style="opacity:1"
         transform="matrix(1.3704123,0,0,1.3704123,-417.57106,-829.66166)"
         id="g2920">
        <path
           d="m 442.18,688.479 -0.017,8.997 c -0.005,1.457 -1.192,2.747 -2.661,2.877 l -34.755,3.045 c -1.463,0.129 -2.65,-0.955 -2.646,-2.413 l 0.017,-8.995 8.358,-0.733 -0.006,1.923 c 0,0.767 0.617,1.333 1.382,1.264 l 20.58,-1.802 c 0.764,-0.067 1.39,-0.739 1.392,-1.506 l 0.004,-1.924 8.352,-0.733 z"
           id="path2922"
           style="fill:#d83c27"
           inkscape:connector-curvature="0" />
      </g>
      <g
         style="opacity:1"
         transform="matrix(1.3704123,0,0,1.3704123,-417.57106,-829.66166)"
         id="g2924">
        <polygon
           points="433.778,674.035 442.129,673.303 442.181,686.54 433.831,687.271 "
           id="polygon2926"
           style="fill:#e1473b" />
      </g>
      <g
         style="opacity:1"
         transform="matrix(1.3704123,0,0,1.3704123,-417.57106,-829.66166)"
         id="g2928">
        <path
           d="m 435.968,655.403 1.105,1.092 4.42,4.37 c -0.482,-0.479 -1.175,-0.743 -1.943,-0.679 l -34.755,3.024 -5.522,-5.463 34.757,-3.022 c 0.765,-0.065 1.458,0.2 1.938,0.678 z"
           id="path2930"
           style="fill:#c43827"
           inkscape:connector-curvature="0" />
      </g>
      <g
         style="opacity:1"
         transform="matrix(1.3704123,0,0,1.3704123,-417.57106,-829.66166)"
         id="g2932">
        <polygon
           points="402.07,676.812 410.428,676.078 410.479,689.317 402.122,690.048 "
           id="polygon2934"
           style="fill:#e1473b" />
      </g>
      <g
         style="opacity:1"
         transform="matrix(1.3704123,0,0,1.3704123,-417.57106,-829.66166)"
         id="g2936">
        <path
           d="m 404.795,663.211 34.755,-3.024 c 1.467,-0.123 2.652,0.955 2.65,2.418 l -0.027,8.729 -8.352,0.729 0.002,-1.66 c 0.002,-0.767 -0.619,-1.331 -1.381,-1.263 l -20.581,1.789 c -0.762,0.067 -1.387,0.74 -1.39,1.502 l -0.004,1.659 -8.354,0.729 0.023,-8.729 c 0.004,-1.464 1.196,-2.75 2.659,-2.879 z"
           id="path2938"
           style="fill:#e4574e"
           inkscape:connector-curvature="0" />
      </g>
      <g
         style="opacity:1"
         transform="matrix(1.3704123,0,0,1.3704123,-417.57106,-829.66166)"
         id="g2940">
        <path
           d="m 433.827,689.212 -0.004,1.924 c -0.002,0.767 -0.628,1.438 -1.392,1.506 l -20.58,1.802 c -0.688,0.062 -1.257,-0.391 -1.363,-1.038 0.1,0.562 0.593,0.949 1.194,0.895 l 20.734,-1.813 c 0.684,-0.061 1.248,-0.666 1.25,-1.352 l 0.005,-1.924 0,-0.155 0.156,0.155 z"
           id="path2942"
           style="opacity:0.3;fill:#ffffff"
           inkscape:connector-curvature="0" />
      </g>
      <g
         style="opacity:1"
         transform="matrix(1.3704123,0,0,1.3704123,-417.57106,-829.66166)"
         id="g2944">
        <path
           d="m 410.314,693.18 0.005,-1.909 0.156,-0.014 -0.006,1.923 c 0,0.767 0.617,1.333 1.382,1.264 l 20.58,-1.802 c 0.764,-0.067 1.39,-0.739 1.392,-1.506 l 0.004,-1.924 0.158,-0.014 -0.007,1.938 c -0.002,0.849 -0.69,1.588 -1.534,1.661 l -20.578,1.803 c -0.855,0.076 -1.553,-0.561 -1.552,-1.42 z"
           id="path2946"
           style="opacity:0.3;fill:#ffffff"
           inkscape:connector-curvature="0" />
      </g>
    </g>
    <g
       transform="translate(368.75829,426.61223)"
       id="g4257">
      <g
         transform="translate(-199.7,-242.60001)"
         id="Logo">
        <defs
           id="defs6">
          <rect
             height="114.6"
             width="178.60001"
             y="242.39999"
             x="427.5"
             id="SVGID_1_" />
        </defs>
        <clipPath
           id="clipPath4331">
          <use
             height="100%"
             width="100%"
             y="0"
             x="0"
             id="use4333"
             style="overflow:visible"
             xlink:href="#SVGID_1_" />
        </clipPath>
        <g
           clip-path="url(#SVGID_2_)"
           id="g12"
           class="st0">
          <defs
             id="defs14">
            <rect
               height="81.5"
               width="176.3"
               y="247.60001"
               x="428.60001"
               id="SVGID_3_-8" />
          </defs>
          <clipPath
             id="clipPath4338">
            <use
               height="100%"
               width="100%"
               y="0"
               x="0"
               id="use4340"
               style="overflow:visible"
               xlink:href="#SVGID_3_-8" />
          </clipPath>
          <g
             clip-path="url(#SVGID_4_-3)"
             id="g20"
             class="st1">
            <defs
               id="defs22">
              <rect
                 height="81.5"
                 width="176.3"
                 y="247.60001"
                 x="428.60001"
                 id="SVGID_5_-4" />
            </defs>
            <clipPath
               id="clipPath4345">
              <use
                 height="100%"
                 width="100%"
                 y="0"
                 x="0"
                 id="use4347"
                 style="overflow:visible"
                 xlink:href="#SVGID_5_-4" />
            </clipPath>
            <polygon
               style="fill:#209fda"
               clip-path="url(#SVGID_6_-8)"
               id="polygon28"
               points="561.3,329.1 561.3,315.9 553.1,315.9 567,298.7 567,298.7 580.9,315.9 572.7,315.9 572.7,329.1 604.9,329.1 604.9,315.9 598.8,315.9 575.9,287.6 598,260.5 604.9,260.5 604.9,247.6 572.7,247.6 572.7,260.5 580,260.5 567,276.6 553.9,260.5 561.3,260.5 561.3,247.6 537.2,247.6 537.2,262 558,287.6 537.2,313.3 537.2,315.9 547.1,315.9 547.1,329.1 "
               class="st2" />
            <polygon
               style="fill:#026ba4"
               clip-path="url(#SVGID_6_-8)"
               id="polygon30"
               points="528.9,260.5 535.9,260.5 537.2,262 537.2,247.6 528.9,247.6 "
               class="st3" />
            <polygon
               style="fill:#026ba4"
               clip-path="url(#SVGID_6_-8)"
               id="polygon32"
               points="535.1,315.9 528.9,315.9 528.9,329.1 547.1,329.1 547.1,315.9 537.2,315.9 537.2,313.3 "
               class="st3" />
            <path
               style="fill:#78212e"
               inkscape:connector-curvature="0"
               clip-path="url(#SVGID_6_-8)"
               id="path34"
               d="m 477.2,309.8 11.4,0 c -1.4,3.4 -3.3,6.4 -5.6,9.1 -2.4,-2.7 -4.4,-5.8 -5.8,-9.1"
               class="st4" />
            <path
               style="fill:#78212e"
               inkscape:connector-curvature="0"
               clip-path="url(#SVGID_6_-8)"
               id="path36-3"
               d="m 483.1,276.2 c -3.3,3.6 -5.7,7.9 -7.1,12.7 0.5,1 1,2.1 1.3,3.3 l 11.3,0 c 0.3,-1.1 0.8,-2.2 1.3,-3.2 -1.3,-4.9 -3.7,-9.3 -6.8,-12.8 z m -5.8,15.9 c 0.5,1.7 0.8,3.5 0.8,5.4 0,1.8 -0.2,3.5 -0.7,5.1 l 11.1,0 c -0.5,-1.6 -0.7,-3.3 -0.7,-5.1 0,-1.9 0.3,-3.7 0.8,-5.4 l -11.3,0 z m 0,0 -2,0 c -0.3,1.8 -0.5,3.6 -0.5,5.4 0,1.7 0.1,3.4 0.4,5.1 l 2.2,0 c 0.4,-1.6 0.7,-3.3 0.7,-5.1 -0.1,-1.9 -0.3,-3.7 -0.8,-5.4 z"
               class="st4" />
            <path
               style="fill:#8a8c8f"
               inkscape:connector-curvature="0"
               clip-path="url(#SVGID_6_-8)"
               id="path38"
               d="m 535.9,260.5 -7,0 0,-12.9 -13.3,0 0,12.9 8.6,0 0,11.1 c -5,-3.6 -11.1,-5.7 -17.9,-5.7 -9.2,0 -17.5,3.9 -23.3,10.2 3.2,3.6 5.5,7.9 6.8,12.7 3.1,-5.8 9.2,-9.8 16.3,-9.8 10.2,0 18,8.3 18,18.4 l 0,0.1 c -0.1,10.1 -7.9,18.3 -18,18.3 -7.1,0 -13.2,-4 -16.3,-9.8 l 0,0 c -0.6,-1.1 -1.1,-2.3 -1.4,-3.5 l -13.3,0 c 0.2,1.2 0.5,2.4 0.8,3.6 0.4,1.2 0.8,2.4 1.3,3.6 l 11.4,0 c -1.4,3.4 -3.3,6.4 -5.6,9.1 5.8,6.3 14.1,10.2 23.3,10.2 6.7,0 12.9,-2.1 17.9,-5.7 1.7,-1.2 3.3,-2.6 4.7,-4.2 l 0,-3.3 6.2,0 2.1,-2.6 0,-51.2 -1.3,-1.5 z m -11.7,62.9 0,5.7 4.7,0 0,-9.9 c -1.4,1.6 -3,3 -4.7,4.2 z M 476,288.8 c -0.3,1.1 -0.6,2.2 -0.7,3.3 l 2,0 c -0.4,-1.1 -0.8,-2.2 -1.3,-3.3 z"
               class="st5" />
            <path
               style="fill:#b72768"
               inkscape:connector-curvature="0"
               clip-path="url(#SVGID_6_-8)"
               id="path40"
               d="m 490.6,292.1 c -0.2,-1.1 -0.4,-2.2 -0.7,-3.2 -0.5,1 -1,2.1 -1.3,3.2 -0.5,1.7 -0.8,3.5 -0.8,5.4 0,1.8 0.2,3.5 0.7,5.1 l 2.2,0 c 0.3,-1.7 0.4,-3.4 0.4,-5.1 -0.1,-1.8 -0.2,-3.6 -0.5,-5.4 z m -30.4,-26.2 c -15.6,0 -28.6,11.3 -31.1,26.2 l 13.3,0 c 2.3,-7.5 9.3,-13 17.6,-13 7,0 13,4 15.9,9.8 1.4,-4.8 3.8,-9.1 7.1,-12.7 -5.5,-6.3 -13.6,-10.3 -22.8,-10.3 z m 13.3,43.9 c -3.3,3.8 -8,6.2 -13.5,6.2 -8.4,0 -15.5,-5.6 -17.7,-13.3 l 32.9,0 c -0.3,-1.7 -0.4,-3.4 -0.4,-5.1 0,-1.8 0.2,-3.7 0.5,-5.4 l -46.3,0 c -0.3,1.8 -0.5,3.6 -0.5,5.4 0,1.7 0.1,3.4 0.4,5.1 l 0,0 c 2.4,15 15.5,26.5 31.2,26.5 9.2,0 17.3,-3.9 22.9,-10.2 -2.4,-2.6 -4.4,-5.7 -5.8,-9.1 l -3.7,0 z"
               class="st6" />
          </g>
        </g>
      </g>
      <g
         transform="translate(-199.7,-242.60001)"
         id="g42">
        <path
           style="fill:#209fda"
           inkscape:connector-curvature="0"
           id="path44-0"
           d="m 411.8,319 0.2,0 0,-51.3 6.1,0 0,60.2 -7.7,0 -35,-51.8 -0.2,0 0,51.8 -6.1,0 0,-60.2 7.6,0 35.1,51.3 z"
           class="st7" />
      </g>
      <g
         transform="translate(-199.7,-242.60001)"
         id="g46">
        <path
           style="fill:#209fda"
           inkscape:connector-curvature="0"
           id="path48"
           d="m 327.2,322.4 32.2,0 0,5.4 -38.3,0 0,-60.2 37.3,0 0,5.4 -31.2,0 0,20.7 29.2,0 0,5.4 -29.2,0 0,23.3 z"
           class="st7" />
      </g>
      <g
         transform="translate(-199.7,-242.60001)"
         id="g50">
        <path
           style="fill:#209fda"
           inkscape:connector-curvature="0"
           id="path52"
           d="m 276.1,267.7 17,0 c 3.1,0 5.8,0.3 8.3,1 2.5,0.7 4.6,1.6 6.4,3 1.8,1.3 3.2,3 4.1,5 1,2 1.4,4.4 1.4,7.1 0,2.7 -0.5,5.1 -1.5,7.1 -1,2 -2.4,3.7 -4.2,5 -1.8,1.3 -3.9,2.3 -6.5,3 -2.5,0.7 -5.3,1 -8.4,1 l -10.7,0 0,28 -6.1,0 0,-60.2 z m 6.1,27 10.4,0 c 4.8,0 8.5,-0.9 11,-2.8 2.5,-1.9 3.7,-4.6 3.7,-8.2 0,-3.7 -1.3,-6.5 -3.9,-8.2 -2.6,-1.7 -6.2,-2.6 -10.8,-2.6 l -10.4,0 0,21.8 z"
           class="st7" />
      </g>
      <g
         transform="translate(-199.7,-242.60001)"
         id="g54">
        <path
           style="fill:#209fda"
           inkscape:connector-curvature="0"
           id="path56"
           d="m 266.7,297.1 c 0,4.5 -0.8,8.7 -2.4,12.5 -1.6,3.8 -3.7,7.1 -6.5,9.9 -2.8,2.8 -6,4.9 -9.8,6.5 -3.8,1.6 -7.9,2.4 -12.3,2.4 -4.4,0 -8.5,-0.8 -12.3,-2.4 -3.8,-1.6 -7.1,-3.7 -9.8,-6.5 -2.8,-2.8 -4.9,-6.1 -6.5,-9.9 -1.6,-3.8 -2.4,-8 -2.4,-12.5 0,-4.5 0.8,-8.7 2.4,-12.5 1.6,-3.8 3.7,-7.1 6.5,-9.9 2.8,-2.8 6,-4.9 9.8,-6.5 3.8,-1.6 7.9,-2.4 12.3,-2.4 4.4,0 8.5,0.8 12.3,2.4 3.8,1.6 7.1,3.7 9.8,6.5 2.8,2.8 4.9,6.1 6.5,9.9 1.6,3.8 2.4,8 2.4,12.5 z m -6.4,0.1 c 0,-3.5 -0.6,-6.8 -1.7,-9.9 -1.1,-3.1 -2.7,-5.9 -4.9,-8.3 -2.1,-2.4 -4.7,-4.3 -7.8,-5.7 -3.1,-1.4 -6.5,-2.1 -10.3,-2.1 -3.8,0 -7.2,0.7 -10.3,2.1 -3.1,1.4 -5.6,3.3 -7.8,5.7 -2.1,2.4 -3.8,5.1 -4.9,8.3 -1.1,3.1 -1.7,6.4 -1.7,9.9 0,3.5 0.6,6.8 1.7,9.9 1.1,3.1 2.7,5.9 4.9,8.2 2.1,2.3 4.7,4.2 7.8,5.6 3.1,1.4 6.5,2.1 10.3,2.1 3.8,0 7.2,-0.7 10.3,-2.1 3.1,-1.4 5.6,-3.3 7.8,-5.6 2.1,-2.3 3.8,-5.1 4.9,-8.2 1.1,-3.1 1.7,-6.4 1.7,-9.9 z"
           class="st7" />
      </g>
    </g>
  </g>
</svg>
