<?xml version="1.0" encoding="UTF-8" standalone="no"?>
<!-- Created with Inkscape (http://www.inkscape.org/) -->

<svg
   xmlns:dc="http://purl.org/dc/elements/1.1/"
   xmlns:cc="http://creativecommons.org/ns#"
   xmlns:rdf="http://www.w3.org/1999/02/22-rdf-syntax-ns#"
   xmlns:svg="http://www.w3.org/2000/svg"
   xmlns="http://www.w3.org/2000/svg"
   xmlns:sodipodi="http://sodipodi.sourceforge.net/DTD/sodipodi-0.dtd"
   xmlns:inkscape="http://www.inkscape.org/namespaces/inkscape"
   width="250.30289mm"
   height="184.87248mm"
   viewBox="0 0 886.89999 655.05997"
   id="svg5091"
   version="1.1"
   inkscape:version="0.91 r13725"
   sodipodi:docname="scale.svg">
  <defs
     id="defs5093" />
  <sodipodi:namedview
     id="base"
     pagecolor="#ffffff"
     bordercolor="#666666"
     borderopacity="1.0"
     inkscape:pageopacity="0.0"
     inkscape:pageshadow="2"
     inkscape:zoom="0.35"
     inkscape:cx="1129.8786"
     inkscape:cy="-663.89858"
     inkscape:document-units="px"
     inkscape:current-layer="layer1"
     showgrid="false"
     fit-margin-top="0"
     fit-margin-left="0"
     fit-margin-right="0"
     fit-margin-bottom="0"
     inkscape:window-width="1920"
     inkscape:window-height="1056"
     inkscape:window-x="0"
     inkscape:window-y="24"
     inkscape:window-maximized="1" />
  <metadata
     id="metadata5096">
    <rdf:RDF>
      <cc:Work
         rdf:about="">
        <dc:format>image/svg+xml</dc:format>
        <dc:type
           rdf:resource="http://purl.org/dc/dcmitype/StillImage" />
        <dc:title></dc:title>
      </cc:Work>
    </rdf:RDF>
  </metadata>
  <g
     inkscape:label="Layer 1"
     inkscape:groupmode="layer"
     id="layer1"
     transform="translate(754.87857,786.59635)">
    <g
       transform="translate(-850.17857,-831.83638)"
       id="Layer_1" />
    <g
       transform="translate(-850.17857,-831.83638)"
       id="Layer_2" />
    <path
       d="m -69.478571,-204.23638 c 3.5,-2.1 5.2,-5.7 7.4,-8.8 1.6,-2.3 3.7,-4.3 5.9,-6.1 3,-2.4 4.2,-5.1 4.1,-9 -0.8,-53.9 -1.4,-107.8 -2.1,-161.7 -0.2,-18.2 1.1,-36.2 2.7,-54.3 0.9,-10.1 1.6,-20.1 2,-30.2 1.5,-33.1 2.7,-66.3 4.1,-99.4 0.1,-1.4 0.2,-2.8 0.3,-4.6 -1.2,0.4 -2.1,0.7 -3,1 -12.4,4.8 -24.8,9.8 -37.2,14.5 -8.6,3.3 -16.699999,7.7 -24.299999,12.9 -4.2,2.9 -8.2,5.8 -12.5,8.5 -2,1.3 -2.7,2.7 -2.7,5 0,18.8 0.2,37.6 -0.1,56.4 -0.6,29.1 -1.1,58.3 -2.5,87.4 -0.9,19.8 -3.3,39.5 -4.9,59.2 -1.2,14.1 -2.6,28.1 -3.3,42.2 -1.8,37.8 -3.3,75.6 -5,113.4 -0.4,10 -1.3,19.9 -1.9,29.9 0,0.7 0,1.5 0,2.8 1.7,-0.9 3,-1.3 4.1,-2.1 4.5,-3.5 9.1,-6.9 13.3,-10.6 11.3,-10.1 22.3,-20.5 33.599999,-30.6 3.7,-3.4 7.8,-6.4 11.8,-9.5 2.3,-1.8 2.5,-1.7 6,-1.8 -1.9,3.8 -4.2,7.2 -7.3,9.9 -14.7,13.1 -29.399999,26.2 -43.999999,39.4 -3.5,3.2 -7.5,5.4 -11.9,7.2 -3.1,1.2 -5.6,2.8 -7,6.2 -1.2,2.9 -3.9,3.9 -7.1,3.4 -1.1,-0.2 -2.2,-0.5 -3.7,-0.9 0.2,0.9 0.4,1.6 0.7,3 -1.6,-0.8 -2.8,-1.2 -3.8,-1.9 -22.4,-15.2 -46.4,-27.6 -70.3,-40.4 -6.4,-3.4 -12.6,-7.2 -18.5,-11.4 -3.8,-2.7 -7,-6.5 -10.4,-9.9 -1.8,-1.8 -2.8,-4 -3,-7 0.9,0.3 1.6,0.6 2.6,1 0.1,-1 0.3,-2 0.3,-2.9 -0.3,-11.9 -0.5,-23.8 -1,-35.7 -0.8,-19.6 -0.2,-39.1 0.8,-58.7 0.8,-16.6 1.2,-33.1 1.8,-49.7 1.4,-37.2 0.8,-74.3 1.1,-111.5 0.2,-25.9 1.2,-51.8 2.3,-77.7 0.5,-11.6 1.7,-23.3 4.4,-34.6 1,-4.4 2.1,-8.8 3.5,-13.1 0.8,-2.7 2.5,-4.7 5.7,-5.2 2.4,-0.4 4.8,-1.2 7,-2.2 12.9,-5.4 25.7,-10.9 38.6,-16.3 8.8,-3.7 17.7,-7.3 26.5,-11.1 2.2,-0.9 3.9,-0.9 5.8,0.4 4.6,3.3 9.7,5.2 15.5,5.4 2.8,0.1 5.6,1 8.3,1.9 12.7,4.5 26,7 39.199999,9.6 16.6,3.2 32.7,7.9 48.2,14.6 1.5,0.7 3.1,1.4 4.5,2.3 2.3,1.5 3.6,3.6 3.6,6.5 0,1.9 0.2,3.9 0.2,5.8 -0.7,32.5 -1.2,65 -2.2,97.5 -0.4,12.8 -1.9,25.6 -3,38.3 -1.6,17.7 -2.5,35.4 -2.3,53.2 0.4,27.5 1.1,54.9 1.6,82.4 0.4,25.4 0.6,50.8 1,76.2 0.1,4.2 -1.3,7.1 -4.6,9.6 -4,3.1 -7.7,6.5 -11.4,9.9 -2.2,1.9 -4.5,2.6 -7.5,2 z m -78.699999,57.7 c 0.4,-5.4 0.8,-10 1.1,-14.6 0.4,-7.6 0.6,-15.3 0.9,-22.9 0.6,-15.8 1.3,-31.6 2,-47.3 0.6,-14 1.1,-28 1.9,-41.9 1.1,-18.1 2.4,-36.2 3.8,-54.2 0.7,-9.4 1.7,-18.8 2.5,-28.2 1.2,-15.4 2.6,-30.7 3.4,-46.1 0.7,-12.8 0.7,-25.6 1.2,-38.4 1,-23.3 2.4,-46.6 2.3,-69.9 -0.1,-9.1 0.4,-18.1 0.8,-27.2 0.2,-3.7 0.8,-7.3 1.3,-11 0.2,0 0.4,0 0.7,-0.1 0.6,1.3 1.3,2.7 2,4.2 1.2,-1 2.2,-1.7 3.2,-2.6 11.2,-9.3 23.199999,-17.4 37.299999,-21.7 5.2,-1.6 10.4,-3.2 15.3,-5.5 6.4,-3 12.9,-5.3 19.9,-6.1 1.7,-0.2 3.3,-0.9 4.1,-2.3 -7.5,-2.2 -14.8,-4.5 -22.1,-6.5 -8.1,-2.3 -16.1,-4.7 -24.3,-6.6 -22.299999,-5.1 -44.799999,-9.7 -65.999999,-18.7 -4.2,-1.8 -8.3,-1.4 -12.4,0.7 -2.8,1.4 -5.5,2.8 -8.4,4 -15.7,6.2 -31.5,12.4 -47.3,18.6 -0.4,0.2 -0.8,0.4 -1.9,0.9 1.9,0.5 3.1,0.9 4.3,1.2 5.8,1.8 11.6,3.5 17.3,5.6 11,4.1 22,8.5 33,12.6 10.7,4 21.2,8.2 31.3,13.5 3.4,1.8 7.1,3.1 10.6,4.7 1,0.4 1.9,0.9 3.4,1.7 -2.8,1.5 -5,1.3 -7.1,0.7 -2.5,-0.7 -4.9,-1.5 -7.3,-2.5 -18.3,-7.1 -36.7,-14.2 -55,-21.3 -3.1,-1.2 -6.3,-2.5 -9.3,-3.9 -8.5,-4.1 -17.6,-5.9 -27.2,-7.6 -1.5,3.9 -3.8,7.7 -4.2,11.6 -1.6,17.4 -3.3,34.8 -3.7,52.3 -0.6,26.8 -0.2,53.6 -0.2,80.4 0,23.6 0.2,47.1 -0.3,70.7 -0.5,23.3 -1.9,46.6 -2.6,69.9 -1,32.4 -0.5,64.8 0.4,97.1 0.1,2.6 0.9,4.9 3,6.4 3.4,2.5 6.8,5.3 10.5,7.2 15.9,8.2 31.9,16 47.8,24.1 4.5,2.3 9,4.6 13.3,7.1 5.6,3.2 11.1,6.6 16.7,9.9 0.9,0.6 2.1,1.1 4,2 z"
       id="path2317"
       inkscape:connector-curvature="0" />
    <path
       d="m -487.87857,-291.83638 c 9.7,-6.8 18.8,-13.1 28,-19.4 2.4,-1.7 5,-3.2 7.4,-5 2.8,-2.1 5.6,-2.2 9.3,-1.1 -0.9,0.7 -1.3,1.1 -1.9,1.4 -2.5,1.4 -5.2,2.4 -7.4,4.2 -9.7,7.5 -20.3,13.4 -30.4,20.2 -0.7,0.5 -1.5,1 -2.3,1.4 0,1.2 0.1,2.4 0,3.5 -0.3,4 -3.3,6.5 -7.2,5.3 -4.3,-1.3 -8.5,-3.1 -12.7,-4.7 -0.8,-0.3 -1.6,-0.8 -2.4,-1.3 -20,-13.5 -42.4,-22.1 -64.7,-30.7 -5.9,-2.3 -11.7,-4.9 -17.6,-7.1 -4.2,-1.6 -6.8,-4.2 -6.8,-8.8 -3.5,-1.8 -3.4,-1.8 -3.4,-5.7 0.1,-8.5 0,-17 0,-26.2 -1.5,0.8 -2.3,1.2 -3.2,1.7 -10.2,6.4 -20.4,12.8 -30.5,19.4 -4.4,2.9 -8.9,3.4 -13.6,1 -7.2,-3.8 -14.5,-7.5 -21.5,-11.6 -11.5,-6.8 -22.8,-13.9 -34.1,-20.9 -5.6,-3.5 -11.1,-7.1 -16.7,-10.6 -2.4,-1.5 -3.4,-3.6 -3.6,-6.4 -1.1,-16.5 0,-32.9 1.1,-49.3 0.3,-4.7 0.6,-9.3 1.1,-13.9 0.4,-3.6 0.9,-7.2 1.7,-10.7 0.9,-4.2 4.1,-6.5 8.3,-5.6 3,0.6 5.2,-0.1 7.7,-1.5 3.3,-1.8 6.6,-3.5 10.1,-4.9 19,-7.5 38.1,-14.8 57.2,-22.2 5.3,-2.1 10.7,-2.9 16.8,-1.5 -1.3,0.7 -2.4,1.3 -4.1,2.3 6.1,1.9 11.6,3.6 17.4,5.4 0.2,-4.1 0.4,-7.8 0.6,-11.6 0.3,-5 0.6,-10.1 1,-15.1 0.4,-5.8 1.8,-6.9 8.1,-6.7 1.4,2.9 2.1,5.9 2.2,9.2 0.2,11 0.2,22 0.7,33 0.7,15.5 1.9,31 2.7,46.5 0.6,12.4 1,24.8 1.1,37.3 0.2,19.6 1.8,39 4.2,58.4 1,7.8 0.6,7 7.9,10.1 12.8,5.5 25.7,10.9 38.6,16.3 0.5,0.2 0.9,0.5 1.4,0.6 9,2 16.6,7 24.4,11.6 6.2,3.7 12.7,6.9 19.1,10.4 0.5,0.3 1.1,0.5 1.9,0.8 0,-2.9 0.1,-5.4 0,-7.9 -0.6,-14 -1.8,-27.9 -1.8,-41.9 -0.1,-22.9 0.2,-45.9 0.8,-68.8 0.5,-18.1 1.7,-36.2 2.6,-54.3 0.3,-6.3 0.6,-12.7 0.9,-19 0.1,-2 0.1,-3.9 -2.5,-5 1.8,-0.9 3.2,-1.5 5,-2.4 -1.4,-0.5 -2.5,-0.9 -3.5,-1.3 -11.6,-4.4 -23.1,-9 -34.9,-13.1 -12.6,-4.4 -25.3,-8.2 -38,-12.3 -7.7,-2.5 -15.4,-5.2 -23.2,-7.8 -2.8,-0.9 -5.6,-1.6 -8.6,-2.4 1.1,-2.1 3.1,-3.7 5.3,-5 2.9,-1.6 6,-3 9.1,-4.2 15.4,-6 30.9,-11.8 46.3,-17.9 5.1,-2 10,-4.3 14.9,-6.6 2.7,-1.3 5.2,-2.1 8,-0.1 0.8,0.6 2.2,0.5 3.6,0.8 -0.6,1.5 -2,1.7 -3.1,2.1 -23.1,9 -46.3,18 -69.4,27 -1.4,0.6 -2.9,1.2 -4.6,1.9 1.9,1.8 4.1,2.2 6.2,2.8 8.1,2.3 16.2,4.5 24.3,6.8 22,6.2 43.2,14.4 63.9,23.9 5.2,2.4 9.7,2.3 14.6,-0.6 8.8,-5.2 17.8,-10.1 26.7,-15.1 2.7,-1.5 5.6,-2.3 9,-1.5 -1,0.7 -2,1.4 -3,2 -8.3,4.7 -16.6,9.6 -25,14.1 -5.6,3 -10.5,7.1 -16.7,9 -0.8,0.2 -1.4,1.4 -1.8,2.3 -0.3,0.5 -0.1,1.3 -0.2,1.9 -1.1,62 -2.5,124.1 -1.5,186.1 0.3,3.1 0.6,5.9 0.7,9 z m -218.9,-176.7 c 5.6,3.1 10.3,5.8 15.1,8.2 14.1,7.1 28.3,14 42.4,21.1 3.1,1.6 6.2,3.3 9,5.3 2.3,1.6 4.2,3.8 6.3,5.8 0.8,0.8 1.5,1.8 0.3,3.1 -25,-12.8 -49.9,-25.7 -75,-38.6 -0.3,1 -0.5,1.5 -0.6,2 -1.5,5.9 -1.7,12 -1.9,18.1 -0.4,13.6 -0.8,27.2 -1.2,40.8 0,1.3 0.4,2.9 1.2,3.9 3,3.7 6.1,7.3 10.6,9.5 4.5,2.2 8.9,4.7 13.4,7 15.3,7.6 30.6,15.2 44.5,25.3 0.7,0.5 1.5,0.8 2.9,1.5 0.1,-3.8 0.2,-7.1 0.2,-10.5 0.1,-3.2 0.1,-6.5 0.1,-9.7 0,-3.4 0.1,-6.7 0.1,-10.1 0,-3.4 0,-6.7 0.1,-10.1 0.1,-3.4 0.3,-6.7 0.4,-10.1 0.1,-3.2 0,-6.5 0.1,-9.7 0.1,-3.2 -0.4,-6.5 0.7,-10.3 2.6,4.7 3.2,9.2 3.2,13.7 0.2,17 0.2,33.9 0.3,50.9 0,1.3 0,2.7 0,4.8 7.8,-5.6 14.9,-10.5 21.7,-15.8 3.5,-2.8 6.7,-5.3 11.3,-2.7 0,-6.5 0.2,-12.5 0,-18.6 -0.6,-18.1 -1.2,-36.2 -1.9,-54.3 -0.5,-12.8 -0.9,-25.6 -1.5,-38.4 -0.2,-4.2 -0.3,-4.1 -4.5,-5.4 -3.5,-1 -6.9,-2.2 -10.2,-3.6 -1.5,-0.6 -3,-1.6 -4.1,-2.8 -2.7,-2.7 -2.8,-2.9 -6.3,-1.3 -21.5,9.9 -43.9,17.7 -66,26.3 -3.3,1.1 -6.5,2.8 -10.7,4.7 z"
       id="path2319"
       inkscape:connector-curvature="0" />
    <path
       d="m -508.77857,-560.83638 c 26.1,9 51.6,17.2 77.9,22.8 0.7,-1.9 1.4,-3.6 2.3,-6 1.1,1.6 1.7,2.6 2.4,3.6 1.9,-0.5 2.2,-1.5 1.6,-3.2 -0.4,-1.2 -0.5,-2.5 -0.8,-3.7 0.3,-0.1 0.5,-0.2 0.6,-0.1 3.8,3.1 7.1,1.9 11.1,-0.3 16.8,-8.9 33.8,-17.4 50.8,-26.1 5.9,-3 12.1,-3.4 18.5,-2.3 12.9,2.2 25.8,4.3 38.6,6.7 10.5,1.9 20.2,6.4 30.2,9.9 3.7,1.3 7.2,2.8 10.8,4.2 0.8,0.3 1.5,0.7 3.1,1.4 -5,0.7 -9.1,0.1 -13,-1 -5.6,-1.6 -11.2,-3.3 -16.6,-5.3 -14.6,-5.5 -29.8,-8.5 -45.3,-10.5 -1.9,-0.2 -3.9,-0.5 -5.7,-0.9 -7,-1.8 -13.5,-0.6 -19.9,2.6 -13.4,6.7 -26.9,13.3 -40.4,20 -3.4,1.7 -6.9,3.4 -10.4,5.1 0.4,0.5 0.5,0.8 0.7,0.9 9.6,2 18.1,6.8 27,10.7 10.7,4.7 21.4,9.2 32.7,12.2 10.8,2.9 19.9,8.9 28.7,16 -1.8,-0.4 -3.6,-0.6 -5.3,-1.3 -4,-1.5 -7.9,-3.2 -11.9,-4.7 -10.2,-3.7 -20.4,-7.5 -30.7,-10.9 -7.5,-2.5 -14.8,-5.4 -21.7,-9.3 -7.4,-4.1 -15.1,-7.3 -23.4,-9.3 -3,-0.8 -5.2,0.3 -7.8,2.1 2.3,0.5 4.1,0.7 5.7,1.2 2.2,0.7 3.2,2 2.7,4.1 -2.1,8.7 -0.9,17.6 -1.3,26.3 -1.2,28.9 -2,57.7 -3,86.6 -0.5,15.8 0,31.6 0.9,47.4 0.7,11 1.1,22 1.7,33 0.7,13.1 1.4,26.1 2.2,39.2 0.5,7.8 0,15.5 -0.9,23.3 -0.3,2.7 -0.4,5.4 -0.6,8.1 -0.2,2.2 0.5,3.7 2.7,4.5 12.8,5 25.5,10.1 38.3,15 7,2.7 14,5.4 21,8.1 4.5,1.7 9,3.3 13.5,4.7 4.7,1.5 9.5,2.7 14.2,4 1,0.3 1.9,0.4 3.3,0.7 -1,-88.9 4.4,-177.2 10.9,-265.4 0.3,-0.1 0.6,-0.1 0.9,-0.2 0.7,1.1 1.4,2.3 2.3,3.6 18.6,-11.4 37,-22.8 55.6,-34.2 1.4,4.1 1,5.4 -2.6,7.4 -8.4,4.6 -16.8,9.2 -25.2,13.8 -4.6,2.6 -9.2,5.4 -13.9,7.8 -4.6,2.4 -9.3,4.5 -14.3,6.9 0,1.3 0,3 0,4.7 0.5,15.4 -0.9,30.8 -2.1,46.2 -0.8,10.7 -1.3,21.5 -1.8,32.2 -1,22.6 -1.8,45.3 -2.6,67.9 -0.8,21.4 -1.6,42.7 -1.9,64.1 -0.2,15.3 0.5,30.6 0.7,45.8 0,2.9 1,5.1 4,5.9 4.1,1.2 4.6,7.2 1.3,9.9 -1.4,1.1 -3.3,1.6 -4.6,2.7 -1.3,1.1 -2.3,2.7 -3.9,4.6 -0.3,-1.8 -0.5,-2.8 -0.7,-3.9 -0.4,-2.9 -1.7,-5.2 -4.1,-6.8 -1.1,-0.7 -2.8,-1.2 -4,-0.9 -4.2,1.3 -8.2,0.5 -12.2,-0.6 -8.6,-2.4 -17,-5.6 -24.8,-9.9 -14.6,-8 -29.7,-14.7 -45.1,-20.7 -8.7,-3.4 -16.2,-8.6 -23.1,-14.8 -1.3,-1.1 -1.9,-2.4 -1.8,-4.1 0.2,-18.9 0,-37.8 0.5,-56.7 0.5,-19.4 2.1,-38.8 2.7,-58.2 1.1,-37.5 1.7,-75.1 2.6,-112.7 0.2,-10.6 0.5,-21.2 0.8,-31.9 0,-1.4 0,-2.8 0,-4.5 -5.6,-1.4 -11,-2.6 -16.3,-4 -19.1,-5.1 -38.1,-10.7 -56.2,-18.9 -2.2,-0.8 -4.3,-1.6 -5.6,-4.6 z"
       id="path2321"
       inkscape:connector-curvature="0" />
    <path
       d="m -749.57857,-539.63638 c 0,5 2.1,9.9 -0.6,14.7 -2.2,-6.3 -3,-12.8 -4.7,-20.2 4.4,2.7 7.7,1.2 11.3,0 7.5,-2.5 15.4,-3.3 23.3,-3.6 12.6,-0.4 25.1,-0.6 37.7,-1 4.4,-0.1 8.8,-0.5 13.2,-0.9 1.6,-0.2 3.5,-0.6 4.7,-1.5 4.9,-3.9 9.6,-8.1 14.8,-12.5 -2.8,-1.4 -5.2,-1.5 -7.5,-1.4 -11.9,0.4 -23.8,0.9 -35.7,1.3 -3.8,0.1 -7.5,0.5 -11.3,0.3 -8.2,-0.3 -16,1.2 -23.5,4.4 -6.7,2.8 -13.2,6.1 -19.7,9.3 -1.9,0.9 -3.6,2.4 -5.5,3.7 -0.9,-3.3 -0.6,-4.7 1.9,-6 9.8,-5.2 19.4,-10.9 30,-14.5 1.9,-0.7 4,-1.1 6.1,-1.2 17.8,-0.8 35.7,-1.6 53.6,-2.3 4,-0.2 8,0.1 11.8,1.6 3.1,1.2 5.7,0.3 8.2,-1.9 11.8,-10.5 23.7,-20.9 35.5,-31.4 3.1,-2.7 6.2,-5.5 9.3,-8.3 5.3,-4.6 11.3,-8.2 17.7,-11.2 6.9,-3.3 13.7,-6.7 20.5,-10.1 2.2,-1.1 4.3,-1.6 6.7,-1.3 13.4,1.3 26.8,2.7 40.2,3.7 11.2,0.9 22.5,1.5 33.7,1.8 16.3,0.5 32.6,0.5 49,0.8 4.8,0.1 9.2,-1.1 13.3,-3.5 13.7,-7.9 27.4,-15.8 41,-23.7 5.7,-3.3 11.2,-7 17,-10.2 3.1,-1.7 6.5,-2.9 9.8,-4.3 -0.7,-0.2 -1.7,-0.5 -2.6,-0.9 0,-0.2 -0.1,-0.5 -0.1,-0.7 1.2,-0.5 2.4,-1.2 3.7,-1.3 2.4,-0.1 4.1,-1.2 5.9,-2.6 4.3,-3.3 8.7,-6.5 12.9,-9.9 3.9,-3.1 8.3,-4.7 13.3,-4.8 10.5,-0.2 21,-0.8 31.5,-0.6 46.1,0.8 92.2,1.8 138.3,2.7 3.7,0.1 7.5,-0.1 11.3,-0.3 4.3,-0.2 7.8,-2.1 10.7,-5.4 5.3,-5.8 10.5,-11.9 17.2,-16.2 1.4,-0.9 2.4,-2.2 3.6,-3.4 2.899999,3.3 2.799999,4.9 -0.5,7.8 -5.9,5.2 -11.9,10.4 -17.9,15.5 -3,2.6 -6.2,5.1 -9.1,7.9 -2,1.9 -3.5,4.4 -5.4,6.4 -1.5,1.5 -3.3,2.8 -5.2,4 -0.5,0.3 -1.6,-0.2 -2.5,-0.4 -2.6,-0.5 -5.3,-1.6 -7.9,-1.5 -32.2,0.6 -64.5,1.2 -96.7,2.1 -18,0.5 -36,1.5 -54,1.9 -11.4,0.3 -22.8,0.2 -34.2,0.1 -4,0 -7.8,-0.2 -10.7,3.2 -0.4,0.5 -1.4,0.8 -2.1,0.9 -3.3,0.5 -6,2.2 -8.8,3.8 -24.9,14.5 -49.9,29 -74.9,43.5 -1,0.6 -1.9,1.2 -3.2,2.1 1,0.3 1.6,0.6 2.4,0.8 -2.1,2.6 -4.9,3.2 -8,3.4 -3.6,0.2 -7.2,0.3 -10.9,0.4 -25.4,0.8 -50.7,1.6 -76.1,0.3 -15.3,-0.8 -30.5,-1.1 -45.8,-1.4 -4.5,-0.1 -9.1,0.4 -13.6,0.5 -2.9,0 -5.2,1.2 -7.3,3.1 -8.2,7.5 -16.4,15.1 -24.9,22.3 -12.1,10.1 -24.5,19.9 -36.8,29.8 -1.7,1.4 -3.4,2.7 -5.3,4.2 0.6,0.8 1.1,1.5 1.9,2.6 -5.5,0.7 -10.6,1.7 -15.7,2.1 -16.4,1.2 -32.8,2 -49.2,3.1 -8.4,0.3 -16.7,2.4 -25.1,4.3 z m 411.8,-134 c 0.1,0.4 0.2,0.8 0.2,1.2 1.8,0.1 3.7,0.3 5.5,0.3 10,-0.4 19.9,-0.9 29.9,-1.2 21.3,-0.8 42.7,-1.5 64,-2.2 14.9,-0.4 29.8,-0.5 44.6,-1 16.8,-0.6 33.6,-1.8 50.3,1.6 0.9,0.2 2.2,-0.1 2.8,-0.7 1.9,-2 3.5,-4.3 5.5,-6.8 -1.2,-0.2 -1.7,-0.3 -2.2,-0.3 -29.5,-0.7 -59,-1.5 -88.5,-2.1 -27.8,-0.5 -55.7,-0.5 -83.5,-1.2 -7.7,-0.2 -14.2,1.2 -20,6.2 -2.5,2.4 -5.6,4.2 -8.6,6.2 z m -92.7,52.3 c -0.1,-0.3 -0.2,-0.5 -0.3,-0.8 -0.6,-0.1 -1.2,-0.2 -1.8,-0.2 -19.3,-0.4 -38.5,-0.7 -57.8,-1.3 -11,-0.4 -22,-1.2 -32.9,-2 -9.2,-0.7 -18.3,-1.8 -27.4,-2.6 -1.6,-0.1 -3.5,-0.1 -4.9,0.5 -7.5,3.2 -14.9,6.6 -22.3,9.9 -0.9,0.4 -1.6,1.3 -2.4,1.9 1.6,0.8 2.9,0.9 4.1,0.9 6.2,-0.1 12.4,-0.4 18.6,-0.2 23.8,0.6 47.6,1.6 71.4,2 14.2,0.2 28.5,-0.3 42.7,-0.6 1.4,0 2.9,-0.3 4,-1 3,-1.9 6,-4.3 9,-6.5 z"
       id="path2323"
       inkscape:connector-curvature="0" />
    <path
       d="m -44.178571,-696.23638 c -4.8,0.4 -9.3,0.8 -13.7,1.2 -8.4,0.7 -16.8,1.5 -25.2,2.2 -3,0.3 -5.6,1.4 -7.5,3.7 -7.9,9.7 -17.699999,17.4 -27.099999,25.5 -4.9,4.2 -9.9,8.4 -14.8,12.5 -4,3.3 -6.5,4.4 -11.3,4.9 1.1,-1.2 1.9,-2.1 2.8,-2.9 14.4,-13.1 28.7,-26.2 43.099999,-39.3 1.3,-1.2 2.8,-2.4 3.9,-3.7 3.1,-3.7 7.3,-5.5 11.9,-5.9 13.9,-1.3 27.9,-2.3 41.8,-3.4 0.2,0 0.5,0.1 0.8,0.2 -5.7,17.6 -11.5,35.1 -17.2,52.8 2.5,1.2 4.3,0.4 5.9,-0.5 7,-3.7 13.9,-7.5 20.9,-11.2 10.4,-5.5 20.7999996,-11 31.2999996,-16.3 31.6000004,-15.8 63.3000004,-31.3 94.8000004,-47.3 9.700001,-4.9 18.700001,-11.1 28.200001,-16.8 -1.9,-2.4 -3.8,-3.2 -6.3,-3.6 -21.700001,-3.7 -43.300001,-7.7 -65.000001,-11.1 -15.2,-2.4 -30.5,-4 -45.8000004,-5.8 -13.1,-1.6 -26.1999996,-3 -39.3999996,-4.3 -10.3,-1 -20.6,-1.8 -31,-2.7 -0.9,-0.1 -1.8,0 -3.4,0 0.8,1.6 1.3,2.8 2.1,3.9 7.8,11.4 15.6,22.9 23.5,34.3 0.3,0.4 0.6,0.8 0.9,1.3 3.3,4.7 1.6,8.3 -4.1,8.8 -12.1,1.1 -24.3,2 -36.4,3 -6.1,0.5 -12.1,1 -18.2,1.5 -1.2,0.1 -2.499999,-0.1 -3.999999,-0.2 0.6,-1.8 1.6,-2 2.799999,-2.1 9.8,-1 19.6,-2.2 29.4,-3 10.2,-0.9 20.4,-1.6 30.8,-2.4 -2.4,-2.5 -4.6,-4.9 -6.9,-7.3 -1.9,-1.9 -4.1,-3 -6.9,-2.9 -8,0.2 -16.1,0.1 -24.1,0.1 -2.6,0 -4.8,0.7 -6.7,2.4 -3.6,3.1 -7.2,6.3 -10.9,9.3 -1.2,1 -2.7,1.7 -4.1,2.5 -0.2,-0.2 -0.4,-0.4 -0.6,-0.7 0.5,-0.6 0.9,-1.3 1.5,-1.8 3.8,-3.6 7.6,-7.1 11.3,-10.7 2.6,-2.6 5.6,-3.9 9.4,-3.8 7,0.1 14,-0.1 21,-0.1 1.4,0 2.7,0 4.9,0 -8.2,-10.1 -13.5,-20.5 -16.4,-32.7 2.1,-0.3 3.7,-0.6 5.3,-0.7 12.8,-0.9 25.6,0.2 38.4,1.4 9.3,0.8 18.5999996,1.4 27.8999996,2 15.9000004,1.1 31.7000004,3.4 47.4000004,6 22,3.6 43.9,7.4 65.800001,11.1 0.9,0.2 1.8,0.2 2.7,0.3 5.1,0.8 7.1,-0.9 6.8,-6.3 -0.7,-0.2 -1.6,-0.6 -2.4,-0.7 -11.9,-1.8 -23.800001,-3.5 -35.700001,-5.2 -10.4,-1.5 -20.8,-2.8 -31.1,-4.4 -10.5,-1.6 -21,-3 -31.4,-5 -9,-1.7 -17.8000004,-4.5 -26.8000004,-6.2 -13.7999996,-2.6 -27.6999996,-5.4 -41.7999996,-6.1 -1.6,-0.1 -3.4,-0.4 -4.9,-1.1 -2.3,-1.1 -3.9,-0.5 -5.5,1.2 -2.9,3.1 -5.9,6.2 -8.8,9.3 -0.2,-0.2 -0.4,-0.3 -0.7,-0.5 0.4,-0.6 0.8,-1.3 1.3,-1.9 2.4,-2.9 4.9,-5.7 7.3,-8.6 2,-2.5 4.2,-3.1 7.2,-2.1 1.3,0.5 2.8,0.8 4.1,0.8 17.1,0 33.7999996,2.6 50.2999996,6.8 11.3000004,2.9 22.8000004,4.6 34.3000004,6.3 22.3,3.4 44.5,6.7 66.800001,9.9 4.6,0.7 9.3,1 13.9,1.3 7.6,0.4 11.5,3.5 7.5,12.5 0.7,0.5 1.5,1.1 2.3,1.8 -0.9,5.3 -3.8,9.3 -8.2,12.1 -7.7,4.9 -15.4,10 -23.4,14.5 -9.400001,5.2 -19.000001,10 -28.600001,14.8 -13.5,6.9 -27,13.8 -40.6,20.4 -9.9,4.8 -19.9,9.3 -29.8000004,14.1 -7,3.4 -13.8999996,7 -20.7999996,10.4 -5.5,2.8 -11.1,5.5 -16.7,8.3 -4,2.1 -8,4.2 -12,6.4 -3.2,1.8 -6.5,3.1 -10.3,2.7 -3.3,-0.4 -4.1,-1.4 -3,-4.6 3.4,-9.9 6.9,-19.8 10.5,-29.6 2.1,-5.8 4.4,-11.6 6.6,-17.4 -0.2,-0.3 -0.1,-0.8 0.1,-1.6 z"
       id="path2325"
       inkscape:connector-curvature="0" />
    <path
       d="m -568.37857,-590.73638 c -6,3.5 -12.9,7.6 -19.8,11.7 -3.1,1.9 -6,4 -9.2,5.9 -10.7,6.4 -20.7,13.8 -29.2,23 -1.7,1.8 -3.6,3.3 -5.3,5.1 -6.2,6.3 -13.9,9.2 -22.5,10 -11,1 -21.9,2.4 -32.8,3.5 -4.2,0.4 -8.5,0.5 -12.8,0.5 -10.3,0.1 -20.4,1.1 -30.5,2.9 -3.5,0.6 -6.9,2.1 -10.3,3.3 -2.1,0.7 -4,1.1 -6,-1 0.9,-0.7 1.7,-1.4 2.7,-1.9 9.9,-4.8 20.2,-7.6 31.4,-7.4 15.2,0.2 30.3,-0.7 45.2,-3.6 2.9,-0.6 5.9,-0.9 8.9,-0.9 10.4,-0.2 18.9,-4.5 26.4,-11.5 4.6,-4.3 9.4,-8.5 14.3,-12.5 12.7,-10.5 26.2,-19.8 40.7,-27.7 1.8,-1 3.5,-2.2 5.2,-3.4 2,-1.5 4.3,-2.2 6.6,-1.3 10.9,4.4 22.4,3.6 33.7,4.1 20.4,0.8 40.9,1.2 61.4,1.9 13.3,0.4 26.7,1 40,1.7 4.6,0.3 8.3,-1 11.6,-4.2 1.9,-1.9 4.2,-3.5 6.5,-4.8 12,-6.8 23.1,-14.7 34,-23.1 6,-4.7 12.6,-8.7 19.1,-12.7 8,-5 16.3,-9.6 24.4,-14.4 2.5,-1.5 5.1,-2.2 8.1,-2.3 54,-2 108,-1.5 162,-1.5 2.7,0 5.4,0 8.2,0.3 1.4,0.1 2.8,0.5 4.1,1 1.2,0.5 2.2,1.3 1.8,3 -0.5,1.6 -1.4,2.4 -3.1,2.5 -0.5,0 -1,-0.1 -1.5,-0.1 -3.5,-0.3 -6.9,-0.8 -10.4,-0.8 -41.2,-0.1 -82.4,-0.3 -123.6,-0.2 -12.4,0 -24.8,0.8 -37.3,1.4 -1.9,0.1 -3.8,0.8 -5.5,1.7 -8.8,4.9 -17.6,9.9 -26.3,14.9 -7.4,4.2 -14.3,9.3 -21.2,14.4 -7.1,5.3 -14.7,10.2 -22.1,15.1 -5.4,3.5 -11,6.7 -15.7,11.3 -3,2.9 -6.9,4 -11.1,3.8 -34.7,-1.2 -69.4,-2.4 -104,-3.6 -8.8,-0.3 -17.6,-0.1 -26.3,-1.7 -3.2,-0.7 -6,-1.5 -9.8,-2.4 z"
       id="path2327"
       inkscape:connector-curvature="0" />
    <path
       d="m -265.37857,-256.83638 c 1.8,3.6 1.8,4.2 -0.7,6.2 -3.7,3 -7.6,5.8 -11.4,8.7 -5.5,4.3 -11.1,8.5 -16.6,12.8 -4.2,3.3 -8.9,5 -14,6.1 -0.2,-0.2 -0.3,-0.5 -0.5,-0.7 3.6,-2.7 7.3,-5.3 10.9,-8 3.6,-2.7 7.3,-5.4 10.9,-8.2 3.7,-2.8 7.7,-5.4 11,-8.7 3.2,-3.1 8.4,-3.5 10.4,-8.2 z"
       id="path2329"
       inkscape:connector-curvature="0" />
    <path
       class="st0"
       d="m -148.17857,-146.53638 c -1.9,-0.9 -3.1,-1.4 -4.1,-2 -5.6,-3.3 -11.1,-6.7 -16.7,-9.9 -4.4,-2.5 -8.8,-4.9 -13.3,-7.1 -15.9,-8 -32,-15.9 -47.8,-24.1 -3.8,-1.9 -7.1,-4.7 -10.5,-7.2 -2.1,-1.5 -3,-3.8 -3,-6.4 -0.9,-32.4 -1.4,-64.8 -0.4,-97.1 0.7,-23.3 2.1,-46.6 2.6,-69.9 0.5,-23.6 0.3,-47.1 0.3,-70.7 0.1,-26.8 -0.4,-53.6 0.2,-80.4 0.4,-17.4 2.1,-34.9 3.7,-52.3 0.4,-3.9 2.7,-7.7 4.2,-11.6 9.6,1.7 18.7,3.4 27.2,7.6 3,1.5 6.2,2.7 9.3,3.9 18.3,7.1 36.6,14.3 55,21.3 2.4,0.9 4.9,1.8 7.3,2.5 2.1,0.6 4.3,0.8 7.1,-0.7 -1.5,-0.7 -2.4,-1.2 -3.4,-1.7 -3.5,-1.6 -7.2,-2.9 -10.6,-4.7 -10.1,-5.3 -20.7,-9.5 -31.3,-13.5 -11,-4.1 -21.9,-8.5 -33,-12.6 -5.7,-2.1 -11.5,-3.8 -17.3,-5.6 -1.2,-0.4 -2.4,-0.7 -4.3,-1.2 1.1,-0.5 1.5,-0.7 1.9,-0.9 15.8,-6.2 31.6,-12.4 47.3,-18.6 2.9,-1.1 5.7,-2.6 8.4,-4 4.1,-2.1 8.2,-2.4 12.4,-0.7 21.2,9 43.6,13.6 65.999999,18.7 8.2,1.9 16.2,4.3 24.3,6.6 7.3,2.1 14.6,4.3 22.1,6.5 -0.7,1.5 -2.4,2.2 -4.1,2.3 -7,0.8 -13.5,3.1 -19.9,6.1 -4.9,2.3 -10.1,3.9 -15.3,5.5 -14.1,4.4 -26.099999,12.4 -37.299999,21.7 -1,0.8 -2,1.6 -3.2,2.6 -0.7,-1.5 -1.4,-2.9 -2,-4.2 -0.2,0 -0.4,0 -0.7,0.1 -0.4,3.7 -1.1,7.3 -1.3,11 -0.4,9.1 -0.8,18.1 -0.8,27.2 0.2,23.3 -1.2,46.6 -2.3,69.9 -0.6,12.8 -0.5,25.6 -1.2,38.4 -0.9,15.4 -2.2,30.7 -3.4,46.1 -0.7,9.4 -1.8,18.8 -2.5,28.2 -1.3,18.1 -2.7,36.1 -3.8,54.2 -0.8,14 -1.3,27.9 -1.9,41.9 -0.7,15.8 -1.3,31.6 -2,47.3 -0.3,7.6 -0.5,15.3 -0.9,22.9 -0.2,4.6 -0.7,9.2 -1,14.6 z"
       id="path2331"
       inkscape:connector-curvature="0"
       style="fill:#ffffff" />
    <path
       class="st0"
       d="m -706.77857,-468.53638 c 4.2,-1.9 7.4,-3.6 10.8,-4.9 22.1,-8.6 44.4,-16.3 66,-26.3 3.5,-1.6 3.5,-1.4 6.3,1.3 1.2,1.2 2.6,2.2 4.1,2.8 3.3,1.4 6.8,2.6 10.2,3.6 4.2,1.3 4.4,1.2 4.5,5.4 0.5,12.8 1,25.6 1.5,38.4 0.7,18.1 1.3,36.2 1.9,54.3 0.2,6.1 0,12.1 0,18.6 -4.6,-2.7 -7.7,-0.1 -11.3,2.7 -6.8,5.3 -13.9,10.2 -21.7,15.8 0,-2.1 0,-3.5 0,-4.8 -0.1,-17 -0.1,-33.9 -0.3,-50.9 0,-4.5 -0.6,-9 -3.2,-13.7 -1,3.8 -0.6,7 -0.7,10.3 -0.1,3.2 -0.1,6.5 -0.1,9.7 -0.1,3.4 -0.3,6.7 -0.4,10.1 -0.1,3.4 0,6.7 -0.1,10.1 0,3.4 -0.1,6.7 -0.1,10.1 0,3.2 -0.1,6.5 -0.1,9.7 -0.1,3.3 -0.1,6.6 -0.2,10.5 -1.4,-0.7 -2.2,-1 -2.9,-1.5 -13.9,-10 -29.2,-17.6 -44.5,-25.3 -4.5,-2.3 -8.9,-4.8 -13.4,-7 -4.5,-2.2 -7.6,-5.8 -10.6,-9.5 -0.8,-1 -1.2,-2.6 -1.2,-3.9 0.3,-13.6 0.8,-27.2 1.2,-40.8 0.2,-6.1 0.4,-12.2 1.9,-18.1 0.1,-0.5 0.3,-1 0.6,-2 25.1,12.9 50,25.7 75,38.6 1.1,-1.3 0.5,-2.3 -0.3,-3.1 -2,-2 -4,-4.1 -6.3,-5.8 -2.8,-2 -5.9,-3.7 -9,-5.3 -14.1,-7.1 -28.3,-14 -42.4,-21.1 -5,-2.2 -9.6,-4.9 -15.2,-8 z m 74.8,41.2 c 8.1,-5 17.2,-7.2 24.3,-14.7 -2,0.1 -3.3,-0.2 -4.3,0.3 -6,3.2 -12,6.6 -18,10 -1.4,0.8 -2.3,1.9 -2,4.4 z"
       id="path2333"
       inkscape:connector-curvature="0"
       style="fill:#ffffff" />
    <path
       class="st0"
       d="m -337.77857,-673.63638 c 2.9,-2 6.1,-3.8 8.8,-6.2 5.8,-5.1 12.3,-6.4 20,-6.2 27.8,0.7 55.7,0.7 83.5,1.2 29.5,0.6 59,1.4 88.5,2.1 0.5,0 1,0.1 2.2,0.3 -2,2.5 -3.6,4.8 -5.5,6.8 -0.6,0.6 -1.9,0.9 -2.8,0.7 -16.7,-3.4 -33.5,-2.2 -50.3,-1.6 -14.9,0.5 -29.8,0.6 -44.6,1 -21.3,0.6 -42.7,1.4 -64,2.2 -10,0.4 -19.9,0.9 -29.9,1.2 -1.8,0.1 -3.7,-0.2 -5.5,-0.3 -0.2,-0.4 -0.3,-0.8 -0.4,-1.2 z"
       id="path2335"
       inkscape:connector-curvature="0"
       style="fill:#ffffff" />
    <path
       class="st0"
       d="m -430.47857,-621.33638 c -3,2.2 -5.9,4.5 -9,6.6 -1.1,0.7 -2.7,1 -4,1 -14.2,0.3 -28.5,0.8 -42.7,0.6 -23.8,-0.4 -47.6,-1.4 -71.4,-2 -6.2,-0.2 -12.4,0.2 -18.6,0.2 -1.2,0 -2.5,-0.1 -4.1,-0.9 0.8,-0.6 1.5,-1.5 2.4,-1.9 7.4,-3.4 14.8,-6.8 22.3,-9.9 1.5,-0.6 3.3,-0.6 4.9,-0.5 9.1,0.8 18.3,1.9 27.4,2.6 11,0.9 21.9,1.7 32.9,2 19.3,0.6 38.5,0.9 57.8,1.3 0.6,0 1.2,0.1 1.8,0.2 0.1,0.2 0.2,0.5 0.3,0.7 z"
       id="path2337"
       inkscape:connector-curvature="0"
       style="fill:#ffffff" />
    <path
       d="m -631.97857,-427.33638 c -0.3,-2.5 0.6,-3.6 2,-4.4 6,-3.3 11.9,-6.7 18,-10 0.9,-0.5 2.3,-0.2 4.3,-0.3 -7.1,7.6 -16.2,9.8 -24.3,14.7 z"
       id="path2339"
       inkscape:connector-curvature="0" />
  </g>
</svg>
