<?xml version="1.0" encoding="UTF-8" standalone="no"?>
<!-- Created with Inkscape (http://www.inkscape.org/) -->

<svg
   xmlns:dc="http://purl.org/dc/elements/1.1/"
   xmlns:cc="http://creativecommons.org/ns#"
   xmlns:rdf="http://www.w3.org/1999/02/22-rdf-syntax-ns#"
   xmlns:svg="http://www.w3.org/2000/svg"
   xmlns="http://www.w3.org/2000/svg"
   xmlns:sodipodi="http://sodipodi.sourceforge.net/DTD/sodipodi-0.dtd"
   xmlns:inkscape="http://www.inkscape.org/namespaces/inkscape"
   width="174.53741mm"
   height="127.10051mm"
   viewBox="0 0 618.43966 450.35613"
   id="svg6431"
   version="1.1"
   inkscape:version="0.91 r13725"
   sodipodi:docname="scratch.svg">
  <defs
     id="defs6433" />
  <sodipodi:namedview
     id="base"
     pagecolor="#ffffff"
     bordercolor="#666666"
     borderopacity="1.0"
     inkscape:pageopacity="0.0"
     inkscape:pageshadow="2"
     inkscape:zoom="0.35"
     inkscape:cx="-499.43513"
     inkscape:cy="59.481285"
     inkscape:document-units="px"
     inkscape:current-layer="layer1"
     showgrid="false"
     fit-margin-top="0"
     fit-margin-left="0"
     fit-margin-right="0"
     fit-margin-bottom="0"
     inkscape:window-width="1280"
     inkscape:window-height="1000"
     inkscape:window-x="0"
     inkscape:window-y="24"
     inkscape:window-maximized="1" />
  <metadata
     id="metadata6436">
    <rdf:RDF>
      <cc:Work
         rdf:about="">
        <dc:format>image/svg+xml</dc:format>
        <dc:type
           rdf:resource="http://purl.org/dc/dcmitype/StillImage" />
        <dc:title></dc:title>
      </cc:Work>
    </rdf:RDF>
  </metadata>
  <g
     inkscape:label="Layer 1"
     inkscape:groupmode="layer"
     id="layer1"
     transform="translate(-874.43513,-141.48734)">
    <path
       style="opacity:1;fill:#ff0000;fill-opacity:1;stroke:none;stroke-width:7.05000019;stroke-miterlimit:4;stroke-dasharray:none;stroke-opacity:1"
       id="path6485"
       d="m 874.43513,545.33353 c 2.38503,-2.29162 4.68788,-4.67197 7.15508,-6.87488 9.50082,-8.48307 20.34305,-17.06157 30.31142,-24.75441 32.56843,-25.1339 66.37111,-48.53882 100.01077,-72.20078 71.6961,-49.83573 143.6135,-99.37211 216.8745,-146.89186 36.789,-23.86269 65.7407,-41.86791 102.5864,-65.00557 33.9613,-21.41526 68.3654,-42.11536 102.4664,-63.30454 12.6895,-7.88483 25.4189,-15.5914 37.1792,-24.81415 0,0 21.8559,2.04391 21.8559,2.04391 l 0,0 c -12.8018,9.01916 -26.3577,16.78112 -39.8329,24.75236 -35.2292,20.83991 -70.5805,41.47818 -105.4163,62.97605 -39.1739,24.17641 -64.5617,39.59226 -103.7239,64.85203 -72.9515,47.05404 -144.263,96.5794 -214.9019,147.02127 -32.65525,23.67011 -65.46579,47.07685 -96.89426,72.37439 -9.80534,7.89256 -19.63206,16.02561 -28.81328,24.6724 -2.26613,2.13422 -4.36326,4.44105 -6.54489,6.66157 0,0 -22.31224,-1.50779 -22.31224,-1.50779 z"
       inkscape:connector-curvature="0" />
    <path
       style="opacity:1;fill:#ff0000;fill-opacity:1;stroke:none;stroke-width:7.05000019;stroke-miterlimit:4;stroke-dasharray:none;stroke-opacity:1"
       id="path6487"
       d="m 948.20724,170.51526 c 23.66799,26.5259 45.45437,54.62604 69.50856,80.83193 9.2879,10.11872 18.8706,19.96284 28.3058,29.94426 64.1007,65.65414 133.7804,125.47443 201.4663,187.33144 38.3951,34.94148 74.7755,71.9506 111.4313,108.67427 9.477,9.31663 5.2129,4.99886 12.8533,12.89285 0,0 -21.979,1.65348 -21.979,1.65348 l 0,0 c -7.0873,-7.88861 -3.1053,-3.56139 -12.0216,-12.9116 -35.2178,-37.18596 -70.8491,-73.97486 -108.4353,-108.8044 -67.2895,-62.32562 -136.7191,-122.40452 -201.4416,-187.44992 -9.6616,-9.98265 -19.4486,-19.84554 -28.98493,-29.94796 -24.82255,-26.29597 -47.3566,-54.72287 -73.07766,-80.13358 0,0 22.37483,-2.08077 22.37483,-2.08077 z"
       inkscape:connector-curvature="0" />
  </g>
</svg>
